<?xml version="1.0" encoding="UTF-8" standalone="no"?>
<!-- Generator: Adobe Illustrator 17.1.0, SVG Export Plug-In . SVG Version: 6.00 Build 0)  -->

<svg
   xmlns:dc="http://purl.org/dc/elements/1.1/"
   xmlns:cc="http://creativecommons.org/ns#"
   xmlns:rdf="http://www.w3.org/1999/02/22-rdf-syntax-ns#"
   xmlns:svg="http://www.w3.org/2000/svg"
   xmlns="http://www.w3.org/2000/svg"
   xmlns:sodipodi="http://sodipodi.sourceforge.net/DTD/sodipodi-0.dtd"
   xmlns:inkscape="http://www.inkscape.org/namespaces/inkscape"
   version="1.1"
   id="flip_switch"
   x="0px"
   y="0px"
   viewBox="0 0 500 500"
   enable-background="new 0 0 500 500"
   xml:space="preserve"
   inkscape:version="0.48.4 r9939"
   width="100%"
   height="100%"
   sodipodi:docname="logo-flipswitch.svg"><metadata
   id="metadata3195"><rdf:RDF><cc:Work
       rdf:about=""><dc:format>image/svg+xml</dc:format><dc:type
         rdf:resource="http://purl.org/dc/dcmitype/StillImage" /><dc:title></dc:title></cc:Work></rdf:RDF></metadata><defs
   id="defs3193" /><sodipodi:namedview
   pagecolor="#ffffff"
   bordercolor="#666666"
   borderopacity="1"
   objecttolerance="10"
   gridtolerance="10"
   guidetolerance="10"
   inkscape:pageopacity="0"
   inkscape:pageshadow="2"
   inkscape:window-width="1800"
   inkscape:window-height="1058"
   id="namedview3191"
   showgrid="false"
   inkscape:zoom="0.472"
   inkscape:cx="196.47372"
   inkscape:cy="250"
   inkscape:window-x="112"
   inkscape:window-y="-8"
   inkscape:window-maximized="1"
   inkscape:current-layer="layer1" />



<g
   inkscape:groupmode="layer"
   id="layer1"
   inkscape:label="Layer"
   style="display:inline"><g
     transform="matrix(0.73186712,0,0,0.73186712,-210.85321,-348.17694)"
     id="g3302"><path
       style="fill:#bb762a"
       inkscape:connector-curvature="0"
       d="m 363.6,667.2 v -4 -83.9 h 14.5 c 6.7,0 11.7,1.9 14.9,5.7 3.1,3.8 4.6,9.6 4.5,17.2 0,7.6 -1.5,13.3 -4.5,17.1 -0.7,0.8 -1.4,1.6 -2.2,2.2 -0.8,0.6 -1.7,1.2 -2.6,1.7 1.8,0.8 3.5,2.1 4.9,3.8 3.1,3.8 4.6,9.6 4.6,17.2 0,7.7 -1.5,13.4 -4.6,17.2 -3.2,3.8 -8.2,5.7 -14.9,5.7 h -10.3 -4.3 z m 4.2,-46 h 10.3 c 5.4,0 9.2,-1.5 11.6,-4.5 2.4,-3 3.6,-7.8 3.7,-14.5 0,-6.8 -1.2,-11.7 -3.5,-14.6 -2.4,-2.9 -6.3,-4.4 -11.7,-4.4 h -10.3 v 38 z m 0,41.9 h 10.3 c 5.5,0 9.4,-1.5 11.7,-4.4 2.4,-2.9 3.5,-7.8 3.5,-14.6 0,-6.8 -1.2,-11.6 -3.7,-14.6 -2.3,-3 -6.2,-4.4 -11.6,-4.4 h -10.3 v 38 z"
       id="path3304" /><path
       style="fill:#bb762a"
       inkscape:connector-curvature="0"
       d="m 406.4,667.2 6.9,-30.5 v -0.4 l 13.3,-57 h 3.3 l 20.1,87.9 h -4.2 l -6.2,-26.9 h -23.1 l -5.9,26.9 h -4.2 z m 11.3,-30.9 h 21.1 l -10.5,-45.9 -10.6,45.9 z"
       id="path3306" /><path
       style="fill:#bb762a"
       inkscape:connector-curvature="0"
       d="m 457.7,667 v -87.9 h 15.8 c 7.1,0 12.3,1.9 15.5,5.7 3.3,3.8 4.9,9.7 4.9,17.7 0,7.8 -1.6,13.6 -4.8,17.5 -1.4,1.7 -3.1,3 -5.2,4 1.7,0.8 3.1,1.8 4.5,3.1 3.9,3.7 5.9,8.9 5.9,15.5 V 667 H 490 v -24.4 c 0,-5.3 -1.4,-9.4 -4.3,-12.3 -2.9,-2.9 -6.9,-4.4 -12.1,-4.4 h -1.9 -9.8 V 667 h -4.2 z m 4.2,-45.3 h 9.8 1.9 c 5.8,0 9.9,-1.5 12.4,-4.4 2.6,-3.1 3.9,-8.1 3.9,-14.9 0,-6.9 -1.2,-11.8 -3.7,-14.7 -2.5,-2.9 -6.7,-4.4 -12.5,-4.4 H 462 v 38.4 z"
       id="path3308" /><path
       style="fill:#bb762a"
       inkscape:connector-curvature="0"
       d="m 503.1,667 v -87.9 h 15.8 c 7.1,0 12.3,1.9 15.5,5.7 3.3,3.8 4.9,9.7 4.9,17.7 0,7.8 -1.6,13.6 -4.8,17.5 -1.4,1.7 -3.1,3 -5.2,4 1.7,0.8 3.1,1.8 4.5,3.1 3.9,3.7 5.9,8.9 5.9,15.5 V 667 h -4.2 v -24.4 c 0,-5.3 -1.4,-9.4 -4.3,-12.3 -2.9,-2.9 -6.9,-4.4 -12.1,-4.4 h -1.9 -9.8 V 667 h -4.3 z m 4.2,-45.3 h 9.8 1.9 c 5.8,0 9.9,-1.5 12.4,-4.4 2.6,-3.1 3.9,-8.1 3.9,-14.9 0,-6.9 -1.2,-11.8 -3.7,-14.7 -2.5,-2.9 -6.7,-4.4 -12.5,-4.4 h -11.7 v 38.4 z"
       id="path3310" /><path
       style="fill:#bb762a"
       inkscape:connector-curvature="0"
       d="m 548.2,667.2 v -87.9 h 31.6 v 4 h -27.4 v 37.9 h 27.4 v 4 h -27.4 v 38 h 27.4 v 4 h -31.6 z"
       id="path3312" /><path
       style="fill:#bb762a"
       inkscape:connector-curvature="0"
       d="m 586.9,667.2 v -87.9 h 4.2 v 83.9 h 29.5 v 4 h -33.7 z"
       id="path3314" /><path
       style="fill:#bb762a"
       inkscape:connector-curvature="0"
       d="m 635.6,602.5 c 0,-6.6 1.5,-12.1 4.6,-16.4 3.5,-4.7 8.2,-7.1 14.3,-7 6.2,0 10.9,2 14.3,6.1 3.2,3.9 4.7,9.6 4.7,17.2 v 2.1 h -4.2 v -2.1 c 0,-6.6 -1.3,-11.5 -3.8,-14.7 -2.3,-3 -6,-4.4 -10.9,-4.4 -4.7,0 -8.3,1.8 -10.8,5.4 -2.6,3.6 -3.9,8.2 -3.9,13.8 0,3.1 0.5,5.8 1.6,8 1,2.2 2.3,4 3.8,5.5 1.5,1.5 3.1,2.7 4.8,3.5 1.7,0.9 3.1,1.6 4.4,2.1 l 2.1,1 c 1.1,0.4 2.7,1.1 4.6,2 1.9,0.9 3.8,2.2 5.6,3.9 1.8,1.7 3.4,3.9 4.8,6.5 1.3,2.6 2,5.8 2,9.6 0,6.5 -1.6,11.8 -4.7,15.9 -3.4,4.4 -8.2,6.6 -14.3,6.6 -6.3,0 -11,-2 -14.1,-6 -3.2,-3.7 -4.7,-9.5 -4.7,-17.3 v -1.9 h 4.2 v 1.9 c 0,4.3 0.5,7.8 1.4,10.4 1,2.6 2.2,4.5 3.6,5.8 1.4,1.3 3,2.1 4.8,2.5 1.8,0.4 3.4,0.6 4.9,0.6 4.7,0 8.3,-1.6 10.9,-4.9 2.6,-3.2 3.8,-7.8 3.8,-13.6 0,-3.1 -0.5,-5.8 -1.6,-7.9 -1.1,-2.1 -2.4,-3.9 -3.9,-5.3 -1.5,-1.4 -3.1,-2.5 -4.8,-3.3 -1.7,-0.8 -3,-1.4 -4,-1.8 l -2.2,-0.9 c -1.3,-0.5 -2.9,-1.3 -4.9,-2.3 -2,-1 -3.8,-2.4 -5.6,-4.2 -1.8,-1.8 -3.4,-4 -4.7,-6.7 -1.5,-2.6 -2.1,-5.9 -2.1,-9.7 z"
       id="path3316" /><path
       style="fill:#bb762a"
       inkscape:connector-curvature="0"
       d="m 680.9,667.2 v -87.9 h 4.2 v 42 h 26.6 v -42 h 4.2 v 87.9 h -4.2 v -41.9 h -26.6 v 41.9 h -4.2 z"
       id="path3318" /><path
       style="fill:#bb762a"
       inkscape:connector-curvature="0"
       d="m 732,667.2 v -87.9 h 4.2 v 87.9 H 732 z"
       id="path3320" /><path
       style="fill:#bb762a"
       inkscape:connector-curvature="0"
       d="m 753.1,667.2 v -87.9 h 29.3 v 4 h -25.1 v 37.9 h 20.6 v 4 h -20.6 v 42 h -4.2 z"
       id="path3322" /><path
       style="fill:#bb762a"
       inkscape:connector-curvature="0"
       d="m 786.4,583.3 v -4.2 h 28 v 4.2 h -12 V 667 h -4.2 v -83.7 h -11.8 z"
       id="path3324" /><path
       style="fill:#bb762a"
       inkscape:connector-curvature="0"
       d="M 823.4,667.2 V 579.3 H 855 v 4 h -27.4 v 37.9 H 855 v 4 h -27.4 v 38 H 855 v 4 h -31.6 z"
       id="path3326" /><path
       style="fill:#bb762a"
       inkscape:connector-curvature="0"
       d="m 863.1,667 v -87.9 h 15.8 c 7.1,0 12.3,1.9 15.5,5.7 3.3,3.8 4.9,9.7 4.9,17.7 0,7.8 -1.6,13.6 -4.8,17.5 -1.4,1.7 -3.1,3 -5.2,4 1.7,0.8 3.1,1.8 4.5,3.1 3.9,3.7 5.9,8.9 5.9,15.5 V 667 h -4.2 v -24.4 c 0,-5.3 -1.4,-9.4 -4.3,-12.3 -2.9,-2.9 -6.9,-4.4 -12.1,-4.4 h -1.9 -9.8 V 667 h -4.3 z m 4.2,-45.3 h 9.8 1.9 c 5.8,0 9.9,-1.5 12.4,-4.4 2.6,-3.1 3.9,-8.1 3.9,-14.9 0,-6.9 -1.2,-11.8 -3.7,-14.7 -2.5,-2.9 -6.7,-4.4 -12.5,-4.4 h -11.7 v 38.4 z"
       id="path3328" /><g
       id="g3330"><path
         style="fill:#bb762a"
         inkscape:connector-curvature="0"
         d="m 534.8,706.5 h 20.9 v 151.3 h 8.2 V 826 c -1.1,-1 -1.7,-2.4 -1.7,-4 0,-1.6 0.7,-3 1.7,-4 V 698.1 h -32.8 c 1.5,2.6 2.7,5.4 3.7,8.4 z"
         id="path3332" /><path
         style="fill:#bb762a"
         inkscape:connector-curvature="0"
         d="m 591.7,775.1 h -2.8 -19.3 v 41.6 c 2.2,0.8 3.8,2.8 3.8,5.2 0,2.4 -1.6,4.5 -3.8,5.2 v 30.6 h 8.2 v -74.2 h 2.8 11.1 c 14.8,0 22.1,7.6 22.1,22.8 v 51.3 h 8.5 v -51.3 c 0,-10 -2.7,-17.8 -8,-23.2 -5.3,-5.3 -12.8,-8 -22.6,-8 z"
         id="path3334" /><path
         style="fill:#bb762a"
         inkscape:connector-curvature="0"
         d="m 512.5,688.6 c -4.9,-2.9 -11.6,-4.4 -20,-4.4 -8.4,0 -15.1,1.5 -20,4.4 -4.9,2.9 -8.6,6 -11.2,9.1 -6.6,8.5 -9.8,20.3 -9.8,35.5 v 74.5 c 0,15.5 3.3,27.3 9.8,35.4 2.5,3.1 6.2,6.2 11.1,9.3 4.9,3.1 11.6,4.6 20,4.6 4.3,0 8.1,-0.4 11.3,-1.3 3.3,-0.9 6.2,-2 8.8,-3.3 2.6,-1.3 4.8,-2.8 6.6,-4.5 1.8,-1.7 3.4,-3.3 4.6,-4.8 6.6,-8.1 9.8,-19.9 9.8,-35.4 v -74.5 c 0,-15.2 -3.3,-27 -9.8,-35.5 -2.6,-3.1 -6.3,-6.1 -11.2,-9.1 z m 15.8,42.7 c 0,2.1 -1.2,4 -3,4.9 v 71.6 c 0,13.3 -2.7,23.3 -8.2,30.2 -5.7,7.2 -13.9,10.8 -24.6,10.8 -10.6,0 -18.9,-3.6 -24.7,-10.8 -2.5,-3.1 -4.3,-6.9 -5.7,-11.3 -2.3,-0.7 -4,-2.8 -4,-5.3 0,-1.7 0.8,-3.2 2,-4.3 -0.3,-2.9 -0.5,-6 -0.5,-9.3 v -74.5 c -0.1,-13.3 2.6,-23.5 8.1,-30.3 5.6,-7 13.9,-10.5 24.6,-10.5 10.8,0 19,3.5 24.6,10.5 4.5,5.6 7.1,13.4 7.9,23.2 2.1,0.9 3.5,2.8 3.5,5.1 z"
         id="path3336" /><path
         style="fill:#bb762a"
         inkscape:connector-curvature="0"
         d="m 399.3,684.2 h -35.8 v 8.2 h 8.2 5.2 22.4 c 12.2,0 21.2,3.3 27,9.8 4.9,5.5 7.7,13.5 8.5,24 1.9,0.9 3.1,2.8 3.1,5 0,2.1 -1.2,4 -3,4.9 -0.5,12.2 -3.3,21.2 -8.6,27.2 -5.8,6.6 -14.8,9.8 -27,9.8 h -22 v 43.1 c 1.8,0.9 3.1,2.8 3.1,5 0,2.2 -1.3,4.1 -3.1,5 V 857 h 8.2 v -75.4 h 13.7 c 14.9,0.1 26,-4.2 33.5,-12.9 7,-8.2 10.5,-20.2 10.5,-36 0,-15.8 -3.5,-27.7 -10.5,-35.6 -7.3,-8.6 -18.5,-12.9 -33.4,-12.9 z"
         id="path3338" /><path
         style="fill:#bb762a"
         inkscape:connector-curvature="0"
         d="m 429.4,726.6 c -0.7,-9.2 -3,-16.1 -7,-20.7 -4.7,-5.3 -12.4,-8 -23,-8 h -22 v 69.7 h 22 c 10.7,0 18.4,-2.7 23.2,-8.2 4.3,-5 6.6,-12.8 7,-23.4 -1.6,-1 -2.7,-2.7 -2.7,-4.8 0,-1.9 1,-3.6 2.5,-4.6 z m -13.3,27.5 c -0.6,0.8 -2,1.9 -4.2,3.3 -2.2,1.4 -6.4,2.1 -12.5,2.1 h -13.7 v -53.2 h 13.7 c 3.6,0 6.8,0.3 9.5,1 2.7,0.7 5,2 6.8,3.9 1.8,1.9 3.2,4.6 4.1,8 1,3.4 1.4,7.9 1.4,13.6 0.1,10.2 -1.7,17.4 -5.1,21.3 z"
         id="path3340" /><path
         style="fill:#bb762a"
         inkscape:connector-curvature="0"
         d="m 517.1,731.3 c 0,-1.8 0.9,-3.4 2.3,-4.5 -0.7,-9 -2.9,-15.8 -6.7,-20.4 -4.3,-5.6 -11,-8.5 -20.3,-8.5 -9.2,0 -16,2.8 -20.1,8.5 -4.7,5.6 -7,14.6 -7,26.8 v 74.5 c 0,3 0.1,5.8 0.4,8.4 2.1,0.8 3.6,2.8 3.6,5.2 0,1.6 -0.6,3 -1.7,4 3.7,11.9 12,17.8 24.9,17.8 18.1,0 27.2,-11.8 27.2,-35.4 V 736 c -1.6,-1 -2.6,-2.7 -2.6,-4.7 z m -5.7,76.4 c 0,6.9 -0.7,12.1 -2,15.8 -1.3,3.7 -3,6.3 -5,8 -2,1.6 -4.1,2.6 -6.4,2.9 -2.2,0.3 -4.1,0.5 -5.6,0.5 -1.7,0 -3.6,-0.2 -5.7,-0.5 -2.1,-0.3 -4.2,-1.3 -6.2,-2.9 -2.1,-1.6 -3.7,-4.3 -5,-8 -1.3,-3.7 -1.9,-8.9 -1.9,-15.8 v -74.5 c 0,-6.8 0.6,-12 1.9,-15.7 1.3,-3.7 3,-6.3 5,-8 2.1,-1.6 4.1,-2.6 6.2,-2.9 2.1,-0.3 4,-0.5 5.7,-0.5 1.6,0 3.5,0.2 5.7,0.5 2.2,0.3 4.3,1.3 6.3,2.9 2,1.6 3.7,4.3 5,8 1.3,3.7 2,8.9 2,15.6 v 74.6 z"
         id="path3342" /><path
         style="fill:#bb762a"
         inkscape:connector-curvature="0"
         d="m 369.4,821.3 c 0,-1.9 1,-3.6 2.4,-4.6 V 698 h -8.2 v 159 h 8.2 v -31 c -1.5,-1.1 -2.4,-2.8 -2.4,-4.7 z"
         id="path3344" /><path
         style="fill:#bb762a"
         inkscape:connector-curvature="0"
         d="m 623,772.5 c 0.5,-0.3 0.9,-0.7 1.3,-1.2 0.4,-0.5 0.7,-0.9 1.1,-1.2 6.9,-8.3 10.4,-20.5 10.4,-36.5 0,-16.2 -3.5,-28.3 -10.4,-36.3 -7.5,-8.8 -18.8,-13.2 -33.7,-13.2 h -74.8 c 0,0 0,0 0,0 4.6,2.7 8.1,5.6 10.6,8.5 h 36.4 2.8 25 c 12.4,0 21.5,3.4 27.3,10.1 4.3,5.1 7,12.3 8,21.8 1.8,0.9 3.1,2.8 3.1,5 0,2 -1,3.7 -2.6,4.7 -0.1,20.5 -6.7,33.3 -19.8,38.3 3.8,1.7 7.1,3.8 9.9,6.4 6.7,6.8 10.1,15.9 10.1,27.6 v 51.3 h 8.5 v -51.3 c 0,-7.2 -1.1,-13.7 -3.4,-19.3 -2.3,-5.7 -5.5,-10.6 -9.8,-14.7 z"
         id="path3346" /><path
         style="fill:#bb762a"
         inkscape:connector-curvature="0"
         d="m 754.8,782.2 h 39.4 v -8.5 h -17.4 c -1,1.6 -2.7,2.6 -4.7,2.6 -2,0 -3.7,-1 -4.7,-2.6 H 746.5 V 817 c 1.8,0.9 3.1,2.8 3.1,4.9 0,2.2 -1.2,4 -3.1,4.9 v 17 h 68.2 v -8.2 h -60 v -53.4 z"
         id="path3348" /><path
         style="fill:#bb762a"
         inkscape:connector-curvature="0"
         d="m 621.4,724.9 c -0.9,-8.1 -3.1,-14.3 -6.6,-18.6 -4.7,-5.5 -12.4,-8.2 -23.1,-8.2 h -22.1 v 71.4 h 19.3 2.8 c 10.7,0 18.4,-2.8 23.1,-8.4 4.6,-5.5 7,-14.4 7.1,-26.7 -1.7,-1 -2.9,-2.8 -2.9,-4.9 0,-1.9 0.9,-3.6 2.4,-4.6 z m -13,30.9 c -0.6,0.8 -2.1,1.9 -4.4,3.3 -2.3,1.4 -6.4,2.1 -12.4,2.1 h -11.1 -2.8 v -54.6 h 13.9 c 3.6,0 6.8,0.3 9.5,0.9 2.7,0.6 5,1.9 6.8,3.9 1.8,2 3.2,4.7 4.1,8.2 0.9,3.5 1.4,8.2 1.4,14 0.2,10.4 -1.5,17.8 -5,22.2 z"
         id="path3350" /><path
         style="fill:#bb762a"
         inkscape:connector-curvature="0"
         d="m 810,706.5 h 10.3 v 151.3 h 8.2 V 826 c -1.1,-1 -1.7,-2.4 -1.7,-4 0,-1.6 0.7,-3 1.7,-4 V 698.1 H 810 v 8.4 z"
         id="path3352" /><path
         style="fill:#bb762a"
         inkscape:connector-curvature="0"
         d="m 897.4,787.1 c -2.3,-5.7 -5.5,-10.5 -9.8,-14.6 0.5,-0.3 0.9,-0.7 1.3,-1.2 0.4,-0.5 0.7,-0.9 1.1,-1.2 6.9,-8.3 10.4,-20.5 10.4,-36.5 0,-16.2 -3.5,-28.3 -10.4,-36.3 -7.5,-8.8 -18.8,-13.2 -33.7,-13.2 H 810 v 8.5 h 18.5 2.8 25 c 12.4,0 21.5,3.4 27.3,10.1 4.3,5.1 7,12.3 8,21.8 1.8,0.9 3.1,2.8 3.1,5 0,2 -1,3.7 -2.6,4.7 -0.1,20.5 -6.7,33.3 -19.8,38.3 3.8,1.7 7.1,3.8 9.9,6.4 6.7,6.8 10.1,15.9 10.1,27.6 v 51.3 h 8.5 v -51.3 c 0,-7.3 -1.1,-13.7 -3.4,-19.4 z"
         id="path3354" /><path
         style="fill:#bb762a"
         inkscape:connector-curvature="0"
         d="m 886,724.9 c -0.9,-8.1 -3.1,-14.3 -6.6,-18.6 -4.7,-5.5 -12.4,-8.2 -23.1,-8.2 h -22.1 v 71.4 h 19.3 2.8 c 10.7,0 18.4,-2.8 23.1,-8.4 4.6,-5.5 7,-14.4 7.1,-26.7 -1.7,-1 -2.9,-2.8 -2.9,-4.9 0,-1.9 1,-3.6 2.4,-4.6 z m -12.9,30.9 c -0.6,0.8 -2.1,1.9 -4.4,3.3 -2.3,1.4 -6.4,2.1 -12.4,2.1 h -11.1 -2.8 v -54.6 h 13.9 c 3.6,0 6.8,0.3 9.5,0.9 2.7,0.6 5,1.9 6.8,3.9 1.8,2 3.2,4.7 4.1,8.2 0.9,3.5 1.4,8.2 1.4,14 0.1,10.4 -1.6,17.8 -5,22.2 z"
         id="path3356" /><path
         style="fill:#bb762a"
         inkscape:connector-curvature="0"
         d="m 856.3,775.1 h -2.8 -19.3 v 41.6 c 2.2,0.8 3.8,2.8 3.8,5.2 0,2.4 -1.6,4.5 -3.8,5.2 v 30.6 h 8.2 v -74.2 h 2.8 11.1 c 14.8,0 22.1,7.6 22.1,22.8 v 51.3 h 8.5 v -51.3 c 0,-10 -2.7,-17.8 -8,-23.2 -5.3,-5.3 -12.8,-8 -22.6,-8 z"
         id="path3358" /><path
         style="fill:#bb762a"
         inkscape:connector-curvature="0"
         d="m 671.4,771 c 0,-2.1 1.2,-3.9 2.9,-4.8 v -67.7 h -41.2 c 1.5,2.5 2.7,5.4 3.7,8.5 h 29 v 150.5 h 8.5 v -81.6 c -1.8,-1 -2.9,-2.8 -2.9,-4.9 z"
         id="path3360" /><path
         style="fill:#bb762a"
         inkscape:connector-curvature="0"
         d="m 679.6,766.1 c 1.7,0.9 2.9,2.8 2.9,4.9 0,2.1 -1.2,3.9 -2.9,4.9 v 73.3 8.2 h 8.5 V 706.9 h 37.8 v -8.5 h -46.2 v 67.7 z"
         id="path3362" /><path
         style="fill:#bb762a"
         inkscape:connector-curvature="0"
         d="m 804.5,706.6 v -8.5 h -57.9 v 70.2 h 20.6 c 0.9,-1.8 2.8,-3.1 5,-3.1 2.2,0 4.1,1.3 5,3.1 h 17.1 v -8.5 h -39.4 v -53.2 h 49.6 z"
         id="path3364" /><path
         style="fill:#bb762a"
         inkscape:connector-curvature="0"
         d="m 740.9,826.5 c -1.5,-1 -2.4,-2.7 -2.4,-4.6 0,-1.9 1,-3.6 2.4,-4.6 v -43.6 -5.4 -75.6 h 63.6 v -8.5 h -71.8 v 173.6 h 82.1 v -8.2 h -73.9 v -23.1 z"
         id="path3366" /><path
         style="fill:#bb762a"
         inkscape:connector-curvature="0"
         d="m 629.1,692.9 h 45.2 5.4 46.2 v -8.2 h -108 c 4.3,2 8.1,4.7 11.2,8.2 z"
         id="path3368" /></g></g><circle
     transform="matrix(0.73186712,0,0,0.73186712,-210.85321,-348.17694)"
     style="fill:#ffffff"
     sodipodi:ry="10.7"
     sodipodi:rx="10.7"
     sodipodi:cy="1007.1"
     sodipodi:cx="778.70001"
     cx="778.70001"
     cy="1007.1"
     r="10.7"
     id="circle3370" /><circle
     transform="matrix(0.73186712,0,0,0.73186712,-210.85321,-348.17694)"
     style="fill:#ffffff"
     sodipodi:ry="10.7"
     sodipodi:rx="10.7"
     sodipodi:cy="970.40002"
     sodipodi:cx="819.5"
     cx="819.5"
     cy="970.40002"
     r="10.7"
     id="circle3372" /><circle
     transform="matrix(0.73186712,0,0,0.73186712,-210.85321,-348.17694)"
     style="fill:#ffffff"
     sodipodi:ry="10.7"
     sodipodi:rx="10.7"
     sodipodi:cy="932.20001"
     sodipodi:cx="860.40002"
     cx="860.40002"
     cy="932.20001"
     r="10.7"
     id="circle3374" /><polyline
     transform="matrix(0.73186712,0,0,0.73186712,-210.85321,-348.17694)"
     style="fill:none;stroke:#ffffff;stroke-width:10;stroke-miterlimit:10"
     stroke-miterlimit="10"
     points="484.5,969.7 531.2,969.7 587.3,913.6   587.3,1058.4 713.6,932.1 862.4,932.1 "
     id="polyline3376" /><polyline
     transform="matrix(0.73186712,0,0,0.73186712,-210.85321,-348.17694)"
     style="fill:none;stroke:#ffffff;stroke-width:10;stroke-miterlimit:10"
     stroke-miterlimit="10"
     points="446.9,1008.3 540.9,1008.3 635.6,913.6   635.6,1058.4 723.7,970.3 821.6,970.3 "
     id="polyline3378" /><polyline
     transform="matrix(0.73186712,0,0,0.73186712,-210.85321,-348.17694)"
     style="fill:none;stroke:#ffffff;stroke-width:10;stroke-miterlimit:10"
     stroke-miterlimit="10"
     points="412.2,1044.2 553.3,1044.2 683.9,913.6   683.9,1058.4 736.2,1006.1 780.7,1006.1 "
     id="polyline3380" /><circle
     transform="matrix(0.73186712,0,0,0.73186712,-210.85321,-348.17694)"
     style="fill:#ffffff"
     sodipodi:ry="10.7"
     sodipodi:rx="10.7"
     sodipodi:cy="1044.9"
     sodipodi:cx="405.89999"
     cx="405.89999"
     cy="1044.9"
     r="10.7"
     id="circle3382" /><circle
     transform="matrix(0.73186712,0,0,0.73186712,-210.85321,-348.17694)"
     style="fill:#ffffff"
     sodipodi:ry="10.7"
     sodipodi:rx="10.7"
     sodipodi:cy="1008.1"
     sodipodi:cx="446.79999"
     cx="446.79999"
     cy="1008.1"
     r="10.7"
     id="circle3384" /><circle
     transform="matrix(0.73186712,0,0,0.73186712,-210.85321,-348.17694)"
     style="fill:#ffffff"
     sodipodi:ry="10.7"
     sodipodi:rx="10.7"
     sodipodi:cy="970"
     sodipodi:cx="487.60001"
     cx="487.60001"
     cy="970"
     r="10.7"
     id="circle3386" /></g></svg>