<?xml version="1.0" encoding="utf-8"?>
<!-- Generator: Adobe Illustrator 17.1.0, SVG Export Plug-In . SVG Version: 6.00 Build 0)  -->
<!DOCTYPE svg PUBLIC "-//W3C//DTD SVG 1.1//EN" "http://www.w3.org/Graphics/SVG/1.1/DTD/svg11.dtd">
<svg version="1.1" id="wheatstone" xmlns="http://www.w3.org/2000/svg" xmlns:xlink="http://www.w3.org/1999/xlink" x="0px" y="0px"
	 viewBox="0 0 500 500" enable-background="new 0 0 500 500" xml:space="preserve">
<g>
	<path fill="#BABF10" d="M112.597,255.135c-3.805,0-6.658-1.216-8.561-3.647c-1.902-2.271-2.854-5.76-2.854-10.464v-1.189h2.457
		v1.189c0,2.644,0.29,4.73,0.872,6.262c0.581,1.533,1.309,2.696,2.18,3.489c0.872,0.792,1.836,1.308,2.894,1.545
		c1.057,0.239,2.061,0.357,3.012,0.357c2.854,0,5.06-0.992,6.62-2.973c1.558-1.981,2.338-4.742,2.338-8.283
		c0-1.902-0.33-3.5-0.991-4.796c-0.661-1.295-1.454-2.365-2.378-3.21c-0.925-0.845-1.89-1.507-2.893-1.981
		c-1.005-0.476-1.823-0.845-2.457-1.11l-1.347-0.555c-0.793-0.318-1.771-0.779-2.933-1.387c-1.163-0.608-2.286-1.453-3.369-2.537
		c-1.084-1.084-2.021-2.431-2.814-4.044c-0.792-1.611-1.188-3.579-1.188-5.905c0-4.016,0.924-7.32,2.775-9.909
		c2.112-2.854,4.994-4.281,8.64-4.281c3.752,0,6.632,1.242,8.641,3.726c1.902,2.377,2.854,5.865,2.854,10.464v1.268h-2.537v-1.268
		c0-4.016-0.767-7.003-2.299-8.958c-1.427-1.795-3.647-2.695-6.659-2.695c-2.854,0-5.047,1.084-6.579,3.25
		c-1.585,2.168-2.378,4.968-2.378,8.403c0,1.902,0.318,3.515,0.952,4.834c0.634,1.323,1.413,2.431,2.338,3.33
		c0.924,0.899,1.889,1.612,2.893,2.14c1.004,0.529,1.903,0.952,2.695,1.268l1.268,0.555c0.686,0.265,1.612,0.674,2.775,1.229
		c1.162,0.555,2.299,1.347,3.409,2.378c1.11,1.031,2.074,2.339,2.894,3.923c0.819,1.586,1.229,3.541,1.229,5.867
		c0,3.963-0.952,7.188-2.854,9.67C119.177,253.788,116.295,255.135,112.597,255.135z"/>
	<path fill="#BABF10" d="M156.433,204.243h-12.842v50.892h-2.457v-50.892h-12.762v-2.537h28.062V204.243z"/>
	<path fill="#BABF10" d="M171.889,255.214c-1.268,0-2.576-0.184-3.924-0.555c-1.347-0.369-2.576-1.082-3.685-2.14
		c-1.11-1.057-2.009-2.497-2.695-4.32c-0.688-1.823-1.03-4.215-1.03-7.175v-25.128c0-4.546,0.924-8.033,2.775-10.464
		c1.954-2.431,4.808-3.647,8.561-3.647c3.805,0,6.659,1.216,8.562,3.647c1.902,2.377,2.854,5.865,2.854,10.464v25.128
		c0,2.96-0.344,5.351-1.03,7.175c-0.688,1.823-1.585,3.263-2.695,4.32c-1.11,1.057-2.339,1.771-3.686,2.14
		C174.545,255.03,173.209,255.214,171.889,255.214z M171.889,204.243c-3.013,0-5.206,0.924-6.579,2.774
		c-1.533,1.957-2.299,4.915-2.299,8.879v25.128c0,4.017,0.766,7.003,2.299,8.958c1.427,1.85,3.619,2.774,6.579,2.774
		c2.906,0,5.126-0.924,6.659-2.774c1.478-1.85,2.219-4.836,2.219-8.958v-25.128c0-4.07-0.741-7.028-2.219-8.879
		C177.068,205.167,174.848,204.243,171.889,204.243z"/>
	<path fill="#BABF10" d="M191.23,255.214h-2.536v-53.428h2.14l18.391,45.74v-45.74h2.537v53.428h-2.061l-18.47-45.74V255.214z"/>
	<path fill="#BABF10" d="M219.767,204.243v22.988h16.727v2.457h-16.727v23.067h16.727v2.457H217.31v-53.428h19.184v2.457H219.767z"
		/>
	<path fill="#BABF10" d="M273.432,228.5c1.11,0.529,2.089,1.295,2.933,2.299c1.85,2.326,2.775,5.813,2.775,10.462
		c0,4.651-0.926,8.14-2.775,10.464c-1.955,2.327-4.968,3.489-9.036,3.489h-6.262h-2.538v-2.457v-50.971h8.8
		c4.068,0,7.081,1.163,9.036,3.487c1.85,2.327,2.775,5.814,2.775,10.464c0,4.599-0.926,8.061-2.775,10.385
		c-0.423,0.529-0.871,0.978-1.347,1.347C274.542,227.839,274.013,228.182,273.432,228.5z M261.067,227.232h6.262
		c3.276,0,5.628-0.898,7.054-2.696c1.479-1.795,2.22-4.729,2.22-8.799c0-4.121-0.715-7.068-2.141-8.838
		c-1.426-1.771-3.805-2.655-7.134-2.655h-6.262V227.232z M267.33,252.757c3.329,0,5.707-0.884,7.134-2.655
		c1.426-1.771,2.141-4.717,2.141-8.84c0-4.121-0.741-7.081-2.22-8.878c-1.426-1.795-3.778-2.695-7.054-2.695h-6.262v23.067H267.33z"
		/>
	<path fill="#BABF10" d="M303.239,230.878c2.377,2.273,3.566,5.417,3.566,9.433v14.824h-2.536v-14.824
		c0-3.223-0.871-5.72-2.616-7.491s-4.202-2.655-7.372-2.655h-1.189h-5.944v24.97h-2.457v-53.428h9.591
		c4.281,0,7.412,1.148,9.393,3.447c1.983,2.299,2.973,5.88,2.973,10.742c0,4.755-0.978,8.296-2.933,10.622
		c-0.845,1.005-1.902,1.823-3.171,2.457C301.546,229.45,302.445,230.084,303.239,230.878z M294.281,227.627
		c3.54,0,6.051-0.898,7.53-2.695c1.586-1.902,2.378-4.915,2.378-9.036c0-4.175-0.766-7.162-2.299-8.958
		c-1.533-1.795-4.07-2.695-7.61-2.695h-7.134v23.384h5.944H294.281z"/>
	<path fill="#BABF10" d="M313.226,255.214v-53.428h2.457v53.428H313.226z"/>
	<path fill="#BABF10" d="M330.11,255.214h-9.117v-53.428h9.117c4.228,0,7.372,1.268,9.433,3.805
		c1.955,2.326,2.933,5.865,2.933,10.622v24.574c0,4.755-0.978,8.296-2.933,10.622C337.482,253.946,334.338,255.214,330.11,255.214z
		 M323.451,252.757h6.659c3.434,0,5.931-0.964,7.491-2.894c1.558-1.929,2.339-4.954,2.339-9.075v-24.574
		c0-4.123-0.781-7.147-2.339-9.077c-1.56-1.927-4.057-2.892-7.491-2.892h-6.659V252.757z"/>
	<path fill="#BABF10" d="M359.835,255.214c-3.805,0-6.686-1.216-8.639-3.647c-1.851-2.429-2.775-5.918-2.775-10.464v-25.288
		c0-4.597,0.924-8.058,2.775-10.383c1.953-2.431,4.834-3.647,8.639-3.647c3.806,0,6.659,1.216,8.562,3.647
		c1.902,2.326,2.854,5.786,2.854,10.383v1.268h-2.536v-1.268c0-2.588-0.292-4.65-0.873-6.183c-0.581-1.532-1.308-2.695-2.179-3.487
		c-0.873-0.794-1.823-1.308-2.854-1.547c-1.029-0.237-2.021-0.356-2.973-0.356c-0.95,0-1.955,0.119-3.011,0.356
		c-1.059,0.239-2.023,0.753-2.894,1.547c-0.871,0.792-1.599,1.955-2.181,3.487c-0.581,1.533-0.871,3.596-0.871,6.183v25.288
		c0,3.965,0.766,6.924,2.299,8.879c1.426,1.85,3.647,2.774,6.658,2.774c2.96,0,5.154-0.924,6.58-2.774
		c1.532-1.955,2.299-4.915,2.299-8.879v-6.975H357.14v-2.536h14.111v9.512c0,4.599-0.952,8.086-2.854,10.464
		C366.494,253.998,363.641,255.214,359.835,255.214z"/>
	<path fill="#BABF10" d="M378.779,204.243v22.988h16.728v2.457h-16.728v23.067h16.728v2.457h-19.184v-53.428h19.184v2.457H378.779z"
		/>
</g>
<g>
	<path fill="#BABF10" d="M237.321,104.648c1.305,0.538,2.225,1.821,2.225,3.321s-0.92,2.782-2.225,3.321v21.505v3.644v54.059h5.466
		V78.584h-5.466V104.648z"/>
	<path fill="#BABF10" d="M232.359,107.969c0-1.187,0.582-2.231,1.469-2.885v-26.5h-5.467v48.896h-21.563V78.584h-5.315v54.211
		h32.344v-21.941C232.942,110.199,232.359,109.155,232.359,107.969z"/>
	<path fill="#BABF10" d="M303.793,93.162v-5.467h-42.101v45.252h13.827c0.609-1.117,1.78-1.884,3.142-1.884s2.533,0.767,3.143,1.884
		h10.601v-5.466h-25.397V93.162H303.793z"/>
	<path fill="#BABF10" d="M201.484,164.65c0.904,0.653,1.497,1.708,1.497,2.908c0,1.2-0.594,2.255-1.497,2.908v20.032h5.315v-48.744
		h21.563v48.744h5.467v-54.059h-32.344V164.65z"/>
	<path fill="#BABF10" d="M112.618,160.756c0,1.175-0.573,2.209-1.445,2.865l2.544,11.54l19.892-90.503h3.189l19.892,90.503
		l14.435-65.474c-0.281-0.513-0.456-1.092-0.456-1.718c0-1.187,0.583-2.232,1.471-2.886l4.621-20.961h12.774v-5.466h-17.053
		l-15.793,71.603L141.05,78.736h-1.063h-4.555h-0.456h-3.644h-1.823l-15.792,71.522L97.924,78.736h-5.467l17.309,78.505
		C111.394,157.583,112.618,159.026,112.618,160.756z"/>
	<path fill="#BABF10" d="M175.885,104.778c1.166,0.594,1.972,1.792,1.972,3.19c0,1.938-1.537,3.506-3.456,3.58l-16.04,73.179h-3.189
		l-19.892-90.503l-20.044,90.503h-3.037l-4.557-20.655c-1.298-0.542-2.211-1.822-2.211-3.316c0-0.933,0.364-1.774,0.947-2.413
		L88.813,78.736h-5.618l24.752,111.914h1.367h4.1h0.608h3.948h1.519l15.792-71.37l15.641,71.37h1.671h3.948h0.456h4.252h1.215
		l21.675-97.569h5.558v-5.466h-10.047L175.885,104.778z"/>
	<path fill="#BABF10" d="M195.794,167.558c0-1.428,0.839-2.651,2.046-3.23v-27.888v-3.644V78.584h-5.315v111.914h5.315v-19.71
		C196.633,170.209,195.794,168.986,195.794,167.558z"/>
	<path fill="#BABF10" d="M258.048,170.781c-1.199-0.583-2.032-1.801-2.032-3.223c0-1.422,0.833-2.641,2.032-3.223v-27.896v-3.492
		V84.202h45.745v-5.466h-51.06V190.65h40.62l0.949-5.314h-36.255V170.781z"/>
	<path fill="#BABF10" d="M385.339,131.658c0.951,0.647,1.577,1.737,1.577,2.973c0,1.237-0.625,2.327-1.577,2.973v47.973v5.315h5.467
		V93.404h24.448v-5.466h-29.915V131.658z"/>
	<path fill="#BABF10" d="M379.727,134.631c0-1.458,0.872-2.707,2.12-3.27V87.937h-28.016v5.466h22.55v97.489h5.466v-52.991
		C380.599,137.338,379.727,136.089,379.727,134.631z"/>
	<polygon fill="#BABF10" points="353.831,78.978 353.831,84.445 381.847,84.445 385.339,84.445 415.254,84.445 415.254,78.978 	"/>
	<path fill="#BABF10" d="M342.545,154.081h-27.941l-2.479,10.667c0.833,0.658,1.378,1.665,1.378,2.81
		c0,1.729-1.221,3.17-2.847,3.514l-4.556,19.605h5.467l7.289-31.129h19.437l7.137,31.129h3.466h2.152h20.726v-5.466h-21.996
		L342.545,154.081z"/>
	<path fill="#BABF10" d="M267.008,141.906h25.397v-5.466h-10.64c-0.621,1.078-1.77,1.811-3.103,1.811
		c-1.333,0-2.483-0.734-3.103-1.811h-13.866v28.199c0.912,0.652,1.511,1.713,1.511,2.919s-0.599,2.268-1.511,2.919v11.213h33.349
		l0.949-5.314h-28.983V141.906z"/>
	<path fill="#BABF10" d="M331.239,105.368l-2.664-11.42l-13.059,56.64h26.27l-9.144-39.204c-1.461-0.456-2.528-1.804-2.528-3.415
		C330.113,106.942,330.549,106.023,331.239,105.368z M334.952,145.122h-12.755l6.378-27.333L334.952,145.122z"/>
	<path fill="#BABF10" d="M334.193,78.763h-1.215h-4.252h-0.304h-4.252h-1.367l-25.966,111.914h5.618l4.799-20.715
		c-0.578-0.638-0.939-1.475-0.939-2.404c0-1.515,0.941-2.806,2.268-3.334l18.32-79.084h3.341l4.495,19.404
		c1.478,0.446,2.561,1.802,2.561,3.425c0,1.042-0.45,1.972-1.159,2.629l16.475,71.12h2.606h2.847h13.704v-5.466h-14.972
		L334.193,78.763z"/>
</g>
<path fill="#FFFFFF" d="M358.108,338.45c-3.813,0-7,2.526-8.083,5.98h-27.723c-1.083-3.455-4.27-5.98-8.086-5.98
	c-1.34,0-2.59,0.337-3.717,0.889l-15.553-15.552l3.969-10.288l-11.889,5.285l5.188-11.851l-12.541,4.66l5.706-11.595l-10.625,3.594
	l-21.929-21.928l-22.216,22.218l-10.038-3.831l5.281,11.871L214,306.733l4.66,12.541l-11.571-5.691l3.451,10.368l-14.982,14.983
	c-0.858-0.291-1.762-0.485-2.719-0.485c-3.815,0-7.004,2.529-8.085,5.987h-27.739c-1.081-3.459-4.267-5.987-8.08-5.987
	c-4.704,0-8.512,3.815-8.512,8.517c0,4.697,3.808,8.51,8.512,8.51c3.813,0,6.999-2.526,8.08-5.981h27.743
	c1.083,3.456,4.27,5.981,8.082,5.981c1.521,0,2.927-0.432,4.162-1.131l13.807,13.805l-3.895,10.22l11.866-5.276l-5.19,11.849
	l12.543-4.658l-5.695,11.574l10.554-3.521l21.912,21.913l22.219-22.221l10.09,3.755l-5.259-11.829l11.852,5.19l-4.658-12.541
	l11.577,5.696l-3.477-10.396l14.032-14.031c1.394,0.999,3.089,1.602,4.935,1.602c3.817,0,7.006-2.528,8.087-5.988h27.721
	c1.081,3.459,4.27,5.988,8.084,5.988c4.704,0,8.512-3.815,8.512-8.517C366.62,342.263,362.812,338.45,358.108,338.45z
	 M292.965,371.707l-11.927-5.867l4.839,13.028l-12.541-5.49l5.536,12.449l-4.602-1.713l-21.366,21.368l-21.001-21.004l-4.873,1.627
	l5.869-11.93l-13.029,4.839l5.49-12.538l-12.407,5.516l1.785-4.683l-15.181-15.179c1.107-1.438,1.791-3.217,1.791-5.172
	c0-2.486-1.085-4.703-2.786-6.26l15.837-15.836l-1.563-4.696l11.936,5.872l-4.841-13.028l12.538,5.491l-5.518-12.407l4.497,1.716
	l21.376-21.378l21.027,21.025l4.917-1.664l-5.86,11.912l13.028-4.841l-5.488,12.536l12.383-5.506l-1.822,4.724l16.799,16.798
	c-1.29,1.493-2.098,3.414-2.098,5.542c0,1.632,0.482,3.143,1.277,4.439l-15.599,15.598L292.965,371.707z"/>
</svg>
