<?xml version="1.0" encoding="utf-8"?>
<!-- Generator: Adobe Illustrator 17.1.0, SVG Export Plug-In . SVG Version: 6.00 Build 0)  -->
<!DOCTYPE svg PUBLIC "-//W3C//DTD SVG 1.1//EN" "http://www.w3.org/Graphics/SVG/1.1/DTD/svg11.dtd">
<svg version="1.1" id="flip_switch" xmlns="http://www.w3.org/2000/svg" xmlns:xlink="http://www.w3.org/1999/xlink" x="0px"
	 y="0px" viewBox="0 0 500 500" enable-background="new 0 0 500 500" xml:space="preserve">
<g>
	<path fill="#00A8E1" d="M126.375,80.333v21.572h15.695v2.305h-15.695v23.952h-2.306V78.028h18.002v2.305H126.375z"/>
	<path fill="#00A8E1" d="M146.757,128.163V78.028h2.38v47.83h16.811v2.305H146.757z"/>
	<path fill="#00A8E1" d="M170.114,128.163V78.028h2.305v50.135H170.114z"/>
	<path fill="#00A8E1" d="M179.634,128.163h-2.306V78.028h9.001c4.016,0,6.966,1.091,8.851,3.272
		c1.884,2.183,2.827,5.455,2.827,9.818c0,4.365-0.943,7.639-2.827,9.82c-1.885,2.181-4.835,3.272-8.851,3.272h-6.695V128.163z
		 M179.634,101.906h6.695c3.272,0,5.653-0.843,7.14-2.53c1.438-1.736,2.158-4.488,2.158-8.257c0-3.868-0.719-6.631-2.158-8.293
		c-1.438-1.662-3.818-2.493-7.14-2.493h-6.695V101.906z"/>
	<path fill="#00A8E1" d="M228.877,128.088c-3.571,0-6.248-1.14-8.034-3.422c-1.785-2.13-2.677-5.404-2.677-9.818v-1.115h2.305v1.115
		c0,2.48,0.272,4.439,0.818,5.876c0.545,1.439,1.228,2.53,2.045,3.274c0.818,0.742,1.723,1.227,2.715,1.45
		c0.992,0.223,1.934,0.336,2.827,0.336c2.678,0,4.747-0.93,6.211-2.79c1.462-1.86,2.194-4.451,2.194-7.775
		c0-1.784-0.31-3.285-0.929-4.499c-0.621-1.214-1.365-2.219-2.232-3.012c-0.868-0.794-1.774-1.414-2.715-1.86
		c-0.942-0.447-1.71-0.794-2.306-1.041l-1.264-0.521c-0.744-0.297-1.663-0.73-2.752-1.301c-1.092-0.569-2.145-1.363-3.162-2.381
		c-1.016-1.015-1.897-2.28-2.64-3.794c-0.744-1.511-1.115-3.359-1.115-5.542c0-3.767,0.866-6.866,2.603-9.297
		c1.983-2.678,4.686-4.016,8.108-4.016c3.521,0,6.223,1.165,8.108,3.495c1.785,2.233,2.677,5.505,2.677,9.818v1.191h-2.38v-1.191
		c0-3.767-0.719-6.569-2.157-8.404c-1.339-1.686-3.422-2.53-6.248-2.53c-2.678,0-4.736,1.016-6.174,3.049
		c-1.488,2.035-2.232,4.662-2.232,7.884c0,1.785,0.298,3.299,0.893,4.538c0.595,1.241,1.327,2.282,2.195,3.124
		c0.867,0.845,1.772,1.513,2.714,2.01c0.942,0.495,1.785,0.893,2.53,1.19l1.19,0.52c0.644,0.249,1.512,0.633,2.604,1.154
		c1.09,0.52,2.157,1.264,3.198,2.231c1.042,0.967,1.946,2.194,2.715,3.682c0.768,1.487,1.153,3.322,1.153,5.503
		c0,3.719-0.892,6.746-2.677,9.076C235.051,126.824,232.347,128.088,228.877,128.088z"/>
	<path fill="#00A8E1" d="M288.31,78.028l-10.936,50.135h-1.934l-9.596-43.514l-9.596,43.514h-1.86l-11.083-50.135h2.38l9.67,43.514
		l9.596-43.514h1.86l9.596,43.514l9.447-43.514H288.31z"/>
	<path fill="#00A8E1" d="M293.442,128.163V78.028h2.305v50.135H293.442z"/>
	<path fill="#00A8E1" d="M326.542,80.333h-12.051v47.755h-2.305V80.333h-11.977v-2.379h26.333V80.333z"/>
	<path fill="#00A8E1" d="M340.971,128.163c-1.239,0-2.493-0.173-3.757-0.522c-1.264-0.345-2.417-1.015-3.458-2.008
		c-1.043-0.99-1.886-2.342-2.53-4.054c-0.645-1.711-0.967-3.955-0.967-6.732V91.267c0-2.726,0.322-4.957,0.967-6.695
		c0.643-1.734,1.487-3.087,2.53-4.054c1.041-0.967,2.194-1.623,3.458-1.971c1.264-0.346,2.517-0.52,3.757-0.52
		c1.19,0,2.418,0.173,3.682,0.52c1.264,0.348,2.417,1.004,3.46,1.971c1.041,0.967,1.883,2.319,2.528,4.054
		c0.643,1.738,0.967,3.969,0.967,6.695v1.191h-2.379v-1.191c0-3.817-0.695-6.594-2.082-8.33c-1.439-1.736-3.497-2.604-6.175-2.604
		c-2.728,0-4.81,0.868-6.247,2.604c-1.389,1.736-2.084,4.513-2.084,8.33v23.581c0,3.82,0.719,6.62,2.158,8.406
		c1.338,1.736,3.396,2.604,6.173,2.604c2.678,0,4.736-0.868,6.175-2.604c1.388-1.835,2.082-4.637,2.082-8.406v-1.19h2.379v1.19
		c0,2.777-0.324,5.021-0.967,6.732c-0.645,1.711-1.487,3.064-2.528,4.054c-1.043,0.993-2.196,1.663-3.46,2.008
		C343.389,127.989,342.161,128.163,340.971,128.163z"/>
	<path fill="#00A8E1" d="M375.931,78.028v50.135h-2.379v-23.878h-15.175v23.878h-2.379V78.028h2.379v23.952h15.175V78.028H375.931z"
		/>
</g>
<g>
	<polygon fill="#00A8E1" points="132.952,141.742 159.352,141.742 163.865,141.742 190.266,141.742 190.266,134.677 
		132.952,134.677 	"/>
	<path fill="#00A8E1" d="M314.464,232.033l-2.906,12.491c0.638,0.794,1.033,1.788,1.033,2.884c0,1.859-1.099,3.452-2.678,4.194
		l-4.801,20.67h-35.793v7.065h34.154h2.779h4.482l9.225-40.237h25.125l9.421,40.237h7.065l-10.991-47.304H314.464z"/>
	<path fill="#00A8E1" d="M163.865,148.17v53.051c1.418,0.796,2.388,2.296,2.388,4.036s-0.97,3.24-2.388,4.035v57.779v0.685h26.401
		v-7.065h-19.335V153.324h19.335v-7.068h-26.401V148.17z"/>
	<polygon fill="#00A8E1" points="159.352,272.272 132.952,272.272 132.952,279.337 190.266,279.337 190.266,272.272 
		163.865,272.272 	"/>
	<path fill="#00A8E1" d="M159.352,267.07v-57.779c-1.418-0.794-2.388-2.293-2.388-4.035c0-1.742,0.97-3.24,2.388-4.036V148.17
		v-1.914h-26.401v7.068h19.335V260.69h-19.335v7.065h26.401V267.07z"/>
	<path fill="#00A8E1" d="M195.856,279.337h19.269v-18.816h-19.269V279.337z M201.99,266.653h7.002v6.552h-7.002V266.653z"/>
	<path fill="#00A8E1" d="M332.52,154.303l-17.077,73.215h33.958l-12.365-53.63c-1.737-0.671-2.975-2.347-2.975-4.322
		c0-1.222,0.48-2.325,1.251-3.154L332.52,154.303z M340.763,220.453h-16.486l8.243-35.332L340.763,220.453z"/>
	<path fill="#00A8E1" d="M224.786,247.408c0-1.818,1.055-3.375,2.577-4.137v-97.406H225.8l-0.003-0.028h-29.789v6.869h24.486
		v126.242h6.869v-27.4C225.841,250.784,224.786,249.227,224.786,247.408z"/>
	<path fill="#00A8E1" d="M275.14,165.512c-0.903-5.585-2.684-9.93-5.379-12.976c-3.926-4.445-10.337-6.672-19.234-6.672h-18.451
		v58.295h18.451c8.897,0,15.34-2.287,19.332-6.868c3.989-4.58,5.988-12.038,5.988-22.377c0-0.341-0.022-0.652-0.025-0.987
		c-1.8-0.641-3.102-2.342-3.102-4.362C272.72,167.813,273.706,166.303,275.14,165.512z M264.461,192.776
		c-0.524,0.655-1.702,1.568-3.534,2.748c-1.832,1.177-5.3,1.767-10.4,1.767h-11.582v-44.558h11.582c3.007,0,5.657,0.295,7.946,0.884
		c2.29,0.587,4.188,1.668,5.694,3.239c1.503,1.57,2.65,3.795,3.433,6.672c0.786,2.88,1.178,6.675,1.178,11.386
		C268.779,183.551,267.339,189.506,264.461,192.776z"/>
	<path fill="#00A8E1" d="M244.927,279.337h19.269v-18.816h-19.269V279.337z M251.061,266.653h7.002v6.552h-7.002V266.653z"/>
	<path fill="#00A8E1" d="M278.592,204.945c5.89-6.802,8.834-16.813,8.834-30.031c0-13.216-2.944-23.162-8.834-29.837
		c-6.279-7.195-15.637-10.795-28.065-10.795h-54.57v6.871h31.406h4.317h18.846c10.205,0,17.728,2.749,22.569,8.243
		c3.424,3.888,5.635,9.29,6.636,16.19c1.358,0.813,2.28,2.282,2.28,3.979c0,1.429-0.66,2.694-1.677,3.544
		c0.016,0.595,0.025,1.192,0.025,1.805c0,11.648-2.422,20.217-7.264,25.712c-4.842,5.495-12.365,8.245-22.569,8.245h-18.451v34.724
		c1.206,0.837,2.002,2.231,2.002,3.812c0,1.582-0.796,2.977-2.002,3.815v27.724h6.869v-63.206h11.582
		C262.955,215.741,272.313,212.143,278.592,204.945z"/>
	<path fill="#00A8E1" d="M339.98,134.677h-1.769h-5.495h-0.392h-5.495h-1.57L296.032,260.69h-26.713v7.065h25.074h3.679h3.37
		l3.834-16.553c-1.191-0.842-1.977-2.223-1.977-3.795c0-2.315,1.699-4.22,3.916-4.572l23.147-99.917h4.317l5.129,22.146
		c2.031,0.499,3.54,2.318,3.54,4.501c0,1.431-0.66,2.694-1.677,3.547l24.61,106.224h7.261L339.98,134.677z"/>
</g>
<g>
	<path fill="#FFFFFF" d="M354.106,387.628c-4.092,0-7.513,2.711-8.675,6.418h-26.909c-1.233-5.227-5.925-9.134-11.525-9.134
		c-6.53,0-11.844,5.316-11.844,11.85c0,6.537,5.314,11.857,11.844,11.857c5.6,0,10.294-3.91,11.525-9.141h26.908
		c1.161,3.713,4.582,6.427,8.676,6.427c5.049,0,9.136-4.094,9.136-9.141C363.242,391.72,359.155,387.628,354.106,387.628z
		 M306.997,403.187c-3.536,0-6.414-2.883-6.414-6.426c0-3.539,2.878-6.419,6.414-6.419c3.541,0,6.421,2.88,6.421,6.419
		C313.417,400.304,310.538,403.187,306.997,403.187z"/>
	<path fill="#FFFFFF" d="M268.275,308.519l-76.45,76.454c-5.066,0.508-9.19,4.226-10.332,9.081h-26.926
		c-1.16-3.712-4.579-6.425-8.673-6.425c-5.049,0-9.136,4.094-9.136,9.141c0,5.042,4.087,9.134,9.136,9.134
		c4.093,0,7.512-2.711,8.672-6.419h26.93c1.234,5.227,5.925,9.134,11.52,9.134c6.129,0,11.185-4.682,11.787-10.659l76.454-76.453
		c3.589-3.589,3.589-9.398,0-12.988C277.677,304.934,271.857,304.934,268.275,308.519z M193.017,403.187
		c-3.538,0-6.417-2.883-6.417-6.426c0-3.539,2.879-6.419,6.417-6.419s6.417,2.88,6.417,6.419
		C199.434,400.304,196.555,403.187,193.017,403.187z"/>
</g>
</svg>
