<?xml version="1.0" encoding="utf-8"?>
<!-- Generator: Adobe Illustrator 18.0.0, SVG Export Plug-In . SVG Version: 6.00 Build 0)  -->
<!DOCTYPE svg PUBLIC "-//W3C//DTD SVG 1.1//EN" "http://www.w3.org/Graphics/SVG/1.1/DTD/svg11.dtd">
<svg version="1.1" id="schottky" xmlns="http://www.w3.org/2000/svg" xmlns:xlink="http://www.w3.org/1999/xlink" x="0px" y="0px"
	 viewBox="0 0 500 500" enable-background="new 0 0 500 500" xml:space="preserve">
<g id="Layer_2">
	<g>
		<g>
			<polygon fill="#FFFFFF" points="123.4,344.4 126.2,344.4 126.2,334.6 136,334.6 136,331.8 126.2,331.8 126.2,322.1 123.4,322.1 
				123.4,331.8 113.7,331.8 113.7,334.6 123.4,334.6 			"/>
			<rect x="347.8" y="331.8" fill="#FFFFFF" width="22.3" height="2.8"/>
			<path fill="#FFFFFF" d="M358.8,350.8c-4.5,0-8.3,3.2-9.2,7.4h-64.8v-45.9h15.5v15.1h5.5v-20.6h-26.6v51.4h-4.2l-91.7-52.9v52.9
				h-49.3c-0.9-4.2-4.7-7.4-9.2-7.4c-5.2,0-9.4,4.2-9.4,9.4c0,5.2,4.2,9.4,9.4,9.4c3.9,0,7.3-2.4,8.7-5.9h49.8v52.9l91.7-52.9h4.2
				v45.9H263v-17.5h-5.5v23h27.4v-51.5h65.3c1.4,3.4,4.8,5.9,8.7,5.9c5.2,0,9.4-4.2,9.4-9.4C368.2,355,364,350.8,358.8,350.8z
				 M188.9,407.1v-92.2l79.8,46.1L188.9,407.1z"/>
		</g>
		<g>
			<path fill="#FFAE5F" d="M159.5,190.9c1.1,0.6,1.9,1.8,1.9,3.1c0,1.4-0.8,2.5-1.9,3.1v41.3c0,7.3-1.5,12.7-4.6,16.4
				c-2.9,3.9-7.4,5.8-13.4,5.8c-5.9,0-10.4-1.9-13.4-5.8c-2-2.5-3.4-5.7-4-9.8c-1.4-0.5-2.3-1.8-2.3-3.3c0-1.3,0.7-2.5,1.8-3.1
				c0-0.1,0-0.2,0-0.3v-74.7h-4.8v74.7c0,8.5,1.8,15,5.5,19.5c1.4,1.8,3.5,3.6,6.2,5.2c2.8,1.6,6.4,2.4,11,2.4c4.6,0,8.3-0.8,11-2.4
				c2.8-1.6,4.8-3.3,6.2-5.2c3.7-4.5,5.5-11,5.5-19.5v-74.7h-4.8L159.5,190.9L159.5,190.9z"/>
			<path fill="#FFAE5F" d="M223.3,203.1c0,1.6-1,2.9-2.4,3.3l-16.7,58.3l-23.9-83.1v56.9c1.2,0.6,2,1.8,2,3.2c0,1.4-0.8,2.6-2,3.2
				v20.4h4.8v-48.7l14.1,48.7h9.8l14.1-48.7v48.7h4.8v-83.7l-5.5,19.2C223,201.5,223.3,202.3,223.3,203.1z"/>
			<path fill="#FFAE5F" d="M231.3,163.6h-1.5h-4h-1.1l-20.4,71.6l-20.6-71.6h-2.1h-3H177h-3.3h-1.5v101.7h4.8v-20.6
				c-1-0.6-1.7-1.7-1.7-3c0-1.3,0.7-2.4,1.7-3v-70.2h2.9l24.3,84.3l13.5-47c-0.8-0.6-1.4-1.6-1.4-2.8c0-1.8,1.4-3.3,3.2-3.5
				l8.9-31.1h2.9v96.8h4.8V163.6h-2.6H231.3z"/>
			<path fill="#FFAE5F" d="M104.7,191c-0.1-6.7-1.5-11.6-4.3-14.7c-2.8-3.1-7.3-4.7-13.5-4.7H74v41h13c6.3,0,10.8-1.6,13.6-4.8
				c2.1-2.4,3.4-6,4-10.8c-1-0.6-1.6-1.7-1.6-2.9C102.9,192.7,103.6,191.6,104.7,191z M96.7,204.6c-0.4,0.5-1.2,1.1-2.5,1.9
				c-1.3,0.8-3.7,1.2-7.3,1.2h-8.1v-31.3h8.1c2.1,0,4,0.2,5.6,0.6c1.6,0.4,2.9,1.2,4,2.3c1.1,1.1,1.9,2.7,2.4,4.7
				c0.5,2,0.8,4.7,0.8,8C99.8,198.1,98.8,202.3,96.7,204.6z"/>
			<path fill="#FFAE5F" d="M68.8,241.8c0-1.3,0.7-2.5,1.8-3.1v-67.1h-4.8v93.6h4.8v-20.4C69.6,244.2,68.8,243.1,68.8,241.8z"/>
			<path fill="#FFAE5F" d="M254.4,241.8c0-1.4,0.8-2.6,2-3.2v-67h-3.6h-1.3h-10.2v4.8h10.2v88.8h4.8v-20.3
				C255.2,244.4,254.4,243.2,254.4,241.8z"/>
			<path fill="#FFAE5F" d="M128.9,241.8c0,1.2-0.6,2.2-1.5,2.8c0.6,3.5,1.6,6.3,3.3,8.3c2.4,2.9,6,4.4,10.9,4.4
				c5,0,8.6-1.5,10.9-4.4c2.5-3.1,3.7-8,3.7-14.5v-41.3c-1.1-0.6-1.8-1.7-1.8-3c0-1.3,0.7-2.4,1.8-3v-27.3h-4.8v74.7
				c0,3.5-0.3,6.2-1,8.1c-0.7,1.9-1.5,3.3-2.6,4.2c-1,0.9-2.1,1.4-3.2,1.5c-1.1,0.1-2.1,0.2-3,0.2c-0.9,0-1.9-0.1-3-0.2
				c-1.1-0.1-2.2-0.6-3.2-1.5c-1-0.9-1.9-2.3-2.6-4.2c-0.7-1.9-1-4.6-1-8.1v-74.7H127v74.7c0,0.1,0,0.1,0,0.2
				C128.1,239.2,128.9,240.4,128.9,241.8z"/>
			<path fill="#FFAE5F" d="M86.9,163.5H65.8v4.8h4.8h3h13.2c7.2,0,12.5,1.9,15.9,5.8c3.2,3.7,4.9,9.3,5.1,16.8c1.2,0.6,2,1.8,2,3.2
				c0,1.5-1,2.8-2.3,3.3c-0.6,5.5-2.2,9.8-4.8,12.8c-3.4,3.9-8.7,5.8-15.9,5.8H74v22.7c1.1,0.6,1.9,1.7,1.9,3.1
				c0,1.3-0.8,2.5-1.9,3.1v20.3h4.8v-44.4h8.1c8.7,0,15.3-2.5,19.7-7.6c4.1-4.8,6.2-11.8,6.2-21.1c0-9.3-2.1-16.3-6.2-21
				C102.3,166,95.7,163.5,86.9,163.5z"/>
			<path fill="#FFAE5F" d="M324.9,203.1c0-1.9,1.6-3.5,3.5-3.5c0.2,0,0.3,0,0.5,0.1l20.2-31.2h27.2v-4.8h-24.1h-5.3h-0.3l-28.9,44.5
				v-44.5h-4.8v60.9l12.6-19.4C325.1,204.5,324.9,203.8,324.9,203.1z"/>
			<rect x="372.3" y="203.4" fill="#FFAE5F" width="4.8" height="62"/>
			<path fill="#FFAE5F" d="M364.1,199.5h13v-11.2h-13V199.5z M368,192.2h5.3v3.5H368V192.2z"/>
			<path fill="#FFAE5F" d="M388.3,241.8c0-1.4,0.8-2.5,1.9-3.1v-70.2h2.9l33,81.9v-53.2c-1.1-0.6-1.8-1.7-1.8-3c0-1.3,0.7-2.4,1.8-3
				v-27.5h-5V225l-24.8-61.6h-1.7H391h-0.8h-3.4h-1.4v101.7h4.8v-20.3C389,244.3,388.3,243.1,388.3,241.8z"/>
			<path fill="#FFAE5F" d="M429.2,163.5v27.4c1.2,0.5,2.1,1.8,2.1,3.2c0,1.4-0.9,2.7-2.1,3.2v63h-2.8l-33-81.9v60.3
				c1.1,0.6,1.8,1.7,1.8,3.1c0,1.3-0.7,2.5-1.8,3.1v20.4h4.8v-61.6l24.8,61.6h1.7h3.7h0.7h3.5h1.5V163.5H429.2z"/>
			<path fill="#FFAE5F" d="M272.7,163.5h-31.3v4.8h15.1h3h13.3c7.2,0,12.5,1.9,15.9,5.8c3.2,3.7,4.9,9.3,5.1,16.9
				c1.1,0.6,1.8,1.7,1.8,3.1c0,1.4-0.9,2.7-2.1,3.2c-0.6,5.6-2.2,9.9-4.8,12.9c-3.4,3.9-8.7,5.8-15.9,5.8h-13v22.8
				c1,0.6,1.7,1.7,1.7,3c0,1.3-0.7,2.4-1.7,3v20.5h4.8v-44.4h8.1c8.7,0,15.3-2.5,19.7-7.6c4.1-4.8,6.2-11.8,6.2-21.1
				c0-9.3-2.1-16.3-6.2-21C288,166,281.4,163.5,272.7,163.5z"/>
			<rect x="364.1" y="203.4" fill="#FFAE5F" width="4.8" height="62"/>
			<path fill="#FFAE5F" d="M307.6,241.8c0-1.4,0.8-2.5,1.9-3.1v-75.1h-4.8v64.6l-0.1,0.3h0.1v36.7h4.8v-20.3
				C308.4,244.3,307.6,243.1,307.6,241.8z"/>
			<path fill="#FFAE5F" d="M290.5,190.9c-0.1-6.7-1.6-11.5-4.2-14.6c-2.8-3.1-7.3-4.7-13.5-4.7h-13v41h13c6.3,0,10.8-1.6,13.6-4.8
				c2.1-2.4,3.4-6,3.9-10.7c-1.1-0.6-1.8-1.7-1.8-3C288.4,192.6,289.3,191.4,290.5,190.9z M282.5,204.6c-0.4,0.5-1.2,1.1-2.5,1.9
				c-1.3,0.8-3.7,1.2-7.3,1.2h-8.1v-31.3h8.1c2.1,0,4,0.2,5.6,0.6c1.6,0.4,2.9,1.2,4,2.3c1.1,1.1,1.9,2.7,2.4,4.7
				c0.6,2,0.8,4.7,0.8,8C285.5,198.1,284.5,202.3,282.5,204.6z"/>
			<path fill="#FFAE5F" d="M312.9,230.6v8.1c1.1,0.6,1.8,1.7,1.8,3.1c0,1.3-0.7,2.5-1.8,3.1v20.5h4.8v-33.3l5.4-8.4l23.2,41.7h5.5
				l-28.3-51.2L312.9,230.6z"/>
			<path fill="#FFAE5F" d="M353.7,176.6h22.6v-4.8H351v0h-0.2l-19.3,29.8c0.2,0.5,0.4,1,0.4,1.6c0,1.9-1.6,3.5-3.5,3.5
				c-0.1,0-0.1,0-0.2,0l-2.8,4.3l30.2,54.4h5.5l-30-54.1L353.7,176.6z"/>
		</g>
		<g>
			<path fill="#FFAE5F" d="M127.1,143.2c-4.5,0-8-1.5-10.2-4.4c-2.3-2.7-3.4-6.9-3.4-12.5v-1.4h2.9v1.4c0,3.2,0.3,5.7,1,7.5
				c0.7,1.8,1.6,3.2,2.6,4.2c1,0.9,2.2,1.6,3.5,1.8c1.3,0.3,2.5,0.4,3.6,0.4c3.4,0,6.1-1.2,7.9-3.6c1.9-2.4,2.8-5.7,2.8-9.9
				c0-2.3-0.4-4.2-1.2-5.7c-0.8-1.5-1.7-2.8-2.8-3.8c-1.1-1-2.3-1.8-3.5-2.4c-1.2-0.6-2.2-1-2.9-1.3l-1.6-0.7
				c-0.9-0.4-2.1-0.9-3.5-1.7c-1.4-0.7-2.7-1.7-4-3c-1.3-1.3-2.4-2.9-3.4-4.8c-0.9-1.9-1.4-4.3-1.4-7.1c0-4.8,1.1-8.8,3.3-11.8
				c2.5-3.4,6-5.1,10.3-5.1c4.5,0,7.9,1.5,10.3,4.5c2.3,2.8,3.4,7,3.4,12.5v1.5h-3v-1.5c0-4.8-0.9-8.4-2.7-10.7
				c-1.7-2.1-4.4-3.2-8-3.2c-3.4,0-6,1.3-7.9,3.9c-1.9,2.6-2.8,5.9-2.8,10c0,2.3,0.4,4.2,1.1,5.8c0.8,1.6,1.7,2.9,2.8,4
				c1.1,1.1,2.3,1.9,3.5,2.6c1.2,0.6,2.3,1.1,3.2,1.5l1.5,0.7c0.8,0.3,1.9,0.8,3.3,1.5c1.4,0.7,2.7,1.6,4.1,2.8
				c1.3,1.2,2.5,2.8,3.5,4.7c1,1.9,1.5,4.2,1.5,7c0,4.7-1.1,8.6-3.4,11.6C134.9,141.6,131.5,143.2,127.1,143.2z"/>
			<path fill="#FFAE5F" d="M160.8,143.3c-1.6,0-3.2-0.2-4.8-0.7c-1.6-0.4-3.1-1.3-4.4-2.6c-1.3-1.3-2.4-3-3.2-5.2
				c-0.8-2.2-1.2-5-1.2-8.6v-30c0-3.5,0.4-6.3,1.2-8.5c0.8-2.2,1.9-3.9,3.2-5.2c1.3-1.2,2.8-2.1,4.4-2.5c1.6-0.4,3.2-0.7,4.8-0.7
				c1.5,0,3.1,0.2,4.7,0.7c1.6,0.4,3.1,1.3,4.4,2.5c1.3,1.2,2.4,3,3.2,5.2c0.8,2.2,1.2,5.1,1.2,8.5v1.5h-3v-1.5
				c0-4.9-0.9-8.4-2.7-10.6c-1.8-2.2-4.5-3.3-7.9-3.3c-3.5,0-6.1,1.1-8,3.3c-1.8,2.2-2.7,5.8-2.7,10.6v30c0,4.9,0.9,8.4,2.7,10.7
				c1.7,2.2,4.3,3.3,7.9,3.3c3.4,0,6-1.1,7.9-3.3c1.8-2.3,2.7-5.9,2.7-10.7v-1.5h3v1.5c0,3.5-0.4,6.4-1.2,8.6
				c-0.8,2.2-1.9,3.9-3.2,5.2c-1.3,1.3-2.8,2.1-4.4,2.6C163.9,143.1,162.3,143.3,160.8,143.3z"/>
			<path fill="#FFAE5F" d="M206.3,79.4v63.9h-3v-30.4h-19.3v30.4h-3V79.4h3v30.5h19.3V79.4L206.3,79.4L206.3,79.4z"/>
			<path fill="#FFAE5F" d="M228,143.3c-1.5,0-3.1-0.2-4.7-0.7c-1.6-0.4-3.1-1.3-4.4-2.6c-1.3-1.3-2.4-3-3.2-5.2
				c-0.8-2.2-1.2-5-1.2-8.6v-30c0-5.4,1.1-9.6,3.3-12.5c2.3-2.9,5.7-4.4,10.2-4.4c4.5,0,8,1.5,10.2,4.4c2.3,2.8,3.4,7,3.4,12.5v30
				c0,3.5-0.4,6.4-1.2,8.6c-0.8,2.2-1.9,3.9-3.2,5.2c-1.3,1.3-2.8,2.1-4.4,2.6C231.2,143.1,229.6,143.3,228,143.3z M228,82.4
				c-3.6,0-6.2,1.1-7.9,3.3c-1.8,2.3-2.7,5.9-2.7,10.6v30c0,4.8,0.9,8.4,2.7,10.7c1.7,2.2,4.3,3.3,7.9,3.3c3.5,0,6.1-1.1,8-3.3
				c1.8-2.2,2.7-5.8,2.7-10.7v-30c0-4.9-0.9-8.4-2.7-10.6C234.2,83.5,231.5,82.4,228,82.4z"/>
			<path fill="#FFAE5F" d="M277.5,82.4h-15.4v60.9h-2.9V82.4h-15.3v-3h33.6L277.5,82.4L277.5,82.4z"/>
			<path fill="#FFAE5F" d="M315.5,82.4h-15.4v60.9h-2.9V82.4h-15.3v-3h33.6L315.5,82.4L315.5,82.4z"/>
			<path fill="#FFAE5F" d="M331.5,108.7l19.6,34.6h-3.4l-18-31.8l-6.4,9.6v22.2h-3V79.4h3v36.3l24.3-36.3h3.6L331.5,108.7z"/>
			<path fill="#FFAE5F" d="M391.1,79.4l-17.7,32.3v31.6h-2.9v-31.6l-17.8-32.3h3.4l15.8,28.8l15.8-28.8H391.1z"/>
		</g>
	</g>
</g>
</svg>
