<?xml version="1.0" encoding="utf-8"?>
<!-- Generator: Adobe Illustrator 17.1.0, SVG Export Plug-In . SVG Version: 6.00 Build 0)  -->
<!DOCTYPE svg PUBLIC "-//W3C//DTD SVG 1.1//EN" "http://www.w3.org/Graphics/SVG/1.1/DTD/svg11.dtd">
<svg version="1.1" id="short_circuit" xmlns="http://www.w3.org/2000/svg" xmlns:xlink="http://www.w3.org/1999/xlink" x="0px"
	 y="0px" viewBox="0 0 500 500" enable-background="new 0 0 500 500" xml:space="preserve">
<polyline fill="#FFFFFF" points="307.457,285.381 215.969,354.771 247.79,354.771 192.543,421.51 290.662,350.352 259.723,350.352 
	307.457,285.381 "/>
<g>
	<path fill="#FF4338" d="M104.365,134.342c-4.262,0-7.459-1.361-9.592-4.086c-2.131-2.545-3.197-6.453-3.197-11.724V117.2h2.753
		v1.332c0,2.961,0.325,5.299,0.978,7.016c0.65,1.719,1.464,3.02,2.442,3.908c0.976,0.888,2.056,1.465,3.242,1.732
		c1.184,0.266,2.31,0.4,3.374,0.4c3.199,0,5.67-1.111,7.417-3.331c1.747-2.22,2.621-5.314,2.621-9.281
		c0-2.132-0.371-3.922-1.111-5.373c-0.741-1.45-1.629-2.65-2.665-3.597c-1.036-0.946-2.117-1.688-3.242-2.22
		c-1.126-0.533-2.043-0.946-2.753-1.244l-1.51-0.622c-0.888-0.355-1.985-0.872-3.286-1.554c-1.303-0.679-2.561-1.628-3.774-2.842
		c-1.214-1.213-2.265-2.723-3.153-4.53c-0.889-1.805-1.333-4.01-1.333-6.617c0-4.499,1.036-8.201,3.109-11.102
		c2.367-3.197,5.595-4.796,9.68-4.796c4.204,0,7.43,1.391,9.682,4.174c2.131,2.664,3.197,6.572,3.197,11.724v1.421h-2.842v-1.421
		c0-4.499-0.859-7.845-2.577-10.037c-1.599-2.012-4.085-3.02-7.461-3.02c-3.197,0-5.655,1.214-7.371,3.641
		c-1.777,2.429-2.665,5.566-2.665,9.415c0,2.132,0.355,3.938,1.066,5.418c0.711,1.48,1.583,2.724,2.619,3.73
		c1.036,1.008,2.117,1.807,3.243,2.398c1.124,0.593,2.131,1.065,3.019,1.421l1.422,0.622c0.769,0.298,1.804,0.755,3.109,1.377
		c1.301,0.622,2.575,1.51,3.818,2.665c1.243,1.155,2.323,2.62,3.243,4.396c0.917,1.776,1.376,3.968,1.376,6.572
		c0,4.44-1.066,8.054-3.197,10.836C111.737,132.832,108.51,134.342,104.365,134.342z"/>
	<path fill="#FF4338" d="M144.511,74.568v59.862h-2.842v-28.51H123.55v28.51h-2.842V74.568h2.842v28.599h18.119V74.568H144.511z"/>
	<path fill="#FF4338" d="M162.185,134.431c-1.42,0-2.886-0.207-4.396-0.622c-1.51-0.413-2.886-1.213-4.129-2.398
		c-1.243-1.184-2.252-2.798-3.02-4.841c-0.77-2.043-1.155-4.721-1.155-8.037V90.378c0-5.092,1.036-9,3.109-11.724
		c2.19-2.723,5.388-4.086,9.592-4.086c4.264,0,7.461,1.363,9.592,4.086c2.133,2.664,3.199,6.572,3.199,11.724v28.155
		c0,3.316-0.386,5.995-1.155,8.037c-0.77,2.043-1.777,3.657-3.02,4.841c-1.243,1.185-2.621,1.985-4.129,2.398
		C165.161,134.224,163.665,134.431,162.185,134.431z M162.185,77.322c-3.374,0-5.832,1.037-7.371,3.109
		c-1.719,2.191-2.577,5.506-2.577,9.947v28.155c0,4.5,0.857,7.846,2.577,10.036c1.599,2.074,4.054,3.109,7.371,3.109
		c3.257,0,5.743-1.035,7.461-3.109c1.656-2.071,2.486-5.418,2.486-10.036V90.378c0-4.559-0.83-7.874-2.486-9.947
		C167.988,78.358,165.501,77.322,162.185,77.322z"/>
	<path fill="#FF4338" d="M200.199,107.164c2.665,2.547,3.997,6.071,3.997,10.57v16.609h-2.842v-16.609
		c0-3.611-0.978-6.409-2.932-8.394c-1.954-1.983-4.706-2.975-8.259-2.975h-1.333h-6.662v27.978h-2.753V74.48h10.748
		c4.796,0,8.304,1.287,10.524,3.863c2.221,2.576,3.332,6.588,3.332,12.035c0,5.329-1.097,9.297-3.287,11.901
		c-0.947,1.125-2.131,2.043-3.553,2.753C198.302,105.565,199.311,106.276,200.199,107.164z M190.163,103.523
		c3.966,0,6.779-1.006,8.437-3.02c1.776-2.132,2.665-5.507,2.665-10.125c0-4.677-0.861-8.023-2.577-10.037
		c-1.718-2.012-4.56-3.02-8.526-3.02h-7.995v26.201h6.662H190.163z"/>
	<path fill="#FF4338" d="M239.454,77.322h-14.388v57.021h-2.753V77.322h-14.299V74.48h31.441V77.322z"/>
	<path fill="#FF4338" d="M262.012,134.431c-1.481,0-2.975-0.207-4.485-0.622c-1.51-0.413-2.888-1.213-4.131-2.398
		c-1.243-1.184-2.25-2.798-3.019-4.841c-0.77-2.043-1.155-4.721-1.155-8.037V90.378c0-3.256,0.384-5.92,1.155-7.994
		c0.769-2.071,1.776-3.685,3.019-4.84c1.243-1.155,2.621-1.939,4.131-2.354c1.51-0.413,3.003-0.622,4.485-0.622
		c1.422,0,2.886,0.208,4.396,0.622c1.51,0.415,2.886,1.199,4.131,2.354c1.243,1.155,2.248,2.769,3.019,4.84
		c0.769,2.074,1.155,4.738,1.155,7.994v1.421h-2.842v-1.421c0-4.559-0.83-7.874-2.486-9.947c-1.719-2.072-4.175-3.109-7.372-3.109
		c-3.257,0-5.743,1.037-7.461,3.109c-1.658,2.073-2.486,5.389-2.486,9.947v28.155c0,4.56,0.857,7.905,2.575,10.036
		c1.599,2.074,4.056,3.109,7.372,3.109c3.197,0,5.653-1.035,7.372-3.109c1.656-2.19,2.486-5.536,2.486-10.036v-1.421h2.842v1.421
		c0,3.316-0.386,5.995-1.155,8.037c-0.77,2.043-1.776,3.657-3.019,4.841c-1.245,1.185-2.621,1.985-4.131,2.398
		C264.898,134.224,263.434,134.431,262.012,134.431z"/>
	<path fill="#FF4338" d="M279.332,134.431V74.568h2.753v59.862H279.332z"/>
	<path fill="#FF4338" d="M306.954,107.164c2.665,2.547,3.997,6.071,3.997,10.57v16.609h-2.842v-16.609
		c0-3.611-0.978-6.409-2.932-8.394c-1.954-1.983-4.706-2.975-8.259-2.975h-1.333h-6.662v27.978h-2.753V74.48h10.748
		c4.796,0,8.304,1.287,10.524,3.863c2.221,2.576,3.332,6.588,3.332,12.035c0,5.329-1.097,9.297-3.287,11.901
		c-0.947,1.125-2.131,2.043-3.553,2.753C305.058,105.565,306.066,106.276,306.954,107.164z M296.918,103.523
		c3.966,0,6.779-1.006,8.437-3.02c1.776-2.132,2.665-5.507,2.665-10.125c0-4.677-0.861-8.023-2.577-10.037
		c-1.718-2.012-4.56-3.02-8.526-3.02h-7.995v26.201h6.662H296.918z"/>
	<path fill="#FF4338" d="M327.825,134.431c-1.481,0-2.974-0.207-4.485-0.622c-1.51-0.413-2.888-1.213-4.131-2.398
		c-1.243-1.184-2.25-2.798-3.019-4.841c-0.77-2.043-1.155-4.721-1.155-8.037V90.378c0-3.256,0.384-5.92,1.155-7.994
		c0.769-2.071,1.776-3.685,3.019-4.84c1.243-1.155,2.621-1.939,4.131-2.354c1.51-0.413,3.003-0.622,4.485-0.622
		c1.422,0,2.886,0.208,4.396,0.622c1.51,0.415,2.886,1.199,4.131,2.354c1.243,1.155,2.248,2.769,3.019,4.84
		c0.769,2.074,1.155,4.738,1.155,7.994v1.421h-2.842v-1.421c0-4.559-0.83-7.874-2.486-9.947c-1.719-2.072-4.175-3.109-7.372-3.109
		c-3.257,0-5.743,1.037-7.461,3.109c-1.658,2.073-2.486,5.389-2.486,9.947v28.155c0,4.56,0.857,7.905,2.575,10.036
		c1.599,2.074,4.056,3.109,7.372,3.109c3.197,0,5.653-1.035,7.372-3.109c1.656-2.19,2.486-5.536,2.486-10.036v-1.421h2.842v1.421
		c0,3.316-0.386,5.995-1.155,8.037c-0.77,2.043-1.776,3.657-3.019,4.841c-1.245,1.185-2.621,1.985-4.131,2.398
		C330.711,134.224,329.247,134.431,327.825,134.431z"/>
	<path fill="#FF4338" d="M355.626,134.342c-1.364,0-2.74-0.192-4.131-0.577c-1.391-0.384-2.665-1.111-3.818-2.176
		c-1.155-1.066-2.104-2.56-2.844-4.486c-0.74-1.923-1.109-4.396-1.109-7.416V74.48h2.753v45.208c0,2.664,0.294,4.782,0.888,6.35
		c0.59,1.569,1.332,2.769,2.219,3.597c0.889,0.83,1.866,1.362,2.932,1.599c1.065,0.237,2.1,0.355,3.109,0.355
		c0.946,0,1.954-0.118,3.019-0.355c1.066-0.236,2.043-0.769,2.932-1.599c0.888-0.828,1.628-2.028,2.219-3.597
		c0.592-1.568,0.888-3.686,0.888-6.35V74.48h2.753v45.208c0,3.02-0.369,5.492-1.109,7.416c-0.741,1.925-1.675,3.419-2.798,4.486
		c-1.126,1.065-2.4,1.792-3.82,2.176C358.289,134.15,356.927,134.342,355.626,134.342z"/>
	<path fill="#FF4338" d="M374.276,134.431V74.568h2.753v59.862H374.276z"/>
	<path fill="#FF4338" d="M412.023,77.322h-14.388v57.021h-2.753V77.322h-14.299V74.48h31.441V77.322z"/>
</g>
<g>
	<path fill="#FF4338" d="M177.019,205.919c0-1.515,0.824-2.826,2.039-3.545v-50.132h-29.6c1.195,1.92,2.216,4.016,3.065,6.283
		h20.252v112.068h6.283v-61.13C177.843,208.745,177.019,207.434,177.019,205.919z"/>
	<path fill="#FF4338" d="M183.075,152.242v50.043c1.306,0.694,2.205,2.052,2.205,3.634c0,1.582-0.899,2.94-2.205,3.634v54.932v6.109
		h6.283V158.526h20.903c0.809-2.27,1.787-4.366,2.938-6.283H183.075z"/>
	<path fill="#FF4338" d="M146.413,148.228h32.645h4.017h33.042c1.937-2.124,4.589-4.203,7.958-6.236
		c0.028-0.016,0.06-0.031,0.09-0.048h-86.029c0.174,0.098,0.361,0.186,0.532,0.288C141.911,144.188,144.484,146.187,146.413,148.228
		z"/>
	<path fill="#FF4338" d="M294.854,174.179c0,1.597-0.916,2.967-2.242,3.654v58.547c0,8.264,1.57,14.374,4.714,18.328
		c3.024,3.727,7.619,5.587,13.79,5.587c6.284,0,10.878-1.86,13.79-5.587c1.646-2.073,2.85-4.752,3.633-8.008
		c-1.001-0.753-1.66-1.942-1.66-3.294c0-1.758,1.103-3.251,2.652-3.847c0.056-1.024,0.088-2.079,0.088-3.179v-94.437h-6.109v94.437
		c0,4.424-0.437,7.855-1.311,10.3c-0.871,2.443-1.948,4.218-3.228,5.323c-1.283,1.107-2.619,1.747-4.014,1.922
		c-1.398,0.173-2.68,0.26-3.84,0.26c-1.165,0-2.444-0.087-3.842-0.26c-1.396-0.175-2.735-0.814-4.014-1.922
		c-1.282-1.105-2.357-2.88-3.228-5.323c-0.874-2.445-1.311-5.876-1.311-10.3v-94.437h-6.109v28.581
		C293.938,171.211,294.854,172.581,294.854,174.179z"/>
	<path fill="#FF4338" d="M135.859,145.26c-3.665-2.209-8.64-3.317-14.926-3.317c-4.538,0-8.7,0.903-12.479,2.706
		c-3.785,1.805-7.044,4.307-9.779,7.506c-2.734,3.202-4.829,7.069-6.283,11.607c-1.457,4.539-2.182,9.544-2.182,15.012
		c0,10.473,3.492,19.087,10.473,25.835c2.793,2.678,5.613,4.743,8.466,6.197c2.85,1.456,5.207,2.591,7.07,3.403l3.143,1.397
		c1.858,0.815,3.722,1.717,5.584,2.705c1.863,0.989,3.549,2.211,5.065,3.666c1.509,1.457,2.731,3.229,3.665,5.323
		c0.93,2.096,1.396,4.656,1.396,7.681c0,1.745-0.149,3.753-0.435,6.022c-0.293,2.269-0.934,4.363-1.92,6.284
		c-0.992,1.919-2.418,3.55-4.277,4.887c-1.863,1.34-4.364,2.008-7.507,2.008c-3.261,0-5.646-0.435-7.157-1.31
		c-1.513-0.872-2.562-1.715-3.141-2.531c-2.679-3.256-4.015-8.668-4.015-16.234v-8.204h-6.109v8.204
		c0,9.077,1.745,15.77,5.237,20.075c3.256,4.075,8.319,6.11,15.186,6.11c6.4,0,11.403-2.209,15.012-6.633
		c1.616-1.982,2.85-4.346,3.743-7.051c-0.941-0.757-1.553-1.904-1.553-3.205c0-1.885,1.268-3.457,2.994-3.953
		c0.138-1.428,0.228-2.905,0.228-4.469c0-4.304-0.758-7.942-2.27-10.91c-1.513-2.968-3.316-5.412-5.41-7.332
		c-2.095-1.92-4.249-3.403-6.458-4.451c-2.213-1.048-4.076-1.86-5.587-2.444l-2.968-1.396c-1.63-0.698-3.726-1.686-6.284-2.969
		c-2.562-1.279-5.035-3.054-7.419-5.323c-2.387-2.269-4.425-5.149-6.109-8.641c-1.689-3.492-2.532-7.737-2.532-12.743
		c0-0.411,0.026-0.8,0.034-1.205c-1.072-0.746-1.779-1.984-1.779-3.392c0-1.687,1.014-3.131,2.463-3.774
		c0.91-5.1,2.695-9.478,5.393-13.101c4.42-6.049,10.586-9.077,18.502-9.077c8.145,0,14.255,2.618,18.33,7.855
		c4.071,4.888,6.109,12.454,6.109,22.693v8.204h6.283v-8.204c0-11.404-2.503-20.306-7.507-26.708
		C142.288,149.741,139.524,147.472,135.859,145.26z"/>
	<path fill="#FF4338" d="M140.834,209.323c-2.793-2.676-5.616-4.683-8.466-6.022c-2.852-1.337-5.092-2.356-6.72-3.055l-2.793-1.222
		c-2.095-0.813-4.104-1.773-6.022-2.88c-1.92-1.105-3.64-2.444-5.151-4.015c-1.513-1.571-2.735-3.432-3.664-5.586
		c-0.935-2.153-1.398-4.74-1.398-7.768c0-1.162,0.115-2.88,0.349-5.149c0.231-2.27,0.845-4.539,1.833-6.808
		c0.989-2.27,2.413-4.217,4.277-5.848c1.86-1.629,4.477-2.445,7.854-2.445c1.162,0,2.559,0.119,4.19,0.35
		c1.627,0.234,3.199,0.96,4.713,2.182c1.511,1.222,2.763,3.229,3.752,6.022c0.989,2.793,1.485,6.693,1.485,11.695v8.204h6.284
		v-8.204c0-9.077-1.747-15.825-5.237-20.25c-3.378-4.189-8.438-6.283-15.187-6.283c-3.726,0-6.895,0.816-9.514,2.443
		c-2.617,1.632-4.744,3.726-6.371,6.285c-1.63,2.561-2.793,5.411-3.49,8.553c-0.109,0.484-0.192,0.963-0.282,1.444
		c0.945,0.757,1.562,1.906,1.562,3.212c0,1.621-0.944,3.01-2.303,3.686c-0.006,0.303-0.025,0.608-0.025,0.91
		c0,4.308,0.725,7.942,2.182,10.91c1.454,2.967,3.23,5.471,5.325,7.506c2.094,2.037,4.276,3.639,6.545,4.8
		c2.27,1.165,4.217,2.094,5.847,2.793l2.793,1.221c1.513,0.584,3.518,1.484,6.022,2.706c2.501,1.222,4.947,2.941,7.333,5.149
		c2.383,2.212,4.451,5.036,6.196,8.466c1.745,3.434,2.619,7.653,2.619,12.656c0,1.861-0.121,3.65-0.327,5.385
		c0.825,0.755,1.351,1.831,1.351,3.037c0,1.828-1.195,3.361-2.841,3.905c-1.035,3.239-2.455,6.067-4.293,8.446
		c-2.095,2.91-4.714,5.092-7.857,6.546c-3.141,1.455-6.633,2.182-10.473,2.182c-8.145,0-14.313-2.559-18.502-7.681
		c-4.076-5.119-6.111-12.683-6.111-22.693v-8.204h-6.109v8.204c0,11.521,2.501,20.367,7.505,26.533
		c5.237,6.633,12.976,9.95,23.217,9.95c9.89,0,17.689-3.665,23.392-10.998c4.888-6.516,7.33-14.719,7.33-24.612
		C151.656,224.51,148.048,215.957,140.834,209.323z"/>
	<path fill="#FF4338" d="M259.236,243.406c0-1.844,1.215-3.386,2.883-3.918c0.192-1.845,0.294-3.806,0.294-5.901v-55.509
		c0-9.078-1.745-15.711-5.238-19.9c-3.14-4.19-8.145-6.284-15.011-6.284c-6.869,0-11.871,2.095-15.014,6.284
		c-2.495,2.998-4.085,7.27-4.795,12.771c0.958,0.756,1.584,1.915,1.584,3.23c0,1.505-0.814,2.808-2.015,3.53
		c0,0.126-0.009,0.242-0.009,0.369v55.509c0,17.574,6.748,26.359,20.249,26.359c9.613,0,15.786-4.481,18.552-13.395
		C259.819,245.793,259.236,244.674,259.236,243.406z M256.304,233.587c0,5.123-0.496,9.05-1.485,11.783
		c-0.989,2.737-2.244,4.714-3.754,5.935c-1.513,1.221-3.084,1.95-4.714,2.183c-1.629,0.234-3.025,0.349-4.187,0.349
		c-1.282,0-2.706-0.115-4.277-0.349c-1.572-0.233-3.115-0.962-4.626-2.183c-1.514-1.221-2.765-3.199-3.752-5.935
		c-0.99-2.733-1.485-6.66-1.485-11.783v-55.509c0-5.003,0.494-8.874,1.485-11.609c0.987-2.733,2.238-4.713,3.752-5.935
		c1.511-1.222,3.055-1.948,4.626-2.182c1.571-0.232,2.995-0.349,4.277-0.349c1.162,0,2.559,0.118,4.187,0.349
		c1.63,0.234,3.202,0.96,4.714,2.182c1.509,1.222,2.765,3.202,3.754,5.935c0.989,2.735,1.485,6.606,1.485,11.609V233.587z"/>
	<path fill="#FF4338" d="M375.118,202.501c1.094,0.743,1.813,1.996,1.813,3.418c0,1.422-0.719,2.675-1.813,3.418v55.148v6.109h6.286
		V158.526h28.104v-6.283h-34.39V202.501z"/>
	<polygon fill="#FF4338" points="344.354,141.943 344.354,148.228 371.104,148.228 375.118,148.228 409.508,148.228 
		409.508,141.943 	"/>
	<path fill="#FF4338" d="M257.088,144.911c-3.667-2.21-8.642-3.317-14.924-3.317c-6.284,0-11.26,1.107-14.926,3.317
		c-3.665,2.212-6.431,4.481-8.291,6.807c-4.888,6.284-7.332,15.072-7.332,26.36v55.509c0,11.521,2.444,20.309,7.332,26.359
		c1.86,2.329,4.626,4.626,8.291,6.895c3.665,2.27,8.641,3.403,14.926,3.403c3.143,0,5.934-0.319,8.378-0.959
		c2.444-0.639,4.626-1.455,6.546-2.444c1.922-0.988,3.549-2.094,4.888-3.317c1.336-1.221,2.472-2.413,3.403-3.578
		c4.888-6.05,7.332-14.838,7.332-26.359v-55.509c0-11.287-2.444-20.075-7.332-26.36
		C263.516,149.392,260.755,147.123,257.088,144.911z M267.498,243.406c0,1.746-1.086,3.23-2.614,3.836
		c-1.017,3.48-2.467,6.448-4.39,8.864c-4.307,5.353-10.417,8.029-18.329,8.029c-7.916,0-14.025-2.677-18.329-8.029
		c-4.076-5.12-6.111-12.626-6.111-22.519v-55.509c0-0.119,0.009-0.228,0.009-0.345c-1.224-0.717-2.058-2.032-2.058-3.554
		c0-1.719,1.051-3.19,2.543-3.813c0.82-6.167,2.68-11.116,5.616-14.807c4.189-5.237,10.298-7.856,18.329-7.856
		c8.029,0,14.14,2.619,18.329,7.856c4.071,5.123,6.109,12.628,6.109,22.519v55.509c0,2.429-0.126,4.71-0.372,6.851
		C267.009,241.188,267.498,242.238,267.498,243.406z"/>
	<path fill="#FF4338" d="M368.668,205.919c0-1.676,1.003-3.111,2.436-3.76v-49.917h-26.75v6.283h20.466v112.068h6.284v-60.916
		C369.671,209.031,368.668,207.595,368.668,205.919z"/>
	<path fill="#FF4338" d="M333.807,236.38c0,1.351-0.054,2.638-0.136,3.89c0.889,0.758,1.469,1.874,1.469,3.136
		c0,1.692-1.018,3.141-2.473,3.78c-0.945,4.024-2.47,7.365-4.618,9.966c-3.727,4.888-9.37,7.333-16.932,7.333
		c-7.45,0-13.092-2.445-16.934-7.333c-3.839-4.652-5.76-11.578-5.76-20.772v-58.771c-1.103-0.742-1.829-2.001-1.829-3.43
		c0-1.43,0.725-2.689,1.829-3.431v-28.804h-6.109v94.437c0,10.709,2.328,18.912,6.983,24.613c1.745,2.329,4.364,4.511,7.854,6.546
		c3.492,2.037,8.145,3.055,13.966,3.055c5.818,0,10.473-1.017,13.963-3.055c3.493-2.036,6.109-4.217,7.857-6.546
		c4.652-5.701,6.98-13.904,6.98-24.613v-94.437h-6.109V236.38z"/>
</g>
</svg>
