<?xml version="1.0" encoding="utf-8"?>
<!-- Generator: Adobe Illustrator 17.1.0, SVG Export Plug-In . SVG Version: 6.00 Build 0)  -->
<!DOCTYPE svg PUBLIC "-//W3C//DTD SVG 1.1//EN" "http://www.w3.org/Graphics/SVG/1.1/DTD/svg11.dtd">
<svg version="1.1" id="ampere" xmlns="http://www.w3.org/2000/svg" xmlns:xlink="http://www.w3.org/1999/xlink" x="0px" y="0px"
	 viewBox="0 0 500 500" enable-background="new 0 0 500 500" xml:space="preserve">
<g>
	<g>
		<path fill="#FED771" d="M153.816,135.932h-2.819l4.668-20.611v-0.265l8.985-38.491h2.202l13.565,59.367h-2.819l-4.052-18.145
			h-15.678L153.816,135.932z M165.707,84.052l-7.134,31.004h14.357L165.707,84.052z"/>
		<path fill="#FED771" d="M190.634,135.932h-2.731V76.565h2.379l15.238,52.937l15.15-52.937h2.466v59.367h-2.819V87.84
			l-13.74,48.092h-2.114L190.634,87.84V135.932z"/>
		<path fill="#FED771" d="M235.291,135.932h-2.731V76.565h10.659c4.756,0,8.249,1.292,10.481,3.876
			c2.231,2.584,3.348,6.46,3.348,11.626c0,5.169-1.117,9.045-3.348,11.627c-2.231,2.585-5.725,3.876-10.481,3.876h-7.928V135.932z
			 M235.291,104.838h7.928c3.876,0,6.694-0.997,8.456-2.994c1.702-2.054,2.554-5.313,2.554-9.778c0-4.579-0.852-7.852-2.554-9.821
			c-1.704-1.967-4.523-2.949-8.456-2.949h-7.928V104.838z"/>
		<path fill="#FED771" d="M267.793,79.296v25.542h18.585v2.731h-18.585v25.631h18.585v2.731h-21.316V76.565h21.316v2.731H267.793z"
			/>
		<path fill="#FED771" d="M315.092,108.891c2.642,2.526,3.963,6.02,3.963,10.481v16.472h-2.819v-16.472
			c0-3.58-0.968-6.355-2.906-8.324c-1.937-1.965-4.668-2.949-8.191-2.949h-1.322h-6.605v27.746h-2.731V76.477h10.658
			c4.756,0,8.236,1.277,10.438,3.831c2.202,2.554,3.303,6.532,3.303,11.935c0,5.285-1.088,9.22-3.26,11.803
			c-0.94,1.117-2.112,2.026-3.522,2.731C313.212,107.304,314.212,108.009,315.092,108.891z M305.139,105.28
			c3.934,0,6.723-0.999,8.368-2.996c1.762-2.114,2.642-5.46,2.642-10.041c0-4.638-0.852-7.957-2.554-9.953
			c-1.704-1.995-4.523-2.994-8.456-2.994h-7.927v25.984h6.605H305.139z"/>
		<path fill="#FED771" d="M330.417,79.296v25.542h18.586v2.731h-18.586v25.631h18.586v2.731h-21.316V76.565h21.316v2.731H330.417z"
			/>
	</g>
	<g>
		<g>
			<path fill="#FED771" d="M132.384,174.42l-2.551-10.937l-12.508,54.247h25.16l-8.758-37.548c-1.399-0.437-2.422-1.727-2.422-3.271
				C131.306,175.928,131.723,175.047,132.384,174.42z M135.94,212.494h-12.216l6.108-26.178L135.94,212.494z"/>
			<polygon fill="#FED771" points="143.212,221.074 116.452,221.074 108.308,256.124 113.544,256.124 120.524,226.31 139.14,226.31 
				145.975,256.124 149.295,256.124 151.357,256.124 163.026,256.124 163.026,250.889 150.14,250.889 			"/>
			<path fill="#FED771" d="M391.42,174.06c-0.545-5.021-1.908-8.841-4.091-11.46c-2.909-3.393-7.661-5.091-14.252-5.091h-13.671
				v44.067h11.925h1.746c6.592,0,11.343-1.72,14.252-5.163c2.854-3.376,4.304-8.882,4.358-16.506
				c-1.057-0.588-1.78-1.702-1.78-2.997C389.906,175.725,390.507,174.679,391.42,174.06z M383.402,193.141
				c-0.389,0.486-1.286,1.164-2.69,2.036c-1.407,0.873-3.952,1.309-7.635,1.309h-6.836h-1.745v-33.741h8.581
				c2.229,0,4.192,0.195,5.89,0.581c1.695,0.389,3.102,1.189,4.217,2.399c1.114,1.213,1.964,2.909,2.546,5.091
				c0.581,2.181,0.873,5.068,0.873,8.653C386.602,185.869,385.533,190.428,383.402,193.141z"/>
			<path fill="#FED771" d="M253.349,230.85c1.195,0.54,2.03,1.736,2.03,3.132c0,1.396-0.835,2.593-2.03,3.132v10.419h12.071
				c6.301,0,10.809-1.648,13.525-4.944c2.811-3.586,4.218-9.113,4.218-16.58c0-7.658-1.407-13.209-4.218-16.653
				c-2.813-3.44-7.322-5.163-13.525-5.163h-12.071V230.85z M258.439,209.43h6.981c1.745,0,3.367,0.146,4.872,0.437
				c1.502,0.291,2.811,0.995,3.927,2.109c1.114,1.116,2.011,2.763,2.69,4.944c0.677,2.182,1.018,5.213,1.018,9.09
				c0,3.781-0.316,6.788-0.945,9.017c-0.632,2.232-1.504,3.879-2.618,4.945c-1.116,1.068-2.449,1.745-3.999,2.036
				c-1.552,0.29-3.2,0.436-4.945,0.436h-6.981V209.43z"/>
			<path fill="#FED771" d="M249.858,236.709c-0.824-0.629-1.363-1.611-1.363-2.727c0-1.116,0.54-2.098,1.363-2.727V157.51h-12.362
				v4.967h7.272v79.967h-7.272v5.09h12.362V236.709z"/>
			<path fill="#FED771" d="M282.918,173.994c-0.51-5.005-1.831-8.807-3.973-11.394c-2.716-3.393-7.224-5.091-13.525-5.091h-12.071
				v43.34h12.071c6.203,0,10.712-1.72,13.525-5.164c2.695-3.298,4.085-8.559,4.196-15.737c-1.098-0.575-1.856-1.712-1.856-3.038
				C281.285,175.676,281.941,174.602,282.918,173.994z M274.873,192.414c-0.486,0.778-1.407,1.505-2.763,2.182
				c-1.359,0.679-3.588,1.018-6.69,1.018h-6.981v-32.868h6.981c1.745,0,3.393,0.146,4.945,0.436c1.55,0.291,2.884,0.97,3.999,2.036
				c1.114,1.068,1.986,2.691,2.618,4.872c0.629,2.181,0.945,5.163,0.945,8.944C277.927,185.531,276.909,189.992,274.873,192.414z"/>
			<path fill="#FED771" d="M398.455,212.484c-1.407-3.49-3.418-6.494-6.036-9.017c0.291-0.194,0.557-0.437,0.8-0.727
				c0.241-0.291,0.459-0.532,0.655-0.727c4.265-5.139,6.399-12.654,6.399-22.543c0-9.984-2.134-17.451-6.399-22.397
				c-4.654-5.429-11.588-8.144-20.797-8.144h-28.615v5.235h11.453h1.745h15.417c7.658,0,13.282,2.086,16.87,6.254
				c2.683,3.13,4.33,7.613,4.951,13.435c1.118,0.568,1.892,1.717,1.892,3.058c0,1.228-0.648,2.298-1.615,2.907
				c-0.074,12.688-4.14,20.576-12.209,23.649c2.327,1.068,4.363,2.377,6.108,3.927c4.168,4.169,6.254,9.842,6.254,17.016v31.705
				h5.235V224.41C400.563,219.951,399.859,215.974,398.455,212.484z"/>
			<path fill="#FED771" d="M373.077,205.067h-1.746h-11.925v25.676c1.348,0.467,2.322,1.733,2.322,3.24
				c0,1.506-0.974,2.773-2.322,3.24v18.893h5.09v-45.812h1.745h6.836c9.112,0,13.67,4.705,13.67,14.108v31.705h5.236V224.41
				c0-6.204-1.65-10.98-4.945-14.325C383.741,206.739,379.087,205.067,373.077,205.067z"/>
			<path fill="#FED771" d="M310.395,209.43h24.324v-5.235H323.99c-0.61,0.964-1.678,1.61-2.904,1.61s-2.294-0.645-2.904-1.61
				h-12.877v26.734c1.114,0.57,1.885,1.716,1.885,3.053c0,1.337-0.771,2.484-1.885,3.054v10.498h42.139v-5.09h-37.049V209.43z"/>
			<path fill="#FED771" d="M135.213,148.939h-1.164h-4.072h-0.291h-4.072h-1.309L99.437,256.124h5.381l23.415-101.077h3.2
				l4.305,18.584c1.415,0.427,2.453,1.726,2.453,3.28c0,0.998-0.431,1.889-1.11,2.518l15.779,68.115h2.496h2.727h4.944v-5.235
				h-6.158L135.213,148.939z"/>
			<path fill="#FED771" d="M301.814,236.828c-0.91-0.619-1.508-1.663-1.508-2.846s0.598-2.226,1.508-2.846v-26.942v-3.345v-46.685
				h39.267v-5.235h-44.357v107.185h50.72v-5.09h-45.63V236.828z"/>
			<path fill="#FED771" d="M354.844,233.982c0-0.98,0.414-1.859,1.071-2.486V157.51h-11.453v5.195h6.363v93.41h5.09v-19.647
				C355.258,235.841,354.844,234.962,354.844,233.982z"/>
			<path fill="#FED771" d="M341.081,162.746v-5.236h-35.776v43.34h12.703c0.561-1.139,1.722-1.929,3.078-1.929
				c1.355,0,2.517,0.791,3.078,1.929h10.555v-5.235h-24.324v-32.868H341.081z"/>
			<path fill="#FED771" d="M220.838,188.837c0,1.572-1.06,2.882-2.499,3.295l-18.073,63.256l-25.16-87.552v62.975
				c1.235,0.523,2.102,1.746,2.102,3.171c0,1.426-0.867,2.649-2.102,3.171v18.815h5.09v-51.338l14.834,51.338h10.326l14.834-51.338
				v51.338h5.09v-88.133l-5.342,18.699C220.492,187.145,220.838,187.948,220.838,188.837z"/>
			<path fill="#FED771" d="M228.771,148.784h-1.6h-4.218h-1.164l-21.524,75.48l-21.67-75.48h-2.181h-3.2h-1.6h-3.491h-1.6v107.185
				h5.09V236.65c-0.782-0.631-1.292-1.585-1.292-2.668c0-1.083,0.51-2.037,1.292-2.668v-77.295h3.054l25.597,88.861l14.765-51.553
				c-0.66-0.627-1.077-1.508-1.077-2.491c0-1.666,1.184-3.055,2.757-3.373l9.006-31.445h3.054v101.95h5.09V148.784h-2.763H228.771z"
				/>
			<path fill="#FED771" d="M291.743,179.034c0-9.599-2.086-16.918-6.254-21.961c-4.363-5.429-11.053-8.144-20.07-8.144h-27.924
				v5.235h12.362h1.745h13.816c7.272,0,12.603,2.013,15.997,6.036c2.663,3.158,4.277,7.712,4.85,13.647
				c1.124,0.567,1.902,1.718,1.902,3.063c0,1.253-0.676,2.339-1.677,2.941c-0.162,12.118-3.883,19.66-11.183,22.598
				c2.52,1.164,4.604,2.715,6.254,4.654c3.295,4.17,4.945,10.471,4.945,18.906c0,8.533-1.65,14.787-4.945,18.761
				c-3.49,4.17-8.871,6.254-16.143,6.254h-12.071h-1.745h-1.745h-12.362v5.09h20.943h6.981c9.017,0,15.707-2.666,20.07-7.999
				c4.168-5.04,6.254-12.41,6.254-22.106c0-9.694-2.086-17.064-6.254-22.106c-0.195-0.29-0.581-0.727-1.163-1.308
				c0.386-0.386,0.775-0.873,1.163-1.455C289.657,196.1,291.743,188.73,291.743,179.034z"/>
		</g>
	</g>
	<g>
		<path fill="#FFFFFF" d="M244.086,346.072l-15.526,48.542h6.102l4.271-13.966h16.949l4.135,13.966h6.238l-15.39-48.542H244.086z
			 M240.358,375.766l6.982-23.863h0.136l6.982,23.863H240.358z"/>
		<path fill="#FFFFFF" d="M350.364,355.534c-2.41-2.222-4.903-4.324-7.433-6.371l4.475-5.603l-1.323-1.059l-4.475,5.603
			c-2.722-2.153-5.495-4.226-8.341-6.176l3.989-5.913l-1.403-0.946l-4,5.928c-3.039-2.032-6.132-3.968-9.296-5.767l3.469-6.208
			l-1.479-0.827l-3.471,6.212c-3.265-1.807-6.595-3.48-9.977-5.034l2.926-6.481l-1.545-0.698l-2.913,6.453
			c-3.46-1.543-6.989-2.919-10.555-4.194l4.583-13.073l-1.598-0.559l-4.576,13.052c-3.487-1.203-7.024-2.255-10.596-3.198
			l1.775-6.879l-1.641-0.423l-1.773,6.872c-3.411-0.859-6.853-1.604-10.328-2.223l1.207-6.992l-1.671-0.288l-1.209,7.004
			c-3.441-0.573-6.902-1.061-10.393-1.394l0.635-7.048l-1.687-0.152l-0.637,7.07c-3.628-0.305-7.278-0.475-10.945-0.517l0.041-7.107
			l-1.694-0.01l-0.041,7.077c-0.01,0-0.019-0.001-0.029-0.001c-3.511,0-7,0.162-10.476,0.402l-1.042-13.821l-1.691,0.127
			l1.042,13.812c-3.642,0.293-7.259,0.715-10.848,1.267l-1.125-7.003l-1.672,0.268l1.126,7.01c-3.423,0.566-6.827,1.21-10.189,2.008
			l-1.672-6.847l-1.646,0.4l1.679,6.876c-3.546,0.884-7.054,1.89-10.518,3.028l-2.245-6.698l-1.606,0.539l2.24,6.683
			c-3.529,1.204-7,2.563-10.429,4.027l-2.815-6.49l-1.553,0.675l2.804,6.468c-3.136,1.381-6.214,2.895-9.253,4.491l-6.491-12.21
			l-1.495,0.794l6.492,12.21c-1.716,0.926-3.412,1.889-5.093,2.883l-3.638-6.085l-1.454,0.87l3.634,6.079
			c-1.867,1.133-3.708,2.311-5.529,3.527l-3.968-5.879l-1.404,0.946l3.957,5.863c-1.82,1.246-3.612,2.54-5.382,3.87l-4.283-5.646
			l-1.35,1.022l4.28,5.642c-1.52,1.169-3.02,2.37-4.5,3.6l-4.557-5.426l-1.297,1.088l4.562,5.432
			c-1.534,1.305-3.057,2.626-4.544,3.997l-9.479-10.067l-1.234,1.161l10.634,11.293l0.616-0.574
			c27.62-25.744,63.635-39.92,101.412-39.92c37.717,0,73.725,14.201,101.393,39.99l0.617,0.576l10.653-11.366l-1.237-1.158
			L350.364,355.534z"/>
		<path fill="#FFFFFF" d="M135.802,343.21c-0.119-0.723-0.543-1.477-1.275-2.261l-3.614-3.877c-0.733-0.786-1.452-1.257-2.157-1.419
			c-0.824-0.203-1.567,0.002-2.227,0.619c-0.662,0.615-0.918,1.343-0.771,2.177c0.119,0.708,0.544,1.454,1.277,2.24l3.614,3.877
			c0.725,0.776,1.441,1.256,2.155,1.441c0.83,0.213,1.576,0.012,2.236-0.605C135.702,344.783,135.957,344.055,135.802,343.21z
			 M134.137,344.019c-0.071,0.099-0.132,0.17-0.182,0.217c-0.05,0.046-0.124,0.103-0.227,0.165
			c-0.103,0.065-0.238,0.091-0.405,0.078c-0.165-0.015-0.374-0.093-0.622-0.233c-0.245-0.141-0.543-0.395-0.89-0.768l-3.614-3.877
			c-0.339-0.364-0.567-0.672-0.686-0.923c-0.119-0.253-0.18-0.462-0.182-0.63c-0.003-0.167,0.033-0.299,0.103-0.397
			c0.073-0.096,0.132-0.169,0.182-0.215c0.05-0.046,0.126-0.101,0.228-0.167c0.103-0.063,0.235-0.089,0.404-0.074
			c0.167,0.013,0.374,0.088,0.615,0.225c0.243,0.136,0.533,0.385,0.873,0.749l3.616,3.877c0.346,0.372,0.581,0.686,0.701,0.941
			c0.126,0.255,0.189,0.468,0.19,0.635C134.243,343.791,134.207,343.923,134.137,344.019z"/>
		<path fill="#FFFFFF" d="M165.424,316.718l0.007,0.015l1.419-0.723l-0.008-0.013l-0.246-0.485c-0.25-0.491-0.344-0.915-0.283-1.264
			c0.02-0.086,0.06-0.184,0.116-0.296c0.058-0.111,0.187-0.217,0.387-0.319c0.202-0.103,0.362-0.151,0.481-0.141
			c0.119,0.01,0.223,0.041,0.314,0.094c0.117,0.056,0.26,0.174,0.428,0.356c0.167,0.179,0.351,0.466,0.551,0.857l0.554,1.088
			c0.083,0.162,0.157,0.347,0.228,0.559c0.069,0.212,0.112,0.422,0.132,0.635c0.02,0.212-0.002,0.405-0.063,0.584
			c-0.063,0.177-0.184,0.311-0.366,0.404c-0.18,0.093-0.347,0.131-0.501,0.114c-0.156-0.018-0.296-0.056-0.422-0.119
			c-0.127-0.063-0.233-0.139-0.321-0.237c-0.086-0.094-0.146-0.174-0.175-0.233l-0.124-0.241l-1.418,0.723l0.122,0.242
			c0.139,0.273,0.328,0.519,0.566,0.739c0.24,0.22,0.511,0.392,0.816,0.516c0.354,0.149,0.718,0.217,1.092,0.205
			c0.374-0.015,0.736-0.111,1.088-0.289c0.384-0.195,0.686-0.463,0.911-0.806c0.223-0.342,0.356-0.741,0.392-1.189
			c0.069-0.733-0.106-1.512-0.526-2.337l-0.553-1.087c-0.473-0.925-1.026-1.563-1.659-1.912c-0.243-0.127-0.561-0.217-0.953-0.265
			c-0.392-0.046-0.834,0.055-1.327,0.306c-0.342,0.174-0.624,0.394-0.844,0.658l-1.322-2.597l3.305-1.684l-0.725-1.419l-3.305,1.684
			l-1.418,0.725l3.399,6.67L165.424,316.718z"/>
		<polygon fill="#FFFFFF" points="231.22,290.427 231.889,299.991 233.477,299.881 232.607,287.426 231.069,287.534 
			229.273,290.511 230.578,291.457 		"/>
		<path fill="#FFFFFF" d="M235.108,298.68c0.513,0.688,1.217,1.001,2.121,0.938c0.9-0.063,1.555-0.471,1.968-1.224
			c0.364-0.637,0.506-1.489,0.43-2.561l-0.367-5.288c-0.076-1.07-0.337-1.889-0.784-2.458c-0.513-0.678-1.217-0.986-2.117-0.923
			c-0.903,0.063-1.558,0.466-1.972,1.209c-0.354,0.624-0.49,1.472-0.417,2.542l0.371,5.288
			C234.413,297.264,234.671,298.086,235.108,298.68z M235.607,289.654c0.063-0.271,0.149-0.475,0.251-0.604
			c0.106-0.132,0.215-0.213,0.334-0.245c0.116-0.03,0.208-0.048,0.275-0.053c0.069-0.005,0.162,0,0.281,0.013
			c0.119,0.015,0.242,0.081,0.361,0.197c0.122,0.114,0.235,0.303,0.337,0.562c0.103,0.258,0.172,0.635,0.208,1.131l0.367,5.288
			c0.036,0.506,0.02,0.9-0.043,1.173c-0.066,0.278-0.152,0.483-0.255,0.615c-0.106,0.131-0.215,0.21-0.331,0.242
			c-0.119,0.031-0.208,0.048-0.278,0.053c-0.066,0.005-0.162,0.002-0.281-0.013c-0.119-0.015-0.242-0.079-0.361-0.194
			c-0.122-0.117-0.235-0.308-0.337-0.574c-0.103-0.261-0.172-0.648-0.208-1.155l-0.371-5.288
			C235.524,290.308,235.538,289.924,235.607,289.654z"/>
		<polygon fill="#FFFFFF" points="301.786,307.306 305.85,295.502 304.395,295.001 301.577,297.04 302.409,298.42 303.402,297.723 
			300.281,306.788 		"/>
		<path fill="#FFFFFF" d="M304.294,303.458l-0.005,0.015l1.505,0.519l0.005-0.017l0.177-0.513c0.18-0.523,0.417-0.883,0.713-1.08
			c0.074-0.046,0.172-0.086,0.293-0.124c0.121-0.035,0.286-0.017,0.5,0.058c0.215,0.074,0.359,0.155,0.435,0.246
			c0.076,0.093,0.126,0.19,0.151,0.294c0.04,0.122,0.055,0.306,0.041,0.552c-0.013,0.245-0.091,0.577-0.235,0.994l-0.397,1.153
			c-0.058,0.172-0.141,0.354-0.243,0.552c-0.104,0.195-0.225,0.376-0.364,0.538c-0.139,0.16-0.294,0.28-0.465,0.359
			c-0.17,0.078-0.351,0.084-0.544,0.018c-0.192-0.066-0.336-0.16-0.432-0.281c-0.094-0.124-0.164-0.251-0.207-0.387
			c-0.043-0.134-0.061-0.263-0.051-0.394c0.007-0.129,0.023-0.225,0.045-0.289l0.089-0.256l-1.507-0.518l-0.088,0.256
			c-0.101,0.289-0.146,0.595-0.137,0.92c0.007,0.326,0.071,0.64,0.194,0.945c0.139,0.359,0.344,0.668,0.612,0.93
			c0.27,0.258,0.591,0.453,0.964,0.582c0.405,0.139,0.809,0.17,1.213,0.094c0.402-0.076,0.779-0.258,1.126-0.544
			c0.576-0.457,1.016-1.125,1.317-2.002l0.397-1.151c0.337-0.983,0.412-1.825,0.223-2.521c-0.076-0.265-0.233-0.556-0.471-0.87
			c-0.238-0.314-0.619-0.562-1.141-0.743c-0.362-0.124-0.716-0.175-1.059-0.151l0.948-2.754l3.507,1.209l0.519-1.507l-3.507-1.208
			l-1.507-0.518l-2.437,7.078L304.294,303.458z"/>
		<path fill="#FFFFFF" d="M361.664,339.927l-0.743-0.645c0.212-0.175,0.43-0.326,0.652-0.453c0.225-0.129,0.475-0.248,0.751-0.359
			c0.278-0.111,0.584-0.215,0.921-0.309c0.337-0.098,0.713-0.203,1.13-0.321c0.182-0.053,0.356-0.098,0.526-0.139
			c0.169-0.04,0.334-0.076,0.5-0.112c0.278-0.06,0.551-0.126,0.822-0.195c0.271-0.071,0.541-0.165,0.809-0.286
			c0.268-0.117,0.533-0.27,0.797-0.452c0.263-0.182,0.529-0.419,0.797-0.71l0.012,0.012l0.088-0.103l-0.012-0.01
			c0.303-0.366,0.533-0.743,0.69-1.13c0.157-0.385,0.24-0.759,0.251-1.117c0.012-0.357-0.055-0.698-0.197-1.026
			c-0.144-0.326-0.359-0.615-0.65-0.867c-0.407-0.354-0.801-0.561-1.178-0.619c-0.375-0.06-0.698-0.053-0.966,0.013
			c-0.685,0.152-1.36,0.612-2.028,1.378l-0.533,0.614l1.201,1.045l0.533-0.615c0.281-0.321,0.529-0.549,0.739-0.682
			c0.21-0.129,0.394-0.198,0.551-0.205c0.155-0.007,0.285,0.02,0.384,0.086c0.099,0.066,0.185,0.129,0.253,0.189
			c0.18,0.155,0.275,0.328,0.288,0.519c0.015,0.19-0.013,0.38-0.079,0.569c-0.068,0.189-0.154,0.361-0.258,0.516
			s-0.19,0.271-0.256,0.347c-0.179,0.205-0.356,0.371-0.533,0.495c-0.175,0.124-0.357,0.227-0.548,0.308
			c-0.19,0.083-0.395,0.147-0.61,0.2c-0.217,0.05-0.457,0.106-0.715,0.162c-0.331,0.073-0.698,0.157-1.098,0.258
			c-0.511,0.139-0.983,0.278-1.413,0.412c-0.43,0.134-0.844,0.289-1.239,0.47c-0.395,0.18-0.769,0.399-1.12,0.655
			c-0.351,0.256-0.695,0.581-1.035,0.974l-0.523,0.599l1.995,1.734l1.393,1.211l0.612,0.534l1.045-1.203l-0.614-0.533
			L361.664,339.927z"/>
		<path fill="#FFFFFF" d="M373.41,335.705c-0.682-0.592-1.431-0.771-2.246-0.538c-0.691,0.192-1.389,0.693-2.093,1.504l-3.479,4
			c-0.696,0.802-1.098,1.565-1.208,2.296c-0.126,0.847,0.154,1.568,0.837,2.16c0.682,0.594,1.433,0.771,2.256,0.528
			c0.706-0.194,1.413-0.695,2.116-1.504l3.479-4.003c0.705-0.811,1.098-1.575,1.184-2.293
			C374.374,337.015,374.092,336.299,373.41,335.705z M372.512,338.147c-0.109,0.255-0.326,0.572-0.653,0.946l-3.479,4.003
			c-0.332,0.382-0.62,0.648-0.862,0.796c-0.241,0.151-0.447,0.235-0.612,0.255c-0.169,0.018-0.303-0.002-0.407-0.061
			c-0.106-0.061-0.182-0.116-0.233-0.159c-0.051-0.045-0.114-0.114-0.189-0.208c-0.074-0.096-0.114-0.228-0.117-0.394
			c-0.007-0.169,0.05-0.384,0.165-0.643c0.112-0.26,0.337-0.581,0.668-0.964l3.48-4.001c0.326-0.376,0.609-0.635,0.844-0.779
			c0.24-0.146,0.443-0.228,0.609-0.248c0.165-0.02,0.303,0.003,0.407,0.063c0.104,0.06,0.182,0.114,0.233,0.159
			c0.051,0.043,0.114,0.112,0.189,0.208c0.074,0.094,0.114,0.225,0.117,0.394C372.676,337.678,372.623,337.892,372.512,338.147z"/>
		<path fill="#FFFFFF" d="M256.665,411.48c-2.807,0-6.269-2.251-9.326-4.238c-2.964-1.927-5.525-3.591-7.684-3.591
			c-5.603,0-7.318,4.367-7.44,6.678l1.691,0.093c0.013-0.207,0.371-5.077,5.75-5.077c1.657,0,4.135,1.611,6.761,3.318
			c3.254,2.114,6.941,4.511,10.249,4.511c4.807,0,6.293-4.696,6.405-7.179l-1.691-0.078
			C261.368,406.143,261.052,411.48,256.665,411.48z"/>
	</g>
</g>
</svg>
