<?xml version="1.0" encoding="utf-8"?>
<!-- Generator: Adobe Illustrator 18.0.0, SVG Export Plug-In . SVG Version: 6.00 Build 0)  -->
<!DOCTYPE svg PUBLIC "-//W3C//DTD SVG 1.1//EN" "http://www.w3.org/Graphics/SVG/1.1/DTD/svg11.dtd">
<svg version="1.1" id="Layer_1" xmlns="http://www.w3.org/2000/svg" xmlns:xlink="http://www.w3.org/1999/xlink" x="0px" y="0px"
	 viewBox="0 0 432 144" enable-background="new 0 0 432 144" xml:space="preserve">
<polygon fill="#FFFFFF" points="224,123.9 217.7,123.9 217.7,87.8 205.4,87.8 205.4,86.6 218.9,86.6 218.9,122.7 223.5,122.7 
	230.5,115.8 230.5,110.5 231.7,110.5 231.7,116.3 "/>
<polygon fill="#FFFFFF" points="230.5,110.7 231.7,110.7 231.7,107.1 227.6,107.1 227.6,108.4 230.5,108.4 "/>
<polygon fill="#FFFFFF" points="232.1,65.3 227.6,65.3 227.6,64.1 230.8,64.1 230.8,47.4 232.1,47.4 "/>
<polygon fill="#FFFFFF" points="231.6,48.2 230.4,48.2 230.4,39.3 243.4,26.3 254.7,26.3 254.7,27.5 243.9,27.5 231.6,39.8 "/>
<polygon fill="#FFFFFF" points="231.2,45 223.5,58.3 238.8,58.3 "/>
<rect x="256.3" y="29.3" fill="#FFFFFF" width="1.2" height="4.3"/>
<polygon fill="#FFFFFF" points="259.1,33.3 256.9,37 254.7,33.3 "/>
<path fill="#FFFFFF" d="M256.9,30.2c-1.7,0-3-1.3-3-3c0-1.7,1.3-3,3-3c1.7,0,3,1.3,3,3C259.9,28.8,258.6,30.2,256.9,30.2
	 M256.9,25.4c-1,0-1.8,0.8-1.8,1.8c0,1,0.8,1.8,1.8,1.8c1,0,1.8-0.8,1.8-1.8C258.7,26.2,257.9,25.4,256.9,25.4"/>
<g>
	<path fill="#A09F9F" d="M228.5,52.3v-0.5h2.1v0.5l-1.5,3.5h-0.5l1.4-3.4H228.5z"/>
	<path fill="#A09F9F" d="M230.8,54.6v-1.7c0-0.3,0.1-0.6,0.2-0.8c0.1-0.2,0.4-0.3,0.6-0.3c0.3,0,0.5,0.1,0.6,0.3
		c0.1,0.2,0.2,0.5,0.2,0.8v1.7c0,0.3-0.1,0.6-0.2,0.8c-0.1,0.2-0.4,0.3-0.6,0.3c-0.3,0-0.5-0.1-0.6-0.3
		C230.9,55.2,230.8,54.9,230.8,54.6z M231.3,54.6c0,0.2,0,0.3,0,0.4c0,0.1,0.1,0.1,0.1,0.2c0,0,0.1,0.1,0.1,0.1c0,0,0.1,0,0.1,0
		c0,0,0.1,0,0.1,0c0,0,0.1,0,0.1-0.1c0,0,0.1-0.1,0.1-0.2s0-0.2,0-0.4v-1.7c0-0.2,0-0.3,0-0.4s-0.1-0.1-0.1-0.2c0,0-0.1-0.1-0.1-0.1
		c0,0-0.1,0-0.1,0c0,0-0.1,0-0.1,0s-0.1,0-0.1,0.1c0,0-0.1,0.1-0.1,0.2c0,0.1,0,0.2,0,0.4V54.6z"/>
</g>
<g>
	<path fill="#A09F9F" d="M232.8,53.3v-1c0-0.2,0-0.4,0.1-0.5c0,0,0,0,0.1-0.1c0,0,0.1,0,0.1-0.1c0,0,0.1,0,0.1,0c0,0,0.1,0,0.1,0
		c0.1,0,0.2,0,0.3,0.1c0.1,0,0.1,0.1,0.1,0.1c0.1,0.1,0.1,0.3,0.1,0.5v1c0,0.2,0,0.4-0.1,0.5c0,0-0.1,0.1-0.1,0.1
		c-0.1,0-0.2,0.1-0.3,0.1s-0.2,0-0.3-0.1c-0.1,0-0.1-0.1-0.1-0.1C232.9,53.6,232.8,53.5,232.8,53.3z M233.1,53.3c0,0.1,0,0.2,0,0.2
		c0,0,0,0.1,0.1,0.1c0,0,0.1,0,0.1,0c0,0,0.1,0,0.1,0c0,0,0,0,0.1,0c0,0,0.1,0,0.1,0c0,0,0-0.1,0.1-0.1c0,0,0-0.1,0-0.2v-1
		c0-0.1,0-0.2,0-0.2c0,0,0-0.1-0.1-0.1s-0.1,0-0.1,0c0,0-0.1,0-0.1,0c0,0,0,0-0.1,0c0,0-0.1,0-0.1,0s0,0.1-0.1,0.1c0,0,0,0.1,0,0.2
		V53.3z"/>
</g>
<path fill="#FFFFFF" d="M227.7,70.1c-1.7,0-3-1.3-3-3c0-1.7,1.3-3,3-3v1.2c-1,0-1.8,0.8-1.8,1.8c0,1,0.8,1.8,1.8,1.8V70.1z"/>
<path fill="#FFFFFF" d="M227.7,79.6c-1.7,0-3-1.3-3-3c0-1.7,1.3-3,3-3v1.2c-1,0-1.8,0.8-1.8,1.8c0,1,0.8,1.8,1.8,1.8V79.6z"/>
<path fill="#FFFFFF" d="M227.7,74.9v-1.2l6.8,0c1,0,1.8-0.8,1.8-1.8c0-1-0.8-1.8-1.8-1.8h-6.8v-1.2h6.8c1.7,0,3,1.3,3,3
	c0,1.7-1.3,3-3,3H227.7z"/>
<path fill="#FFFFFF" d="M234.5,94v-1.2c1,0,1.8-0.8,1.8-1.8c0-1-0.8-1.8-1.8-1.8h-6.8c-1.7,0-3-1.3-3-3c0-1.7,1.3-3,3-3l6.8,0
	c1,0,1.8-0.8,1.8-1.8c0-1-0.8-1.8-1.8-1.8h-6.8v-1.2l6.8,0c1.7,0,3,1.3,3,3c0,1.7-1.3,3-3,3h-6.8c-1,0-1.8,0.8-1.8,1.8
	c0,1,0.8,1.8,1.8,1.8h6.8c1.7,0,3,1.3,3,3C237.5,92.6,236.1,94,234.5,94"/>
<path fill="#FFFFFF" d="M227.7,108.4v-1.2c-1,0-1.8-0.8-1.8-1.8s0.8-1.8,1.8-1.8h6.8c1.7,0,3-1.3,3-3c0-1.7-1.3-3-3-3l-6.8,0
	c-1,0-1.8-0.8-1.8-1.8c0-1,0.8-1.8,1.8-1.8h6.8v-1.2l-6.8,0c-1.7,0-3,1.3-3,3c0,1.7,1.3,3,3,3h6.8c1,0,1.8,0.8,1.8,1.8
	c0,1-0.8,1.8-1.8,1.8h-6.8c-1.7,0-3,1.3-3,3C224.7,107,226,108.4,227.7,108.4"/>
<g>
	<path fill="#8F1D1E" d="M20.8,60v-4.8h0.5l1,3.4l1-3.4h0.5V60h-0.6v-2.3L22.6,60h-0.5l-0.7-2.3V60H20.8z"/>
	<path fill="#8F1D1E" d="M24.4,60l1.1-4.8h0.5l1.1,4.8h-0.6l-0.3-1.4h-0.8L25,60H24.4z M25.4,58H26l-0.3-1.2L25.4,58z"/>
	<path fill="#8F1D1E" d="M27.2,60v-4.8h1c0.4,0,0.7,0.1,0.9,0.4c0.2,0.2,0.3,0.6,0.3,1c0,0.4-0.1,0.8-0.3,1c0,0,0,0,0,0c0,0,0,0,0,0
		c0.1,0.1,0.2,0.2,0.3,0.4s0.1,0.3,0.1,0.5V60h-0.6v-1.4c0-0.4-0.2-0.6-0.6-0.6h-0.3h-0.1V60H27.2z M27.8,57.3L27.8,57.3h0.4
		c0.2,0,0.3,0,0.3-0.1c0.1,0,0.1-0.1,0.1-0.1c0.1-0.1,0.1-0.3,0.1-0.6c0-0.2,0-0.3,0-0.4c0-0.1-0.1-0.2-0.1-0.2
		c-0.1-0.1-0.1-0.1-0.2-0.1s-0.2,0-0.3,0h-0.4V57.3z"/>
	<path fill="#8F1D1E" d="M30.2,60v-4.8h0.6V60H30.2z"/>
	<path fill="#8F1D1E" d="M31.3,58.6v-0.3h0.6v0.3c0,0.3,0,0.5,0.2,0.6c0,0,0.1,0.1,0.1,0.1s0.1,0,0.3,0c0.1,0,0.2,0,0.3-0.1
		c0.1,0,0.1-0.1,0.2-0.2c0-0.1,0.1-0.2,0.1-0.2s0-0.2,0-0.2c0-0.1,0-0.2-0.1-0.3s-0.1-0.1-0.1-0.2c-0.1-0.1-0.1-0.1-0.2-0.1
		c-0.1,0-0.1-0.1-0.2-0.1l-0.1-0.1c-0.1,0-0.2-0.1-0.3-0.1s-0.2-0.1-0.3-0.2c-0.3-0.3-0.4-0.6-0.4-1c0-0.2,0-0.4,0.1-0.6
		s0.1-0.3,0.2-0.4c0.1-0.1,0.2-0.2,0.4-0.3s0.3-0.1,0.5-0.1c0.2,0,0.4,0,0.6,0.1c0.1,0.1,0.2,0.2,0.3,0.3c0.2,0.2,0.3,0.6,0.3,1v0.3
		H33v-0.3c0-0.2,0-0.3-0.1-0.4c0-0.1-0.1-0.2-0.1-0.2c-0.1,0-0.1-0.1-0.2-0.1c-0.1,0-0.1,0-0.2,0c-0.1,0-0.2,0-0.3,0.1
		C32.1,55.9,32,56,32,56.1c0,0.1-0.1,0.2-0.1,0.3c0,0.1,0,0.2,0,0.2c0,0.1,0,0.2,0.1,0.3S32,57,32.1,57c0.1,0.1,0.1,0.1,0.2,0.2
		c0.1,0,0.1,0.1,0.2,0.1l0.1,0c0.1,0,0.1,0.1,0.3,0.1c0.1,0,0.2,0.1,0.3,0.2c0.3,0.2,0.4,0.6,0.4,1c0,0.4-0.1,0.7-0.3,0.9
		c-0.2,0.3-0.5,0.4-0.9,0.4c-0.4,0-0.7-0.1-0.9-0.4C31.4,59.4,31.3,59,31.3,58.6z"/>
	<path fill="#8F1D1E" d="M35.9,58.6v-2.1c0-0.4,0.1-0.8,0.3-1c0,0,0.1-0.1,0.1-0.1c0.1,0,0.1-0.1,0.2-0.1c0.1,0,0.2-0.1,0.2-0.1
		s0.2,0,0.3,0c0.2,0,0.4,0,0.6,0.1c0.1,0.1,0.2,0.2,0.3,0.3c0.2,0.2,0.3,0.6,0.3,1v2.1c0,0.4-0.1,0.8-0.3,1
		c-0.1,0.1-0.2,0.2-0.3,0.3c-0.1,0.1-0.3,0.1-0.6,0.1c-0.2,0-0.4,0-0.6-0.1c-0.1-0.1-0.2-0.2-0.3-0.3C36,59.4,35.9,59,35.9,58.6z
		 M36.5,58.6c0,0.2,0,0.3,0.1,0.4c0,0.1,0.1,0.2,0.1,0.2s0.1,0.1,0.2,0.1c0.1,0,0.1,0,0.2,0c0,0,0.1,0,0.2,0c0.1,0,0.1,0,0.2-0.1
		s0.1-0.1,0.1-0.2c0-0.1,0.1-0.3,0.1-0.4v-2.1c0-0.2,0-0.3-0.1-0.4c0-0.1-0.1-0.2-0.1-0.2s-0.1-0.1-0.2-0.1c-0.1,0-0.1,0-0.2,0
		c0,0-0.1,0-0.2,0c-0.1,0-0.1,0-0.2,0.1s-0.1,0.1-0.1,0.2c0,0.1-0.1,0.2-0.1,0.4V58.6z"/>
	<path fill="#8F1D1E" d="M38.6,55.7v-0.6h2.7v0.6h-1.1V60h-0.6v-4.2H38.6z"/>
	<path fill="#8F1D1E" d="M41.6,55.7v-0.6h2.7v0.6h-1.1V60h-0.6v-4.2H41.6z"/>
	<path fill="#8F1D1E" d="M44.6,60v-4.8h2v0.6h-1.4v1.5h1.4v0.6h-1.4v1.5h1.4V60H44.6z"/>
	<path fill="#8F1D1E" d="M47.1,60v-4.8h1c0.4,0,0.7,0.1,0.9,0.4c0.2,0.2,0.3,0.6,0.3,1c0,0.4-0.1,0.8-0.3,1c0,0,0,0,0,0c0,0,0,0,0,0
		c0.1,0.1,0.2,0.2,0.3,0.4s0.1,0.3,0.1,0.5V60h-0.6v-1.4c0-0.4-0.2-0.6-0.6-0.6h-0.3h-0.1V60H47.1z M47.7,57.3L47.7,57.3h0.4
		c0.2,0,0.3,0,0.3-0.1c0.1,0,0.1-0.1,0.1-0.1c0.1-0.1,0.1-0.3,0.1-0.6c0-0.2,0-0.3,0-0.4c0-0.1-0.1-0.2-0.1-0.2
		c-0.1-0.1-0.1-0.1-0.2-0.1s-0.2,0-0.3,0h-0.4V57.3z"/>
	<path fill="#8F1D1E" d="M12.2,67.2v-2.1c0-0.4,0.1-0.8,0.3-1c0.1-0.1,0.2-0.2,0.3-0.3c0.1-0.1,0.3-0.1,0.6-0.1s0.4,0,0.6,0.1
		c0.1,0.1,0.2,0.2,0.3,0.3c0.2,0.2,0.3,0.6,0.3,1v0.3h-0.6v-0.3c0-0.2,0-0.3-0.1-0.4s-0.1-0.2-0.1-0.2c-0.1,0-0.1-0.1-0.2-0.1
		c-0.1,0-0.1,0-0.2,0c0,0-0.1,0-0.2,0s-0.1,0-0.2,0.1s-0.1,0.1-0.1,0.2c0,0.1-0.1,0.3-0.1,0.4v2.1c0,0.3,0,0.5,0.2,0.6
		c0,0,0.1,0.1,0.1,0.1s0.1,0.1,0.3,0.1c0.1,0,0.2,0,0.3-0.1s0.1-0.1,0.1-0.1c0.1-0.1,0.1-0.3,0.1-0.6v-0.3h0.6v0.3
		c0,0.4-0.1,0.8-0.3,1c-0.1,0.1-0.2,0.2-0.3,0.3c-0.1,0.1-0.3,0.1-0.6,0.1c-0.1,0-0.2,0-0.3,0s-0.2-0.1-0.2-0.1
		c-0.1,0-0.1-0.1-0.2-0.1c-0.1,0-0.1-0.1-0.1-0.1C12.3,68,12.2,67.6,12.2,67.2z"/>
	<path fill="#8F1D1E" d="M14.8,68.6v-4.8h0.6v2.1h0.9v-2.1H17v4.8h-0.6v-2.1h-0.9v2.1H14.8z"/>
	<path fill="#8F1D1E" d="M17.5,67.2v-2.1c0-0.4,0.1-0.8,0.3-1c0,0,0.1-0.1,0.1-0.1c0.1,0,0.1-0.1,0.2-0.1c0.1,0,0.2-0.1,0.2-0.1
		s0.2,0,0.3,0c0.2,0,0.4,0,0.6,0.1c0.1,0.1,0.2,0.2,0.3,0.3c0.2,0.2,0.3,0.6,0.3,1v2.1c0,0.4-0.1,0.8-0.3,1
		c-0.1,0.1-0.2,0.2-0.3,0.3c-0.1,0.1-0.3,0.1-0.6,0.1c-0.2,0-0.4,0-0.6-0.1c-0.1-0.1-0.2-0.2-0.3-0.3C17.6,68,17.5,67.6,17.5,67.2z
		 M18.1,67.2c0,0.2,0,0.3,0.1,0.4c0,0.1,0.1,0.2,0.1,0.2s0.1,0.1,0.2,0.1c0.1,0,0.1,0,0.2,0c0,0,0.1,0,0.2,0c0.1,0,0.1,0,0.2-0.1
		s0.1-0.1,0.1-0.2c0-0.1,0.1-0.3,0.1-0.4v-2.1c0-0.2,0-0.3-0.1-0.4c0-0.1-0.1-0.2-0.1-0.2s-0.1-0.1-0.2-0.1c-0.1,0-0.1,0-0.2,0
		c0,0-0.1,0-0.2,0c-0.1,0-0.1,0-0.2,0.1s-0.1,0.1-0.1,0.2c0,0.1-0.1,0.2-0.1,0.4V67.2z"/>
	<path fill="#8F1D1E" d="M20.1,67.2v-2.1c0-0.4,0.1-0.8,0.3-1c0.1-0.1,0.2-0.2,0.3-0.3c0.1-0.1,0.3-0.1,0.6-0.1s0.4,0,0.6,0.1
		c0.1,0.1,0.2,0.2,0.3,0.3c0.2,0.2,0.3,0.6,0.3,1v0.3h-0.6v-0.3c0-0.2,0-0.3-0.1-0.4s-0.1-0.2-0.1-0.2c-0.1,0-0.1-0.1-0.2-0.1
		c-0.1,0-0.1,0-0.2,0c0,0-0.1,0-0.2,0s-0.1,0-0.2,0.1s-0.1,0.1-0.1,0.2c0,0.1-0.1,0.3-0.1,0.4v2.1c0,0.3,0,0.5,0.2,0.6
		c0,0,0.1,0.1,0.1,0.1s0.1,0.1,0.3,0.1c0.1,0,0.2,0,0.3-0.1s0.1-0.1,0.1-0.1c0.1-0.1,0.1-0.3,0.1-0.6v-0.3h0.6v0.3
		c0,0.4-0.1,0.8-0.3,1c-0.1,0.1-0.2,0.2-0.3,0.3c-0.1,0.1-0.3,0.1-0.6,0.1c-0.1,0-0.2,0-0.3,0s-0.2-0.1-0.2-0.1
		c-0.1,0-0.1-0.1-0.2-0.1c-0.1,0-0.1-0.1-0.1-0.1C20.2,68,20.1,67.6,20.1,67.2z"/>
	<path fill="#8F1D1E" d="M22.7,67.2v-2.1c0-0.4,0.1-0.8,0.3-1c0,0,0.1-0.1,0.1-0.1c0.1,0,0.1-0.1,0.2-0.1c0.1,0,0.2-0.1,0.2-0.1
		s0.2,0,0.3,0c0.2,0,0.4,0,0.6,0.1c0.1,0.1,0.2,0.2,0.3,0.3c0.2,0.2,0.3,0.6,0.3,1v2.1c0,0.4-0.1,0.8-0.3,1
		c-0.1,0.1-0.2,0.2-0.3,0.3c-0.1,0.1-0.3,0.1-0.6,0.1c-0.2,0-0.4,0-0.6-0.1c-0.1-0.1-0.2-0.2-0.3-0.3C22.8,68,22.7,67.6,22.7,67.2z
		 M23.3,67.2c0,0.2,0,0.3,0.1,0.4c0,0.1,0.1,0.2,0.1,0.2s0.1,0.1,0.2,0.1c0.1,0,0.1,0,0.2,0c0,0,0.1,0,0.2,0c0.1,0,0.1,0,0.2-0.1
		s0.1-0.1,0.1-0.2c0-0.1,0.1-0.3,0.1-0.4v-2.1c0-0.2,0-0.3-0.1-0.4c0-0.1-0.1-0.2-0.1-0.2s-0.1-0.1-0.2-0.1c-0.1,0-0.1,0-0.2,0
		c0,0-0.1,0-0.2,0c-0.1,0-0.1,0-0.2,0.1s-0.1,0.1-0.1,0.2c0,0.1-0.1,0.2-0.1,0.4V67.2z"/>
	<path fill="#8F1D1E" d="M25.3,68.6v-4.8H26V68h1.5v0.6H25.3z"/>
	<path fill="#8F1D1E" d="M27.7,68.6l1.1-4.8h0.5l1.1,4.8h-0.6l-0.3-1.4h-0.8l-0.3,1.4H27.7z M28.8,66.6h0.6L29,65.4L28.8,66.6z"/>
	<path fill="#8F1D1E" d="M30.6,64.4v-0.6h2.7v0.6h-1.1v4.2h-0.6v-4.2H30.6z"/>
	<path fill="#8F1D1E" d="M33.6,68.6v-4.8h2v0.6h-1.4v1.5h1.4v0.6h-1.4V68h1.4v0.6H33.6z"/>
	<path fill="#8F1D1E" d="M38.1,68.6v-4.8h0.5l1,3.4l1-3.4h0.5v4.8h-0.6v-2.3l-0.7,2.3h-0.5l-0.7-2.3v2.3H38.1z"/>
	<path fill="#8F1D1E" d="M41.6,68.6l1.1-4.8h0.5l1.1,4.8h-0.6l-0.3-1.4h-0.8l-0.3,1.4H41.6z M42.7,66.6h0.6l-0.3-1.2L42.7,66.6z"/>
	<path fill="#8F1D1E" d="M44.5,68.6v-4.8h0.6V68h1.5v0.6H44.5z"/>
	<path fill="#8F1D1E" d="M46.8,64.4v-0.6h2.7v0.6h-1.1v4.2h-0.6v-4.2H46.8z"/>
	<path fill="#8F1D1E" d="M19.8,77.2v-4.8h0.5l1,3.4l1-3.4h0.5v4.8h-0.6v-2.3l-0.7,2.3h-0.5l-0.7-2.3v2.3H19.8z"/>
	<path fill="#8F1D1E" d="M23.4,77.2l1.1-4.8H25l1.1,4.8h-0.6l-0.3-1.4h-0.8L24,77.2H23.4z M24.5,75.3H25l-0.3-1.2L24.5,75.3z"/>
	<path fill="#8F1D1E" d="M26.2,77.2v-4.8h0.6v4.2h1.5v0.6H26.2z"/>
	<path fill="#8F1D1E" d="M28.6,73v-0.6h2.7V73h-1.1v4.2h-0.6V73H28.6z"/>
	<path fill="#8F1D1E" d="M31.6,77.2v-4.8h2V73h-1.4v1.5h1.4v0.6h-1.4v1.5h1.4v0.6H31.6z"/>
	<path fill="#8F1D1E" d="M34.1,77.2v-4.8h1c0.4,0,0.7,0.1,0.9,0.4c0.2,0.2,0.3,0.6,0.3,1v2c0,0.4-0.1,0.8-0.3,1
		c-0.2,0.3-0.5,0.4-0.9,0.4H34.1z M34.7,76.6H35c0.1,0,0.2,0,0.2,0c0.1,0,0.1,0,0.2-0.1s0.1-0.1,0.1-0.2c0-0.1,0.1-0.2,0.1-0.4v-2
		c0-0.2,0-0.3-0.1-0.4c0-0.1-0.1-0.2-0.1-0.2c-0.1-0.1-0.1-0.1-0.2-0.1c-0.1,0-0.1,0-0.2,0h-0.3V76.6z"/>
	<path fill="#8F1D1E" d="M38.7,75.9v-2.1c0-0.4,0.1-0.8,0.3-1c0,0,0.1-0.1,0.1-0.1c0.1,0,0.1-0.1,0.2-0.1c0.1,0,0.2-0.1,0.2-0.1
		s0.2,0,0.3,0c0.2,0,0.4,0,0.6,0.1c0.1,0.1,0.2,0.2,0.3,0.3c0.2,0.2,0.3,0.6,0.3,1v2.1c0,0.4-0.1,0.8-0.3,1
		c-0.1,0.1-0.2,0.2-0.3,0.3c-0.1,0.1-0.3,0.1-0.6,0.1c-0.2,0-0.4,0-0.6-0.1c-0.1-0.1-0.2-0.2-0.3-0.3C38.8,76.6,38.7,76.3,38.7,75.9
		z M39.3,75.9c0,0.2,0,0.3,0.1,0.4c0,0.1,0.1,0.2,0.1,0.2s0.1,0.1,0.2,0.1c0.1,0,0.1,0,0.2,0c0,0,0.1,0,0.2,0c0.1,0,0.1,0,0.2-0.1
		s0.1-0.1,0.1-0.2c0-0.1,0.1-0.3,0.1-0.4v-2.1c0-0.2,0-0.3-0.1-0.4c0-0.1-0.1-0.2-0.1-0.2S40,73,40,73c-0.1,0-0.1,0-0.2,0
		c0,0-0.1,0-0.2,0c-0.1,0-0.1,0-0.2,0.1s-0.1,0.1-0.1,0.2c0,0.1-0.1,0.2-0.1,0.4V75.9z"/>
	<path fill="#8F1D1E" d="M41.3,77.2l1.1-4.8h0.5l1.1,4.8h-0.6l-0.3-1.4h-0.8l-0.3,1.4H41.3z M42.4,75.3H43l-0.3-1.2L42.4,75.3z"/>
	<path fill="#8F1D1E" d="M44.2,73v-0.6h2.7V73h-1.1v4.2h-0.6V73H44.2z"/>
	<path fill="#8F1D1E" d="M47.2,75.9v-0.3h0.6v0.3c0,0.3,0,0.5,0.2,0.6c0,0,0.1,0.1,0.1,0.1s0.1,0,0.3,0c0.1,0,0.2,0,0.3-0.1
		c0.1,0,0.1-0.1,0.2-0.2c0-0.1,0.1-0.2,0.1-0.2s0-0.2,0-0.2c0-0.1,0-0.2-0.1-0.3s-0.1-0.1-0.1-0.2c-0.1-0.1-0.1-0.1-0.2-0.1
		c-0.1,0-0.1-0.1-0.2-0.1l-0.1-0.1c-0.1,0-0.2-0.1-0.3-0.1s-0.2-0.1-0.3-0.2c-0.3-0.3-0.4-0.6-0.4-1c0-0.2,0-0.4,0.1-0.6
		s0.1-0.3,0.2-0.4c0.1-0.1,0.2-0.2,0.4-0.3s0.3-0.1,0.5-0.1c0.2,0,0.4,0,0.6,0.1c0.1,0.1,0.2,0.2,0.3,0.3c0.2,0.2,0.3,0.6,0.3,1v0.3
		h-0.6v-0.3c0-0.2,0-0.3-0.1-0.4c0-0.1-0.1-0.2-0.1-0.2c-0.1,0-0.1-0.1-0.2-0.1c-0.1,0-0.1,0-0.2,0c-0.1,0-0.2,0-0.3,0.1
		c-0.1,0.1-0.1,0.1-0.2,0.2c0,0.1-0.1,0.2-0.1,0.3c0,0.1,0,0.2,0,0.2c0,0.1,0,0.2,0.1,0.3s0.1,0.2,0.1,0.2c0.1,0.1,0.1,0.1,0.2,0.2
		c0.1,0,0.1,0.1,0.2,0.1l0.1,0c0.1,0,0.1,0.1,0.3,0.1c0.1,0,0.2,0.1,0.3,0.2c0.3,0.2,0.4,0.6,0.4,1c0,0.4-0.1,0.7-0.3,0.9
		c-0.2,0.3-0.5,0.4-0.9,0.4c-0.4,0-0.7-0.1-0.9-0.4C47.3,76.6,47.2,76.3,47.2,75.9z"/>
	<path fill="#8F1D1E" d="M21.7,84.5v-2.1c0-0.4,0.1-0.8,0.3-1c0.1-0.1,0.2-0.2,0.3-0.3c0.1-0.1,0.3-0.1,0.6-0.1s0.4,0,0.6,0.1
		c0.1,0.1,0.2,0.2,0.3,0.3c0.2,0.2,0.3,0.6,0.3,1v0.3h-0.6v-0.3c0-0.2,0-0.3-0.1-0.4s-0.1-0.2-0.1-0.2c-0.1,0-0.1-0.1-0.2-0.1
		c-0.1,0-0.1,0-0.2,0c0,0-0.1,0-0.2,0s-0.1,0-0.2,0.1s-0.1,0.1-0.1,0.2c0,0.1-0.1,0.3-0.1,0.4v2.1c0,0.3,0,0.5,0.2,0.6
		c0,0,0.1,0.1,0.1,0.1s0.1,0.1,0.3,0.1c0.1,0,0.2,0,0.3-0.1s0.1-0.1,0.1-0.1c0.1-0.1,0.1-0.3,0.1-0.6v-0.3H24v0.3
		c0,0.4-0.1,0.8-0.3,1c-0.1,0.1-0.2,0.2-0.3,0.3c-0.1,0.1-0.3,0.1-0.6,0.1c-0.1,0-0.2,0-0.3,0s-0.2-0.1-0.2-0.1
		c-0.1,0-0.1-0.1-0.2-0.1c-0.1,0-0.1-0.1-0.1-0.1C21.8,85.2,21.7,84.9,21.7,84.5z"/>
	<path fill="#8F1D1E" d="M24.2,85.9V81h1c0.4,0,0.7,0.1,0.9,0.4c0.2,0.2,0.3,0.6,0.3,1c0,0.4-0.1,0.8-0.3,1c0,0,0,0,0,0c0,0,0,0,0,0
		c0.1,0.1,0.2,0.2,0.3,0.4s0.1,0.3,0.1,0.5v1.4h-0.6v-1.4c0-0.4-0.2-0.6-0.6-0.6h-0.3h-0.1v2.1H24.2z M24.9,83.2L24.9,83.2h0.4
		c0.2,0,0.3,0,0.3-0.1c0.1,0,0.1-0.1,0.1-0.1c0.1-0.1,0.1-0.3,0.1-0.6c0-0.2,0-0.3,0-0.4c0-0.1-0.1-0.2-0.1-0.2
		c-0.1-0.1-0.1-0.1-0.2-0.1s-0.2,0-0.3,0h-0.4V83.2z"/>
	<path fill="#8F1D1E" d="M26.8,81h0.7l1,1.8l1-1.8h0.7l-1.4,2.5v2.3h-0.6v-2.3L26.8,81z"/>
	<path fill="#8F1D1E" d="M30.3,84.5v-0.3h0.6v0.3c0,0.3,0,0.5,0.2,0.6c0,0,0.1,0.1,0.1,0.1s0.1,0,0.3,0c0.1,0,0.2,0,0.3-0.1
		c0.1,0,0.1-0.1,0.2-0.2c0-0.1,0.1-0.2,0.1-0.2s0-0.2,0-0.2c0-0.1,0-0.2-0.1-0.3s-0.1-0.1-0.1-0.2c-0.1-0.1-0.1-0.1-0.2-0.1
		c-0.1,0-0.1-0.1-0.2-0.1l-0.1-0.1c-0.1,0-0.2-0.1-0.3-0.1s-0.2-0.1-0.3-0.2c-0.3-0.3-0.4-0.6-0.4-1c0-0.2,0-0.4,0.1-0.6
		s0.1-0.3,0.2-0.4c0.1-0.1,0.2-0.2,0.4-0.3s0.3-0.1,0.5-0.1c0.2,0,0.4,0,0.6,0.1c0.1,0.1,0.2,0.2,0.3,0.3c0.2,0.2,0.3,0.6,0.3,1v0.3
		H32v-0.3c0-0.2,0-0.3-0.1-0.4c0-0.1-0.1-0.2-0.1-0.2c-0.1,0-0.1-0.1-0.2-0.1c-0.1,0-0.1,0-0.2,0c-0.1,0-0.2,0-0.3,0.1
		c-0.1,0.1-0.1,0.1-0.2,0.2c0,0.1-0.1,0.2-0.1,0.3c0,0.1,0,0.2,0,0.2c0,0.1,0,0.2,0.1,0.3s0.1,0.2,0.1,0.2c0.1,0.1,0.1,0.1,0.2,0.2
		c0.1,0,0.1,0.1,0.2,0.1l0.1,0c0.1,0,0.1,0.1,0.3,0.1c0.1,0,0.2,0.1,0.3,0.2c0.3,0.2,0.4,0.6,0.4,1c0,0.4-0.1,0.7-0.3,0.9
		c-0.2,0.3-0.5,0.4-0.9,0.4c-0.4,0-0.7-0.1-0.9-0.4C30.4,85.3,30.3,84.9,30.3,84.5z"/>
	<path fill="#8F1D1E" d="M32.9,81.6V81h2.7v0.6h-1.1v4.2H34v-4.2H32.9z"/>
	<path fill="#8F1D1E" d="M36,85.9l1.1-4.8h0.5l1.1,4.8H38l-0.3-1.4h-0.8l-0.3,1.4H36z M37,83.9h0.6l-0.3-1.2L37,83.9z"/>
	<path fill="#8F1D1E" d="M38.8,85.9V81h0.6v4.2h1.5v0.6H38.8z"/>
	<path fill="#8F1D1E" d="M43.2,82.1L44,81h0.6v4.8h-0.6v-3.7l-0.3,0.4L43.2,82.1z"/>
	<path fill="#8F1D1E" d="M45,85.9v-0.3c0-0.2,0-0.4,0.1-0.5c0-0.2,0.1-0.3,0.2-0.5s0.2-0.3,0.2-0.5l0.3-0.5l0.3-0.4l0.2-0.2
		c0.1-0.1,0.1-0.1,0.1-0.2c0-0.1,0.1-0.1,0.1-0.2s0-0.2,0-0.3c0,0,0-0.1,0-0.2c0-0.1,0-0.1-0.1-0.2c0-0.1-0.1-0.1-0.1-0.2
		c-0.1-0.1-0.1-0.1-0.2-0.1c0,0-0.1,0-0.1,0c0,0-0.1,0-0.1,0.1c0,0-0.1,0.1-0.1,0.2c0,0.1,0,0.2,0,0.4v0.3H45v-0.3
		c0-0.4,0.1-0.7,0.2-0.9c0.1-0.1,0.2-0.2,0.3-0.2S45.8,81,46,81c0.1,0,0.3,0,0.4,0.1c0.1,0.1,0.2,0.1,0.3,0.2
		c0.1,0.1,0.2,0.2,0.2,0.4c0.1,0.2,0.1,0.3,0.1,0.5h0v0.1h0c0,0.2,0,0.3-0.1,0.4c0,0.1-0.1,0.2-0.1,0.3c0,0.1-0.1,0.2-0.2,0.3
		l-0.2,0.3l-0.1,0.2c0,0.1-0.1,0.1-0.1,0.2L46,84.3c-0.1,0.1-0.1,0.2-0.2,0.3c-0.1,0.1-0.1,0.2-0.1,0.3c0,0.1-0.1,0.2-0.1,0.3H46
		h0.7h0.3v0.6h-0.3H46H45z"/>
	<path fill="#8F1D1E" d="M47.4,84.5v-2.1c0-0.4,0.1-0.7,0.2-1c0.2-0.3,0.4-0.4,0.8-0.4c0.3,0,0.6,0.1,0.8,0.4c0.2,0.2,0.2,0.6,0.2,1
		v2.1c0,0.4-0.1,0.7-0.2,1c-0.2,0.3-0.4,0.4-0.8,0.4c-0.4,0-0.6-0.1-0.8-0.4C47.4,85.2,47.4,84.9,47.4,84.5z M48,84.5
		c0,0.2,0,0.3,0,0.5c0,0.1,0.1,0.2,0.1,0.2s0.1,0.1,0.1,0.1s0.1,0,0.1,0c0,0,0.1,0,0.1,0s0.1,0,0.1-0.1c0,0,0.1-0.1,0.1-0.2
		c0-0.1,0-0.3,0-0.5v-2.1c0-0.2,0-0.3,0-0.4s-0.1-0.2-0.1-0.2c0,0-0.1-0.1-0.1-0.1s-0.1,0-0.1,0c0,0-0.1,0-0.1,0s-0.1,0-0.1,0.1
		S48.1,81.9,48,82s0,0.3,0,0.4V84.5z"/>
	<path fill="#8F1D1E" d="M16,94.5v-4.8h2v0.6h-1.4v1.5H18v0.6h-1.4v2.1H16z"/>
	<path fill="#8F1D1E" d="M18.4,94.5v-4.8h0.6v4.2h1.5v0.6H18.4z"/>
	<path fill="#8F1D1E" d="M20.8,94.5l1.1-4.8h0.5l1.1,4.8h-0.6l-0.3-1.4h-0.8l-0.3,1.4H20.8z M21.9,92.5h0.6l-0.3-1.2L21.9,92.5z"/>
	<path fill="#8F1D1E" d="M23.6,92.7L23.6,92.7l0-3.1h0.6v2.1l1.4-2.1h0.7l-1.5,2.3l1.4,2.6h-0.7l-1.1-2l-0.3,0.4v1.6h-0.6L23.6,92.7
		L23.6,92.7z"/>
	<path fill="#8F1D1E" d="M26.6,94.5v-4.8h2v0.6h-1.4v1.5h1.4v0.6h-1.4v1.5h1.4v0.6H26.6z"/>
	<path fill="#8F1D1E" d="M29,94.5v-4.8h1c0.4,0,0.7,0.1,0.9,0.4c0.2,0.2,0.3,0.6,0.3,1v2c0,0.4-0.1,0.8-0.3,1
		c-0.2,0.3-0.5,0.4-0.9,0.4H29z M29.7,93.9H30c0.1,0,0.2,0,0.2,0c0.1,0,0.1,0,0.2-0.1s0.1-0.1,0.1-0.2c0-0.1,0.1-0.2,0.1-0.4v-2
		c0-0.2,0-0.3-0.1-0.4c0-0.1-0.1-0.2-0.1-0.2c-0.1-0.1-0.1-0.1-0.2-0.1c-0.1,0-0.1,0-0.2,0h-0.3V93.9z"/>
	<path fill="#8F1D1E" d="M33.6,94.5v-0.6v-4.2h0.9c0.4,0,0.7,0.1,0.9,0.4c0.2,0.2,0.3,0.5,0.3,1c0,0.4-0.1,0.8-0.3,1
		c0,0,0,0-0.1,0.1c0,0,0,0,0.1,0.1c0.2,0.2,0.3,0.6,0.3,1c0,0.4-0.1,0.8-0.3,1c-0.2,0.2-0.5,0.4-0.9,0.4h-0.3H33.6z M34.3,91.8h0.3
		c0.1,0,0.2,0,0.3,0c0.1,0,0.1-0.1,0.1-0.1c0.1-0.1,0.1-0.3,0.1-0.6c0-0.2,0-0.3,0-0.4c0-0.1-0.1-0.2-0.1-0.2
		c-0.1-0.1-0.1-0.1-0.2-0.1c-0.1,0-0.1,0-0.2,0h-0.3V91.8z M34.3,93.9h0.3c0.1,0,0.2,0,0.2,0c0.1,0,0.1,0,0.2-0.1
		c0-0.1,0.1-0.1,0.1-0.2c0-0.1,0-0.2,0-0.4c0-0.2,0-0.3,0-0.4S35,92.5,35,92.5c-0.1-0.1-0.1-0.1-0.2-0.1s-0.1,0-0.2,0h-0.3V93.9z"/>
	<path fill="#8F1D1E" d="M36.1,94.5l1.1-4.8h0.5l1.1,4.8h-0.6l-0.3-1.4H37l-0.3,1.4H36.1z M37.2,92.5h0.6l-0.3-1.2L37.2,92.5z"/>
	<path fill="#8F1D1E" d="M39,94.5v-4.8h1c0.4,0,0.7,0.1,0.9,0.4c0.2,0.2,0.3,0.6,0.3,1c0,0.4-0.1,0.8-0.3,1c0,0,0,0,0,0c0,0,0,0,0,0
		c0.1,0.1,0.2,0.2,0.3,0.4s0.1,0.3,0.1,0.5v1.4h-0.6v-1.4c0-0.4-0.2-0.6-0.6-0.6h-0.3h-0.1v2.1H39z M39.6,91.8L39.6,91.8H40
		c0.2,0,0.3,0,0.3-0.1c0.1,0,0.1-0.1,0.1-0.1c0.1-0.1,0.1-0.3,0.1-0.6c0-0.2,0-0.3,0-0.4c0-0.1-0.1-0.2-0.1-0.2
		c-0.1-0.1-0.1-0.1-0.2-0.1s-0.2,0-0.3,0h-0.4V91.8z"/>
	<path fill="#8F1D1E" d="M41.7,94.5v-4.8h0.6v4.2h1.5v0.6H41.7z"/>
	<path fill="#8F1D1E" d="M44.1,94.5v-4.8h2v0.6h-1.4v1.5h1.4v0.6h-1.4v1.5h1.4v0.6H44.1z"/>
	<path fill="#8F1D1E" d="M46.3,89.7H47l1,1.8l1-1.8h0.7l-1.4,2.5v2.3h-0.6v-2.3L46.3,89.7z"/>
	<path fill="#8F1D1E" d="M12.7,103.1v-4.8h1c0.4,0,0.7,0.1,0.9,0.4c0.2,0.2,0.3,0.6,0.3,1c0,0.4-0.1,0.8-0.3,1c0,0,0,0,0,0
		c0,0,0,0,0,0c0.1,0.1,0.2,0.2,0.3,0.4s0.1,0.3,0.1,0.5v1.4h-0.6v-1.4c0-0.4-0.2-0.6-0.6-0.6h-0.3h-0.1v2.1H12.7z M13.3,100.4
		L13.3,100.4h0.4c0.2,0,0.3,0,0.3-0.1c0.1,0,0.1-0.1,0.1-0.1c0.1-0.1,0.1-0.3,0.1-0.6c0-0.2,0-0.3,0-0.4c0-0.1-0.1-0.2-0.1-0.2
		C14.1,99,14,98.9,14,98.9s-0.2,0-0.3,0h-0.4V100.4z"/>
	<path fill="#8F1D1E" d="M15.4,101.7v-2.1c0-0.4,0.1-0.8,0.3-1c0,0,0.1-0.1,0.1-0.1c0.1,0,0.1-0.1,0.2-0.1c0.1,0,0.2-0.1,0.2-0.1
		s0.2,0,0.3,0c0.2,0,0.4,0,0.6,0.1c0.1,0.1,0.2,0.2,0.3,0.3c0.2,0.2,0.3,0.6,0.3,1v2.1c0,0.4-0.1,0.8-0.3,1
		c-0.1,0.1-0.2,0.2-0.3,0.3c-0.1,0.1-0.3,0.1-0.6,0.1c-0.2,0-0.4,0-0.6-0.1c-0.1-0.1-0.2-0.2-0.3-0.3
		C15.5,102.5,15.4,102.2,15.4,101.7z M16,101.7c0,0.2,0,0.3,0.1,0.4c0,0.1,0.1,0.2,0.1,0.2s0.1,0.1,0.2,0.1c0.1,0,0.1,0,0.2,0
		c0,0,0.1,0,0.2,0c0.1,0,0.1,0,0.2-0.1s0.1-0.1,0.1-0.2c0-0.1,0.1-0.3,0.1-0.4v-2.1c0-0.2,0-0.3-0.1-0.4c0-0.1-0.1-0.2-0.1-0.2
		s-0.1-0.1-0.2-0.1c-0.1,0-0.1,0-0.2,0c0,0-0.1,0-0.2,0c-0.1,0-0.1,0-0.2,0.1s-0.1,0.1-0.1,0.2c0,0.1-0.1,0.2-0.1,0.4V101.7z"/>
	<path fill="#8F1D1E" d="M18.1,103.1l1.1-4.8h0.5l1.1,4.8h-0.6l-0.3-1.4H19l-0.3,1.4H18.1z M19.2,101.2h0.6l-0.3-1.2L19.2,101.2z"/>
	<path fill="#8F1D1E" d="M21,101.8v-0.3h0.6v0.3c0,0.3,0,0.5,0.2,0.6c0,0,0.1,0.1,0.1,0.1s0.1,0,0.3,0c0.1,0,0.2,0,0.3-0.1
		c0.1,0,0.1-0.1,0.2-0.2c0-0.1,0.1-0.2,0.1-0.2s0-0.2,0-0.2c0-0.1,0-0.2-0.1-0.3s-0.1-0.1-0.1-0.2c-0.1-0.1-0.1-0.1-0.2-0.1
		c-0.1,0-0.1-0.1-0.2-0.1l-0.1-0.1c-0.1,0-0.2-0.1-0.3-0.1s-0.2-0.1-0.3-0.2c-0.3-0.3-0.4-0.6-0.4-1c0-0.2,0-0.4,0.1-0.6
		s0.1-0.3,0.2-0.4c0.1-0.1,0.2-0.2,0.4-0.3s0.3-0.1,0.5-0.1c0.2,0,0.4,0,0.6,0.1c0.1,0.1,0.2,0.2,0.3,0.3c0.2,0.2,0.3,0.6,0.3,1v0.3
		h-0.6v-0.3c0-0.2,0-0.3-0.1-0.4c0-0.1-0.1-0.2-0.1-0.2c-0.1,0-0.1-0.1-0.2-0.1c-0.1,0-0.1,0-0.2,0c-0.1,0-0.2,0-0.3,0.1
		c-0.1,0.1-0.1,0.1-0.2,0.2c0,0.1-0.1,0.2-0.1,0.3c0,0.1,0,0.2,0,0.2c0,0.1,0,0.2,0.1,0.3s0.1,0.2,0.1,0.2c0.1,0.1,0.1,0.1,0.2,0.2
		c0.1,0,0.1,0.1,0.2,0.1l0.1,0c0.1,0,0.1,0.1,0.3,0.1c0.1,0,0.2,0.1,0.3,0.2c0.3,0.2,0.4,0.6,0.4,1c0,0.4-0.1,0.7-0.3,0.9
		c-0.2,0.3-0.5,0.4-0.9,0.4c-0.4,0-0.7-0.1-0.9-0.4C21,102.5,21,102.2,21,101.8z"/>
	<path fill="#8F1D1E" d="M23.6,98.9v-0.6h2.7v0.6h-1.1v4.2h-0.6v-4.2H23.6z"/>
	<path fill="#8F1D1E" d="M26.6,103.1v-4.8h2v0.6h-1.4v1.5h1.4v0.6h-1.4v1.5h1.4v0.6H26.6z"/>
	<path fill="#8F1D1E" d="M29,103.1v-4.8h1c0.4,0,0.7,0.1,0.9,0.4c0.2,0.2,0.3,0.6,0.3,1v2c0,0.4-0.1,0.8-0.3,1
		c-0.2,0.3-0.5,0.4-0.9,0.4H29z M29.7,102.5H30c0.1,0,0.2,0,0.2,0c0.1,0,0.1,0,0.2-0.1s0.1-0.1,0.1-0.2c0-0.1,0.1-0.2,0.1-0.4v-2
		c0-0.2,0-0.3-0.1-0.4c0-0.1-0.1-0.2-0.1-0.2c-0.1-0.1-0.1-0.1-0.2-0.1c-0.1,0-0.1,0-0.2,0h-0.3V102.5z"/>
	<path fill="#8F1D1E" d="M33.6,103.1v-0.6v-4.2h0.9c0.4,0,0.7,0.1,0.9,0.4c0.2,0.2,0.3,0.5,0.3,1c0,0.4-0.1,0.8-0.3,1
		c0,0,0,0-0.1,0.1c0,0,0,0,0.1,0.1c0.2,0.2,0.3,0.6,0.3,1c0,0.4-0.1,0.8-0.3,1c-0.2,0.2-0.5,0.4-0.9,0.4h-0.3H33.6z M34.3,100.4h0.3
		c0.1,0,0.2,0,0.3,0c0.1,0,0.1-0.1,0.1-0.1c0.1-0.1,0.1-0.3,0.1-0.6c0-0.2,0-0.3,0-0.4c0-0.1-0.1-0.2-0.1-0.2
		c-0.1-0.1-0.1-0.1-0.2-0.1c-0.1,0-0.1,0-0.2,0h-0.3V100.4z M34.3,102.5h0.3c0.1,0,0.2,0,0.2,0c0.1,0,0.1,0,0.2-0.1
		c0-0.1,0.1-0.1,0.1-0.2c0-0.1,0-0.2,0-0.4c0-0.2,0-0.3,0-0.4s-0.1-0.2-0.1-0.2c-0.1-0.1-0.1-0.1-0.2-0.1s-0.1,0-0.2,0h-0.3V102.5z"
		/>
	<path fill="#8F1D1E" d="M36.1,103.1l1.1-4.8h0.5l1.1,4.8h-0.6l-0.3-1.4H37l-0.3,1.4H36.1z M37.2,101.2h0.6l-0.3-1.2L37.2,101.2z"/>
	<path fill="#8F1D1E" d="M39,103.1v-4.8h1c0.4,0,0.7,0.1,0.9,0.4c0.2,0.2,0.3,0.6,0.3,1c0,0.4-0.1,0.8-0.3,1c0,0,0,0,0,0
		c0,0,0,0,0,0c0.1,0.1,0.2,0.2,0.3,0.4s0.1,0.3,0.1,0.5v1.4h-0.6v-1.4c0-0.4-0.2-0.6-0.6-0.6h-0.3h-0.1v2.1H39z M39.6,100.4
		L39.6,100.4H40c0.2,0,0.3,0,0.3-0.1c0.1,0,0.1-0.1,0.1-0.1c0.1-0.1,0.1-0.3,0.1-0.6c0-0.2,0-0.3,0-0.4c0-0.1-0.1-0.2-0.1-0.2
		c-0.1-0.1-0.1-0.1-0.2-0.1s-0.2,0-0.3,0h-0.4V100.4z"/>
	<path fill="#8F1D1E" d="M41.7,103.1v-4.8h0.6v4.2h1.5v0.6H41.7z"/>
	<path fill="#8F1D1E" d="M44.1,103.1v-4.8h2v0.6h-1.4v1.5h1.4v0.6h-1.4v1.5h1.4v0.6H44.1z"/>
	<path fill="#8F1D1E" d="M46.3,98.3H47l1,1.8l1-1.8h0.7l-1.4,2.5v2.3h-0.6v-2.3L46.3,98.3z"/>
	<path fill="#8F1D1E" d="M22.8,111.8v-0.6v-4.2h0.9c0.4,0,0.7,0.1,0.9,0.4c0.2,0.2,0.3,0.5,0.3,1c0,0.4-0.1,0.8-0.3,1
		c0,0,0,0-0.1,0.1c0,0,0,0,0.1,0.1c0.2,0.2,0.3,0.6,0.3,1c0,0.4-0.1,0.8-0.3,1c-0.2,0.2-0.5,0.4-0.9,0.4h-0.3H22.8z M23.5,109h0.3
		c0.1,0,0.2,0,0.3,0c0.1,0,0.1-0.1,0.1-0.1c0.1-0.1,0.1-0.3,0.1-0.6c0-0.2,0-0.3,0-0.4c0-0.1-0.1-0.2-0.1-0.2
		c-0.1-0.1-0.1-0.1-0.2-0.1c-0.1,0-0.1,0-0.2,0h-0.3V109z M23.5,111.1h0.3c0.1,0,0.2,0,0.2,0c0.1,0,0.1,0,0.2-0.1
		c0-0.1,0.1-0.1,0.1-0.2c0-0.1,0-0.2,0-0.4c0-0.2,0-0.3,0-0.4s-0.1-0.2-0.1-0.2c-0.1-0.1-0.1-0.1-0.2-0.1s-0.1,0-0.2,0h-0.3V111.1z"
		/>
	<path fill="#8F1D1E" d="M25.3,111.8v-4.8h0.6v4.2h1.5v0.6H25.3z"/>
	<path fill="#8F1D1E" d="M27.7,111.8l1.1-4.8h0.5l1.1,4.8h-0.6l-0.3-1.4h-0.8l-0.3,1.4H27.7z M28.7,109.8h0.6l-0.3-1.2L28.7,109.8z"
		/>
	<path fill="#8F1D1E" d="M30.5,110.4v-2.1c0-0.4,0.1-0.8,0.3-1c0.1-0.1,0.2-0.2,0.3-0.3c0.1-0.1,0.3-0.1,0.6-0.1s0.4,0,0.6,0.1
		c0.1,0.1,0.2,0.2,0.3,0.3c0.2,0.2,0.3,0.6,0.3,1v0.3h-0.6v-0.3c0-0.2,0-0.3-0.1-0.4s-0.1-0.2-0.1-0.2c-0.1,0-0.1-0.1-0.2-0.1
		c-0.1,0-0.1,0-0.2,0c0,0-0.1,0-0.2,0s-0.1,0-0.2,0.1s-0.1,0.1-0.1,0.2c0,0.1-0.1,0.3-0.1,0.4v2.1c0,0.3,0,0.5,0.2,0.6
		c0,0,0.1,0.1,0.1,0.1s0.1,0.1,0.3,0.1c0.1,0,0.2,0,0.3-0.1s0.1-0.1,0.1-0.1c0.1-0.1,0.1-0.3,0.1-0.6v-0.3h0.6v0.3
		c0,0.4-0.1,0.8-0.3,1c-0.1,0.1-0.2,0.2-0.3,0.3c-0.1,0.1-0.3,0.1-0.6,0.1c-0.1,0-0.2,0-0.3,0s-0.2-0.1-0.2-0.1
		c-0.1,0-0.1-0.1-0.2-0.1c-0.1,0-0.1-0.1-0.1-0.1C30.6,111.1,30.5,110.8,30.5,110.4z"/>
	<path fill="#8F1D1E" d="M33.1,110L33.1,110l0-3.1h0.6v2.1l1.4-2.1h0.7l-1.5,2.3l1.4,2.6h-0.7l-1.1-2l-0.3,0.4v1.6h-0.6L33.1,110
		L33.1,110z"/>
	<path fill="#8F1D1E" d="M38.1,111.8v-4.8h0.5l1,3.4l1-3.4h0.5v4.8h-0.6v-2.3l-0.7,2.3h-0.5l-0.7-2.3v2.3H38.1z"/>
	<path fill="#8F1D1E" d="M41.6,111.8l1.1-4.8h0.5l1.1,4.8h-0.6l-0.3-1.4h-0.8l-0.3,1.4H41.6z M42.7,109.8h0.6l-0.3-1.2L42.7,109.8z"
		/>
	<path fill="#8F1D1E" d="M44.5,111.8v-4.8h0.6v4.2h1.5v0.6H44.5z"/>
	<path fill="#8F1D1E" d="M46.8,107.5v-0.6h2.7v0.6h-1.1v4.2h-0.6v-4.2H46.8z"/>
</g>
<g>
	<path fill="#8F1D1E" d="M163.4,23.4v-4.8h0.5l1.2,2.9v-2.9h0.6v4.8h-0.5l-1.2-2.9v2.9H163.4z"/>
	<path fill="#8F1D1E" d="M166.2,22.1v-3.6h0.6v3.6c0,0.2,0,0.3,0,0.4c0,0.1,0.1,0.2,0.1,0.2c0,0,0.1,0.1,0.2,0.1c0.1,0,0.1,0,0.1,0
		s0.1,0,0.1,0c0.1,0,0.1,0,0.2-0.1c0,0,0.1-0.1,0.1-0.2c0-0.1,0-0.2,0-0.4v-3.6h0.6v3.6c0,0.4-0.1,0.7-0.3,0.9
		c-0.1,0.1-0.2,0.2-0.3,0.2s-0.3,0.1-0.5,0.1c-0.2,0-0.4,0-0.5-0.1s-0.2-0.2-0.3-0.2C166.2,22.8,166.2,22.5,166.2,22.1z"/>
	<path fill="#8F1D1E" d="M168.8,22v-2.1c0-0.4,0.1-0.8,0.3-1c0.2-0.3,0.5-0.4,0.9-0.4c0.4,0,0.7,0.1,0.9,0.4c0.2,0.2,0.3,0.6,0.3,1
		v0.3h-0.6v-0.3c0-0.2,0-0.3,0-0.4s-0.1-0.2-0.1-0.2c-0.1-0.1-0.1-0.1-0.2-0.1s-0.1,0-0.2,0s-0.1,0-0.2,0s-0.1,0-0.2,0.1
		c-0.1,0.1-0.1,0.1-0.1,0.2c0,0.1,0,0.2,0,0.4V22c0,0.2,0,0.3,0.1,0.4c0,0.1,0.1,0.2,0.1,0.2s0.1,0.1,0.2,0.1c0.1,0,0.1,0,0.2,0
		c0,0,0.1,0,0.2,0c0.1,0,0.1,0,0.2-0.1c0.1,0,0.1-0.1,0.1-0.2c0-0.1,0.1-0.3,0.1-0.4v-0.4h-0.7V21h1.4v1c0,0.4-0.1,0.8-0.3,1
		c-0.1,0.1-0.2,0.2-0.3,0.3c-0.1,0.1-0.3,0.1-0.6,0.1c-0.2,0-0.4,0-0.6-0.1c-0.1-0.1-0.2-0.2-0.3-0.3
		C168.9,22.8,168.8,22.4,168.8,22z"/>
	<path fill="#8F1D1E" d="M171.5,22v-2.1c0-0.4,0.1-0.8,0.3-1c0.2-0.3,0.5-0.4,0.9-0.4c0.4,0,0.7,0.1,0.9,0.4c0.2,0.2,0.3,0.6,0.3,1
		v0.3h-0.6v-0.3c0-0.2,0-0.3,0-0.4s-0.1-0.2-0.1-0.2c-0.1-0.1-0.1-0.1-0.2-0.1s-0.1,0-0.2,0s-0.1,0-0.2,0s-0.1,0-0.2,0.1
		c-0.1,0.1-0.1,0.1-0.1,0.2c0,0.1,0,0.2,0,0.4V22c0,0.2,0,0.3,0.1,0.4c0,0.1,0.1,0.2,0.1,0.2s0.1,0.1,0.2,0.1c0.1,0,0.1,0,0.2,0
		c0,0,0.1,0,0.2,0c0.1,0,0.1,0,0.2-0.1c0.1,0,0.1-0.1,0.1-0.2c0-0.1,0.1-0.3,0.1-0.4v-0.4h-0.7V21h1.4v1c0,0.4-0.1,0.8-0.3,1
		c-0.1,0.1-0.2,0.2-0.3,0.3c-0.1,0.1-0.3,0.1-0.6,0.1c-0.2,0-0.4,0-0.6-0.1c-0.1-0.1-0.2-0.2-0.3-0.3
		C171.6,22.8,171.5,22.4,171.5,22z"/>
	<path fill="#8F1D1E" d="M174.2,23.4v-4.8h2v0.6h-1.4v1.5h1.4v0.6h-1.4v1.5h1.4v0.6H174.2z"/>
	<path fill="#8F1D1E" d="M176.7,19.2v-0.6h2.7v0.6h-1.1v4.2h-0.6v-4.2H176.7z"/>
	<path fill="#8F1D1E" d="M161.2,32v-4.8h0.6v4.2h1.5V32H161.2z"/>
	<path fill="#8F1D1E" d="M163.6,32l1.1-4.8h0.5l1.1,4.8h-0.6l-0.3-1.4h-0.8l-0.3,1.4H163.6z M164.6,30.1h0.6l-0.3-1.2L164.6,30.1z"
		/>
	<path fill="#8F1D1E" d="M166.4,30.6v-2.1c0-0.4,0.1-0.8,0.3-1c0.1-0.1,0.2-0.2,0.3-0.3c0.1-0.1,0.3-0.1,0.6-0.1s0.4,0,0.6,0.1
		c0.1,0.1,0.2,0.2,0.3,0.3c0.2,0.2,0.3,0.6,0.3,1v0.3h-0.6v-0.3c0-0.2,0-0.3-0.1-0.4c0-0.1-0.1-0.2-0.1-0.2c-0.1,0-0.1-0.1-0.2-0.1
		c-0.1,0-0.1,0-0.2,0c0,0-0.1,0-0.2,0c-0.1,0-0.1,0-0.2,0.1s-0.1,0.1-0.1,0.2c0,0.1-0.1,0.3-0.1,0.4v2.1c0,0.3,0,0.5,0.2,0.6
		c0,0,0.1,0.1,0.1,0.1c0.1,0,0.1,0.1,0.3,0.1c0.1,0,0.2,0,0.3-0.1c0.1,0,0.1-0.1,0.1-0.1c0.1-0.1,0.1-0.3,0.1-0.6v-0.3h0.6v0.3
		c0,0.4-0.1,0.8-0.3,1c-0.1,0.1-0.2,0.2-0.3,0.3s-0.3,0.1-0.6,0.1c-0.1,0-0.2,0-0.3,0c-0.1,0-0.2-0.1-0.2-0.1
		c-0.1,0-0.1-0.1-0.2-0.1c-0.1,0-0.1-0.1-0.1-0.1C166.5,31.4,166.4,31.1,166.4,30.6z"/>
	<path fill="#8F1D1E" d="M169,27.8v-0.6h2.7v0.6h-1.1V32H170v-4.2H169z"/>
	<path fill="#8F1D1E" d="M172,30.6v-2.1c0-0.4,0.1-0.8,0.3-1c0,0,0.1-0.1,0.1-0.1c0.1,0,0.1-0.1,0.2-0.1c0.1,0,0.2-0.1,0.2-0.1
		c0.1,0,0.2,0,0.3,0c0.2,0,0.4,0,0.6,0.1c0.1,0.1,0.2,0.2,0.3,0.3c0.2,0.2,0.3,0.6,0.3,1v2.1c0,0.4-0.1,0.8-0.3,1
		c-0.1,0.1-0.2,0.2-0.3,0.3c-0.1,0.1-0.3,0.1-0.6,0.1c-0.2,0-0.4,0-0.6-0.1c-0.1-0.1-0.2-0.2-0.3-0.3C172.1,31.4,172,31.1,172,30.6z
		 M172.6,30.6c0,0.2,0,0.3,0.1,0.4c0,0.1,0.1,0.2,0.1,0.2c0.1,0,0.1,0.1,0.2,0.1c0.1,0,0.1,0,0.2,0c0,0,0.1,0,0.2,0
		c0.1,0,0.1,0,0.2-0.1c0.1,0,0.1-0.1,0.1-0.2c0-0.1,0.1-0.3,0.1-0.4v-2.1c0-0.2,0-0.3-0.1-0.4c0-0.1-0.1-0.2-0.1-0.2
		c-0.1,0-0.1-0.1-0.2-0.1c-0.1,0-0.1,0-0.2,0c0,0-0.1,0-0.2,0c-0.1,0-0.1,0-0.2,0.1c-0.1,0-0.1,0.1-0.1,0.2c0,0.1-0.1,0.3-0.1,0.4
		V30.6z"/>
	<path fill="#8F1D1E" d="M174.7,30.6v-0.3h0.6v0.3c0,0.3,0,0.5,0.2,0.6c0,0,0.1,0.1,0.1,0.1s0.1,0,0.3,0c0.1,0,0.2,0,0.3-0.1
		s0.1-0.1,0.2-0.2s0.1-0.2,0.1-0.2c0-0.1,0-0.2,0-0.2c0-0.1,0-0.2-0.1-0.3c0-0.1-0.1-0.1-0.1-0.2c-0.1-0.1-0.1-0.1-0.2-0.1
		s-0.1-0.1-0.2-0.1l-0.1-0.1c-0.1,0-0.2-0.1-0.3-0.1s-0.2-0.1-0.3-0.2c-0.3-0.3-0.4-0.6-0.4-1c0-0.2,0-0.4,0.1-0.6s0.1-0.3,0.2-0.4
		c0.1-0.1,0.2-0.2,0.4-0.3s0.3-0.1,0.5-0.1c0.2,0,0.4,0,0.6,0.1c0.1,0.1,0.2,0.2,0.3,0.3c0.2,0.2,0.3,0.6,0.3,1v0.3h-0.6v-0.3
		c0-0.2,0-0.3-0.1-0.4c0-0.1-0.1-0.2-0.1-0.2c-0.1,0-0.1-0.1-0.2-0.1c-0.1,0-0.1,0-0.2,0c-0.1,0-0.2,0-0.3,0.1s-0.1,0.1-0.2,0.2
		c0,0.1-0.1,0.2-0.1,0.3c0,0.1,0,0.2,0,0.2c0,0.1,0,0.2,0.1,0.3s0.1,0.2,0.1,0.2c0.1,0.1,0.1,0.1,0.2,0.2c0.1,0,0.1,0.1,0.2,0.1
		l0.1,0c0.1,0,0.1,0.1,0.3,0.1c0.1,0.1,0.2,0.1,0.3,0.2c0.3,0.3,0.4,0.6,0.4,1c0,0.4-0.1,0.7-0.3,0.9c-0.2,0.3-0.5,0.4-0.9,0.4
		c-0.4,0-0.7-0.1-0.9-0.4C174.8,31.4,174.7,31.1,174.7,30.6z"/>
	<path fill="#8F1D1E" d="M177.3,32v-4.8h2v0.6h-1.4v1.5h1.4v0.6h-1.4v1.5h1.4V32H177.3z"/>
	<path fill="#8F1D1E" d="M133.8,40.7v-4.8h2v0.6h-1.4v1.5h1.4v0.6h-1.4V40h1.4v0.6H133.8z"/>
	<path fill="#8F1D1E" d="M136.2,40.7l1.1-4.8h0.5l1.1,4.8h-0.6l-0.3-1.4h-0.8l-0.3,1.4H136.2z M137.3,38.7h0.6l-0.3-1.2L137.3,38.7z
		"/>
	<path fill="#8F1D1E" d="M139.1,39.3V39h0.6v0.3c0,0.3,0,0.5,0.2,0.6c0,0,0.1,0.1,0.1,0.1s0.1,0,0.3,0c0.1,0,0.2,0,0.3-0.1
		s0.1-0.1,0.2-0.2s0.1-0.2,0.1-0.2c0-0.1,0-0.2,0-0.2c0-0.1,0-0.2-0.1-0.3c0-0.1-0.1-0.1-0.1-0.2c-0.1-0.1-0.1-0.1-0.2-0.1
		s-0.1-0.1-0.2-0.1l-0.1-0.1c-0.1,0-0.2-0.1-0.3-0.1s-0.2-0.1-0.3-0.2c-0.3-0.3-0.4-0.6-0.4-1c0-0.2,0-0.4,0.1-0.6s0.1-0.3,0.2-0.4
		c0.1-0.1,0.2-0.2,0.4-0.3s0.3-0.1,0.5-0.1c0.2,0,0.4,0,0.6,0.1c0.1,0.1,0.2,0.2,0.3,0.3c0.2,0.2,0.3,0.6,0.3,1v0.3h-0.6v-0.3
		c0-0.2,0-0.3-0.1-0.4c0-0.1-0.1-0.2-0.1-0.2c-0.1,0-0.1-0.1-0.2-0.1c-0.1,0-0.1,0-0.2,0c-0.1,0-0.2,0-0.3,0.1s-0.1,0.1-0.2,0.2
		c0,0.1-0.1,0.2-0.1,0.3c0,0.1,0,0.2,0,0.2c0,0.1,0,0.2,0.1,0.3s0.1,0.2,0.1,0.2c0.1,0.1,0.1,0.1,0.2,0.2c0.1,0,0.1,0.1,0.2,0.1
		l0.1,0c0.1,0,0.1,0.1,0.3,0.1c0.1,0.1,0.2,0.1,0.3,0.2c0.3,0.3,0.4,0.6,0.4,1c0,0.4-0.1,0.7-0.3,0.9c-0.2,0.3-0.5,0.4-0.9,0.4
		c-0.4,0-0.7-0.1-0.9-0.4C139.2,40,139.1,39.7,139.1,39.3z"/>
	<path fill="#8F1D1E" d="M141.7,36.4v-0.6h2.7v0.6h-1.1v4.2h-0.6v-4.2H141.7z"/>
	<path fill="#8F1D1E" d="M146.7,38.9L146.7,38.9l0-3.1h0.6v2.1l1.4-2.1h0.7l-1.5,2.3l1.4,2.6h-0.7l-1.1-2l-0.3,0.4v1.6h-0.6
		L146.7,38.9L146.7,38.9z"/>
	<path fill="#8F1D1E" d="M149.7,40.7v-4.8h2v0.6h-1.4v1.5h1.4v0.6h-1.4V40h1.4v0.6H149.7z"/>
	<path fill="#8F1D1E" d="M152.1,40.7v-4.8h0.5l1.2,2.9v-2.9h0.6v4.8h-0.5l-1.2-2.9v2.9H152.1z"/>
	<path fill="#8F1D1E" d="M154.9,36.4v-0.6h2.7v0.6h-1.1v4.2H156v-4.2H154.9z"/>
	<path fill="#8F1D1E" d="M160,39.3v-2.1c0-0.4,0.1-0.8,0.3-1c0.2-0.3,0.5-0.4,0.9-0.4c0.4,0,0.7,0.1,0.9,0.4c0.2,0.2,0.3,0.6,0.3,1
		v0.3h-0.6v-0.3c0-0.2,0-0.3,0-0.4s-0.1-0.2-0.1-0.2c-0.1-0.1-0.1-0.1-0.2-0.1s-0.1,0-0.2,0s-0.1,0-0.2,0s-0.1,0-0.2,0.1
		c-0.1,0.1-0.1,0.1-0.1,0.2c0,0.1,0,0.2,0,0.4v2.1c0,0.2,0,0.3,0.1,0.4c0,0.1,0.1,0.2,0.1,0.2s0.1,0.1,0.2,0.1c0.1,0,0.1,0,0.2,0
		c0,0,0.1,0,0.2,0c0.1,0,0.1,0,0.2-0.1c0.1,0,0.1-0.1,0.1-0.2c0-0.1,0.1-0.3,0.1-0.4v-0.4h-0.7v-0.6h1.4v1c0,0.4-0.1,0.8-0.3,1
		c-0.1,0.1-0.2,0.2-0.3,0.3c-0.1,0.1-0.3,0.1-0.6,0.1c-0.2,0-0.4,0-0.6-0.1c-0.1-0.1-0.2-0.2-0.3-0.3C160.1,40,160,39.7,160,39.3z"
		/>
	<path fill="#8F1D1E" d="M162.7,39.3v-2.1c0-0.4,0.1-0.8,0.3-1c0,0,0.1-0.1,0.1-0.1c0.1,0,0.1-0.1,0.2-0.1c0.1,0,0.2-0.1,0.2-0.1
		c0.1,0,0.2,0,0.3,0c0.2,0,0.4,0,0.6,0.1c0.1,0.1,0.2,0.2,0.3,0.3c0.2,0.2,0.3,0.6,0.3,1v2.1c0,0.4-0.1,0.8-0.3,1
		c-0.1,0.1-0.2,0.2-0.3,0.3c-0.1,0.1-0.3,0.1-0.6,0.1c-0.2,0-0.4,0-0.6-0.1c-0.1-0.1-0.2-0.2-0.3-0.3
		C162.8,40,162.7,39.7,162.7,39.3z M163.3,39.3c0,0.2,0,0.3,0.1,0.4c0,0.1,0.1,0.2,0.1,0.2c0.1,0,0.1,0.1,0.2,0.1c0.1,0,0.1,0,0.2,0
		c0,0,0.1,0,0.2,0c0.1,0,0.1,0,0.2-0.1c0.1,0,0.1-0.1,0.1-0.2c0-0.1,0.1-0.3,0.1-0.4v-2.1c0-0.2,0-0.3-0.1-0.4
		c0-0.1-0.1-0.2-0.1-0.2c-0.1,0-0.1-0.1-0.2-0.1c-0.1,0-0.1,0-0.2,0c0,0-0.1,0-0.2,0c-0.1,0-0.1,0-0.2,0.1c-0.1,0-0.1,0.1-0.1,0.2
		c0,0.1-0.1,0.3-0.1,0.4V39.3z"/>
	<path fill="#8F1D1E" d="M165.4,40.7v-4.8h0.6V40h1.5v0.6H165.4z"/>
	<path fill="#8F1D1E" d="M167.7,40.7v-4.8h1c0.4,0,0.7,0.1,0.9,0.4c0.2,0.2,0.3,0.6,0.3,1v2c0,0.4-0.1,0.8-0.3,1
		c-0.2,0.3-0.5,0.4-0.9,0.4H167.7z M168.3,40h0.3c0.1,0,0.2,0,0.2,0c0.1,0,0.1,0,0.2-0.1s0.1-0.1,0.1-0.2s0.1-0.2,0.1-0.4v-2
		c0-0.2,0-0.3-0.1-0.4c0-0.1-0.1-0.2-0.1-0.2c-0.1-0.1-0.1-0.1-0.2-0.1c-0.1,0-0.1,0-0.2,0h-0.3V40z"/>
	<path fill="#8F1D1E" d="M170.5,40.7v-4.8h0.6v4.8H170.5z"/>
	<path fill="#8F1D1E" d="M171.6,40.7v-4.8h0.5l1.2,2.9v-2.9h0.6v4.8h-0.5l-1.2-2.9v2.9H171.6z"/>
	<path fill="#8F1D1E" d="M174.4,39.3v-2.1c0-0.4,0.1-0.8,0.3-1c0.2-0.3,0.5-0.4,0.9-0.4c0.4,0,0.7,0.1,0.9,0.4
		c0.2,0.2,0.3,0.6,0.3,1v0.3h-0.6v-0.3c0-0.2,0-0.3,0-0.4s-0.1-0.2-0.1-0.2c-0.1-0.1-0.1-0.1-0.2-0.1s-0.1,0-0.2,0s-0.1,0-0.2,0
		s-0.1,0-0.2,0.1c-0.1,0.1-0.1,0.1-0.1,0.2c0,0.1,0,0.2,0,0.4v2.1c0,0.2,0,0.3,0.1,0.4c0,0.1,0.1,0.2,0.1,0.2s0.1,0.1,0.2,0.1
		c0.1,0,0.1,0,0.2,0c0,0,0.1,0,0.2,0c0.1,0,0.1,0,0.2-0.1c0.1,0,0.1-0.1,0.1-0.2c0-0.1,0.1-0.3,0.1-0.4v-0.4h-0.7v-0.6h1.4v1
		c0,0.4-0.1,0.8-0.3,1c-0.1,0.1-0.2,0.2-0.3,0.3c-0.1,0.1-0.3,0.1-0.6,0.1c-0.2,0-0.4,0-0.6-0.1c-0.1-0.1-0.2-0.2-0.3-0.3
		C174.5,40,174.4,39.7,174.4,39.3z"/>
	<path fill="#8F1D1E" d="M177.1,39.3V39h0.6v0.3c0,0.3,0,0.5,0.2,0.6c0,0,0.1,0.1,0.1,0.1s0.1,0,0.3,0c0.1,0,0.2,0,0.3-0.1
		s0.1-0.1,0.2-0.2s0.1-0.2,0.1-0.2c0-0.1,0-0.2,0-0.2c0-0.1,0-0.2-0.1-0.3c0-0.1-0.1-0.1-0.1-0.2c-0.1-0.1-0.1-0.1-0.2-0.1
		s-0.1-0.1-0.2-0.1l-0.1-0.1c-0.1,0-0.2-0.1-0.3-0.1s-0.2-0.1-0.3-0.2c-0.3-0.3-0.4-0.6-0.4-1c0-0.2,0-0.4,0.1-0.6s0.1-0.3,0.2-0.4
		c0.1-0.1,0.2-0.2,0.4-0.3s0.3-0.1,0.5-0.1c0.2,0,0.4,0,0.6,0.1c0.1,0.1,0.2,0.2,0.3,0.3c0.2,0.2,0.3,0.6,0.3,1v0.3h-0.6v-0.3
		c0-0.2,0-0.3-0.1-0.4c0-0.1-0.1-0.2-0.1-0.2c-0.1,0-0.1-0.1-0.2-0.1c-0.1,0-0.1,0-0.2,0c-0.1,0-0.2,0-0.3,0.1s-0.1,0.1-0.2,0.2
		c0,0.1-0.1,0.2-0.1,0.3c0,0.1,0,0.2,0,0.2c0,0.1,0,0.2,0.1,0.3s0.1,0.2,0.1,0.2c0.1,0.1,0.1,0.1,0.2,0.2c0.1,0,0.1,0.1,0.2,0.1
		l0.1,0c0.1,0,0.1,0.1,0.3,0.1c0.1,0.1,0.2,0.1,0.3,0.2c0.3,0.3,0.4,0.6,0.4,1c0,0.4-0.1,0.7-0.3,0.9c-0.2,0.3-0.5,0.4-0.9,0.4
		c-0.4,0-0.7-0.1-0.9-0.4C177.2,40,177.1,39.7,177.1,39.3z"/>
</g>
<g>
	<g>
		<path fill="#FFFFFF" d="M54.4,60.2c-1.7,0-3-1.3-3-3c0-1.7,1.3-3,3-3c1.7,0,3,1.3,3,3C57.4,58.8,56,60.2,54.4,60.2z M54.4,55.4
			c-1,0-1.8,0.8-1.8,1.8c0,1,0.8,1.8,1.8,1.8c1,0,1.8-0.8,1.8-1.8C56.1,56.2,55.3,55.4,54.4,55.4z"/>
	</g>
	<g>
		<path fill="#FFFFFF" d="M54.4,68.8c-1.7,0-3-1.3-3-3c0-1.7,1.3-3,3-3c1.7,0,3,1.3,3,3C57.4,67.5,56,68.8,54.4,68.8z M54.4,64
			c-1,0-1.8,0.8-1.8,1.8c0,1,0.8,1.8,1.8,1.8c1,0,1.8-0.8,1.8-1.8C56.1,64.8,55.3,64,54.4,64z"/>
	</g>
	<g>
		<path fill="#FFFFFF" d="M54.4,77.5c-1.7,0-3-1.3-3-3s1.3-3,3-3c1.7,0,3,1.3,3,3S56,77.5,54.4,77.5z M54.4,72.7
			c-1,0-1.8,0.8-1.8,1.8c0,1,0.8,1.8,1.8,1.8c1,0,1.8-0.8,1.8-1.8C56.1,73.5,55.3,72.7,54.4,72.7z"/>
	</g>
	<g>
		<path fill="#FFFFFF" d="M54.4,86.2c-1.7,0-3-1.3-3-3c0-1.7,1.3-3,3-3c1.7,0,3,1.3,3,3C57.4,84.8,56,86.2,54.4,86.2z M54.4,81.4
			c-1,0-1.8,0.8-1.8,1.8s0.8,1.8,1.8,1.8c1,0,1.8-0.8,1.8-1.8S55.3,81.4,54.4,81.4z"/>
	</g>
	<g>
		<path fill="#FFFFFF" d="M54.4,94.8c-1.7,0-3-1.3-3-3c0-1.7,1.3-3,3-3c1.7,0,3,1.3,3,3C57.4,93.5,56,94.8,54.4,94.8z M54.4,90
			c-1,0-1.8,0.8-1.8,1.8s0.8,1.8,1.8,1.8c1,0,1.8-0.8,1.8-1.8S55.3,90,54.4,90z"/>
	</g>
	<g>
		<path fill="#FFFFFF" d="M54.4,103.5c-1.7,0-3-1.3-3-3c0-1.7,1.3-3,3-3c1.7,0,3,1.3,3,3C57.4,102.1,56,103.5,54.4,103.5z
			 M54.4,98.7c-1,0-1.8,0.8-1.8,1.8c0,1,0.8,1.8,1.8,1.8c1,0,1.8-0.8,1.8-1.8C56.1,99.5,55.3,98.7,54.4,98.7z"/>
	</g>
	<g>
		<path fill="#FFFFFF" d="M54.4,112.2c-1.7,0-3-1.3-3-3c0-1.7,1.3-3,3-3c1.7,0,3,1.3,3,3C57.4,110.8,56,112.2,54.4,112.2z
			 M54.4,107.4c-1,0-1.8,0.8-1.8,1.8c0,1,0.8,1.8,1.8,1.8c1,0,1.8-0.8,1.8-1.8C56.1,108.2,55.3,107.4,54.4,107.4z"/>
	</g>
</g>
<g>
	<rect x="156.6" y="61.1" fill="#FFFFFF" width="53.1" height="51.3"/>
	<g>
		<path fill="#FFFFFF" d="M217.3,67.8h-68.4c-0.8,0-1.4-0.6-1.4-1.4s0.6-1.4,1.4-1.4h68.4c0.8,0,1.4,0.6,1.4,1.4
			S218.1,67.8,217.3,67.8z"/>
	</g>
</g>
<g>
	<polygon fill="#FFFFFF" points="293.8,124.9 260.8,124.9 260.8,113.4 262.1,113.4 262.1,123.7 293.3,123.7 300.3,116.8 
		300.3,111.8 301.5,111.8 301.5,117.3 	"/>
</g>
<g>
	<path fill="none" stroke="#FFFFFF" stroke-width="3" stroke-miterlimit="10" d="M257.2,16.1"/>
</g>
<polygon fill="#FFFFFF" points="329.9,55.7 335.7,52.3 329.9,49 329.9,52.1 "/>
<path fill="#FFFFFF" d="M244.8,38.2v53.5v7.6v17.8c0,1.1,0.9,2.1,2.1,2.1c1.1,0,2.1-0.9,2.1-2.1v-10.5l4.6,8.3H269l4.6-8.3V118
	c0,1.1,0.9,2.1,2.1,2.1c1.1,0,2.1-0.9,2.1-2.1V99.3v-8.5V38.2H244.8z"/>
<g>
	<path fill="#FFFFFF" d="M309.3,112.5h-17.9V78.3h17.9V112.5z M292.7,111.2h15.4V79.6h-15.4V111.2z"/>
</g>
<g>
	<rect x="341.6" y="58.1" fill="#8F1D1E" width="1.2" height="29.8"/>
</g>
<g>
	<path fill="#FFFFFF" d="M313.2,57.8h-24.4c0.5,2.8,1.2,5,1.8,6.4h20.9C312.1,62.8,312.8,60.6,313.2,57.8z"/>
	<path fill="#FFFFFF" d="M288.4,51.9c0,1.7,0.1,3.3,0.3,4.7h24.8c0.2-1.4,0.3-3,0.3-4.7c0-1.6-0.1-3.1-0.2-4.5h-24.9
		C288.5,48.8,288.4,50.2,288.4,51.9z"/>
	<path fill="#FFFFFF" d="M290.4,39.7c-0.6,1.5-1.2,3.7-1.6,6.4h24.5c-0.4-2.8-1-5-1.6-6.4H290.4z"/>
	<path fill="#FFFFFF" d="M311.3,38.7c-0.5-1.2-1-1.7-1-1.7h-18.5c0,0-0.4,0.6-0.9,1.7H311.3z"/>
	<path fill="#FFFFFF" d="M291.1,65.3c0.4,0.9,0.7,1.3,0.7,1.3h18.5c0,0,0.3-0.4,0.7-1.3H291.1z"/>
</g>
<g>
	<rect x="310.2" y="51.7" fill="#FFFFFF" width="20.7" height="1.2"/>
</g>
<g>
	<path fill="#FFFFFF" d="M304.5,106.6h-8.2c-0.7,0-1.2-0.6-1.2-1.2s0.6-1.2,1.2-1.2h8.2c0.7,0,1.2,0.6,1.2,1.2
		S305.1,106.6,304.5,106.6z"/>
</g>
<g>
	<path fill="#FFFFFF" d="M304.5,99.7h-8.2c-0.7,0-1.2-0.6-1.2-1.2c0-0.7,0.6-1.2,1.2-1.2h8.2c0.7,0,1.2,0.6,1.2,1.2
		C305.7,99.2,305.1,99.7,304.5,99.7z"/>
</g>
<g>
	<path fill="#FFFFFF" d="M304.5,92.9h-8.2c-0.7,0-1.2-0.6-1.2-1.2c0-0.7,0.6-1.2,1.2-1.2h8.2c0.7,0,1.2,0.6,1.2,1.2
		C305.7,92.3,305.1,92.9,304.5,92.9z"/>
</g>
<g>
	<path fill="#FFFFFF" d="M304.5,86h-8.2c-0.7,0-1.2-0.6-1.2-1.2c0-0.7,0.6-1.2,1.2-1.2h8.2c0.7,0,1.2,0.6,1.2,1.2
		C305.7,85.5,305.1,86,304.5,86z"/>
</g>
<g>
	<rect x="299.7" y="66.1" fill="#FFFFFF" width="1.2" height="12.5"/>
</g>
<g>
	<polygon fill="#FFFFFF" points="62.4,77.5 73.5,57.7 101.8,57.7 112.9,77.5 112.9,111.7 62.4,111.7 	"/>
</g>
<g>
	<path fill="#8F1D1E" d="M72,85.4V73h0.2h0.4h0.2h0.4h0.3l2.5,8.7l2.5-8.7h0.1h0.5h0.2h0.3h0.3v12.4h-0.6V73.6h-0.4l-2.9,10.3
		l-3-10.3h-0.4v11.8H72z M73,85.4V75.3l2.9,10.1l2.9-10.2v10.2h-0.6v-6l-1.7,6h-1.2l-1.7-5.9v5.9H73z"/>
	<path fill="#8F1D1E" d="M81.3,85.5L84.2,73h0.1h0.5h0h0.5h0.1l2.9,12.4h-0.6L85,73.8h-0.4l-2.7,11.7H81.3z M82.3,85.5l0.9-4.1h3.1
		l0.9,4.1h-0.6L85.9,82h-2.2l-0.8,3.5H82.3z M83.3,81l1.5-6.3l1.5,6.3H83.3z M84.1,80.4h1.4l-0.7-3L84.1,80.4z"/>
	<path fill="#8F1D1E" d="M89,76.6c0-0.5,0.1-1,0.2-1.4c0.1-0.4,0.3-0.8,0.6-1.1c0.3-0.3,0.6-0.6,0.9-0.7c0.4-0.2,0.8-0.3,1.2-0.3
		c0.6,0,1.1,0.1,1.4,0.3c0.4,0.2,0.6,0.4,0.8,0.7c0.5,0.6,0.7,1.5,0.7,2.6v0.8h-0.6v-0.8c0-1-0.2-1.7-0.6-2.2
		c-0.4-0.5-1-0.8-1.8-0.8c-0.8,0-1.4,0.3-1.8,0.9c-0.4,0.5-0.6,1.2-0.6,2.1c0,0.5,0.1,0.9,0.2,1.2s0.4,0.6,0.6,0.8s0.5,0.4,0.7,0.5
		c0.2,0.1,0.4,0.2,0.6,0.3l0.3,0.1c0.1,0.1,0.3,0.1,0.5,0.2c0.2,0.1,0.4,0.2,0.6,0.4s0.4,0.4,0.5,0.7c0.1,0.3,0.2,0.6,0.2,1.1
		c0,0.8-0.2,1.4-0.5,1.8c-0.3,0.4-0.8,0.6-1.5,0.6c-0.7,0-1.2-0.2-1.5-0.6c-0.3-0.4-0.5-1.1-0.5-1.9v-0.8h0.6v0.8
		c0,0.7,0.1,1.2,0.4,1.6c0.1,0.1,0.2,0.2,0.3,0.2s0.4,0.1,0.7,0.1c0.3,0,0.5-0.1,0.7-0.2c0.2-0.1,0.3-0.3,0.4-0.5
		c0.1-0.2,0.2-0.4,0.2-0.6c0-0.2,0-0.4,0-0.6c0-0.3,0-0.5-0.1-0.7c-0.1-0.2-0.2-0.4-0.4-0.5s-0.3-0.3-0.5-0.4
		c-0.2-0.1-0.4-0.2-0.5-0.3L91.5,80c-0.2-0.1-0.4-0.2-0.7-0.3c-0.3-0.1-0.5-0.3-0.8-0.6C89.3,78.4,89,77.6,89,76.6z M89,81.9v-0.8
		h0.6v0.8c0,1,0.2,1.7,0.6,2.2c0.4,0.5,1,0.7,1.8,0.7c0.4,0,0.7-0.1,1-0.2c0.3-0.1,0.6-0.3,0.8-0.6c0.2-0.2,0.3-0.5,0.4-0.9
		s0.2-0.7,0.2-1.1c0-0.5-0.1-0.9-0.3-1.2c-0.2-0.3-0.4-0.6-0.6-0.8s-0.5-0.4-0.7-0.5c-0.2-0.1-0.4-0.2-0.6-0.3l-0.3-0.1
		c-0.2-0.1-0.3-0.2-0.6-0.3c-0.2-0.1-0.4-0.3-0.6-0.5s-0.4-0.4-0.5-0.7C90.1,77.4,90,77,90,76.6c0-0.3,0-0.6,0.1-0.9
		c0.1-0.3,0.2-0.6,0.3-0.8s0.4-0.4,0.6-0.6S91.6,74,92,74c0.7,0,1.1,0.2,1.5,0.6c0.3,0.4,0.5,1.1,0.5,2v0.8h-0.6v-0.8
		c0-0.5,0-0.9-0.1-1.1c-0.1-0.3-0.2-0.5-0.4-0.6c-0.1-0.1-0.3-0.2-0.5-0.2c-0.2,0-0.3,0-0.4,0c-0.3,0-0.6,0.1-0.8,0.2
		c-0.2,0.2-0.3,0.3-0.4,0.6s-0.2,0.4-0.2,0.7c0,0.2,0,0.4,0,0.5c0,0.3,0,0.5,0.1,0.7s0.2,0.4,0.4,0.5c0.1,0.2,0.3,0.3,0.5,0.4
		c0.2,0.1,0.4,0.2,0.6,0.3l0.3,0.1c0.2,0.1,0.4,0.2,0.7,0.3s0.5,0.3,0.8,0.6c0.7,0.6,1,1.5,1,2.5c0,1-0.2,1.7-0.7,2.4
		c-0.5,0.7-1.3,1.1-2.3,1.1c-1,0-1.7-0.3-2.2-1C89.2,83.9,89,83.1,89,81.9z"/>
	<path fill="#8F1D1E" d="M95.7,85.4V73h0.6v6v0.4v6H95.7z M96.7,79v-6h0.6v5.4h2.4V73h0.6v6H96.7z M96.7,85.4v-6h3.6v6h-0.6V80h-2.4
		v5.4H96.7z M100.7,85.4v-6V79v-6h0.6v12.4H100.7z"/>
	<path fill="#8F1D1E" d="M71.4,89.2v-0.8h9.3v0.8h-4.4h-0.5H71.4z M71.4,90.5v-0.8h4.4v15.1H75V90.5H71.4z M76.3,104.8V104V89.7h4.4
		v0.8h-3.6v14.3H76.3z"/>
	<path fill="#8F1D1E" d="M83.2,100.4v-12H84v12c0,1.2,0.2,2,0.7,2.6c0.5,0.6,1.2,0.9,2.2,0.9c1,0,1.7-0.3,2.2-0.9
		c0.5-0.6,0.7-1.5,0.7-2.6v-12h0.8v12c0,1.4-0.3,2.4-0.9,3.1c-0.2,0.3-0.6,0.6-1,0.8c-0.4,0.3-1,0.4-1.8,0.4s-1.3-0.1-1.8-0.4
		c-0.4-0.3-0.8-0.5-1-0.8C83.5,102.8,83.2,101.8,83.2,100.4z M84.5,100.4v-12h0.8v12c0,0.6,0.1,1,0.2,1.3c0.1,0.3,0.2,0.5,0.4,0.7
		c0.2,0.1,0.3,0.2,0.5,0.2s0.3,0,0.5,0c0.1,0,0.3,0,0.5,0s0.4-0.1,0.5-0.2c0.2-0.1,0.3-0.4,0.4-0.7s0.2-0.7,0.2-1.3v-12h0.8v12
		c0,1-0.2,1.8-0.6,2.3c-0.4,0.5-1,0.7-1.8,0.7c-0.8,0-1.4-0.2-1.8-0.7C84.7,102.3,84.5,101.5,84.5,100.4z"/>
	<path fill="#8F1D1E" d="M93.5,104.7V88.4h0.2h0.6h0.1H95h0.3l4,9.9v-9.9h0.8v14l-5.3-13.2h-0.5v15.6H93.5z M94.9,104.7v-14
		l5.3,13.2h0.4V88.4h0.8v16.4h-0.2h-0.6h-0.1h-0.6h-0.3l-4-9.9v9.9H94.9z"/>
</g>
<g>
	<path fill="#8F1D1E" d="M166.6,88.4v-0.8h0.8h0.3h0.3h1.8c1.1,0,1.9-0.3,2.4-0.9c0.5-0.6,0.7-1.5,0.7-2.8c0-1.2-0.2-2.2-0.7-2.8
		c-0.2-0.3-0.5-0.5-0.9-0.7c1.1-0.4,1.6-1.6,1.6-3.4c0-1.3-0.3-2.2-0.8-2.8c-0.5-0.6-1.3-0.9-2.3-0.9h-2h-0.3h-0.8v-0.8h3
		c1.3,0,2.3,0.4,2.9,1.2c0.6,0.7,0.9,1.8,0.9,3.2c0,1.4-0.3,2.5-0.9,3.2c-0.1,0.1-0.1,0.2-0.2,0.2c0.1,0.1,0.1,0.2,0.2,0.2
		c0.6,0.7,0.9,1.8,0.9,3.2c0,1.4-0.3,2.5-0.9,3.2c-0.6,0.8-1.6,1.2-2.9,1.2h-1H166.6z M166.6,87.1v-0.8V73.9h0.8v13.2H166.6z
		 M167.9,80.3v-6.4h1.8c0.9,0,1.6,0.3,2,0.8c0.4,0.5,0.6,1.3,0.6,2.4c0,1.1-0.2,1.9-0.6,2.4c-0.4,0.5-1.1,0.8-2,0.8H167.9z
		 M167.9,87.1v-6.4h1.8c0.9,0,1.6,0.3,2,0.8c0.4,0.5,0.6,1.3,0.6,2.4c0,1.1-0.2,1.9-0.6,2.4c-0.4,0.5-1.1,0.7-2,0.7H167.9z
		 M168.7,79.5h1c0.5,0,0.8-0.1,1-0.2s0.3-0.2,0.4-0.3c0.3-0.4,0.4-1,0.4-2c0-0.6,0-1-0.1-1.3c-0.1-0.3-0.2-0.6-0.4-0.7
		s-0.4-0.3-0.6-0.3c-0.2,0-0.5-0.1-0.7-0.1h-1V79.5z M168.7,86.4h1c0.3,0,0.5,0,0.7-0.1c0.2,0,0.4-0.1,0.6-0.3
		c0.2-0.2,0.3-0.4,0.4-0.7c0.1-0.3,0.1-0.8,0.1-1.3c0-0.6-0.1-1-0.2-1.3c-0.1-0.3-0.2-0.6-0.4-0.7c-0.2-0.2-0.4-0.3-0.6-0.3
		c-0.2,0-0.5-0.1-0.7-0.1h-1V86.4z"/>
	<path fill="#8F1D1E" d="M176,83.9v-6.8c0-1.4,0.3-2.5,0.9-3.2c0.2-0.3,0.6-0.6,1-0.8c0.4-0.3,1.1-0.4,1.8-0.4s1.4,0.1,1.8,0.4
		c0.4,0.3,0.8,0.5,1,0.8c0.6,0.8,0.9,1.9,0.9,3.2v6.8c0,1.4-0.3,2.5-0.9,3.2c-0.1,0.1-0.2,0.3-0.4,0.4s-0.4,0.3-0.6,0.4
		c-0.2,0.1-0.5,0.2-0.8,0.3c-0.3,0.1-0.6,0.1-1,0.1c-0.8,0-1.4-0.1-1.8-0.4s-0.8-0.6-1-0.8C176.3,86.3,176,85.3,176,83.9z
		 M176.7,83.9c0,1.2,0.2,2.1,0.7,2.8c0.5,0.7,1.3,1,2.2,1s1.7-0.3,2.2-1c0.5-0.6,0.8-1.5,0.8-2.8v-6.8c0-1.2-0.3-2.1-0.8-2.8
		c-0.5-0.6-1.3-1-2.2-1c-1,0-1.7,0.3-2.2,1c-0.5,0.6-0.7,1.5-0.7,2.8V83.9z M177.2,83.9v-6.8c0-1.1,0.2-1.9,0.6-2.4
		c0.4-0.5,1-0.8,1.8-0.8s1.5,0.3,1.8,0.8c0.4,0.5,0.6,1.3,0.6,2.4v6.8c0,2.1-0.8,3.2-2.5,3.2S177.2,86,177.2,83.9z M178,83.9
		c0,0.6,0.1,1.1,0.2,1.4s0.3,0.6,0.5,0.7c0.2,0.2,0.4,0.2,0.6,0.3c0.2,0,0.4,0,0.5,0c0.1,0,0.3,0,0.5,0c0.2,0,0.4-0.1,0.6-0.3
		c0.2-0.1,0.3-0.4,0.5-0.7c0.1-0.3,0.2-0.8,0.2-1.4v-6.8c0-0.6-0.1-1.1-0.2-1.4c-0.1-0.3-0.3-0.6-0.5-0.7c-0.2-0.1-0.4-0.2-0.6-0.3
		c-0.2,0-0.4,0-0.5,0c-0.2,0-0.3,0-0.5,0c-0.2,0-0.4,0.1-0.6,0.3c-0.2,0.1-0.3,0.4-0.5,0.7s-0.2,0.8-0.2,1.4V83.9z"/>
	<path fill="#8F1D1E" d="M186.5,88.4V72.6h0.8v15.7H186.5z M187.8,88.4V72.6h0.8v15.7H187.8z"/>
	<path fill="#8F1D1E" d="M191.5,88.4V72.6h0.8v15h6.1v0.8H191.5z M192.7,87.1V72.6h0.8v13.7h4.8v0.8H192.7z"/>
	<path fill="#8F1D1E" d="M166.6,97.6L166.6,97.6l0-6.2h0.5v9.7h-0.5L166.6,97.6L166.6,97.6z M167.4,97.2v-5.8h0.5v4.2l2.7-4.2h0.5
		L167.4,97.2z M167.4,101.1v-3.3l1-1.6l2.7,4.9h-0.5l-2.2-4l-0.5,0.8v3.2H167.4z M168.6,95.9l2.9-4.5h0.6l-2.9,4.5l2.9,5.2h-0.5
		L168.6,95.9z"/>
	<path fill="#8F1D1E" d="M172.6,101.1v-9.7h4v0.5H173v4.2v0.3v4.2h3.6v0.5H172.6z M173.4,96.1v-3.9h3.2v0.5h-2.8v3h2.8v0.5H173.4z
		 M173.4,100.3v-3.9h3.2v0.5h-2.8v3h2.8v0.5H173.4z"/>
	<path fill="#8F1D1E" d="M177.3,91.9v-0.5h5.5v0.5h-2.6h-0.3H177.3z M177.3,92.7v-0.5h2.6v8.9h-0.5v-8.4H177.3z M180.2,101.1v-0.5
		v-8.5h2.6v0.5h-2.1v8.4H180.2z"/>
	<path fill="#8F1D1E" d="M183.4,91.9v-0.5h5.5v0.5h-2.6H186H183.4z M183.4,92.7v-0.5h2.6v8.9h-0.5v-8.4H183.4z M186.3,101.1v-0.5
		v-8.5h2.6v0.5h-2.1v8.4H186.3z"/>
	<path fill="#8F1D1E" d="M189.6,101.1v-9.7h0.5v9.2h3.8v0.5H189.6z M190.4,100.3v-8.9h0.5v8.5h3v0.5H190.4z"/>
	<path fill="#8F1D1E" d="M194.3,101.1v-9.7h4v0.5h-3.6v4.2v0.3v4.2h3.6v0.5H194.3z M195,96.1v-3.9h3.2v0.5h-2.8v3h2.8v0.5H195z
		 M195,100.3v-3.9h3.2v0.5h-2.8v3h2.8v0.5H195z"/>
</g>
<g>
	<path fill="#8F1D1E" d="M255.6,46.6h11.2v4.6h-0.5v-4.1h-4.9h-0.3h-5.4V46.6z M255.6,47.4h5.4v3.7h-0.5V48h-4.9V47.4z M261.4,47.4
		h4.5v3.7h-0.5V48H262v3.2h-0.5V47.4z"/>
	<path fill="#8F1D1E" d="M255.6,52.2h11.2v4.6h-0.5v-4.1h-4.9h-0.3h-4.9v4.1h-0.5V52.2z M256.5,53.1h4.5v3.7h-0.5v-3.2h-3.4v3.2
		h-0.5V53.1z M261.4,53.1h4.5v3.7h-0.5v-3.2H262v3.2h-0.5V53.1z"/>
	<path fill="#8F1D1E" d="M266.3,57.9h0.5v2.3c0,1-0.3,1.7-0.8,2.2c-0.5,0.4-1.3,0.7-2.3,0.7c-1,0-1.8-0.2-2.4-0.7c0,0,0,0-0.1-0.1
		c0,0-0.1-0.1-0.1-0.1c-0.3,0.3-0.6,0.5-0.9,0.6c-0.4,0.1-0.8,0.2-1.3,0.2h-3.3v-0.5h3.3c0.8,0,1.3-0.2,1.8-0.7
		c0.2-0.2,0.3-0.4,0.4-0.6c0.3,0.9,1.2,1.3,2.5,1.3c0.9,0,1.6-0.2,2-0.5c0.4-0.4,0.7-1,0.7-1.8v-1.6v-0.2V57.9z M255.6,57.9h10.3
		v0.5h-10.3V57.9z M255.6,58.8h5.3V60v0.2c0,0.6-0.2,1.1-0.5,1.5c-0.3,0.3-0.8,0.5-1.5,0.5h-3.3v-0.5h3.3c1,0,1.5-0.5,1.5-1.4v-0.7
		v-0.2h-4.8V58.8z M261.3,58.8h4.6v1.4c0,0.7-0.2,1.2-0.5,1.5c-0.4,0.3-1,0.5-1.8,0.5c-0.8,0-1.4-0.2-1.8-0.5
		c-0.4-0.3-0.5-0.8-0.5-1.5V60V58.8z M261.9,59.3v0.2v0.7c0,0.4,0,0.7,0.1,0.8s0.2,0.2,0.2,0.3c0.3,0.2,0.8,0.3,1.4,0.3
		c0.4,0,0.7,0,0.9-0.1c0.2-0.1,0.4-0.2,0.5-0.3c0.1-0.1,0.2-0.3,0.3-0.4c0-0.2,0.1-0.4,0.1-0.6v-0.9H261.9z"/>
	<path fill="#8F1D1E" d="M255.6,64.2h11.2v0.2v0.4v0.2v0.3v0.2l-7.9,2.3l7.9,2.3v0.1v0.4v0.2V71v0.3h-11.2v-0.5h10.7v-0.3l-9.3-2.7
		l9.3-2.7v-0.3h-10.7V64.2z M255.6,65.1h9.2l-9.1,2.6l9.2,2.6h-9.2v-0.5h5.4l-5.4-1.6v-1.1l5.4-1.5h-5.4V65.1z"/>
	<path fill="#8F1D1E" d="M255.6,72.4h11.2V77h-0.5v-4.1h-4.9h-0.3h-4.9V77h-0.5V72.4z M256.5,73.3h4.5V77h-0.5v-3.2h-3.4V77h-0.5
		V73.3z M261.4,73.3h4.5V77h-0.5v-3.2H262V77h-0.5V73.3z"/>
	<path fill="#8F1D1E" d="M255.7,78h11.2v0.1v0.4v0.1V79v0.2l-6.8,2.7h6.8v0.5h-9.6l9-3.6v-0.3h-10.7V78z M255.7,78.9h9.6l-9,3.6v0.3
		h10.7v0.5h-11.2v-0.2v-0.4v-0.1v-0.4v-0.2l6.8-2.7h-6.8V78.9z"/>
	<path fill="#8F1D1E" d="M265.4,84.3h0.5v3h-10.3v-0.5h9.8V84.3z M255.6,87.7h0.5h9.8v3h-0.5v-2.5h-9.8V87.7z M266.3,84.3h0.5v6.3
		h-0.5v-3v-0.3V84.3z"/>
	<path fill="#8F1D1E" d="M255.6,91.5h11.2v4.6h-0.5V92h-4.9h-0.3h-4.9v4.1h-0.5V91.5z M256.5,92.4h4.5v3.7h-0.5v-3.2h-3.4v3.2h-0.5
		V92.4z M261.4,92.4h4.5v3.7h-0.5v-3.2H262v3.2h-0.5V92.4z"/>
	<path fill="#8F1D1E" d="M266.3,97.1h0.5v2.3c0,1-0.3,1.7-0.8,2.2c-0.5,0.4-1.3,0.7-2.3,0.7c-1,0-1.8-0.2-2.4-0.7c0,0,0,0-0.1-0.1
		c0,0-0.1-0.1-0.1-0.1c-0.3,0.3-0.6,0.5-0.9,0.6c-0.4,0.1-0.8,0.2-1.3,0.2h-3.3v-0.5h3.3c0.8,0,1.3-0.2,1.8-0.7
		c0.2-0.2,0.3-0.4,0.4-0.6c0.3,0.9,1.2,1.3,2.5,1.3c0.9,0,1.6-0.2,2-0.5c0.4-0.4,0.7-1,0.7-1.8v-1.6v-0.2V97.1z M255.6,97.1h10.3
		v0.5h-10.3V97.1z M255.6,98h5.3v1.2v0.2c0,0.6-0.2,1.1-0.5,1.5c-0.3,0.3-0.8,0.5-1.5,0.5h-3.3v-0.5h3.3c1,0,1.5-0.5,1.5-1.4v-0.7
		v-0.2h-4.8V98z M261.3,98h4.6v1.4c0,0.7-0.2,1.2-0.5,1.5c-0.4,0.3-1,0.5-1.8,0.5c-0.8,0-1.4-0.2-1.8-0.5c-0.4-0.3-0.5-0.8-0.5-1.5
		v-0.2V98z M261.9,98.6v0.2v0.7c0,0.4,0,0.7,0.1,0.8s0.2,0.2,0.2,0.3c0.3,0.2,0.8,0.3,1.4,0.3c0.4,0,0.7,0,0.9-0.1
		c0.2-0.1,0.4-0.2,0.5-0.3c0.1-0.1,0.2-0.3,0.3-0.4c0-0.2,0.1-0.4,0.1-0.6v-0.9H261.9z"/>
</g>
<g>
	<path fill="#8F1D1E" d="M294,53.1L294,53.1l0-5h0.4V56H294L294,53.1L294,53.1z M294.7,52.8v-4.7h0.4v3.4l2.2-3.4h0.4L294.7,52.8z
		 M294.7,56v-2.7l0.8-1.3l2.2,4h-0.4l-1.8-3.2l-0.4,0.7V56H294.7z M295.6,51.8l2.4-3.7h0.5l-2.4,3.7l2.3,4.2H298L295.6,51.8z"/>
	<path fill="#8F1D1E" d="M299.4,56v-7.9h3.3v0.4h-2.9v3.4v0.2v3.4h2.9V56H299.4z M300.1,51.9v-3.2h2.6v0.4h-2.3v2.4h2.3v0.4H300.1z
		 M300.1,55.4v-3.2h2.6v0.4h-2.3V55h2.3v0.4H300.1z"/>
	<path fill="#8F1D1E" d="M303.9,53.7v-3.4c0-0.7,0.2-1.2,0.5-1.6c0.3-0.4,0.8-0.6,1.4-0.6c0.6,0,1.1,0.2,1.4,0.6
		c0.3,0.4,0.5,0.9,0.5,1.6v0.5h-0.4v-0.5c0-0.6-0.1-1.1-0.4-1.4s-0.6-0.5-1.1-0.5c-0.5,0-0.9,0.2-1.1,0.5c-0.2,0.3-0.4,0.8-0.4,1.4
		v3.4c0,0.6,0.1,1.1,0.4,1.4c0.3,0.3,0.6,0.5,1.1,0.5c0.5,0,0.9-0.2,1.1-0.5c0.3-0.3,0.4-0.8,0.4-1.4v-1.2h-1.9v-0.4h2.2v1.6
		c0,0.7-0.2,1.2-0.5,1.6c-0.1,0.1-0.3,0.3-0.5,0.4c-0.2,0.1-0.5,0.2-0.9,0.2c-0.4,0-0.7-0.1-0.9-0.2s-0.4-0.3-0.5-0.4
		C304.1,55,303.9,54.4,303.9,53.7z M304.6,53.7v-3.4c0-0.6,0.1-1,0.3-1.2c0.2-0.3,0.5-0.4,0.9-0.4s0.7,0.1,0.9,0.4
		c0.2,0.3,0.3,0.7,0.3,1.2v0.5h-0.4v-0.5c0-0.3,0-0.5-0.1-0.7c0-0.2-0.1-0.3-0.2-0.4c-0.1-0.1-0.2-0.1-0.3-0.2s-0.2,0-0.3,0
		c-0.1,0-0.2,0-0.3,0s-0.2,0.1-0.3,0.2c-0.1,0.1-0.1,0.2-0.2,0.4c0,0.2-0.1,0.4-0.1,0.7v3.4c0,0.3,0,0.6,0.1,0.7s0.1,0.3,0.2,0.4
		c0.1,0.1,0.2,0.1,0.3,0.1c0.1,0,0.2,0,0.3,0c0.1,0,0.2,0,0.3,0c0.1,0,0.2-0.1,0.3-0.1c0.1-0.1,0.2-0.2,0.2-0.4
		c0.1-0.2,0.1-0.4,0.1-0.7v-0.6h-1.2v-0.4h1.6v1c0,0.6-0.1,1-0.3,1.2c-0.2,0.3-0.5,0.4-0.9,0.4c-0.4,0-0.7-0.1-0.9-0.4
		C304.7,54.7,304.6,54.3,304.6,53.7z"/>
</g>
<g>
	<polygon fill="#FFFFFF" points="55,54.5 53.7,54.5 53.7,34.6 63.4,25 83.6,25 83.6,43.9 82.4,43.9 82.4,26.2 63.9,26.2 55,35.1 	
		"/>
</g>
<g>
	<rect x="53.7" y="59.4" fill="#FFFFFF" width="1.2" height="3.8"/>
</g>
<g>
	<rect x="53.7" y="68.2" fill="#FFFFFF" width="1.2" height="4"/>
</g>
<g>
	<rect x="53.7" y="76.8" fill="#FFFFFF" width="1.2" height="4"/>
</g>
<g>
	<rect x="53.7" y="85.4" fill="#FFFFFF" width="1.2" height="4.1"/>
</g>
<g>
	<rect x="53.7" y="94.1" fill="#FFFFFF" width="1.2" height="4.2"/>
</g>
<g>
	<rect x="53.7" y="103.1" fill="#FFFFFF" width="1.2" height="3.6"/>
</g>
<g>
	<g>
		<path fill="#FFFFFF" d="M82.8,49c-1.7,0-3-1.4-3-3c0-1.7,1.4-3,3-3c1.7,0,3,1.3,3,3C85.8,47.6,84.5,49,82.8,49z M82.8,44.2
			c-1,0-1.8,0.8-1.8,1.8c0,1,0.8,1.8,1.8,1.8c1,0,1.8-0.8,1.8-1.8C84.6,45,83.8,44.2,82.8,44.2z"/>
	</g>
</g>
<g>
	<rect x="82.2" y="48.4" fill="#FFFFFF" width="1.2" height="4.3"/>
</g>
<polygon fill="#FFFFFF" points="85,52.3 82.8,56.1 80.6,52.3 "/>
<g>
	<g>
		<path fill="#FFFFFF" d="M91,49c-1.7,0-3-1.4-3-3c0-1.7,1.4-3,3-3c1.7,0,3,1.3,3,3C94,47.6,92.7,49,91,49z M91,44.2
			c-1,0-1.8,0.8-1.8,1.8c0,1,0.8,1.8,1.8,1.8c1,0,1.8-0.8,1.8-1.8C92.8,45,92,44.2,91,44.2z"/>
	</g>
</g>
<g>
	<rect x="90.4" y="48.4" fill="#FFFFFF" width="1.2" height="4.3"/>
</g>
<polygon fill="#FFFFFF" points="93.2,52.3 91,56.1 88.8,52.3 "/>
<g>
	<g>
		<path fill="#FFFFFF" d="M178,53c-1.7,0-3-1.3-3-3c0-1.7,1.3-3,3-3c1.7,0,3,1.3,3,3C181,51.6,179.7,53,178,53z M178,48.2
			c-1,0-1.8,0.8-1.8,1.8c0,1,0.8,1.8,1.8,1.8c1,0,1.8-0.8,1.8-1.8C179.8,49,179,48.2,178,48.2z"/>
	</g>
</g>
<g>
	<rect x="177.4" y="52.3" fill="#FFFFFF" width="1.2" height="4.3"/>
</g>
<polygon fill="#FFFFFF" points="180.2,56.3 178,60.1 175.8,56.3 "/>
<g>
	<g>
		<path fill="#FFFFFF" d="M186.2,53c-1.7,0-3-1.3-3-3c0-1.7,1.3-3,3-3c1.7,0,3,1.3,3,3C189.2,51.6,187.9,53,186.2,53z M186.2,48.2
			c-1,0-1.8,0.8-1.8,1.8c0,1,0.8,1.8,1.8,1.8c1,0,1.8-0.8,1.8-1.8C188,49,187.2,48.2,186.2,48.2z"/>
	</g>
</g>
<g>
	<circle fill="#FFFFFF" cx="186.3" cy="29.4" r="3.5"/>
</g>
<g>
	<circle fill="#FFFFFF" cx="186.3" cy="20.8" r="3.5"/>
</g>
<g>
	<circle fill="#FFFFFF" cx="186.3" cy="38" r="3.5"/>
</g>
<g>
	<rect x="185.6" y="52.3" fill="#FFFFFF" width="1.2" height="4.3"/>
</g>
<g>
	<rect x="185.6" y="17.6" fill="#FFFFFF" width="1.2" height="30"/>
</g>
<polygon fill="#FFFFFF" points="188.4,56.3 186.2,60.1 184.1,56.3 "/>
<g>
	<path fill="#A09F9F" d="M184.3,21.8v-0.5v0v-1.1c0-0.4,0.1-0.7,0.2-0.9c0.1-0.1,0.2-0.2,0.3-0.3c0.1-0.1,0.2-0.1,0.4-0.1
		c0.1,0,0.3,0,0.4,0.1c0.1,0,0.2,0.1,0.3,0.2c0.1,0.2,0.2,0.4,0.2,0.7V20h-0.5v-0.2c0-0.2,0-0.3-0.1-0.4c0,0,0,0-0.1-0.1
		c0,0-0.1,0-0.2,0c-0.1,0-0.1,0-0.2,0.1c0,0.1-0.1,0.1-0.1,0.2c0,0.1,0,0.2,0,0.3c0,0.1,0,0.2,0,0.2v0c0.1-0.1,0.2-0.1,0.3-0.1
		c0.3,0,0.5,0.1,0.6,0.3c0.1,0.2,0.2,0.5,0.2,0.8v0.4c0,0.2,0,0.3-0.1,0.5s-0.1,0.3-0.2,0.4s-0.2,0.2-0.3,0.2s-0.2,0.1-0.3,0.1
		c-0.3,0-0.5-0.1-0.6-0.3C184.4,22.3,184.3,22.1,184.3,21.8z M184.8,21.8c0,0.2,0,0.3,0.1,0.4c0,0,0,0,0.1,0.1c0,0,0.1,0,0.2,0
		c0.1,0,0.1,0,0.2-0.1c0,0,0.1-0.1,0.1-0.2s0-0.1,0.1-0.2c0-0.1,0-0.1,0-0.2v-0.4c0-0.1,0-0.3,0-0.3c0-0.1-0.1-0.1-0.1-0.2
		c0,0-0.1-0.1-0.1-0.1c0,0-0.1,0-0.1,0c-0.1,0-0.1,0-0.2,0.1c0,0.1-0.1,0.1-0.1,0.2c0,0.1,0,0.1,0,0.2s0,0.1,0,0.1V21.8z"/>
	<path fill="#A09F9F" d="M186.3,21.6V20c0-0.3,0.1-0.6,0.2-0.8c0.1-0.2,0.4-0.3,0.6-0.3c0.3,0,0.5,0.1,0.6,0.3
		c0.1,0.2,0.2,0.5,0.2,0.8v1.7c0,0.3-0.1,0.6-0.2,0.8c-0.1,0.2-0.4,0.3-0.6,0.3c-0.3,0-0.5-0.1-0.6-0.3
		C186.3,22.2,186.3,22,186.3,21.6z M186.8,21.6c0,0.2,0,0.3,0,0.4c0,0.1,0.1,0.1,0.1,0.2c0,0,0.1,0.1,0.1,0.1c0,0,0.1,0,0.1,0
		c0,0,0.1,0,0.1,0c0,0,0.1,0,0.1-0.1c0,0,0.1-0.1,0.1-0.2c0-0.1,0-0.2,0-0.4V20c0-0.2,0-0.3,0-0.4c0-0.1-0.1-0.1-0.1-0.2
		c0,0-0.1-0.1-0.1-0.1c0,0-0.1,0-0.1,0c0,0-0.1,0-0.1,0c0,0-0.1,0-0.1,0.1c0,0-0.1,0.1-0.1,0.2c0,0.1,0,0.2,0,0.4V21.6z"/>
</g>
<g>
	<path fill="#A09F9F" d="M185.4,30.6L185.4,30.6l0.5-0.1v0.1c0,0,0,0.1,0,0.1c0,0,0,0.1,0.1,0.1s0.1,0.1,0.1,0.1c0,0,0.1,0,0.2,0
		s0.1,0,0.2-0.1c0,0,0.1-0.1,0.1-0.2s0-0.1,0.1-0.2c0-0.1,0-0.1,0-0.2v-0.4c0-0.1,0-0.2,0-0.3c0-0.1,0-0.1-0.1-0.2
		c0,0,0-0.1-0.1-0.1c0,0-0.1,0-0.2,0c-0.1,0-0.1,0-0.2,0c0,0-0.1,0-0.1,0.1c-0.1,0.1-0.1,0.2-0.1,0.4V30v0h-0.5v0v-0.2v-2.4h0.5h1.2
		V28h-1.2v0.9c0.1,0,0.2-0.1,0.3-0.1c0.2,0,0.3,0,0.4,0.1c0.1,0.1,0.2,0.1,0.2,0.2c0.1,0.2,0.2,0.4,0.2,0.8v0.4
		c0,0.3-0.1,0.5-0.2,0.7c-0.1,0.1-0.2,0.2-0.3,0.3s-0.2,0.1-0.4,0.1c-0.1,0-0.2,0-0.3-0.1c-0.1,0-0.2-0.1-0.3-0.2
		c-0.1-0.1-0.1-0.2-0.2-0.3C185.4,30.8,185.4,30.7,185.4,30.6z"/>
</g>
<g>
	<path fill="#A09F9F" d="M185.4,37l0.6-0.9h0.5V40H186v-3l-0.2,0.3L185.4,37z"/>
</g>
<g>
	<g>
		<circle fill="#FFFFFF" cx="206.9" cy="40.8" r="9"/>
	</g>
	<g>
		<circle fill="#A09F9F" cx="206.9" cy="40.8" r="1.4"/>
	</g>
	<g>
		<path fill="#A09F9F" d="M201.1,46.1v-3h0.3l0.6,2.1l0.6-2.1h0.3v3h-0.4v-1.5l-0.4,1.5h-0.3l-0.4-1.5v1.5H201.1z"/>
		<path fill="#A09F9F" d="M203.5,46.1v-3h0.4v3H203.5z"/>
		<path fill="#A09F9F" d="M204.2,46.1v-3h0.3l0.7,1.8v-1.8h0.4v3h-0.3l-0.7-1.8v1.8H204.2z"/>
		<path fill="#A09F9F" d="M205.9,45.3v-2.2h0.4v2.2c0,0.1,0,0.2,0,0.2c0,0.1,0,0.1,0.1,0.1c0,0,0.1,0,0.1,0c0,0,0.1,0,0.1,0
			s0.1,0,0.1,0s0.1,0,0.1,0c0,0,0.1-0.1,0.1-0.1c0-0.1,0-0.1,0-0.2v-2.2h0.4v2.2c0,0.3-0.1,0.4-0.2,0.6c0,0.1-0.1,0.1-0.2,0.2
			c-0.1,0-0.2,0.1-0.3,0.1c-0.1,0-0.2,0-0.3-0.1c-0.1,0-0.1-0.1-0.2-0.2C206,45.8,205.9,45.6,205.9,45.3z"/>
		<path fill="#A09F9F" d="M207.6,43.5v-0.4h1.7v0.4h-0.7v2.6h-0.4v-2.6H207.6z"/>
		<path fill="#A09F9F" d="M209.5,46.1v-3h1.3v0.4h-0.9v0.9h0.9v0.4h-0.9v0.9h0.9v0.4H209.5z"/>
		<path fill="#A09F9F" d="M211,45.3v-0.2h0.4v0.2c0,0.2,0,0.3,0.1,0.4c0,0,0,0,0.1,0.1c0,0,0.1,0,0.2,0c0.1,0,0.1,0,0.2,0
			c0,0,0.1-0.1,0.1-0.1c0,0,0-0.1,0-0.1s0-0.1,0-0.1c0-0.1,0-0.1,0-0.2c0,0,0-0.1-0.1-0.1c0,0-0.1-0.1-0.1-0.1c0,0-0.1,0-0.1-0.1
			l-0.1,0c0,0-0.1,0-0.2-0.1c-0.1,0-0.1-0.1-0.2-0.1c-0.2-0.2-0.2-0.4-0.2-0.6c0-0.1,0-0.2,0.1-0.4s0.1-0.2,0.1-0.3
			c0.1-0.1,0.1-0.1,0.2-0.2c0.1,0,0.2-0.1,0.3-0.1c0.1,0,0.3,0,0.4,0.1c0.1,0.1,0.2,0.1,0.2,0.2c0.1,0.2,0.2,0.4,0.2,0.6v0.2h-0.4
			V44c0-0.1,0-0.2,0-0.3s-0.1-0.1-0.1-0.1s-0.1,0-0.1-0.1s-0.1,0-0.1,0c-0.1,0-0.1,0-0.2,0.1c0,0-0.1,0.1-0.1,0.1c0,0.1,0,0.1,0,0.2
			c0,0.1,0,0.1,0,0.1c0,0.1,0,0.1,0,0.2c0,0.1,0,0.1,0.1,0.1c0,0,0.1,0.1,0.1,0.1s0.1,0,0.1,0.1l0.1,0c0,0,0.1,0,0.2,0.1
			c0.1,0,0.1,0.1,0.2,0.1c0.2,0.2,0.3,0.4,0.3,0.6c0,0.2-0.1,0.4-0.2,0.6c-0.1,0.2-0.3,0.3-0.6,0.3c-0.2,0-0.4-0.1-0.5-0.2
			C211.1,45.7,211,45.5,211,45.3z"/>
	</g>
	<g>
		<rect x="206.5" y="34.9" fill="#A09F9F" width="0.8" height="4.9"/>
	</g>
	<polygon fill="#A09F9F" points="205.4,36.1 206.8,33.7 208.2,36.1 	"/>
</g>
<g>
	<polygon fill="#FFFFFF" points="208,33 206.8,33 206.8,27.7 199.8,20.8 189.8,20.8 189.8,19.6 200.3,19.6 208,27.2 	"/>
</g>
<g>
	<g>
		<path fill="#FFFFFF" d="M115,40.4c0.6,4.9-2.8,9-7.7,9c-5,0-8.3-4-7.7-9c0.6-5.5,7.7-12.4,7.7-15.5
			C107.3,27.9,114.3,35.2,115,40.4z"/>
	</g>
</g>
<g>
	<path fill="#A09F9F" d="M103.9,42.8v-4.5h0.6v2h0.9v-2h0.6v4.5h-0.6v-2h-0.9v2H103.9z"/>
	<path fill="#A09F9F" d="M106.4,42.8v-0.3c0-0.2,0-0.4,0.1-0.5c0-0.2,0.1-0.3,0.2-0.4s0.1-0.3,0.2-0.4l0.3-0.5l0.2-0.3l0.2-0.2
		c0-0.1,0.1-0.1,0.1-0.2s0.1-0.1,0.1-0.2c0-0.1,0-0.2,0-0.3c0,0,0-0.1,0-0.2c0-0.1,0-0.1-0.1-0.2s-0.1-0.1-0.1-0.2s-0.1-0.1-0.2-0.1
		c0,0-0.1,0-0.1,0s-0.1,0-0.1,0.1s-0.1,0.1-0.1,0.2s0,0.2,0,0.4v0.3h-0.6v-0.3c0-0.4,0.1-0.7,0.2-0.9c0.1-0.1,0.1-0.2,0.3-0.2
		c0.1-0.1,0.3-0.1,0.5-0.1c0.1,0,0.3,0,0.4,0.1c0.1,0.1,0.2,0.1,0.3,0.2c0.1,0.1,0.1,0.2,0.2,0.4s0.1,0.3,0.1,0.5h0v0h0
		c0,0.1,0,0.3,0,0.4s-0.1,0.2-0.1,0.3c0,0.1-0.1,0.2-0.2,0.3l-0.2,0.2l-0.1,0.2c0,0.1-0.1,0.1-0.1,0.2l-0.2,0.4
		c-0.1,0.1-0.1,0.2-0.2,0.3c0,0.1-0.1,0.2-0.1,0.3s-0.1,0.2-0.1,0.3h0.4h0.7h0.3v0.6H108h-0.7H106.4z"/>
	<path fill="#A09F9F" d="M108.6,41.5v-1.9c0-0.4,0.1-0.7,0.2-0.9c0.2-0.3,0.4-0.4,0.7-0.4s0.6,0.1,0.7,0.4c0.1,0.2,0.2,0.5,0.2,0.9
		v1.9c0,0.4-0.1,0.7-0.2,0.9c-0.2,0.3-0.4,0.4-0.7,0.4s-0.6-0.1-0.7-0.4C108.7,42.2,108.6,41.9,108.6,41.5z M109.2,41.5
		c0,0.2,0,0.3,0,0.4s0.1,0.2,0.1,0.2c0,0,0.1,0.1,0.1,0.1c0,0,0.1,0,0.1,0s0.1,0,0.1,0c0,0,0.1,0,0.1-0.1c0,0,0.1-0.1,0.1-0.2
		c0-0.1,0-0.2,0-0.4v-1.9c0-0.2,0-0.3,0-0.4c0-0.1-0.1-0.2-0.1-0.2c0,0-0.1-0.1-0.1-0.1s-0.1,0-0.1,0s-0.1,0-0.1,0s-0.1,0-0.1,0.1
		c0,0-0.1,0.1-0.1,0.2c0,0.1,0,0.2,0,0.4V41.5z"/>
</g>
<g>
	<polygon fill="#FFFFFF" points="91.6,43.6 90.4,43.6 90.4,40.1 94.4,36.1 105.1,36.1 105.1,37.4 94.9,37.4 91.6,40.6 	"/>
</g>
<g>
	<path fill="#FFFFFF" d="M29.6,27L29.6,27l1.8-0.6l0.1,0c0,0,0.3,0.8,0.4,1.4c0.1,0.5-0.1,0.5,0.2,1.1c0.2,0.6,0.5,1.2,0.5,1.2
		s0,0.3-0.7,0.5c-0.6,0.2-0.8,0-0.8,0s-0.2-0.6-0.3-1.2c-0.2-0.6-0.3-0.5-0.5-1c0-0.1-0.1-0.1-0.1-0.2C29.8,27.6,29.6,27,29.6,27z"
		/>
	<path fill="#FFFFFF" d="M30.4,29.4l0.4,1.3l1.2,0.5l0.7-1.2l-0.4-1.3l0.7-0.2l0.6,1.7l-0.7,1.3c0.5,1.6,1.6,2.1,2.4,2.3
		c0.1-0.6,0.8-1.1,1.5-1.1h0.6c0.1-0.9,0.3-1.7,0.6-2.4L37.5,28c-0.2,0-0.4-0.2-0.4-0.5c0-0.3,0.2-0.5,0.5-0.5
		c0.3,0,0.5,0.2,0.5,0.5c0,0.1,0,0.2-0.1,0.3l0.7,1.6c0.5-0.5,1.1-0.7,1.6-0.7c0.4,0,1,0.2,1.4,0.5l0.7-1.5
		c-0.1-0.1-0.1-0.2-0.1-0.3c0-0.3,0.2-0.5,0.5-0.5c0.3,0,0.5,0.2,0.5,0.5c0,0.2-0.2,0.4-0.4,0.5L42.5,30c0.5,0.7,0.8,1.7,0.8,2.7
		h0.3c0.7,0,1.3,0.5,1.5,1.1l0,0.1c2.5,1.3,2.6,4.6,2.6,4.6l1.1,1l0,1.8l-0.7,0l0-1.4l-1-0.9l-1,0.9l0,1.4l-0.7,0l0-1.8l1.1-1
		c0-1.7-0.9-2.6-1.5-3l-0.2,1.3l-0.5,2.5c-0.2,0.6-0.4,1-1,1.3l-0.1,0l0.9,5.4c1.1,0.5,1.1,1.8,1.1,1.8h-4c0,0,0-1.3,1-1.8l-0.8-5.3
		l0,0h-1.3l-0.4,0l-0.8,5.4c1,0.5,1,1.8,1,1.8h-4c0,0,0-1.4,1.2-1.9l0.8-5.3c-0.6-0.2-0.9-0.7-1.1-1.3l-1-3.9
		c-2.8-0.5-3.9-3.6-3.9-3.6l-1.3-0.6l-0.6-1.7L30.4,29.4z"/>
</g>
<g>
	<path fill="#FFFFFF" d="M350.2,11.1l-2.4-7l-1.5,0.5c-0.1-1.3-0.3-1.9-0.3-1.9h-7.6c0,0-0.2,0.7-0.3,1.9L336.6,4l-2.4,7
		c-0.1,0.3-0.1,0.6,0.1,0.9l4.3,7.6l-0.3,1.3l1.7,1.9V41l-1.7,1.9l1,4.3h1.7v2.4c-1.1,0.5-1.9,1.6-1.9,2.9c0,1.3,0.8,2.4,1.9,2.9
		v2.7h2.5v-2.7c1.1-0.5,1.9-1.6,1.9-2.9c0-1.3-0.8-2.4-1.9-2.9v-2.4h1.7l1-4.3l-1.7-1.9V22.8l1.7-1.9l-0.3-1.3l4.3-7.7
		C350.2,11.7,350.3,11.4,350.2,11.1z M344,52.5c0,1-0.8,1.8-1.8,1.8c-1,0-1.8-0.8-1.8-1.8c0-1,0.8-1.8,1.8-1.8
		C343.1,50.7,344,51.5,344,52.5z M338,6.4c0,0.7,0,1.5,0.1,2.4c0.5,4.5,0.9,6.8,1.1,7.6l-2.9-5.1L338,6.4z M345.2,16.2
		c0.2-1.2,0.7-4.2,1-7.4c0.1-0.9,0.1-1.7,0.1-2.5l1.7,4.9L345.2,16.2z"/>
	<g>
		<path fill="#8F1D1E" d="M338.8,5.5L338.8,5.5l0.6-0.2l0,0c0,0,0.1,0.3,0.1,0.5c0,0.2,0,0.2,0.1,0.4c0.1,0.2,0.2,0.4,0.2,0.4
			s0,0.1-0.2,0.2c-0.2,0.1-0.3,0-0.3,0s-0.1-0.2-0.1-0.4c-0.1-0.2-0.1-0.2-0.2-0.3c0,0,0,0,0-0.1C338.9,5.7,338.8,5.5,338.8,5.5z"/>
		<path fill="#8F1D1E" d="M339.1,6.3l0.1,0.4l0.4,0.2l0.2-0.4l-0.1-0.4L340,6l0.2,0.6L339.9,7c0.2,0.5,0.5,0.7,0.8,0.8
			c0-0.2,0.3-0.4,0.5-0.4h0.2c0-0.3,0.1-0.6,0.2-0.8l-0.2-0.8c-0.1,0-0.1-0.1-0.1-0.2c0-0.1,0.1-0.2,0.2-0.2c0.1,0,0.2,0.1,0.2,0.2
			c0,0,0,0.1,0,0.1l0.2,0.5c0.2-0.2,0.4-0.2,0.5-0.2c0.1,0,0.3,0.1,0.5,0.2l0.2-0.5c0,0,0-0.1,0-0.1c0-0.1,0.1-0.2,0.2-0.2
			c0.1,0,0.2,0.1,0.2,0.2c0,0.1-0.1,0.1-0.1,0.2l-0.1,0.7c0.2,0.2,0.3,0.6,0.3,0.9h0.1c0.2,0,0.4,0.2,0.5,0.4l0,0
			c0.9,0.4,0.9,1.5,0.9,1.5l0.4,0.3l0,0.6l-0.2,0l0-0.5l-0.3-0.3l-0.3,0.3l0,0.5l-0.2,0l0-0.6l0.4-0.3c0-0.6-0.3-0.9-0.5-1l-0.1,0.4
			l-0.2,0.9c-0.1,0.2-0.1,0.3-0.3,0.4l0,0l0.3,1.8c0.4,0.2,0.4,0.6,0.4,0.6h-1.3c0,0,0-0.4,0.3-0.6l-0.3-1.8l0,0h-0.5l-0.1,0
			l-0.3,1.8c0.3,0.2,0.3,0.6,0.3,0.6h-1.3c0,0,0-0.5,0.4-0.6l0.3-1.8c-0.2-0.1-0.3-0.2-0.4-0.4l-0.3-1.3c-0.9-0.2-1.3-1.2-1.3-1.2
			l-0.4-0.2l-0.2-0.6L339.1,6.3z"/>
	</g>
</g>
<g>
	<g>
		<path fill="#FFFFFF" d="M70.3,123.2v-0.3h0.6v0.3c0,0.3,0,0.4,0.1,0.6c0,0,0.1,0.1,0.1,0.1s0.1,0,0.2,0c0.1,0,0.2,0,0.3-0.1
			s0.1-0.1,0.1-0.2s0.1-0.1,0.1-0.2s0-0.1,0-0.2c0-0.1,0-0.2,0-0.3s-0.1-0.1-0.1-0.2s-0.1-0.1-0.2-0.1s-0.1-0.1-0.2-0.1l-0.1,0
			c-0.1,0-0.1-0.1-0.2-0.1s-0.2-0.1-0.3-0.2c-0.2-0.2-0.4-0.5-0.4-0.9c0-0.2,0-0.4,0.1-0.5s0.1-0.3,0.2-0.4c0.1-0.1,0.2-0.2,0.3-0.3
			s0.3-0.1,0.4-0.1c0.2,0,0.4,0,0.5,0.1s0.2,0.2,0.3,0.2c0.2,0.2,0.3,0.5,0.3,0.9v0.3h-0.6v-0.3c0-0.2,0-0.3,0-0.4s-0.1-0.2-0.1-0.2
			s-0.1-0.1-0.2-0.1s-0.1,0-0.1,0c-0.1,0-0.2,0-0.3,0.1s-0.1,0.1-0.1,0.2s-0.1,0.2-0.1,0.2s0,0.1,0,0.2c0,0.1,0,0.2,0,0.3
			s0.1,0.1,0.1,0.2s0.1,0.1,0.2,0.1s0.1,0.1,0.2,0.1l0.1,0c0.1,0,0.1,0.1,0.2,0.1s0.2,0.1,0.3,0.2c0.2,0.2,0.4,0.5,0.4,0.9
			c0,0.3-0.1,0.6-0.3,0.8c-0.2,0.3-0.5,0.4-0.8,0.4c-0.4,0-0.6-0.1-0.8-0.3C70.4,123.9,70.3,123.6,70.3,123.2z"/>
		<path fill="#FFFFFF" d="M72.7,120.6v-0.6h2.5v0.6h-1v3.9h-0.6v-3.9H72.7z"/>
		<path fill="#FFFFFF" d="M75.4,124.5v-4.4h1.8v0.6H76v1.4h1.3v0.6H76v1.4h1.3v0.6H75.4z"/>
		<path fill="#FFFFFF" d="M77.7,124.5l1-4.4h0.4l1,4.4h-0.6l-0.3-1.2h-0.8l-0.3,1.2H77.7z M78.7,122.7h0.5l-0.3-1.1L78.7,122.7z"/>
		<path fill="#FFFFFF" d="M80.3,124.5v-4.4h0.5l0.9,3.1l0.9-3.1h0.5v4.4h-0.6v-2.1l-0.6,2.1h-0.4l-0.6-2.1v2.1H80.3z"/>
		<path fill="#FFFFFF" d="M85.4,123.2v-1.9c0-0.4,0.1-0.7,0.3-0.9c0.1-0.1,0.2-0.2,0.3-0.2s0.3-0.1,0.5-0.1c0.2,0,0.4,0,0.5,0.1
			s0.2,0.2,0.3,0.2c0.2,0.2,0.3,0.5,0.3,0.9v0.3h-0.6v-0.3c0-0.2,0-0.3-0.1-0.4s-0.1-0.2-0.1-0.2c0,0-0.1-0.1-0.2-0.1s-0.1,0-0.1,0
			c0,0-0.1,0-0.1,0s-0.1,0-0.2,0.1s-0.1,0.1-0.1,0.2s0,0.2,0,0.4v1.9c0,0.3,0,0.4,0.1,0.6c0,0,0.1,0.1,0.1,0.1s0.1,0,0.2,0
			c0.1,0,0.2,0,0.2,0s0.1-0.1,0.1-0.1c0.1-0.1,0.1-0.3,0.1-0.6v-0.3h0.6v0.3c0,0.4-0.1,0.7-0.3,0.9c-0.1,0.1-0.2,0.2-0.3,0.2
			s-0.3,0.1-0.5,0.1c-0.1,0-0.2,0-0.3,0c-0.1,0-0.2,0-0.2-0.1s-0.1-0.1-0.2-0.1c0,0-0.1-0.1-0.1-0.1
			C85.5,123.9,85.4,123.6,85.4,123.2z"/>
		<path fill="#FFFFFF" d="M87.7,123.2v-1.9c0-0.4,0.1-0.7,0.3-0.9c0,0,0.1-0.1,0.1-0.1c0,0,0.1-0.1,0.2-0.1s0.1-0.1,0.2-0.1
			s0.2,0,0.3,0c0.2,0,0.4,0,0.5,0.1s0.2,0.2,0.3,0.2c0.2,0.2,0.3,0.5,0.3,0.9v1.9c0,0.4-0.1,0.7-0.3,0.9c-0.1,0.1-0.2,0.2-0.3,0.2
			s-0.3,0.1-0.5,0.1c-0.2,0-0.4,0-0.5-0.1s-0.2-0.2-0.3-0.2C87.8,123.9,87.7,123.6,87.7,123.2z M88.3,123.2c0,0.2,0,0.3,0,0.4
			s0.1,0.2,0.1,0.2s0.1,0.1,0.2,0.1s0.1,0,0.1,0c0,0,0.1,0,0.1,0s0.1,0,0.2-0.1s0.1-0.1,0.1-0.2s0.1-0.2,0.1-0.4v-1.9
			c0-0.2,0-0.3-0.1-0.4s-0.1-0.2-0.1-0.2s-0.1-0.1-0.2-0.1s-0.1,0-0.1,0c0,0-0.1,0-0.1,0s-0.1,0-0.2,0.1s-0.1,0.1-0.1,0.2
			s0,0.2,0,0.4V123.2z"/>
		<path fill="#FFFFFF" d="M90.1,124.5v-4.4h0.5l1.1,2.7v-2.7h0.6v4.4h-0.5l-1.1-2.7v2.7H90.1z"/>
		<path fill="#FFFFFF" d="M92.7,120.6v-0.6h2.5v0.6h-1v3.9h-0.6v-3.9H92.7z"/>
		<path fill="#FFFFFF" d="M95.4,124.5v-4.4h0.9c0.4,0,0.7,0.1,0.9,0.3c0.2,0.2,0.3,0.5,0.3,0.9c0,0.4-0.1,0.7-0.3,0.9c0,0,0,0,0,0
			s0,0,0,0c0.1,0.1,0.2,0.2,0.2,0.4c0.1,0.1,0.1,0.3,0.1,0.5v1.3h-0.6v-1.3c0-0.4-0.2-0.6-0.6-0.6h-0.3H96v1.9H95.4z M96,122L96,122
			h0.4c0.2,0,0.3,0,0.3-0.1c0.1,0,0.1-0.1,0.1-0.1c0.1-0.1,0.1-0.3,0.1-0.6c0-0.1,0-0.3,0-0.4s-0.1-0.2-0.1-0.2s-0.1-0.1-0.2-0.1
			s-0.2,0-0.2,0H96V122z"/>
		<path fill="#FFFFFF" d="M97.9,123.2v-1.9c0-0.4,0.1-0.7,0.3-0.9c0,0,0.1-0.1,0.1-0.1c0,0,0.1-0.1,0.2-0.1s0.1-0.1,0.2-0.1
			s0.2,0,0.3,0c0.2,0,0.4,0,0.5,0.1s0.2,0.2,0.3,0.2c0.2,0.2,0.3,0.5,0.3,0.9v1.9c0,0.4-0.1,0.7-0.3,0.9c-0.1,0.1-0.2,0.2-0.3,0.2
			s-0.3,0.1-0.5,0.1c-0.2,0-0.4,0-0.5-0.1s-0.2-0.2-0.3-0.2C98,123.9,97.9,123.6,97.9,123.2z M98.5,123.2c0,0.2,0,0.3,0,0.4
			s0.1,0.2,0.1,0.2s0.1,0.1,0.2,0.1s0.1,0,0.1,0c0,0,0.1,0,0.1,0s0.1,0,0.2-0.1s0.1-0.1,0.1-0.2s0.1-0.2,0.1-0.4v-1.9
			c0-0.2,0-0.3-0.1-0.4s-0.1-0.2-0.1-0.2s-0.1-0.1-0.2-0.1s-0.1,0-0.1,0c0,0-0.1,0-0.1,0s-0.1,0-0.2,0.1s-0.1,0.1-0.1,0.2
			s0,0.2,0,0.4V123.2z"/>
		<path fill="#FFFFFF" d="M100.4,124.5v-4.4h0.6v3.9h1.4v0.6H100.4z"/>
	</g>
	<g>
		<polygon fill="#FFFFFF" points="128.4,111.4 120.5,111.4 120.5,88.6 108.4,88.6 108.4,87.3 121.7,87.3 121.7,110.1 127.9,110.1 
			134.6,103.4 134.6,56.8 142.4,48.9 176.4,48.9 176.4,50.2 142.9,50.2 135.8,57.3 135.8,103.9 		"/>
	</g>
	<path fill="#FFFFFF" d="M143.7,125.8c-1.7,0-3-1.3-3-3c0-1.7,1.3-3,3-3c1.7,0,3,1.3,3,3C146.7,124.5,145.3,125.8,143.7,125.8
		 M143.7,121c-1,0-1.8,0.8-1.8,1.8c0,1,0.8,1.8,1.8,1.8c1,0,1.8-0.8,1.8-1.8C145.5,121.8,144.7,121,143.7,121"/>
	<path fill="#FFFFFF" d="M130,125.8c-1.7,0-3-1.3-3-3c0-1.7,1.3-3,3-3c1.7,0,3,1.3,3,3C133,124.5,131.7,125.8,130,125.8 M130,121
		c-1,0-1.8,0.8-1.8,1.8c0,1,0.8,1.8,1.8,1.8c1,0,1.8-0.8,1.8-1.8C131.8,121.8,131,121,130,121"/>
	<rect x="162.2" y="116.5" fill="#FFFFFF" width="0.8" height="4.9"/>
	<polygon fill="#FFFFFF" points="164.8,116.5 162.6,112.7 160.4,116.5 	"/>
	<rect x="169" y="116.5" fill="#FFFFFF" width="0.8" height="4.9"/>
	<polygon fill="#FFFFFF" points="171.6,116.5 169.4,112.7 167.2,116.5 	"/>
	<rect x="175.8" y="116.5" fill="#FFFFFF" width="0.8" height="4.9"/>
	<polygon fill="#FFFFFF" points="178.4,116.5 176.2,112.7 174.1,116.5 	"/>
	<rect x="182.7" y="116.5" fill="#FFFFFF" width="0.8" height="4.9"/>
	<polygon fill="#FFFFFF" points="185.2,116.5 183.1,112.7 180.9,116.5 	"/>
	<rect x="189.5" y="116.5" fill="#FFFFFF" width="0.8" height="4.9"/>
	<polygon fill="#FFFFFF" points="192.1,116.5 189.9,112.7 187.7,116.5 	"/>
	<rect x="196.3" y="116.5" fill="#FFFFFF" width="0.8" height="4.9"/>
	<polygon fill="#FFFFFF" points="198.9,116.5 196.7,112.7 194.5,116.5 	"/>
	<rect x="203.1" y="116.5" fill="#FFFFFF" width="0.8" height="4.9"/>
	<polygon fill="#FFFFFF" points="205.7,116.5 203.5,112.7 201.4,116.5 	"/>
	<path fill="#FFFFFF" d="M110.3,125.8c-1.7,0-3-1.3-3-3c0-1.7,1.3-3,3-3c1.7,0,3,1.3,3,3C113.3,124.5,111.9,125.8,110.3,125.8
		 M110.3,121c-1,0-1.8,0.8-1.8,1.8c0,1,0.8,1.8,1.8,1.8c1,0,1.8-0.8,1.8-1.8C112,121.8,111.3,121,110.3,121"/>
	<path fill="#FFFFFF" d="M131.7,121.3c-0.2,0-0.3-0.1-0.4-0.2c-0.2-0.2-0.2-0.6,0-0.9l8.6-8.6c0.2-0.2,0.6-0.2,0.9,0
		c0.2,0.2,0.2,0.6,0,0.9l-8.6,8.6C132.1,121.2,131.9,121.3,131.7,121.3"/>
	<path fill="#FFFFFF" d="M124.8,70.7c0,6.4-5.2,11.6-11.6,11.6c-6.4,0-11.6-5.2-11.6-11.6c0-6.4,5.2-11.6,11.6-11.6
		C119.7,59.1,124.8,64.3,124.8,70.7"/>
	<g>
		<g>
			<g>
				<path fill="#A09F9F" d="M109.5,67.3l0.7-1h0.5v4.4h-0.6v-3.4l-0.3,0.3L109.5,67.3z"/>
				<path fill="#A09F9F" d="M111.2,69.8L111.2,69.8l0.6-0.1v0.1c0,0,0,0.1,0,0.1s0,0.1,0.1,0.1s0.1,0.1,0.1,0.1s0.1,0,0.2,0
					s0.1,0,0.2-0.1s0.1-0.1,0.1-0.2s0-0.1,0.1-0.2s0-0.1,0-0.2V69c0-0.2,0-0.3,0-0.4s0-0.1-0.1-0.2c0,0,0-0.1-0.1-0.1s-0.1,0-0.2,0
					s-0.1,0-0.2,0s-0.1,0.1-0.1,0.1c-0.1,0.1-0.1,0.2-0.1,0.4v0.2v0h-0.6v0v-0.2v-2.7h0.6h1.3v0.6h-1.3v1c0.1,0,0.2-0.1,0.4-0.1
					c0.2,0,0.4,0,0.5,0.1s0.2,0.2,0.3,0.2c0.1,0.2,0.2,0.5,0.2,0.9v0.4c0,0.3-0.1,0.6-0.2,0.8c-0.1,0.1-0.2,0.2-0.3,0.3
					s-0.3,0.1-0.4,0.1c-0.1,0-0.3,0-0.4-0.1s-0.2-0.1-0.3-0.2c-0.1-0.1-0.1-0.2-0.2-0.3S111.2,69.9,111.2,69.8z"/>
				<path fill="#A09F9F" d="M113.4,69.6V69v0v-1.2c0-0.4,0.1-0.8,0.2-1c0.1-0.2,0.2-0.3,0.3-0.4s0.3-0.1,0.4-0.1
					c0.2,0,0.3,0,0.4,0.1s0.2,0.1,0.3,0.3c0.1,0.2,0.2,0.5,0.2,0.8v0.2h-0.6v-0.2c0-0.2,0-0.3-0.1-0.4c0,0,0,0-0.1-0.1
					c0,0-0.1,0-0.2,0c-0.1,0-0.1,0-0.2,0.1s-0.1,0.2-0.1,0.3c0,0.1,0,0.2,0,0.3s0,0.2,0,0.3v0c0.1-0.1,0.2-0.1,0.4-0.1
					c0.3,0,0.6,0.1,0.7,0.4c0.1,0.2,0.2,0.5,0.2,0.9v0.4c0,0.2,0,0.4-0.1,0.5c0,0.2-0.1,0.3-0.2,0.4s-0.2,0.2-0.3,0.3
					c-0.1,0.1-0.2,0.1-0.4,0.1c-0.3,0-0.5-0.1-0.7-0.3C113.5,70.2,113.4,69.9,113.4,69.6z M114,69.6c0,0.2,0,0.3,0.1,0.5
					c0,0,0,0,0.1,0.1s0.1,0,0.2,0c0.1,0,0.1,0,0.2-0.1s0.1-0.1,0.1-0.2s0-0.1,0.1-0.2s0-0.2,0-0.2V69c0-0.2,0-0.3,0-0.4
					c0-0.1-0.1-0.2-0.1-0.2s-0.1-0.1-0.1-0.1c0,0-0.1,0-0.1,0c-0.1,0-0.2,0-0.2,0.1s-0.1,0.1-0.1,0.2c0,0.1,0,0.2,0,0.2s0,0.1,0,0.1
					V69.6z"/>
			</g>
			<g>
				<path fill="#A09F9F" d="M116,68.3v-1c0-0.2,0-0.4,0.1-0.5c0,0,0,0,0.1-0.1c0,0,0.1,0,0.1-0.1c0,0,0.1,0,0.1,0s0.1,0,0.1,0
					c0.1,0,0.2,0,0.3,0.1c0.1,0,0.1,0.1,0.1,0.1c0.1,0.1,0.1,0.3,0.1,0.5v1c0,0.2,0,0.4-0.1,0.5c0,0-0.1,0.1-0.1,0.1
					c-0.1,0-0.2,0.1-0.3,0.1c-0.1,0-0.2,0-0.3-0.1c-0.1,0-0.1-0.1-0.1-0.1C116.1,68.6,116,68.5,116,68.3z M116.3,68.3
					c0,0.1,0,0.2,0,0.2c0,0,0,0.1,0.1,0.1s0.1,0,0.1,0c0,0,0.1,0,0.1,0c0,0,0,0,0.1,0c0,0,0.1,0,0.1,0s0-0.1,0.1-0.1
					c0,0,0-0.1,0-0.2v-1c0-0.1,0-0.2,0-0.2c0,0,0-0.1-0.1-0.1s-0.1,0-0.1,0c0,0-0.1,0-0.1,0c0,0,0,0-0.1,0s-0.1,0-0.1,0
					s0,0.1-0.1,0.1s0,0.1,0,0.2V68.3z"/>
			</g>
		</g>
	</g>
	<g>
		<g>
			<path fill="#A09F9F" d="M108.7,73.9v-0.4v0v-0.8c0-0.3,0-0.5,0.1-0.7c0.1-0.1,0.1-0.2,0.2-0.2c0.1-0.1,0.2-0.1,0.3-0.1
				c0.1,0,0.2,0,0.3,0.1s0.2,0.1,0.2,0.2c0.1,0.1,0.2,0.3,0.2,0.5v0.1h-0.4v-0.1c0-0.1,0-0.2-0.1-0.3c0,0,0,0-0.1-0.1
				c0,0-0.1,0-0.1,0c-0.1,0-0.1,0-0.1,0.1c0,0-0.1,0.1-0.1,0.2c0,0.1,0,0.1,0,0.2c0,0.1,0,0.1,0,0.2v0c0.1,0,0.2-0.1,0.3-0.1
				c0.2,0,0.4,0.1,0.5,0.2c0.1,0.1,0.1,0.3,0.1,0.6v0.3c0,0.1,0,0.2,0,0.4c0,0.1-0.1,0.2-0.1,0.3c-0.1,0.1-0.1,0.1-0.2,0.2
				c-0.1,0-0.2,0.1-0.3,0.1c-0.2,0-0.4-0.1-0.5-0.2C108.8,74.3,108.7,74.1,108.7,73.9z M109.1,73.9c0,0.1,0,0.2,0.1,0.3
				c0,0,0,0,0.1,0.1s0.1,0,0.1,0c0,0,0.1,0,0.1,0c0,0,0.1-0.1,0.1-0.1c0,0,0-0.1,0-0.2c0-0.1,0-0.1,0-0.2v-0.3c0-0.1,0-0.2,0-0.3
				c0-0.1,0-0.1-0.1-0.1c0,0-0.1,0-0.1-0.1c0,0-0.1,0-0.1,0c-0.1,0-0.1,0-0.1,0.1s-0.1,0.1-0.1,0.1s0,0.1,0,0.2c0,0,0,0.1,0,0.1
				V73.9z"/>
			<path fill="#A09F9F" d="M110.2,73.8v-1.3c0-0.3,0-0.5,0.1-0.6c0.1-0.2,0.3-0.3,0.5-0.3c0.2,0,0.4,0.1,0.5,0.3
				c0.1,0.1,0.1,0.3,0.1,0.6v1.3c0,0.3,0,0.5-0.1,0.6c-0.1,0.2-0.3,0.3-0.5,0.3c-0.2,0-0.4-0.1-0.5-0.3
				C110.3,74.3,110.2,74.1,110.2,73.8z M110.6,73.8c0,0.1,0,0.2,0,0.3s0,0.1,0.1,0.1c0,0,0.1,0,0.1,0.1c0,0,0.1,0,0.1,0s0,0,0.1,0
				c0,0,0.1,0,0.1-0.1c0,0,0.1-0.1,0.1-0.1s0-0.2,0-0.3v-1.3c0-0.1,0-0.2,0-0.3c0-0.1,0-0.1-0.1-0.1s-0.1,0-0.1-0.1c0,0-0.1,0-0.1,0
				s0,0-0.1,0c0,0-0.1,0-0.1,0.1s-0.1,0.1-0.1,0.1c0,0.1,0,0.2,0,0.3V73.8z"/>
			<path fill="#A09F9F" d="M113,74.7v-3h0.3l0.6,2.1l0.6-2.1h0.3v3h-0.4v-1.4l-0.4,1.4h-0.3l-0.4-1.4v1.4H113z"/>
			<path fill="#A09F9F" d="M115.4,74.7v-3h0.4v3H115.4z"/>
			<path fill="#A09F9F" d="M116.1,74.7v-3h0.3l0.7,1.8v-1.8h0.4v3h-0.3l-0.7-1.8v1.8H116.1z"/>
		</g>
	</g>
	<g>
		<rect x="113.3" y="122.2" fill="#FFFFFF" width="14.3" height="1.2"/>
	</g>
	<g>
		<rect x="146.7" y="122.2" fill="#FFFFFF" width="11.2" height="1.2"/>
	</g>
	<g>
		<g>
			<path fill="#A09F9F" d="M119.9,66.5c-2.3-3.7-7.2-4.8-10.9-2.5l-0.7-1.1c4.3-2.7,9.9-1.4,12.6,2.9L119.9,66.5z"/>
		</g>
		<g>
			<path fill="#A09F9F" d="M113.3,79.9c-0.7,0-1.4-0.1-2-0.2c-2.4-0.5-4.4-2-5.7-4c-1.9-3.1-1.9-7,0.2-10l1,0.7
				c-1.8,2.6-1.8,6-0.1,8.6c1.1,1.8,2.9,3,4.9,3.5c2.1,0.5,4.2,0.1,6-1l0.7,1.1C116.7,79.4,115,79.9,113.3,79.9z"/>
		</g>
		<g>
			<path fill="#A09F9F" d="M120.6,76.2l-1-0.7c1.9-2.6,2.1-6.2,0.3-8.9l1.1-0.7C123,69,122.8,73.2,120.6,76.2z"/>
		</g>
		<polygon fill="#A09F9F" points="111,64.3 107.4,64.4 109,61.2 		"/>
		<polygon fill="#A09F9F" points="115.4,77.3 119.1,77.2 117.4,80.3 		"/>
	</g>
	<path fill="#FFFFFF" d="M208,120.7h-49.8c-1.3,0-2.3,1-2.3,2.3c0,1.3,1,2.3,2.3,2.3H208c1.3,0,2.3-1,2.3-2.3
		C210.3,121.7,209.3,120.7,208,120.7"/>
</g>
<path fill="#FFFFFF" d="M343.6,83.9l1.2-0.5c0,0,0.8,2.2,1,4s0.2,3,0.2,3s-1.2-3.5-1.6-4.6C344,84.6,343.6,83.9,343.6,83.9z"/>
<g>
	<path display="none" fill="#FFFFFF" d="M336,86l0.4-0.1l8.9-3l0.4-0.1c0,0,1.6,4.3,2.1,7.2c0.5,2.8-0.3,2.8,0.9,5.8
		c1.2,3.1,2.5,6.2,2.5,6.2s-0.3,1.4-3.6,2.5c-3.3,1.2-4.4,0.2-4.4,0.2s-0.9-3.3-1.8-6.5c-0.9-3.2-1.5-2.6-2.9-5.2
		c-0.1-0.3-0.3-0.6-0.4-0.9C337.1,89.6,336,86,336,86z"/>
	<g>
		<path fill="#8F1D1E" d="M347.9,88C347.9,87.9,347.9,87.9,347.9,88l-10.5-0.1c0.1,0.3,0.2,0.6,0.4,1c0,0,0,0,0,0
			c0.1,0.2,0.2,0.4,0.3,0.6c0,0,0,0,0,0c0.1,0.2,0.2,0.4,0.3,0.6c0.1,0.3,0.3,0.6,0.4,0.8c1.3,2.5,1.9,1.9,2.8,5.1
			c0.9,3.1,1.8,6.4,1.8,6.4s0,0,0,0c0,0,0,0,0,0c0,0,0,0,0,0c0,0,0,0,0,0c0,0,0,0,0,0c0,0,0,0,0,0c0,0,0,0,0,0c0,0,0,0,0,0
			c0,0,0,0,0,0c0,0,0,0,0,0c0,0,0,0,0,0c0,0,0,0,0,0c0,0,0,0,0,0c0,0,0,0,0,0c0,0,0,0,0.1,0c0,0,0,0,0,0c0,0,0.1,0,0.1,0
			c0,0,0,0,0,0c0,0,0,0,0.1,0c0,0,0,0,0,0c0,0,0,0,0.1,0c0,0,0,0,0,0c0,0,0.1,0,0.1,0c0,0,0,0,0,0c0,0,0.1,0,0.1,0c0,0,0,0,0,0
			c0,0,0.1,0,0.1,0c0,0,0,0,0.1,0c0,0,0.1,0,0.1,0c0,0,0,0,0.1,0c0,0,0.1,0,0.1,0c0,0,0,0,0,0c0,0,0,0,0,0c0.1,0,0.1,0,0.2,0
			c0,0,0,0,0.1,0c0.1,0,0.1,0,0.2,0c0,0,0,0,0,0c0.1,0,0.2,0,0.3,0c0,0,0,0,0.1,0c0.1,0,0.2,0,0.3,0c0,0,0,0,0,0
			c0.1,0,0.2,0,0.3-0.1c0,0,0.1,0,0.1,0c0.1,0,0.2-0.1,0.3-0.1c0,0,0,0,0,0c0.1,0,0.2-0.1,0.4-0.1c0,0,0.1,0,0.1,0
			c0.1,0,0.3-0.1,0.4-0.1c3.3-1,3.6-2.5,3.6-2.5s-1.3-3.1-2.5-6.1C347.6,90.7,348.4,90.7,347.9,88z"/>
	</g>
	<g>
		<path fill="#FFFFFF" d="M345.2,82.2c0.5,1.3,1.3,3.7,1.6,5.5c0,0.1,0.1,0.3,0.1,0.4c0.2,1,0.2,1.6,0.2,2.2c0,1,0,1.8,0.8,3.8
			c0.9,2.3,1.9,4.8,2.3,5.7c-0.3,0.3-1,1-2.8,1.5l0,0l0,0c-0.1,0-0.3,0.1-0.4,0.1l-0.1,0c-0.1,0-0.2,0.1-0.4,0.1
			c-0.1,0-0.2,0.1-0.3,0.1l-0.1,0c-0.1,0-0.2,0-0.3,0.1c-0.1,0-0.2,0-0.2,0l-0.1,0c-0.1,0-0.2,0-0.3,0c-0.1,0-0.1,0-0.2,0
			c-0.1,0-0.1,0-0.2,0l0,0l-0.1,0l-0.1,0l-0.1,0l-0.1,0l-0.1,0l0,0.1c-0.3-0.9-1-3.5-1.7-6c-0.6-2.1-1.1-2.7-1.7-3.5
			c-0.3-0.4-0.7-0.9-1.2-1.8c-0.1-0.2-0.3-0.5-0.4-0.8c-0.1-0.2-0.2-0.4-0.3-0.6c-0.1-0.2-0.2-0.4-0.3-0.7c-0.2-0.4-0.3-0.9-0.5-1.3
			c-0.3-0.9-0.6-1.7-0.8-2.3L345.2,82.2 M345.8,80.9l-0.4,0.1l-8.8,3l-0.4,0.1c0,0,0.5,1.5,1.1,3.3h0c0,0,0,0,0,0
			c0.2,0.4,0.3,0.9,0.5,1.3c0,0,0,0,0,0c0.1,0.2,0.2,0.4,0.3,0.6c0,0,0,0,0,0c0.1,0.2,0.2,0.4,0.3,0.6c0.1,0.3,0.3,0.6,0.4,0.8
			c1.3,2.5,1.9,1.9,2.8,5.1c0.9,3.1,1.8,6.4,1.8,6.4s0,0,0,0c0,0,0,0,0,0c0,0,0,0,0,0c0,0,0,0,0,0c0,0,0,0,0,0c0,0,0,0,0,0
			c0,0,0,0,0,0c0,0,0,0,0,0c0,0,0,0,0,0c0,0,0,0,0,0c0,0,0,0,0,0c0,0,0,0,0,0c0,0,0,0,0,0c0,0,0,0,0,0c0,0,0,0,0.1,0c0,0,0,0,0,0
			c0,0,0.1,0,0.1,0c0,0,0,0,0,0c0,0,0,0,0.1,0c0,0,0,0,0,0c0,0,0,0,0.1,0c0,0,0,0,0,0c0,0,0.1,0,0.1,0c0,0,0,0,0,0c0,0,0.1,0,0.1,0
			c0,0,0,0,0,0c0,0,0.1,0,0.1,0c0,0,0,0,0.1,0c0,0,0.1,0,0.1,0c0,0,0,0,0.1,0c0,0,0.1,0,0.1,0c0,0,0,0,0,0c0,0,0,0,0,0
			c0.1,0,0.1,0,0.2,0c0,0,0,0,0.1,0c0.1,0,0.1,0,0.2,0c0,0,0,0,0,0c0.1,0,0.2,0,0.3,0c0,0,0,0,0.1,0c0.1,0,0.2,0,0.3,0c0,0,0,0,0,0
			c0.1,0,0.2,0,0.3-0.1c0,0,0.1,0,0.1,0c0.1,0,0.2-0.1,0.3-0.1c0,0,0,0,0,0c0.1,0,0.2-0.1,0.4-0.1c0,0,0.1,0,0.1,0
			c0.1,0,0.3-0.1,0.4-0.1c3.3-1,3.6-2.5,3.6-2.5s-1.3-3.1-2.5-6.1c-1.2-3-0.4-3-0.9-5.7c0-0.1-0.1-0.3-0.1-0.4c0,0,0,0,0,0h0
			C347.2,84.7,345.8,80.9,345.8,80.9L345.8,80.9z"/>
	</g>
</g>
<path fill="#FFFFFF" d="M347,109.9c0,0,5.5,16.2,20.3,18.6l3.9,15.5h42l1.7-8.6l1.1-6.8c3.4,2.2,7.9,6.5,8.1,15.3h6.6
	c-0.1-2.2-1-17.4-13.4-23.9l0-0.3c-1-3.1-4.1-5.9-7.8-5.9h-1.8c-0.4-5.5-2-10.4-4.3-14.1l2.3-10.8c1.1-0.2,2-1.2,2-2.4
	c0-1.4-1.1-2.5-2.5-2.5c-1.4,0-2.5,1.1-2.5,2.5c0,0.6,0.3,1.2,0.7,1.7l-3.6,7.8c-2.2-1.9-5.4-2.8-7.4-2.8c-2.8,0-6.1,1.3-8.5,3.7
	l-3.8-8.4c0.4-0.4,0.7-1,0.7-1.7c0-1.4-1.1-2.5-2.5-2.5c-1.4,0-2.5,1.1-2.5,2.5c0,1.2,0.8,2.2,2,2.4l2.6,12.2
	c-1.8,3.5-3,7.8-3.4,12.5h-3c-4,0-7.3,2.6-8,5.9c-4-1-9.6-3.8-12.4-12.2l3.6-6.7l-3.1-8.7l-3.5,1.2l2.3,6.7l-3.4,6.1l-6.5-2.6
	l-2.3-6.7l-3.5,1.2l3,8.7L347,109.9z"/>
<g>
	<g>
		<g>
			<path fill="#8F1D1E" d="M285.7,24.6h0.6l0.7,3.1l0.7-3.1h0.5l0.7,3.1l0.7-3.1h0.6l-1.1,4.8h-0.5l-0.7-3.1l-0.7,3.1h-0.5
				L285.7,24.6z"/>
			<path fill="#8F1D1E" d="M290.2,24.6h0.7l1,1.8l1-1.8h0.7l-1.4,2.5v2.3h-0.6v-2.3L290.2,24.6z"/>
			<path fill="#8F1D1E" d="M293.7,29.4v-4.8h2v0.6h-1.4v1.5h1.4v0.6h-1.4v1.5h1.4v0.6H293.7z"/>
			<path fill="#8F1D1E" d="M296.2,29.4l1.1-4.8h0.5l1.1,4.8h-0.6l-0.3-1.4h-0.8l-0.3,1.4H296.2z M297.3,27.5h0.6l-0.3-1.2
				L297.3,27.5z"/>
			<path fill="#8F1D1E" d="M299.1,28.1v-0.3h0.6v0.3c0,0.3,0,0.5,0.2,0.6c0,0,0.1,0.1,0.1,0.1s0.1,0,0.3,0c0.1,0,0.2,0,0.3-0.1
				s0.1-0.1,0.2-0.2s0.1-0.2,0.1-0.2c0-0.1,0-0.2,0-0.2c0-0.1,0-0.2-0.1-0.3c0-0.1-0.1-0.1-0.1-0.2s-0.1-0.1-0.2-0.1
				c-0.1,0-0.1-0.1-0.2-0.1l-0.1-0.1c-0.1,0-0.2-0.1-0.3-0.1s-0.2-0.1-0.3-0.2c-0.3-0.3-0.4-0.6-0.4-1c0-0.2,0-0.4,0.1-0.6
				s0.1-0.3,0.2-0.4c0.1-0.1,0.2-0.2,0.4-0.3c0.1-0.1,0.3-0.1,0.5-0.1c0.2,0,0.4,0,0.6,0.1c0.1,0.1,0.2,0.2,0.3,0.3
				c0.2,0.2,0.3,0.6,0.3,1v0.3h-0.6V26c0-0.2,0-0.3-0.1-0.4c0-0.1-0.1-0.2-0.1-0.2c-0.1,0-0.1-0.1-0.2-0.1c-0.1,0-0.1,0-0.2,0
				c-0.1,0-0.2,0-0.3,0.1c-0.1,0.1-0.1,0.1-0.2,0.2c0,0.1-0.1,0.2-0.1,0.3c0,0.1,0,0.2,0,0.2c0,0.1,0,0.2,0.1,0.3
				c0,0.1,0.1,0.2,0.1,0.2c0.1,0.1,0.1,0.1,0.2,0.2c0.1,0,0.1,0.1,0.2,0.1l0.1,0c0.1,0,0.1,0.1,0.3,0.1s0.2,0.1,0.3,0.2
				c0.3,0.3,0.4,0.6,0.4,1c0,0.4-0.1,0.7-0.3,0.9c-0.2,0.3-0.5,0.4-0.9,0.4c-0.4,0-0.7-0.1-0.9-0.4
				C299.1,28.8,299.1,28.5,299.1,28.1z"/>
			<path fill="#8F1D1E" d="M301.7,25.2v-0.6h2.7v0.6h-1.1v4.2h-0.6v-4.2H301.7z"/>
			<path fill="#8F1D1E" d="M306.7,25.7l0.8-1.1h0.6v4.8h-0.6v-3.7l-0.3,0.4L306.7,25.7z"/>
			<path fill="#8F1D1E" d="M308.5,28V26c0-0.4,0.1-0.7,0.2-1c0.2-0.3,0.4-0.4,0.8-0.4s0.6,0.1,0.8,0.4c0.2,0.2,0.2,0.6,0.2,1V28
				c0,0.4-0.1,0.7-0.2,1c-0.2,0.3-0.4,0.4-0.8,0.4s-0.6-0.1-0.8-0.4C308.6,28.8,308.5,28.4,308.5,28z M309.1,28c0,0.2,0,0.3,0,0.5
				c0,0.1,0.1,0.2,0.1,0.2c0,0,0.1,0.1,0.1,0.1c0,0,0.1,0,0.1,0s0.1,0,0.1,0c0,0,0.1,0,0.1-0.1c0,0,0.1-0.1,0.1-0.2
				c0-0.1,0-0.3,0-0.5V26c0-0.2,0-0.3,0-0.4c0-0.1-0.1-0.2-0.1-0.2c0,0-0.1-0.1-0.1-0.1c0,0-0.1,0-0.1,0s-0.1,0-0.1,0
				c0,0-0.1,0-0.1,0.1c0,0-0.1,0.1-0.1,0.2c0,0.1,0,0.3,0,0.4V28z"/>
			<path fill="#8F1D1E" d="M311,28.1c0-0.4,0.1-0.8,0.2-1c0,0,0,0,0,0c0,0,0,0,0,0c0,0,0,0-0.1-0.1c-0.2-0.2-0.2-0.5-0.2-1
				c0-0.4,0.1-0.8,0.2-1c0.2-0.3,0.5-0.4,0.8-0.4c0.4,0,0.7,0.1,0.8,0.4c0.2,0.2,0.2,0.6,0.2,1c0,0.4-0.1,0.8-0.2,1
				c0,0,0,0.1-0.1,0.1l0.1,0.1c0.2,0.2,0.2,0.6,0.2,1c0,0.2,0,0.4-0.1,0.6c0,0.2-0.1,0.3-0.2,0.4c-0.2,0.3-0.5,0.4-0.8,0.4
				c-0.4,0-0.7-0.1-0.8-0.4C311.1,28.8,311,28.5,311,28.1z M311.6,26c0,0.2,0,0.3,0,0.4c0,0.1,0.1,0.2,0.1,0.2s0.1,0.1,0.2,0.1
				c0.1,0,0.1,0,0.2,0c0.1,0,0.1,0,0.2,0c0.1,0,0.1,0,0.2-0.1c0,0,0.1-0.1,0.1-0.2c0-0.1,0-0.2,0-0.4c0-0.2,0-0.3,0-0.4
				c0-0.1-0.1-0.2-0.1-0.2c0,0-0.1-0.1-0.2-0.1c-0.1,0-0.1,0-0.2,0c-0.1,0-0.1,0-0.2,0c-0.1,0-0.1,0-0.2,0.1s-0.1,0.1-0.1,0.2
				C311.6,25.6,311.6,25.8,311.6,26z M311.6,28.1c0,0.2,0,0.3,0,0.4c0,0.1,0.1,0.2,0.1,0.2s0.1,0.1,0.2,0.1c0.1,0,0.1,0,0.2,0
				c0.1,0,0.1,0,0.2,0c0.1,0,0.1,0,0.2-0.1c0,0,0.1-0.1,0.1-0.2c0-0.1,0-0.2,0-0.4c0-0.2,0-0.3,0-0.4c0-0.1-0.1-0.2-0.1-0.2
				c0,0-0.1-0.1-0.1-0.1c0,0-0.1,0-0.2,0c-0.1,0-0.2,0-0.2,0c0,0-0.1,0.1-0.1,0.1c0,0-0.1,0.1-0.1,0.2
				C311.6,27.7,311.6,27.9,311.6,28.1z"/>
			<path fill="#8F1D1E" d="M313.6,28.1v-0.6l1.5-2.9h0.6v4.8H315v-1.4H313.6z M314.3,27.5h0.8V26L314.3,27.5z"/>
		</g>
	</g>
	<g>
		<rect x="268.1" y="26.6" fill="#FFFFFF" width="10.1" height="1.2"/>
	</g>
	<polygon fill="#FFFFFF" points="267.3,33.3 265.1,37 262.9,33.3 	"/>
	<path fill="#FFFFFF" d="M265.1,30.2c-1.7,0-3-1.3-3-3c0-1.7,1.3-3,3-3c1.7,0,3,1.3,3,3C268.1,28.8,266.8,30.2,265.1,30.2
		 M265.1,25.4c-1,0-1.8,0.8-1.8,1.8c0,1,0.8,1.8,1.8,1.8c1,0,1.8-0.8,1.8-1.8C266.9,26.2,266.1,25.4,265.1,25.4"/>
	<rect x="264.5" y="29.3" fill="#FFFFFF" width="1.2" height="4.3"/>
	<path fill="#FFFFFF" d="M281.1,30.2c-1.7,0-3-1.3-3-3c0-1.7,1.3-3,3-3c1.7,0,3,1.3,3,3C284.1,28.8,282.8,30.2,281.1,30.2
		 M281.1,25.4c-1,0-1.8,0.8-1.8,1.8c0,1,0.8,1.8,1.8,1.8c1,0,1.8-0.8,1.8-1.8C282.9,26.2,282.1,25.4,281.1,25.4"/>
</g>
</svg>
