<?xml version="1.0" encoding="utf-8"?>
<!-- Generator: Adobe Illustrator 18.0.0, SVG Export Plug-In . SVG Version: 6.00 Build 0)  -->
<!DOCTYPE svg PUBLIC "-//W3C//DTD SVG 1.1//EN" "http://www.w3.org/Graphics/SVG/1.1/DTD/svg11.dtd">
<svg version="1.1" id="Layer_1" xmlns="http://www.w3.org/2000/svg" xmlns:xlink="http://www.w3.org/1999/xlink" x="0px" y="0px"
	 viewBox="0 0 432 144" enable-background="new 0 0 432 144" xml:space="preserve">
<polygon fill="#FFFFFF" points="207.8,42 206.5,42 206.5,28.7 199.6,21.8 188.6,21.8 188.6,20.6 200.1,20.6 207.8,28.2 "/>
<g>
	<defs>
		<rect id="SVGID_1_" width="432" height="144"/>
	</defs>
	<clipPath id="SVGID_2_">
		<use xlink:href="#SVGID_1_"  overflow="visible"/>
	</clipPath>
</g>
<g>
	<defs>
		<rect id="SVGID_3_" width="432" height="144"/>
	</defs>
	<clipPath id="SVGID_4_">
		<use xlink:href="#SVGID_3_"  overflow="visible"/>
	</clipPath>
</g>
<g>
	<defs>
		<rect id="SVGID_5_" width="432" height="144"/>
	</defs>
	<clipPath id="SVGID_6_">
		<use xlink:href="#SVGID_5_"  overflow="visible"/>
	</clipPath>
</g>
<g>
	<defs>
		<rect id="SVGID_7_" width="432" height="144"/>
	</defs>
	<clipPath id="SVGID_8_">
		<use xlink:href="#SVGID_7_"  overflow="visible"/>
	</clipPath>
</g>
<g>
	<defs>
		<rect id="SVGID_9_" width="432" height="144"/>
	</defs>
	<clipPath id="SVGID_10_">
		<use xlink:href="#SVGID_9_"  overflow="visible"/>
	</clipPath>
</g>
<g>
	<defs>
		<rect id="SVGID_11_" width="432" height="144"/>
	</defs>
	<clipPath id="SVGID_12_">
		<use xlink:href="#SVGID_11_"  overflow="visible"/>
	</clipPath>
</g>
<g>
	<defs>
		<rect id="SVGID_13_" width="432" height="144"/>
	</defs>
	<clipPath id="SVGID_14_">
		<use xlink:href="#SVGID_13_"  overflow="visible"/>
	</clipPath>
</g>
<g>
	<defs>
		<rect id="SVGID_15_" width="432" height="144"/>
	</defs>
	<clipPath id="SVGID_16_">
		<use xlink:href="#SVGID_15_"  overflow="visible"/>
	</clipPath>
</g>
<g>
	<defs>
		<rect id="SVGID_17_" width="432" height="144"/>
	</defs>
	<clipPath id="SVGID_18_">
		<use xlink:href="#SVGID_17_"  overflow="visible"/>
	</clipPath>
</g>
<g>
	<defs>
		<rect id="SVGID_19_" width="432" height="144"/>
	</defs>
	<clipPath id="SVGID_20_">
		<use xlink:href="#SVGID_19_"  overflow="visible"/>
	</clipPath>
</g>
<g>
	<defs>
		<rect id="SVGID_21_" width="432" height="144"/>
	</defs>
	<clipPath id="SVGID_22_">
		<use xlink:href="#SVGID_21_"  overflow="visible"/>
	</clipPath>
</g>
<g>
	<defs>
		<rect id="SVGID_23_" width="432" height="144"/>
	</defs>
	<clipPath id="SVGID_24_">
		<use xlink:href="#SVGID_23_"  overflow="visible"/>
	</clipPath>
</g>
<g>
	<defs>
		<rect id="SVGID_25_" width="432" height="144"/>
	</defs>
	<clipPath id="SVGID_26_">
		<use xlink:href="#SVGID_25_"  overflow="visible"/>
	</clipPath>
</g>
<g>
	<defs>
		<rect id="SVGID_27_" width="432" height="144"/>
	</defs>
	<clipPath id="SVGID_28_">
		<use xlink:href="#SVGID_27_"  overflow="visible"/>
	</clipPath>
</g>
<g>
	<defs>
		<rect id="SVGID_29_" width="432" height="144"/>
	</defs>
	<clipPath id="SVGID_30_">
		<use xlink:href="#SVGID_29_"  overflow="visible"/>
	</clipPath>
</g>
<g>
	<defs>
		<rect id="SVGID_31_" width="432" height="144"/>
	</defs>
	<clipPath id="SVGID_32_">
		<use xlink:href="#SVGID_31_"  overflow="visible"/>
	</clipPath>
</g>
<g>
	<defs>
		<rect id="SVGID_33_" width="432" height="144"/>
	</defs>
	<clipPath id="SVGID_34_">
		<use xlink:href="#SVGID_33_"  overflow="visible"/>
	</clipPath>
</g>
<g>
	<defs>
		<rect id="SVGID_35_" width="432" height="144"/>
	</defs>
	<clipPath id="SVGID_36_">
		<use xlink:href="#SVGID_35_"  overflow="visible"/>
	</clipPath>
</g>
<g>
	<defs>
		<rect id="SVGID_37_" width="432" height="144"/>
	</defs>
	<clipPath id="SVGID_38_">
		<use xlink:href="#SVGID_37_"  overflow="visible"/>
	</clipPath>
</g>
<g>
	<defs>
		<rect id="SVGID_39_" width="432" height="144"/>
	</defs>
	<clipPath id="SVGID_40_">
		<use xlink:href="#SVGID_39_"  overflow="visible"/>
	</clipPath>
</g>
<g>
	<defs>
		<rect id="SVGID_41_" width="432" height="144"/>
	</defs>
	<clipPath id="SVGID_42_">
		<use xlink:href="#SVGID_41_"  overflow="visible"/>
	</clipPath>
</g>
<g>
	<defs>
		<rect id="SVGID_43_" width="432" height="144"/>
	</defs>
	<clipPath id="SVGID_44_">
		<use xlink:href="#SVGID_43_"  overflow="visible"/>
	</clipPath>
</g>
<g>
	<defs>
		<rect id="SVGID_45_" width="432" height="144"/>
	</defs>
	<clipPath id="SVGID_46_">
		<use xlink:href="#SVGID_45_"  overflow="visible"/>
	</clipPath>
</g>
<g>
	<defs>
		<rect id="SVGID_47_" width="432" height="144"/>
	</defs>
	<clipPath id="SVGID_48_">
		<use xlink:href="#SVGID_47_"  overflow="visible"/>
	</clipPath>
</g>
<g>
	<defs>
		<rect id="SVGID_49_" width="432" height="144"/>
	</defs>
	<clipPath id="SVGID_50_">
		<use xlink:href="#SVGID_49_"  overflow="visible"/>
	</clipPath>
	<rect x="156.9" y="61" clip-path="url(#SVGID_50_)" fill="#FFFFFF" width="53" height="51.2"/>
	<path clip-path="url(#SVGID_50_)" fill="#FFFFFF" d="M217.6,67.7h-68.3c-0.8,0-1.4-0.6-1.4-1.4c0-0.8,0.6-1.4,1.4-1.4h68.3
		c0.8,0,1.4,0.6,1.4,1.4C219,67,218.4,67.7,217.6,67.7"/>
</g>
<g>
	<defs>
		<rect id="SVGID_51_" width="432" height="144"/>
	</defs>
	<clipPath id="SVGID_52_">
		<use xlink:href="#SVGID_51_"  overflow="visible"/>
	</clipPath>
	<polygon clip-path="url(#SVGID_52_)" fill="#FFFFFF" points="224.2,124.2 217.9,124.2 217.9,88.1 205.5,88.1 205.5,86.8 
		219.1,86.8 219.1,122.9 223.7,122.9 230.6,116 230.6,110.8 231.8,110.8 231.8,116.5 	"/>
	<polygon clip-path="url(#SVGID_52_)" fill="#FFFFFF" points="230.6,111 231.8,111 231.8,107.4 227.8,107.4 227.8,108.6 
		230.6,108.6 	"/>
	<polygon clip-path="url(#SVGID_52_)" fill="#FFFFFF" points="232.2,65.6 227.8,65.6 227.8,64.4 231,64.4 231,47.7 232.2,47.7 	"/>
	<polygon clip-path="url(#SVGID_52_)" fill="#FFFFFF" points="293.9,124.7 261,124.7 261,113.2 262.2,113.2 262.2,123.5 
		293.4,123.5 300.3,116.5 300.3,111.6 301.5,111.6 301.5,117.1 	"/>
	<path clip-path="url(#SVGID_52_)" fill="#FFFFFF" d="M227.8,70.4c-1.7,0-3-1.3-3-3c0-1.7,1.3-3,3-3v1.2c-1,0-1.8,0.8-1.8,1.8
		c0,1,0.8,1.8,1.8,1.8V70.4z"/>
	<path clip-path="url(#SVGID_52_)" fill="#FFFFFF" d="M227.8,79.9c-1.7,0-3-1.3-3-3c0-1.7,1.3-3,3-3v1.2c-1,0-1.8,0.8-1.8,1.8
		c0,1,0.8,1.8,1.8,1.8V79.9z"/>
	<path clip-path="url(#SVGID_52_)" fill="#FFFFFF" d="M227.8,75.1v-1.2l6.8,0c1,0,1.8-0.8,1.8-1.8c0-1-0.8-1.8-1.8-1.8h-6.8v-1.2
		h6.8c1.7,0,3,1.3,3,3c0,1.7-1.3,3-3,3H227.8z"/>
	<path clip-path="url(#SVGID_52_)" fill="#FFFFFF" d="M234.6,94.2V93c1,0,1.8-0.8,1.8-1.8c0-1-0.8-1.8-1.8-1.8h-6.8
		c-1.7,0-3-1.3-3-3c0-1.7,1.3-3,3-3l6.8,0c1,0,1.8-0.8,1.8-1.8c0-1-0.8-1.8-1.8-1.8h-6.8v-1.2l6.8,0c1.7,0,3,1.3,3,3
		c0,1.7-1.3,3-3,3h-6.8c-1,0-1.8,0.8-1.8,1.8c0,1,0.8,1.8,1.8,1.8h6.8c1.7,0,3,1.3,3,3C237.6,92.9,236.3,94.2,234.6,94.2"/>
	<path clip-path="url(#SVGID_52_)" fill="#FFFFFF" d="M227.8,108.6v-1.2c-1,0-1.8-0.8-1.8-1.8c0-1,0.8-1.8,1.8-1.8h6.8
		c1.7,0,3-1.3,3-3c0-1.7-1.3-3-3-3l-6.8,0c-1,0-1.8-0.8-1.8-1.8c0-1,0.8-1.8,1.8-1.8h6.8v-1.2l-6.8,0c-1.7,0-3,1.3-3,3
		c0,1.7,1.3,3,3,3h6.8c1,0,1.8,0.8,1.8,1.8c0,1-0.8,1.8-1.8,1.8h-6.8c-1.7,0-3,1.3-3,3C224.8,107.3,226.1,108.6,227.8,108.6"/>
	<polygon clip-path="url(#SVGID_52_)" fill="#FFFFFF" points="329.9,55.6 335.7,52.2 329.9,48.9 329.9,52.1 	"/>
</g>
<g>
	<defs>
		<rect id="SVGID_53_" width="432" height="144"/>
	</defs>
	<clipPath id="SVGID_54_">
		<use xlink:href="#SVGID_53_"  overflow="visible"/>
	</clipPath>
	<path clip-path="url(#SVGID_54_)" fill="#FFFFFF" d="M245,38.2v53.4v7.6v17.8c0,1.1,0.9,2,2,2c1.1,0,2-0.9,2-2v-10.5l4.6,8.3h15.4
		l4.6-8.3v11.3c0,1.1,0.9,2,2,2c1.1,0,2-0.9,2-2V99.2v-8.4V38.2H245z"/>
	<path clip-path="url(#SVGID_54_)" fill="#FFFFFF" d="M309.3,112.3h-17.8V78.2h17.8V112.3z M292.7,111h15.4V79.4h-15.4V111z"/>
	<rect x="341.5" y="57.8" clip-path="url(#SVGID_54_)" fill="#FFAE5F" width="1.2" height="31.4"/>
	<path clip-path="url(#SVGID_54_)" fill="#FFFFFF" d="M313.2,57.7h-24.4c0.4,2.8,1.2,5,1.8,6.4h20.8
		C312.1,62.7,312.8,60.5,313.2,57.7"/>
	<path clip-path="url(#SVGID_54_)" fill="#FFFFFF" d="M288.4,51.8c0,1.7,0.1,3.3,0.3,4.7h24.7c0.2-1.4,0.3-3,0.3-4.7
		c0-1.6-0.1-3.1-0.2-4.4h-24.8C288.5,48.7,288.4,50.2,288.4,51.8"/>
	<path clip-path="url(#SVGID_54_)" fill="#FFFFFF" d="M290.5,39.7c-0.6,1.5-1.2,3.6-1.6,6.4h24.5c-0.4-2.8-1-4.9-1.6-6.4H290.5z"/>
	<path clip-path="url(#SVGID_54_)" fill="#FFFFFF" d="M311.3,38.6c-0.5-1.2-1-1.7-1-1.7h-18.5c0,0-0.4,0.6-0.9,1.7H311.3z"/>
	<path clip-path="url(#SVGID_54_)" fill="#FFFFFF" d="M291.1,65.1c0.4,0.9,0.7,1.3,0.7,1.3h18.5c0,0,0.3-0.4,0.7-1.3H291.1z"/>
	<rect x="310.2" y="51.6" clip-path="url(#SVGID_54_)" fill="#FFFFFF" width="20.6" height="1.2"/>
	<path clip-path="url(#SVGID_54_)" fill="#FFFFFF" d="M304.5,106.4h-8.2c-0.7,0-1.2-0.6-1.2-1.2c0-0.7,0.6-1.2,1.2-1.2h8.2
		c0.7,0,1.2,0.6,1.2,1.2C305.7,105.8,305.2,106.4,304.5,106.4"/>
	<path clip-path="url(#SVGID_54_)" fill="#FFFFFF" d="M304.5,99.5h-8.2c-0.7,0-1.2-0.6-1.2-1.2c0-0.7,0.6-1.2,1.2-1.2h8.2
		c0.7,0,1.2,0.6,1.2,1.2C305.7,99,305.2,99.5,304.5,99.5"/>
	<path clip-path="url(#SVGID_54_)" fill="#FFFFFF" d="M304.5,92.7h-8.2c-0.7,0-1.2-0.6-1.2-1.2s0.6-1.2,1.2-1.2h8.2
		c0.7,0,1.2,0.6,1.2,1.2S305.2,92.7,304.5,92.7"/>
	<path clip-path="url(#SVGID_54_)" fill="#FFFFFF" d="M304.5,85.9h-8.2c-0.7,0-1.2-0.6-1.2-1.2c0-0.7,0.6-1.2,1.2-1.2h8.2
		c0.7,0,1.2,0.6,1.2,1.2C305.7,85.3,305.2,85.9,304.5,85.9"/>
	<rect x="299.7" y="66" clip-path="url(#SVGID_54_)" fill="#FFFFFF" width="1.2" height="12.5"/>
	<polygon clip-path="url(#SVGID_54_)" fill="#FFFFFF" points="63,77.4 74,57.6 102.2,57.6 113.3,77.4 113.3,111.5 63,111.5 	"/>
</g>
<g>
	<g>
		<path fill="#FFFFFF" d="M70.3,123.2v-0.3h0.6v0.3c0,0.3,0,0.4,0.1,0.6c0,0,0.1,0.1,0.1,0.1s0.1,0,0.2,0c0.1,0,0.2,0,0.3-0.1
			s0.1-0.1,0.1-0.2s0.1-0.1,0.1-0.2s0-0.1,0-0.2c0-0.1,0-0.2,0-0.3s-0.1-0.1-0.1-0.2s-0.1-0.1-0.2-0.1s-0.1-0.1-0.2-0.1l-0.1,0
			c-0.1,0-0.1-0.1-0.2-0.1s-0.2-0.1-0.3-0.2c-0.2-0.2-0.4-0.5-0.4-0.9c0-0.2,0-0.4,0.1-0.5s0.1-0.3,0.2-0.4c0.1-0.1,0.2-0.2,0.3-0.3
			s0.3-0.1,0.4-0.1c0.2,0,0.4,0,0.5,0.1s0.2,0.2,0.3,0.2c0.2,0.2,0.3,0.5,0.3,0.9v0.3h-0.6v-0.3c0-0.2,0-0.3,0-0.4s-0.1-0.2-0.1-0.2
			s-0.1-0.1-0.2-0.1s-0.1,0-0.1,0c-0.1,0-0.2,0-0.3,0.1s-0.1,0.1-0.1,0.2s-0.1,0.2-0.1,0.2s0,0.1,0,0.2c0,0.1,0,0.2,0,0.3
			s0.1,0.1,0.1,0.2s0.1,0.1,0.2,0.1s0.1,0.1,0.2,0.1l0.1,0c0.1,0,0.1,0.1,0.2,0.1s0.2,0.1,0.3,0.2c0.2,0.2,0.4,0.5,0.4,0.9
			c0,0.3-0.1,0.6-0.3,0.8c-0.2,0.3-0.5,0.4-0.8,0.4c-0.4,0-0.6-0.1-0.8-0.3C70.4,123.9,70.3,123.6,70.3,123.2z"/>
		<path fill="#FFFFFF" d="M72.7,120.6v-0.6h2.5v0.6h-1v3.9h-0.6v-3.9H72.7z"/>
		<path fill="#FFFFFF" d="M75.4,124.5v-4.4h1.8v0.6H76v1.4h1.3v0.6H76v1.4h1.3v0.6H75.4z"/>
		<path fill="#FFFFFF" d="M77.7,124.5l1-4.4h0.4l1,4.4h-0.6l-0.3-1.2h-0.8l-0.3,1.2H77.7z M78.7,122.7h0.5l-0.3-1.1L78.7,122.7z"/>
		<path fill="#FFFFFF" d="M80.3,124.5v-4.4h0.5l0.9,3.1l0.9-3.1h0.5v4.4h-0.6v-2.1l-0.6,2.1h-0.4l-0.6-2.1v2.1H80.3z"/>
		<path fill="#FFFFFF" d="M85.4,123.2v-1.9c0-0.4,0.1-0.7,0.3-0.9c0.1-0.1,0.2-0.2,0.3-0.2s0.3-0.1,0.5-0.1c0.2,0,0.4,0,0.5,0.1
			s0.2,0.2,0.3,0.2c0.2,0.2,0.3,0.5,0.3,0.9v0.3h-0.6v-0.3c0-0.2,0-0.3-0.1-0.4s-0.1-0.2-0.1-0.2c0,0-0.1-0.1-0.2-0.1s-0.1,0-0.1,0
			c0,0-0.1,0-0.1,0s-0.1,0-0.2,0.1s-0.1,0.1-0.1,0.2s0,0.2,0,0.4v1.9c0,0.3,0,0.4,0.1,0.6c0,0,0.1,0.1,0.1,0.1s0.1,0,0.2,0
			c0.1,0,0.2,0,0.2,0s0.1-0.1,0.1-0.1c0.1-0.1,0.1-0.3,0.1-0.6v-0.3h0.6v0.3c0,0.4-0.1,0.7-0.3,0.9c-0.1,0.1-0.2,0.2-0.3,0.2
			s-0.3,0.1-0.5,0.1c-0.1,0-0.2,0-0.3,0c-0.1,0-0.2,0-0.2-0.1s-0.1-0.1-0.2-0.1c0,0-0.1-0.1-0.1-0.1
			C85.5,123.9,85.4,123.6,85.4,123.2z"/>
		<path fill="#FFFFFF" d="M87.7,123.2v-1.9c0-0.4,0.1-0.7,0.3-0.9c0,0,0.1-0.1,0.1-0.1c0,0,0.1-0.1,0.2-0.1s0.1-0.1,0.2-0.1
			s0.2,0,0.3,0c0.2,0,0.4,0,0.5,0.1s0.2,0.2,0.3,0.2c0.2,0.2,0.3,0.5,0.3,0.9v1.9c0,0.4-0.1,0.7-0.3,0.9c-0.1,0.1-0.2,0.2-0.3,0.2
			s-0.3,0.1-0.5,0.1c-0.2,0-0.4,0-0.5-0.1s-0.2-0.2-0.3-0.2C87.8,123.9,87.7,123.6,87.7,123.2z M88.3,123.2c0,0.2,0,0.3,0,0.4
			s0.1,0.2,0.1,0.2s0.1,0.1,0.2,0.1s0.1,0,0.1,0c0,0,0.1,0,0.1,0s0.1,0,0.2-0.1s0.1-0.1,0.1-0.2s0.1-0.2,0.1-0.4v-1.9
			c0-0.2,0-0.3-0.1-0.4s-0.1-0.2-0.1-0.2s-0.1-0.1-0.2-0.1s-0.1,0-0.1,0c0,0-0.1,0-0.1,0s-0.1,0-0.2,0.1s-0.1,0.1-0.1,0.2
			s0,0.2,0,0.4V123.2z"/>
		<path fill="#FFFFFF" d="M90.1,124.5v-4.4h0.5l1.1,2.7v-2.7h0.6v4.4h-0.5l-1.1-2.7v2.7H90.1z"/>
		<path fill="#FFFFFF" d="M92.7,120.6v-0.6h2.5v0.6h-1v3.9h-0.6v-3.9H92.7z"/>
		<path fill="#FFFFFF" d="M95.4,124.5v-4.4h0.9c0.4,0,0.7,0.1,0.9,0.3c0.2,0.2,0.3,0.5,0.3,0.9c0,0.4-0.1,0.7-0.3,0.9c0,0,0,0,0,0
			s0,0,0,0c0.1,0.1,0.2,0.2,0.2,0.4c0.1,0.1,0.1,0.3,0.1,0.5v1.3h-0.6v-1.3c0-0.4-0.2-0.6-0.6-0.6h-0.3H96v1.9H95.4z M96,122L96,122
			h0.4c0.2,0,0.3,0,0.3-0.1c0.1,0,0.1-0.1,0.1-0.1c0.1-0.1,0.1-0.3,0.1-0.6c0-0.1,0-0.3,0-0.4s-0.1-0.2-0.1-0.2s-0.1-0.1-0.2-0.1
			s-0.2,0-0.2,0H96V122z"/>
		<path fill="#FFFFFF" d="M97.9,123.2v-1.9c0-0.4,0.1-0.7,0.3-0.9c0,0,0.1-0.1,0.1-0.1c0,0,0.1-0.1,0.2-0.1s0.1-0.1,0.2-0.1
			s0.2,0,0.3,0c0.2,0,0.4,0,0.5,0.1s0.2,0.2,0.3,0.2c0.2,0.2,0.3,0.5,0.3,0.9v1.9c0,0.4-0.1,0.7-0.3,0.9c-0.1,0.1-0.2,0.2-0.3,0.2
			s-0.3,0.1-0.5,0.1c-0.2,0-0.4,0-0.5-0.1s-0.2-0.2-0.3-0.2C98,123.9,97.9,123.6,97.9,123.2z M98.5,123.2c0,0.2,0,0.3,0,0.4
			s0.1,0.2,0.1,0.2s0.1,0.1,0.2,0.1s0.1,0,0.1,0c0,0,0.1,0,0.1,0s0.1,0,0.2-0.1s0.1-0.1,0.1-0.2s0.1-0.2,0.1-0.4v-1.9
			c0-0.2,0-0.3-0.1-0.4s-0.1-0.2-0.1-0.2s-0.1-0.1-0.2-0.1s-0.1,0-0.1,0c0,0-0.1,0-0.1,0s-0.1,0-0.2,0.1s-0.1,0.1-0.1,0.2
			s0,0.2,0,0.4V123.2z"/>
		<path fill="#FFFFFF" d="M100.4,124.5v-4.4h0.6v3.9h1.4v0.6H100.4z"/>
	</g>
	<g>
		<polygon fill="#FFFFFF" points="128.4,111.4 120.5,111.4 120.5,88.6 108.4,88.6 108.4,87.3 121.7,87.3 121.7,110.1 127.9,110.1 
			134.6,103.4 134.6,56.8 142.4,48.9 176.4,48.9 176.4,50.2 142.9,50.2 135.8,57.3 135.8,103.9 		"/>
	</g>
	<path fill="#FFFFFF" d="M143.7,125.8c-1.7,0-3-1.3-3-3c0-1.7,1.3-3,3-3c1.7,0,3,1.3,3,3C146.7,124.5,145.3,125.8,143.7,125.8
		 M143.7,121c-1,0-1.8,0.8-1.8,1.8c0,1,0.8,1.8,1.8,1.8c1,0,1.8-0.8,1.8-1.8C145.5,121.8,144.7,121,143.7,121"/>
	<path fill="#FFFFFF" d="M130,125.8c-1.7,0-3-1.3-3-3c0-1.7,1.3-3,3-3c1.7,0,3,1.3,3,3C133,124.5,131.7,125.8,130,125.8 M130,121
		c-1,0-1.8,0.8-1.8,1.8c0,1,0.8,1.8,1.8,1.8c1,0,1.8-0.8,1.8-1.8C131.8,121.8,131,121,130,121"/>
	<rect x="162.2" y="116.5" fill="#FFFFFF" width="0.8" height="4.9"/>
	<polygon fill="#FFFFFF" points="164.8,116.5 162.6,112.7 160.4,116.5 	"/>
	<rect x="169" y="116.5" fill="#FFFFFF" width="0.8" height="4.9"/>
	<polygon fill="#FFFFFF" points="171.6,116.5 169.4,112.7 167.2,116.5 	"/>
	<rect x="175.8" y="116.5" fill="#FFFFFF" width="0.8" height="4.9"/>
	<polygon fill="#FFFFFF" points="178.4,116.5 176.2,112.7 174.1,116.5 	"/>
	<rect x="182.7" y="116.5" fill="#FFFFFF" width="0.8" height="4.9"/>
	<polygon fill="#FFFFFF" points="185.2,116.5 183.1,112.7 180.9,116.5 	"/>
	<rect x="189.5" y="116.5" fill="#FFFFFF" width="0.8" height="4.9"/>
	<polygon fill="#FFFFFF" points="192.1,116.5 189.9,112.7 187.7,116.5 	"/>
	<rect x="196.3" y="116.5" fill="#FFFFFF" width="0.8" height="4.9"/>
	<polygon fill="#FFFFFF" points="198.9,116.5 196.7,112.7 194.5,116.5 	"/>
	<rect x="203.1" y="116.5" fill="#FFFFFF" width="0.8" height="4.9"/>
	<polygon fill="#FFFFFF" points="205.7,116.5 203.5,112.7 201.4,116.5 	"/>
	<path fill="#FFFFFF" d="M110.3,125.8c-1.7,0-3-1.3-3-3c0-1.7,1.3-3,3-3c1.7,0,3,1.3,3,3C113.3,124.5,111.9,125.8,110.3,125.8
		 M110.3,121c-1,0-1.8,0.8-1.8,1.8c0,1,0.8,1.8,1.8,1.8c1,0,1.8-0.8,1.8-1.8C112,121.8,111.3,121,110.3,121"/>
	<path fill="#FFFFFF" d="M131.7,121.3c-0.2,0-0.3-0.1-0.4-0.2c-0.2-0.2-0.2-0.6,0-0.9l8.6-8.6c0.2-0.2,0.6-0.2,0.9,0
		c0.2,0.2,0.2,0.6,0,0.9l-8.6,8.6C132.1,121.2,131.9,121.3,131.7,121.3"/>
	<path fill="#FFFFFF" d="M124.8,70.7c0,6.4-5.2,11.6-11.6,11.6c-6.4,0-11.6-5.2-11.6-11.6c0-6.4,5.2-11.6,11.6-11.6
		C119.7,59.1,124.8,64.3,124.8,70.7"/>
	<g>
		<g>
			<g>
				<path fill="#A09F9F" d="M109.5,67.3l0.7-1h0.5v4.4h-0.6v-3.4l-0.3,0.3L109.5,67.3z"/>
				<path fill="#A09F9F" d="M111.2,69.8L111.2,69.8l0.6-0.1v0.1c0,0,0,0.1,0,0.1s0,0.1,0.1,0.1s0.1,0.1,0.1,0.1s0.1,0,0.2,0
					s0.1,0,0.2-0.1s0.1-0.1,0.1-0.2s0-0.1,0.1-0.2s0-0.1,0-0.2V69c0-0.2,0-0.3,0-0.4s0-0.1-0.1-0.2c0,0,0-0.1-0.1-0.1s-0.1,0-0.2,0
					s-0.1,0-0.2,0s-0.1,0.1-0.1,0.1c-0.1,0.1-0.1,0.2-0.1,0.4v0.2v0h-0.6v0v-0.2v-2.7h0.6h1.3v0.6h-1.3v1c0.1,0,0.2-0.1,0.4-0.1
					c0.2,0,0.4,0,0.5,0.1s0.2,0.2,0.3,0.2c0.1,0.2,0.2,0.5,0.2,0.9v0.4c0,0.3-0.1,0.6-0.2,0.8c-0.1,0.1-0.2,0.2-0.3,0.3
					s-0.3,0.1-0.4,0.1c-0.1,0-0.3,0-0.4-0.1s-0.2-0.1-0.3-0.2c-0.1-0.1-0.1-0.2-0.2-0.3S111.2,69.9,111.2,69.8z"/>
				<path fill="#A09F9F" d="M113.4,69.6V69v0v-1.2c0-0.4,0.1-0.8,0.2-1c0.1-0.2,0.2-0.3,0.3-0.4s0.3-0.1,0.4-0.1
					c0.2,0,0.3,0,0.4,0.1s0.2,0.1,0.3,0.3c0.1,0.2,0.2,0.5,0.2,0.8v0.2h-0.6v-0.2c0-0.2,0-0.3-0.1-0.4c0,0,0,0-0.1-0.1
					c0,0-0.1,0-0.2,0c-0.1,0-0.1,0-0.2,0.1s-0.1,0.2-0.1,0.3c0,0.1,0,0.2,0,0.3s0,0.2,0,0.3v0c0.1-0.1,0.2-0.1,0.4-0.1
					c0.3,0,0.6,0.1,0.7,0.4c0.1,0.2,0.2,0.5,0.2,0.9v0.4c0,0.2,0,0.4-0.1,0.5c0,0.2-0.1,0.3-0.2,0.4s-0.2,0.2-0.3,0.3
					c-0.1,0.1-0.2,0.1-0.4,0.1c-0.3,0-0.5-0.1-0.7-0.3C113.5,70.2,113.4,69.9,113.4,69.6z M114,69.6c0,0.2,0,0.3,0.1,0.5
					c0,0,0,0,0.1,0.1s0.1,0,0.2,0c0.1,0,0.1,0,0.2-0.1s0.1-0.1,0.1-0.2s0-0.1,0.1-0.2s0-0.2,0-0.2V69c0-0.2,0-0.3,0-0.4
					c0-0.1-0.1-0.2-0.1-0.2s-0.1-0.1-0.1-0.1c0,0-0.1,0-0.1,0c-0.1,0-0.2,0-0.2,0.1s-0.1,0.1-0.1,0.2c0,0.1,0,0.2,0,0.2s0,0.1,0,0.1
					V69.6z"/>
			</g>
			<g>
				<path fill="#A09F9F" d="M116,68.3v-1c0-0.2,0-0.4,0.1-0.5c0,0,0,0,0.1-0.1c0,0,0.1,0,0.1-0.1c0,0,0.1,0,0.1,0s0.1,0,0.1,0
					c0.1,0,0.2,0,0.3,0.1c0.1,0,0.1,0.1,0.1,0.1c0.1,0.1,0.1,0.3,0.1,0.5v1c0,0.2,0,0.4-0.1,0.5c0,0-0.1,0.1-0.1,0.1
					c-0.1,0-0.2,0.1-0.3,0.1c-0.1,0-0.2,0-0.3-0.1c-0.1,0-0.1-0.1-0.1-0.1C116.1,68.6,116,68.5,116,68.3z M116.3,68.3
					c0,0.1,0,0.2,0,0.2c0,0,0,0.1,0.1,0.1s0.1,0,0.1,0c0,0,0.1,0,0.1,0c0,0,0,0,0.1,0c0,0,0.1,0,0.1,0s0-0.1,0.1-0.1
					c0,0,0-0.1,0-0.2v-1c0-0.1,0-0.2,0-0.2c0,0,0-0.1-0.1-0.1s-0.1,0-0.1,0c0,0-0.1,0-0.1,0c0,0,0,0-0.1,0s-0.1,0-0.1,0
					s0,0.1-0.1,0.1s0,0.1,0,0.2V68.3z"/>
			</g>
		</g>
	</g>
	<g>
		<g>
			<path fill="#A09F9F" d="M108.7,73.9v-0.4v0v-0.8c0-0.3,0-0.5,0.1-0.7c0.1-0.1,0.1-0.2,0.2-0.2c0.1-0.1,0.2-0.1,0.3-0.1
				c0.1,0,0.2,0,0.3,0.1s0.2,0.1,0.2,0.2c0.1,0.1,0.2,0.3,0.2,0.5v0.1h-0.4v-0.1c0-0.1,0-0.2-0.1-0.3c0,0,0,0-0.1-0.1
				c0,0-0.1,0-0.1,0c-0.1,0-0.1,0-0.1,0.1c0,0-0.1,0.1-0.1,0.2c0,0.1,0,0.1,0,0.2c0,0.1,0,0.1,0,0.2v0c0.1,0,0.2-0.1,0.3-0.1
				c0.2,0,0.4,0.1,0.5,0.2c0.1,0.1,0.1,0.3,0.1,0.6v0.3c0,0.1,0,0.2,0,0.4c0,0.1-0.1,0.2-0.1,0.3c-0.1,0.1-0.1,0.1-0.2,0.2
				c-0.1,0-0.2,0.1-0.3,0.1c-0.2,0-0.4-0.1-0.5-0.2C108.8,74.3,108.7,74.1,108.7,73.9z M109.1,73.9c0,0.1,0,0.2,0.1,0.3
				c0,0,0,0,0.1,0.1s0.1,0,0.1,0c0,0,0.1,0,0.1,0c0,0,0.1-0.1,0.1-0.1c0,0,0-0.1,0-0.2c0-0.1,0-0.1,0-0.2v-0.3c0-0.1,0-0.2,0-0.3
				c0-0.1,0-0.1-0.1-0.1c0,0-0.1,0-0.1-0.1c0,0-0.1,0-0.1,0c-0.1,0-0.1,0-0.1,0.1s-0.1,0.1-0.1,0.1s0,0.1,0,0.2c0,0,0,0.1,0,0.1
				V73.9z"/>
			<path fill="#A09F9F" d="M110.2,73.8v-1.3c0-0.3,0-0.5,0.1-0.6c0.1-0.2,0.3-0.3,0.5-0.3c0.2,0,0.4,0.1,0.5,0.3
				c0.1,0.1,0.1,0.3,0.1,0.6v1.3c0,0.3,0,0.5-0.1,0.6c-0.1,0.2-0.3,0.3-0.5,0.3c-0.2,0-0.4-0.1-0.5-0.3
				C110.3,74.3,110.2,74.1,110.2,73.8z M110.6,73.8c0,0.1,0,0.2,0,0.3s0,0.1,0.1,0.1c0,0,0.1,0,0.1,0.1c0,0,0.1,0,0.1,0s0,0,0.1,0
				c0,0,0.1,0,0.1-0.1c0,0,0.1-0.1,0.1-0.1s0-0.2,0-0.3v-1.3c0-0.1,0-0.2,0-0.3c0-0.1,0-0.1-0.1-0.1s-0.1,0-0.1-0.1c0,0-0.1,0-0.1,0
				s0,0-0.1,0c0,0-0.1,0-0.1,0.1s-0.1,0.1-0.1,0.1c0,0.1,0,0.2,0,0.3V73.8z"/>
			<path fill="#A09F9F" d="M113,74.7v-3h0.3l0.6,2.1l0.6-2.1h0.3v3h-0.4v-1.4l-0.4,1.4h-0.3l-0.4-1.4v1.4H113z"/>
			<path fill="#A09F9F" d="M115.4,74.7v-3h0.4v3H115.4z"/>
			<path fill="#A09F9F" d="M116.1,74.7v-3h0.3l0.7,1.8v-1.8h0.4v3h-0.3l-0.7-1.8v1.8H116.1z"/>
		</g>
	</g>
	<g>
		<rect x="113.3" y="122.2" fill="#FFFFFF" width="14.3" height="1.2"/>
	</g>
	<g>
		<rect x="146.7" y="122.2" fill="#FFFFFF" width="11.2" height="1.2"/>
	</g>
	<g>
		<g>
			<path fill="#A09F9F" d="M119.9,66.5c-2.3-3.7-7.2-4.8-10.9-2.5l-0.7-1.1c4.3-2.7,9.9-1.4,12.6,2.9L119.9,66.5z"/>
		</g>
		<g>
			<path fill="#A09F9F" d="M113.3,79.9c-0.7,0-1.4-0.1-2-0.2c-2.4-0.5-4.4-2-5.7-4c-1.9-3.1-1.9-7,0.2-10l1,0.7
				c-1.8,2.6-1.8,6-0.1,8.6c1.1,1.8,2.9,3,4.9,3.5c2.1,0.5,4.2,0.1,6-1l0.7,1.1C116.7,79.4,115,79.9,113.3,79.9z"/>
		</g>
		<g>
			<path fill="#A09F9F" d="M120.6,76.2l-1-0.7c1.9-2.6,2.1-6.2,0.3-8.9l1.1-0.7C123,69,122.8,73.2,120.6,76.2z"/>
		</g>
		<polygon fill="#A09F9F" points="111,64.3 107.4,64.4 109,61.2 		"/>
		<polygon fill="#A09F9F" points="115.4,77.3 119.1,77.2 117.4,80.3 		"/>
	</g>
	<path fill="#FFFFFF" d="M208,120.7h-49.8c-1.3,0-2.3,1-2.3,2.3c0,1.3,1,2.3,2.3,2.3H208c1.3,0,2.3-1,2.3-2.3
		C210.3,121.7,209.3,120.7,208,120.7"/>
</g>
<g>
	<path fill="#FFAE5F" d="M72.6,85.3V72.9h0.2h0.4h0.2h0.4H74l2.5,8.7l2.5-8.7h0.1h0.5h0.2H80h0.3v12.4h-0.6V73.5h-0.4l-2.9,10.3
		l-2.9-10.3h-0.4v11.8H72.6z M73.6,85.3V75.1l2.9,10.1l2.9-10.1v10.2h-0.6v-5.9l-1.7,5.9h-1.2l-1.7-5.9v5.9H73.6z"/>
	<path fill="#FFAE5F" d="M81.8,85.3l2.9-12.4h0.1h0.5h0h0.5h0.1l2.9,12.4h-0.6l-2.7-11.7h-0.4l-2.7,11.7H81.8z M82.8,85.3l0.9-4.1
		h3.1l0.9,4.1h-0.6l-0.8-3.4h-2.2l-0.8,3.4H82.8z M83.8,80.9l1.5-6.3l1.5,6.3H83.8z M84.6,80.3H86l-0.7-3L84.6,80.3z"/>
	<path fill="#FFAE5F" d="M89.5,76.5c0-0.5,0.1-1,0.2-1.4c0.1-0.4,0.3-0.8,0.6-1.1c0.3-0.3,0.6-0.6,0.9-0.7c0.4-0.2,0.8-0.3,1.2-0.3
		c0.6,0,1.1,0.1,1.4,0.3c0.4,0.2,0.6,0.4,0.8,0.7c0.5,0.6,0.7,1.5,0.7,2.6v0.8h-0.6v-0.8c0-1-0.2-1.7-0.6-2.2
		c-0.4-0.5-1-0.8-1.8-0.8c-0.8,0-1.4,0.3-1.8,0.9c-0.4,0.5-0.6,1.2-0.6,2.1c0,0.5,0.1,0.9,0.2,1.2c0.2,0.3,0.4,0.6,0.6,0.8
		c0.2,0.2,0.5,0.4,0.7,0.5c0.2,0.1,0.4,0.2,0.6,0.3l0.3,0.1c0.1,0.1,0.3,0.1,0.5,0.2c0.2,0.1,0.4,0.2,0.6,0.4
		c0.2,0.2,0.4,0.4,0.5,0.7c0.1,0.3,0.2,0.6,0.2,1.1c0,0.8-0.2,1.4-0.5,1.8s-0.8,0.6-1.4,0.6c-0.7,0-1.1-0.2-1.5-0.6
		c-0.3-0.4-0.5-1.1-0.5-1.9V81h0.6v0.8c0,0.7,0.1,1.2,0.4,1.6c0.1,0.1,0.2,0.2,0.3,0.2s0.4,0.1,0.7,0.1c0.3,0,0.5-0.1,0.7-0.2
		s0.3-0.3,0.4-0.5c0.1-0.2,0.2-0.4,0.2-0.6c0-0.2,0-0.4,0-0.6c0-0.3,0-0.5-0.1-0.7c-0.1-0.2-0.2-0.4-0.4-0.5
		c-0.1-0.1-0.3-0.3-0.5-0.4s-0.4-0.2-0.5-0.3L92,79.9c-0.2-0.1-0.4-0.2-0.7-0.3c-0.3-0.1-0.5-0.3-0.8-0.6
		C89.8,78.3,89.5,77.5,89.5,76.5z M89.5,81.8V81h0.6v0.8c0,1,0.2,1.7,0.6,2.2c0.4,0.5,1,0.7,1.8,0.7c0.4,0,0.7-0.1,1-0.2
		s0.6-0.3,0.8-0.6c0.2-0.2,0.3-0.5,0.4-0.9c0.1-0.3,0.2-0.7,0.2-1.1c0-0.5-0.1-0.9-0.2-1.2c-0.2-0.3-0.4-0.6-0.6-0.8
		c-0.2-0.2-0.5-0.4-0.7-0.5c-0.2-0.1-0.4-0.2-0.6-0.3L92.4,79c-0.2-0.1-0.3-0.2-0.6-0.3c-0.2-0.1-0.4-0.3-0.6-0.5
		c-0.2-0.2-0.4-0.4-0.5-0.7c-0.1-0.3-0.2-0.6-0.2-1.1c0-0.3,0-0.6,0.1-0.9c0.1-0.3,0.2-0.6,0.3-0.8s0.4-0.4,0.6-0.6
		c0.3-0.2,0.6-0.2,0.9-0.2c0.7,0,1.1,0.2,1.5,0.6c0.3,0.4,0.5,1.1,0.5,2v0.8h-0.6v-0.8c0-0.5,0-0.9-0.1-1.1
		c-0.1-0.3-0.2-0.5-0.4-0.6c-0.1-0.1-0.3-0.2-0.5-0.2c-0.2,0-0.3,0-0.4,0c-0.3,0-0.6,0.1-0.8,0.2c-0.2,0.2-0.3,0.3-0.4,0.6
		c-0.1,0.2-0.2,0.4-0.2,0.7c0,0.2,0,0.4,0,0.5c0,0.3,0,0.5,0.1,0.7c0.1,0.2,0.2,0.4,0.4,0.5c0.1,0.2,0.3,0.3,0.5,0.4
		c0.2,0.1,0.4,0.2,0.6,0.3l0.3,0.1c0.2,0.1,0.4,0.2,0.6,0.3c0.3,0.1,0.5,0.3,0.8,0.6c0.7,0.6,1,1.5,1,2.5c0,1-0.2,1.7-0.7,2.4
		c-0.5,0.7-1.3,1.1-2.3,1.1c-1,0-1.7-0.3-2.2-1C89.7,83.8,89.5,82.9,89.5,81.8z"/>
	<path fill="#FFAE5F" d="M96.2,85.3V72.9h0.6v6v0.4v6H96.2z M97.2,78.9v-6h0.6v5.4h2.4v-5.4h0.6v6H97.2z M97.2,85.3v-6h3.6v6h-0.6
		v-5.4h-2.4v5.4H97.2z M101.1,85.3v-6v-0.4v-6h0.6v12.4H101.1z"/>
</g>
<g>
	<path fill="#FFAE5F" d="M72,89v-0.8h9.2V89h-4.4h-0.5H72z M72,90.4v-0.8h4.4v15h-0.8V90.4H72z M76.8,104.6v-0.8V89.6h4.4v0.8h-3.6
		v14.2H76.8z"/>
	<path fill="#FFAE5F" d="M83.7,100.3v-12h0.8v12c0,1.2,0.2,2,0.7,2.6c0.5,0.6,1.2,0.9,2.2,0.9c1,0,1.7-0.3,2.2-0.9
		c0.5-0.6,0.7-1.5,0.7-2.6v-12H91v12c0,1.4-0.3,2.4-0.9,3.1c-0.2,0.3-0.6,0.6-1,0.8c-0.4,0.3-1,0.4-1.8,0.4s-1.3-0.1-1.8-0.4
		c-0.4-0.3-0.8-0.5-1-0.8C84,102.6,83.7,101.6,83.7,100.3z M85,100.3v-12h0.8v12c0,0.6,0.1,1,0.2,1.3c0.1,0.3,0.2,0.5,0.4,0.7
		s0.3,0.2,0.5,0.2c0.2,0,0.3,0,0.5,0c0.1,0,0.3,0,0.5,0c0.2,0,0.4-0.1,0.5-0.2s0.3-0.4,0.4-0.7c0.1-0.3,0.2-0.7,0.2-1.3v-12h0.8v12
		c0,1-0.2,1.8-0.6,2.3c-0.4,0.5-1,0.7-1.8,0.7c-0.8,0-1.4-0.2-1.8-0.7C85.2,102.1,85,101.3,85,100.3z"/>
	<path fill="#FFAE5F" d="M94,104.5V88.2h0.2h0.6h0.1h0.6h0.3l4,9.9v-9.9h0.8v13.9L95.2,89h-0.5v15.5H94z M95.3,104.5V90.6l5.3,13.1
		h0.4V88.2h0.8v16.3h-0.2H101h-0.1h-0.6h-0.3l-4-9.9v9.9H95.3z"/>
</g>
<g>
	<path fill="#FFAE5F" d="M167,88.2v-0.8h0.8h0.2h0.3h1.8c1.1,0,1.9-0.3,2.4-0.9c0.5-0.6,0.7-1.5,0.7-2.7c0-1.2-0.2-2.2-0.7-2.8
		c-0.2-0.3-0.5-0.5-0.9-0.7c1.1-0.4,1.6-1.6,1.6-3.4c0-1.3-0.2-2.2-0.7-2.8c-0.5-0.6-1.3-0.9-2.3-0.9h-2h-0.2H167v-0.8h3
		c1.3,0,2.3,0.4,2.9,1.2c0.6,0.7,0.9,1.8,0.9,3.2c0,1.4-0.3,2.5-0.9,3.2c-0.1,0.1-0.1,0.2-0.2,0.2c0.1,0.1,0.1,0.1,0.2,0.2
		c0.6,0.7,0.9,1.8,0.9,3.2c0,1.4-0.3,2.5-0.9,3.2c-0.6,0.8-1.6,1.2-2.9,1.2h-1H167z M167,87v-0.8V73.8h0.8V87H167z M168.2,80.1v-6.4
		h1.8c0.9,0,1.6,0.2,2,0.7c0.4,0.5,0.6,1.3,0.6,2.4c0,1.1-0.2,1.9-0.6,2.4c-0.4,0.5-1.1,0.8-2,0.8H168.2z M168.2,87v-6.4h1.8
		c0.9,0,1.6,0.3,2,0.8c0.4,0.5,0.6,1.3,0.6,2.4c0,1.1-0.2,1.9-0.6,2.4c-0.4,0.5-1.1,0.7-2,0.7H168.2z M169,79.4h1
		c0.5,0,0.8-0.1,1-0.2c0.2-0.1,0.3-0.2,0.4-0.3c0.3-0.4,0.4-1,0.4-2c0-0.6,0-1-0.1-1.3s-0.2-0.6-0.4-0.7c-0.2-0.2-0.4-0.3-0.6-0.3
		c-0.2,0-0.5-0.1-0.7-0.1h-1V79.4z M169,86.2h1c0.3,0,0.5,0,0.7-0.1s0.4-0.1,0.6-0.3c0.2-0.2,0.3-0.4,0.4-0.7s0.1-0.8,0.1-1.3
		c0-0.6-0.1-1-0.2-1.3s-0.2-0.6-0.4-0.7s-0.4-0.3-0.6-0.3c-0.2,0-0.5-0.1-0.7-0.1h-1V86.2z"/>
	<path fill="#FFAE5F" d="M176.2,83.7v-6.8c0-1.4,0.3-2.5,0.9-3.2c0.2-0.3,0.6-0.6,1-0.8s1.1-0.4,1.8-0.4c0.8,0,1.4,0.1,1.8,0.4
		s0.8,0.5,1,0.8c0.6,0.8,0.9,1.8,0.9,3.2v6.8c0,1.4-0.3,2.5-0.9,3.2c-0.1,0.1-0.2,0.3-0.4,0.4s-0.4,0.3-0.6,0.4
		c-0.2,0.1-0.5,0.2-0.8,0.3s-0.6,0.1-1,0.1c-0.8,0-1.4-0.1-1.8-0.4c-0.4-0.3-0.8-0.6-1-0.8C176.5,86.2,176.2,85.1,176.2,83.7z
		 M177,83.7c0,1.2,0.2,2.1,0.7,2.7c0.5,0.7,1.3,1,2.2,1c1,0,1.7-0.3,2.2-1c0.5-0.6,0.8-1.5,0.8-2.7v-6.8c0-1.2-0.2-2.1-0.8-2.8
		c-0.5-0.6-1.3-1-2.2-1s-1.7,0.3-2.2,1c-0.5,0.6-0.7,1.5-0.7,2.8V83.7z M177.5,83.7v-6.8c0-1.1,0.2-1.9,0.6-2.4
		c0.4-0.5,1-0.8,1.8-0.8c0.8,0,1.5,0.3,1.8,0.8c0.4,0.5,0.6,1.3,0.6,2.4v6.8c0,2.1-0.8,3.2-2.5,3.2
		C178.3,86.9,177.5,85.9,177.5,83.7z M178.3,83.7c0,0.6,0.1,1.1,0.2,1.4c0.1,0.3,0.3,0.6,0.5,0.7s0.4,0.2,0.6,0.3c0.2,0,0.4,0,0.5,0
		c0.1,0,0.3,0,0.5,0c0.2,0,0.4-0.1,0.6-0.3c0.2-0.1,0.3-0.4,0.5-0.7c0.1-0.3,0.2-0.8,0.2-1.4v-6.8c0-0.6-0.1-1.1-0.2-1.4
		s-0.3-0.6-0.5-0.7c-0.2-0.1-0.4-0.2-0.6-0.3c-0.2,0-0.4,0-0.5,0c-0.2,0-0.3,0-0.5,0c-0.2,0-0.4,0.1-0.6,0.3
		c-0.2,0.1-0.3,0.4-0.5,0.7c-0.1,0.3-0.2,0.8-0.2,1.4V83.7z"/>
	<path fill="#FFAE5F" d="M186.8,88.2V72.5h0.7v15.7H186.8z M188.1,88.2V72.5h0.8v15.7H188.1z"/>
	<path fill="#FFAE5F" d="M191.7,88.2V72.5h0.8v15h6.1v0.8H191.7z M193,86.9V72.5h0.7v13.7h4.8v0.7H193z"/>
</g>
<g>
	<path fill="#FFAE5F" d="M166.9,97.4L166.9,97.4l0-6.2h0.5v9.7h-0.5L166.9,97.4L166.9,97.4z M167.7,97v-5.8h0.5v4.2l2.7-4.2h0.5
		L167.7,97z M167.7,100.9v-3.3l1-1.6l2.7,4.9h-0.5l-2.2-4l-0.5,0.8v3.2H167.7z M168.9,95.8l2.9-4.5h0.6l-2.9,4.5l2.9,5.1h-0.5
		L168.9,95.8z"/>
	<path fill="#FFAE5F" d="M172.9,100.9v-9.7h4v0.5h-3.5V96v0.3v4.2h3.5v0.5H172.9z M173.7,96V92h3.2v0.5h-2.8v3h2.8V96H173.7z
		 M173.7,100.2v-3.9h3.2v0.5h-2.8v3h2.8v0.5H173.7z"/>
	<path fill="#FFAE5F" d="M177.6,91.7v-0.5h5.5v0.5h-2.6h-0.3H177.6z M177.6,92.5V92h2.6v8.9h-0.5v-8.4H177.6z M180.5,100.9v-0.5V92
		h2.6v0.5H181v8.4H180.5z"/>
	<path fill="#FFAE5F" d="M183.7,91.7v-0.5h5.5v0.5h-2.6h-0.3H183.7z M183.7,92.5V92h2.6v8.9h-0.5v-8.4H183.7z M186.6,100.9v-0.5V92
		h2.6v0.5H187v8.4H186.6z"/>
	<path fill="#FFAE5F" d="M189.9,100.9v-9.7h0.5v9.2h3.7v0.5H189.9z M190.6,100.2v-8.9h0.5v8.4h3v0.5H190.6z"/>
	<path fill="#FFAE5F" d="M194.5,100.9v-9.7h4v0.5H195V96v0.3v4.2h3.5v0.5H194.5z M195.3,96V92h3.2v0.5h-2.8v3h2.8V96H195.3z
		 M195.3,100.2v-3.9h3.2v0.5h-2.8v3h2.8v0.5H195.3z"/>
</g>
<g>
	<path fill="#FFAE5F" d="M255.8,46.5h11.2v4.6h-0.5V47h-4.9h-0.3h-5.4V46.5z M255.8,47.4h5.4v3.7h-0.5v-3.2h-4.9V47.4z M261.5,47.4
		h4.5v3.7h-0.5v-3.2h-3.4v3.2h-0.5V47.4z"/>
	<path fill="#FFAE5F" d="M255.8,52.1h11.2v4.6h-0.5v-4.1h-4.9h-0.3h-4.9v4.1h-0.5V52.1z M256.7,53h4.5v3.7h-0.5v-3.2h-3.4v3.2h-0.5
		V53z M261.5,53h4.5v3.7h-0.5v-3.2h-3.4v3.2h-0.5V53z"/>
	<path fill="#FFAE5F" d="M266.4,57.7h0.5v2.3c0,1-0.3,1.7-0.8,2.2c-0.5,0.4-1.3,0.7-2.3,0.7c-1,0-1.8-0.2-2.3-0.7c0,0,0,0-0.1-0.1
		c0,0-0.1-0.1-0.1-0.1c-0.3,0.3-0.6,0.5-0.9,0.6s-0.8,0.2-1.2,0.2h-3.3v-0.5h3.3c0.8,0,1.3-0.2,1.8-0.7c0.2-0.2,0.3-0.4,0.4-0.6
		c0.3,0.8,1.2,1.3,2.5,1.3c0.9,0,1.6-0.2,2-0.5c0.4-0.4,0.7-1,0.7-1.8v-1.6v-0.2V57.7z M255.8,57.7H266v0.5h-10.3V57.7z M255.8,58.6
		h5.3v1.2v0.2c0,0.6-0.2,1.1-0.5,1.5c-0.3,0.3-0.8,0.5-1.5,0.5h-3.3v-0.5h3.3c1,0,1.5-0.5,1.5-1.4v-0.7v-0.2h-4.8V58.6z M261.4,58.6
		h4.6v1.4c0,0.7-0.2,1.2-0.5,1.5c-0.4,0.3-1,0.5-1.8,0.5c-0.8,0-1.4-0.2-1.8-0.5c-0.4-0.3-0.5-0.8-0.5-1.5v-0.2V58.6z M262,59.2v0.2
		v0.7c0,0.4,0,0.7,0.1,0.8c0.1,0.1,0.2,0.2,0.2,0.3c0.3,0.2,0.8,0.3,1.4,0.3c0.4,0,0.7,0,0.9-0.1c0.2-0.1,0.4-0.2,0.5-0.3
		s0.2-0.3,0.3-0.4c0-0.2,0.1-0.4,0.1-0.6v-0.9H262z"/>
	<path fill="#FFAE5F" d="M255.8,64.1H267v0.2v0.4v0.2v0.3v0.2l-7.9,2.3l7.9,2.2V70v0.4v0.2v0.2v0.3h-11.2v-0.5h10.6v-0.3l-9.3-2.7
		l9.3-2.7v-0.3h-10.6V64.1z M255.8,65h9.2l-9.1,2.6l9.1,2.6h-9.2v-0.5h5.4l-5.4-1.5V67l5.4-1.5h-5.4V65z"/>
	<path fill="#FFAE5F" d="M255.8,72.2h11.2v4.6h-0.5v-4.1h-4.9h-0.3h-4.9v4.1h-0.5V72.2z M256.7,73.1h4.5v3.7h-0.5v-3.2h-3.4v3.2
		h-0.5V73.1z M261.5,73.1h4.5v3.7h-0.5v-3.2h-3.4v3.2h-0.5V73.1z"/>
	<path fill="#FFAE5F" d="M255.8,77.9H267V78v0.4v0.1v0.4v0.2l-6.8,2.7h6.8v0.5h-9.5l9-3.6v-0.3h-10.6V77.9z M255.8,78.8h9.6l-9,3.6
		v0.3H267v0.5h-11.2v-0.2v-0.4v-0.1v-0.4V82l6.8-2.7h-6.8V78.8z"/>
	<path fill="#FFAE5F" d="M265.5,84.2h0.5v3h-10.3v-0.5h9.7V84.2z M255.8,87.5h0.5h9.8v3h-0.5V88h-9.7V87.5z M266.4,84.2h0.5v6.3
		h-0.5v-3v-0.3V84.2z"/>
	<path fill="#FFAE5F" d="M255.8,91.3h11.2v4.6h-0.5v-4.1h-4.9h-0.3h-4.9v4.1h-0.5V91.3z M256.7,92.2h4.5v3.7h-0.5v-3.2h-3.4v3.2
		h-0.5V92.2z M261.5,92.2h4.5v3.7h-0.5v-3.2h-3.4v3.2h-0.5V92.2z"/>
	<path fill="#FFAE5F" d="M266.4,96.9h0.5v2.3c0,1-0.3,1.7-0.8,2.2c-0.5,0.4-1.3,0.7-2.3,0.7c-1,0-1.8-0.2-2.3-0.7c0,0,0,0-0.1-0.1
		c0,0-0.1-0.1-0.1-0.1c-0.3,0.3-0.6,0.5-0.9,0.6s-0.8,0.2-1.2,0.2h-3.3v-0.5h3.3c0.8,0,1.3-0.2,1.8-0.7c0.2-0.2,0.3-0.4,0.4-0.6
		c0.3,0.8,1.2,1.3,2.5,1.3c0.9,0,1.6-0.2,2-0.5c0.4-0.4,0.7-1,0.7-1.8v-1.6v-0.2V96.9z M255.8,96.9H266v0.5h-10.3V96.9z M255.8,97.8
		h5.3v1.2v0.2c0,0.6-0.2,1.1-0.5,1.5c-0.3,0.3-0.8,0.5-1.5,0.5h-3.3v-0.5h3.3c1,0,1.5-0.5,1.5-1.4v-0.7v-0.2h-4.8V97.8z M261.4,97.8
		h4.6v1.4c0,0.7-0.2,1.2-0.5,1.5c-0.4,0.3-1,0.5-1.8,0.5c-0.8,0-1.4-0.2-1.8-0.5c-0.4-0.3-0.5-0.8-0.5-1.5v-0.2V97.8z M262,98.4v0.2
		v0.7c0,0.4,0,0.7,0.1,0.8c0.1,0.1,0.2,0.2,0.2,0.3c0.3,0.2,0.8,0.3,1.4,0.3c0.4,0,0.7,0,0.9-0.1c0.2-0.1,0.4-0.2,0.5-0.3
		s0.2-0.3,0.3-0.4c0-0.2,0.1-0.4,0.1-0.6v-0.9H262z"/>
</g>
<g>
	<path fill="#FFAE5F" d="M294.1,53L294.1,53l0-5h0.4v7.9h-0.4L294.1,53L294.1,53z M294.7,52.7V48h0.4v3.4l2.2-3.4h0.4L294.7,52.7z
		 M294.7,55.9v-2.7l0.8-1.3l2.2,4h-0.4l-1.8-3.2l-0.4,0.7v2.6H294.7z M295.7,51.7L298,48h0.5l-2.4,3.7l2.3,4.2H298L295.7,51.7z"/>
	<path fill="#FFAE5F" d="M299.5,55.9V48h3.3v0.4h-2.9v3.4v0.2v3.4h2.9v0.4H299.5z M300.1,51.8v-3.2h2.6V49h-2.2v2.4h2.2v0.4H300.1z
		 M300.1,55.3v-3.2h2.6v0.4h-2.2v2.4h2.2v0.4H300.1z"/>
	<path fill="#FFAE5F" d="M304,53.6v-3.4c0-0.7,0.2-1.2,0.5-1.6c0.3-0.4,0.8-0.6,1.4-0.6c0.6,0,1.1,0.2,1.4,0.6
		c0.3,0.4,0.5,0.9,0.5,1.6v0.5h-0.4v-0.5c0-0.6-0.1-1.1-0.4-1.4s-0.6-0.5-1.1-0.5c-0.5,0-0.9,0.2-1.1,0.5s-0.4,0.8-0.4,1.4v3.4
		c0,0.6,0.1,1.1,0.4,1.4c0.3,0.3,0.6,0.5,1.1,0.5c0.5,0,0.9-0.2,1.1-0.5c0.2-0.3,0.4-0.8,0.4-1.4v-1.2h-1.9V52h2.2v1.6
		c0,0.7-0.2,1.2-0.5,1.6c-0.1,0.1-0.3,0.3-0.5,0.4c-0.2,0.1-0.5,0.2-0.9,0.2c-0.4,0-0.7-0.1-0.9-0.2c-0.2-0.1-0.4-0.3-0.5-0.4
		C304.1,54.9,304,54.4,304,53.6z M304.6,53.6v-3.4c0-0.6,0.1-1,0.3-1.2c0.2-0.3,0.5-0.4,0.9-0.4s0.7,0.1,0.9,0.4
		c0.2,0.3,0.3,0.7,0.3,1.2v0.5h-0.4v-0.5c0-0.3,0-0.5-0.1-0.7s-0.1-0.3-0.2-0.4c-0.1-0.1-0.2-0.1-0.3-0.2c-0.1,0-0.2,0-0.3,0
		c-0.1,0-0.2,0-0.3,0c-0.1,0-0.2,0.1-0.3,0.2c-0.1,0.1-0.1,0.2-0.2,0.4c0,0.2-0.1,0.4-0.1,0.7v3.4c0,0.3,0,0.6,0.1,0.7
		c0.1,0.2,0.1,0.3,0.2,0.4s0.2,0.1,0.3,0.1s0.2,0,0.3,0s0.2,0,0.3,0c0.1,0,0.2-0.1,0.3-0.1c0.1-0.1,0.2-0.2,0.2-0.4
		c0.1-0.2,0.1-0.4,0.1-0.7v-0.6h-1.2v-0.4h1.6v1c0,0.6-0.1,1-0.3,1.2c-0.2,0.3-0.5,0.4-0.9,0.4c-0.4,0-0.7-0.1-0.9-0.4
		C304.7,54.6,304.6,54.2,304.6,53.6z"/>
</g>
<g>
	<defs>
		<rect id="SVGID_55_" width="432" height="144"/>
	</defs>
	<clipPath id="SVGID_56_">
		<use xlink:href="#SVGID_55_"  overflow="visible"/>
	</clipPath>
	<polygon clip-path="url(#SVGID_56_)" fill="#FFFFFF" points="55.5,63.2 54.3,63.2 54.3,42.8 63.9,33.2 84.2,33.2 84.2,43.9 
		82.9,43.9 82.9,34.4 64.4,34.4 55.5,43.3 	"/>
	<path clip-path="url(#SVGID_56_)" fill="#FFFFFF" d="M83.3,48.9c-1.7,0-3-1.3-3-3c0-1.7,1.3-3,3-3c1.7,0,3,1.3,3,3
		C86.3,47.6,85,48.9,83.3,48.9 M83.3,44.1c-1,0-1.8,0.8-1.8,1.8c0,1,0.8,1.8,1.8,1.8c1,0,1.8-0.8,1.8-1.8
		C85.1,44.9,84.3,44.1,83.3,44.1"/>
	<rect x="82.7" y="48.3" clip-path="url(#SVGID_56_)" fill="#FFFFFF" width="1.2" height="4.3"/>
	<polygon clip-path="url(#SVGID_56_)" fill="#FFFFFF" points="85.5,52.2 83.3,56 81.1,52.2 	"/>
	<path clip-path="url(#SVGID_56_)" fill="#FFFFFF" d="M91.5,48.9c-1.7,0-3-1.3-3-3c0-1.7,1.3-3,3-3c1.7,0,3,1.3,3,3
		C94.5,47.6,93.2,48.9,91.5,48.9 M91.5,44.1c-1,0-1.8,0.8-1.8,1.8c0,1,0.8,1.8,1.8,1.8c1,0,1.8-0.8,1.8-1.8
		C93.3,44.9,92.5,44.1,91.5,44.1"/>
	<rect x="90.9" y="48.3" clip-path="url(#SVGID_56_)" fill="#FFFFFF" width="1.2" height="4.3"/>
	<polygon clip-path="url(#SVGID_56_)" fill="#FFFFFF" points="93.7,52.2 91.5,56 89.3,52.2 	"/>
	<path clip-path="url(#SVGID_56_)" fill="#FFFFFF" d="M115.5,40.3c0.6,4.9-2.8,9-7.7,9c-4.9,0-8.3-4-7.7-9
		c0.6-5.5,7.7-12.4,7.7-15.5C107.7,27.9,114.8,35.2,115.5,40.3"/>
</g>
<g>
	<path fill="#A09F9F" d="M104.3,42.7v-4.5h0.6v2h0.9v-2h0.6v4.5h-0.6v-2h-0.9v2H104.3z"/>
	<path fill="#A09F9F" d="M106.9,42.7v-0.3c0-0.2,0-0.4,0.1-0.5c0-0.2,0.1-0.3,0.1-0.4s0.1-0.3,0.2-0.4l0.3-0.5l0.2-0.3L108,40
		c0-0.1,0.1-0.1,0.1-0.2c0-0.1,0.1-0.1,0.1-0.2s0-0.2,0-0.3c0,0,0-0.1,0-0.2c0-0.1,0-0.1-0.1-0.2c0-0.1-0.1-0.1-0.1-0.2
		c-0.1,0-0.1-0.1-0.2-0.1c0,0-0.1,0-0.1,0c0,0-0.1,0-0.1,0.1c0,0-0.1,0.1-0.1,0.2c0,0.1,0,0.2,0,0.4v0.3h-0.6v-0.3
		c0-0.4,0.1-0.7,0.2-0.9c0.1-0.1,0.1-0.2,0.3-0.2c0.1-0.1,0.3-0.1,0.5-0.1c0.1,0,0.3,0,0.4,0.1s0.2,0.1,0.3,0.2s0.1,0.2,0.2,0.4
		c0,0.1,0.1,0.3,0.1,0.5h0v0h0c0,0.1,0,0.3,0,0.4c0,0.1-0.1,0.2-0.1,0.3s-0.1,0.2-0.2,0.3l-0.2,0.2l-0.1,0.2c0,0.1-0.1,0.1-0.1,0.2
		l-0.2,0.4c-0.1,0.1-0.1,0.2-0.2,0.3c0,0.1-0.1,0.2-0.1,0.3c0,0.1-0.1,0.2-0.1,0.3h0.4h0.7h0.3v0.6h-0.3h-0.7H106.9z"/>
	<path fill="#A09F9F" d="M109.1,41.4v-1.9c0-0.4,0.1-0.7,0.2-0.9c0.2-0.3,0.4-0.4,0.7-0.4c0.3,0,0.6,0.1,0.7,0.4
		c0.1,0.2,0.2,0.5,0.2,0.9v1.9c0,0.4-0.1,0.7-0.2,0.9c-0.2,0.3-0.4,0.4-0.7,0.4c-0.3,0-0.6-0.1-0.7-0.4
		C109.1,42.1,109.1,41.8,109.1,41.4z M109.7,41.4c0,0.2,0,0.3,0,0.4c0,0.1,0.1,0.2,0.1,0.2s0.1,0.1,0.1,0.1c0,0,0.1,0,0.1,0
		c0,0,0.1,0,0.1,0c0,0,0.1,0,0.1-0.1s0.1-0.1,0.1-0.2c0-0.1,0-0.2,0-0.4v-1.9c0-0.2,0-0.3,0-0.4c0-0.1-0.1-0.2-0.1-0.2
		c0,0-0.1-0.1-0.1-0.1c0,0-0.1,0-0.1,0c0,0-0.1,0-0.1,0c0,0-0.1,0-0.1,0.1c0,0-0.1,0.1-0.1,0.2c0,0.1,0,0.2,0,0.4V41.4z"/>
</g>
<g>
	<defs>
		<rect id="SVGID_57_" width="432" height="144"/>
	</defs>
	<clipPath id="SVGID_58_">
		<use xlink:href="#SVGID_57_"  overflow="visible"/>
	</clipPath>
	<polygon clip-path="url(#SVGID_58_)" fill="#FFFFFF" points="92.1,43.5 90.9,43.5 90.9,40 94.9,36.1 105.5,36.1 105.5,37.3 
		95.4,37.3 92.1,40.6 	"/>
	<path clip-path="url(#SVGID_58_)" fill="#FFFFFF" d="M28.2,38.5L28.2,38.5l1.8-0.6l0.1,0c0,0,0.3,0.8,0.4,1.4
		c0.1,0.5-0.1,0.5,0.2,1.1c0.2,0.6,0.5,1.2,0.5,1.2s0,0.3-0.7,0.5c-0.6,0.2-0.8,0-0.8,0s-0.2-0.6-0.3-1.2c-0.2-0.6-0.3-0.5-0.5-1
		c0,0-0.1-0.1-0.1-0.2C28.4,39.2,28.2,38.5,28.2,38.5"/>
	<path clip-path="url(#SVGID_58_)" fill="#FFFFFF" d="M29.1,41l0.4,1.3l1.2,0.5l0.7-1.2l-0.4-1.3l0.7-0.2l0.6,1.7l-0.7,1.3
		c0.5,1.6,1.6,2.1,2.4,2.3c0.1-0.6,0.8-1.1,1.5-1.1H36c0.1-0.9,0.3-1.7,0.6-2.4l-0.5-2.3c-0.2,0-0.4-0.2-0.4-0.5
		c0-0.3,0.2-0.5,0.5-0.5c0.3,0,0.5,0.2,0.5,0.5c0,0.1,0,0.2-0.1,0.3l0.7,1.6c0.5-0.5,1.1-0.7,1.6-0.7c0.4,0,1,0.2,1.4,0.5l0.7-1.5
		c-0.1-0.1-0.1-0.2-0.1-0.3c0-0.3,0.2-0.5,0.5-0.5c0.3,0,0.5,0.2,0.5,0.5c0,0.2-0.2,0.4-0.4,0.5l-0.4,2.1c0.5,0.7,0.8,1.7,0.8,2.7
		h0.3c0.7,0,1.3,0.5,1.5,1.1l0,0.1c2.5,1.3,2.6,4.6,2.6,4.6l1.1,1l0,1.8l-0.7,0l0-1.4l-1-0.9l-1,0.9l0,1.4l-0.7,0l0-1.8l1.1-1
		c0-1.7-0.9-2.6-1.5-3l-0.2,1.3l-0.5,2.5c-0.2,0.6-0.4,1-1,1.3l-0.1,0l0.9,5.4c1.1,0.5,1.1,1.8,1.1,1.8h-4c0,0,0-1.3,1-1.8l-0.8-5.3
		l0,0h-1.3l-0.4,0l-0.8,5.3c1,0.5,1,1.8,1,1.8h-4c0,0,0-1.4,1.2-1.9l0.8-5.3c-0.6-0.2-0.9-0.7-1.1-1.3l-1-3.9
		c-2.8-0.5-3.9-3.5-3.9-3.5L29,42.9l-0.6-1.7L29.1,41z"/>
	<path clip-path="url(#SVGID_58_)" fill="#FFFFFF" d="M350.1,11.1l-2.4-7l-1.5,0.5c-0.1-1.2-0.3-1.9-0.3-1.9h-7.6
		c0,0-0.2,0.7-0.3,1.9l-1.5-0.5l-2.4,7c-0.1,0.3-0.1,0.6,0.1,0.9l4.3,7.6l-0.3,1.3l1.7,1.9v18.1l-1.7,1.9l1,4.3h1.7v2.4
		c-1.1,0.5-1.9,1.6-1.9,2.9c0,1.3,0.8,2.4,1.9,2.9V58h2.5v-2.7c1.1-0.5,1.9-1.6,1.9-2.9c0-1.3-0.8-2.4-1.9-2.9v-2.4h1.7l1-4.3
		l-1.7-1.9V22.8l1.7-1.9l-0.3-1.3l4.3-7.7C350.2,11.7,350.2,11.4,350.1,11.1 M343.9,52.4c0,1-0.8,1.8-1.8,1.8c-1,0-1.8-0.8-1.8-1.8
		c0-1,0.8-1.8,1.8-1.8C343.1,50.6,343.9,51.4,343.9,52.4 M337.9,6.4c0,0.7,0,1.5,0.1,2.4c0.5,4.5,0.9,6.8,1.1,7.6l-2.9-5.1
		L337.9,6.4z M345.2,16.2c0.2-1.2,0.7-4.2,1-7.4c0.1-0.9,0.1-1.7,0.1-2.4l1.7,4.9L345.2,16.2z"/>
	<path clip-path="url(#SVGID_58_)" fill="#FFAE5F" d="M338.8,5.5L338.8,5.5l0.6-0.2l0,0c0,0,0.1,0.3,0.1,0.5c0,0.2,0,0.2,0.1,0.4
		c0.1,0.2,0.2,0.4,0.2,0.4s0,0.1-0.2,0.2c-0.2,0.1-0.3,0-0.3,0s-0.1-0.2-0.1-0.4c-0.1-0.2-0.1-0.2-0.2-0.3c0,0,0,0,0-0.1
		C338.8,5.7,338.8,5.5,338.8,5.5"/>
	<path clip-path="url(#SVGID_58_)" fill="#FFAE5F" d="M339,6.3l0.1,0.4l0.4,0.2l0.2-0.4l-0.1-0.4l0.2-0.1l0.2,0.6L339.9,7
		c0.2,0.5,0.5,0.7,0.8,0.8c0-0.2,0.3-0.4,0.5-0.4h0.2c0-0.3,0.1-0.6,0.2-0.8l-0.2-0.8c-0.1,0-0.1-0.1-0.1-0.2c0-0.1,0.1-0.2,0.2-0.2
		c0.1,0,0.2,0.1,0.2,0.2c0,0,0,0.1,0,0.1l0.2,0.5c0.2-0.2,0.4-0.2,0.5-0.2c0.1,0,0.3,0.1,0.5,0.2l0.2-0.5c0,0,0-0.1,0-0.1
		c0-0.1,0.1-0.2,0.2-0.2c0.1,0,0.2,0.1,0.2,0.2c0,0.1-0.1,0.1-0.1,0.2l-0.1,0.7c0.2,0.2,0.3,0.6,0.3,0.9h0.1c0.2,0,0.4,0.2,0.5,0.4
		l0,0c0.8,0.4,0.9,1.5,0.9,1.5l0.4,0.3l0,0.6l-0.2,0l0-0.5l-0.3-0.3l-0.3,0.3l0,0.5l-0.2,0l0-0.6l0.4-0.3c0-0.6-0.3-0.9-0.5-1
		l-0.1,0.4l-0.2,0.8c-0.1,0.2-0.1,0.3-0.3,0.4l0,0l0.3,1.8c0.4,0.2,0.4,0.6,0.4,0.6h-1.3c0,0,0-0.4,0.3-0.6l-0.3-1.8h0h-0.5l-0.1,0
		l-0.3,1.8c0.3,0.2,0.3,0.6,0.3,0.6h-1.3c0,0,0-0.5,0.4-0.6l0.3-1.8c-0.2-0.1-0.3-0.2-0.4-0.4l-0.3-1.3c-0.9-0.2-1.3-1.2-1.3-1.2
		L339,7l-0.2-0.6L339,6.3z"/>
</g>
<g>
	<path fill="#FFAE5F" d="M164.1,23.8v-4.8h0.5l1.2,2.9v-2.9h0.6v4.8h-0.5l-1.2-2.9v2.9H164.1z"/>
	<path fill="#FFAE5F" d="M166.9,22.5v-3.6h0.6v3.6c0,0.2,0,0.3,0,0.4s0.1,0.2,0.1,0.2s0.1,0.1,0.2,0.1c0.1,0,0.1,0,0.1,0
		c0,0,0.1,0,0.1,0c0.1,0,0.1,0,0.2-0.1s0.1-0.1,0.1-0.2s0-0.2,0-0.4v-3.6h0.6v3.6c0,0.4-0.1,0.7-0.3,0.9c-0.1,0.1-0.2,0.2-0.3,0.2
		c-0.1,0.1-0.3,0.1-0.5,0.1s-0.4,0-0.5-0.1c-0.1-0.1-0.2-0.2-0.3-0.2C167,23.2,166.9,22.9,166.9,22.5z"/>
	<path fill="#FFAE5F" d="M169.5,22.4v-2.1c0-0.4,0.1-0.8,0.3-1c0.2-0.2,0.5-0.4,0.9-0.4c0.4,0,0.7,0.1,0.9,0.4
		c0.2,0.2,0.3,0.6,0.3,1v0.3h-0.6v-0.3c0-0.2,0-0.3,0-0.4c0-0.1-0.1-0.2-0.1-0.2c-0.1-0.1-0.1-0.1-0.2-0.1c-0.1,0-0.1,0-0.2,0
		c-0.1,0-0.1,0-0.2,0c-0.1,0-0.1,0-0.2,0.1c0,0.1-0.1,0.1-0.1,0.2c0,0.1,0,0.2,0,0.4v2.1c0,0.2,0,0.3,0.1,0.4c0,0.1,0.1,0.2,0.1,0.2
		s0.1,0.1,0.2,0.1c0.1,0,0.1,0,0.2,0c0,0,0.1,0,0.2,0c0.1,0,0.1,0,0.2-0.1c0.1,0,0.1-0.1,0.1-0.2c0-0.1,0.1-0.3,0.1-0.4V22h-0.7
		v-0.6h1.4v1c0,0.4-0.1,0.8-0.3,1c-0.1,0.1-0.2,0.2-0.3,0.3s-0.3,0.1-0.6,0.1c-0.2,0-0.4,0-0.6-0.1s-0.2-0.2-0.3-0.3
		C169.6,23.2,169.5,22.8,169.5,22.4z"/>
	<path fill="#FFAE5F" d="M172.2,22.4v-2.1c0-0.4,0.1-0.8,0.3-1c0.2-0.2,0.5-0.4,0.9-0.4c0.4,0,0.7,0.1,0.9,0.4
		c0.2,0.2,0.3,0.6,0.3,1v0.3h-0.6v-0.3c0-0.2,0-0.3,0-0.4c0-0.1-0.1-0.2-0.1-0.2c-0.1-0.1-0.1-0.1-0.2-0.1c-0.1,0-0.1,0-0.2,0
		c-0.1,0-0.1,0-0.2,0c-0.1,0-0.1,0-0.2,0.1c0,0.1-0.1,0.1-0.1,0.2c0,0.1,0,0.2,0,0.4v2.1c0,0.2,0,0.3,0.1,0.4c0,0.1,0.1,0.2,0.1,0.2
		s0.1,0.1,0.2,0.1c0.1,0,0.1,0,0.2,0c0,0,0.1,0,0.2,0c0.1,0,0.1,0,0.2-0.1c0.1,0,0.1-0.1,0.1-0.2c0-0.1,0.1-0.3,0.1-0.4V22h-0.7
		v-0.6h1.4v1c0,0.4-0.1,0.8-0.3,1c-0.1,0.1-0.2,0.2-0.3,0.3s-0.3,0.1-0.6,0.1c-0.2,0-0.4,0-0.6-0.1s-0.2-0.2-0.3-0.3
		C172.3,23.2,172.2,22.8,172.2,22.4z"/>
	<path fill="#FFAE5F" d="M174.9,23.8v-4.8h2v0.6h-1.4V21h1.4v0.6h-1.4v1.5h1.4v0.6H174.9z"/>
	<path fill="#FFAE5F" d="M177.4,19.5v-0.6h2.7v0.6h-1.1v4.2h-0.6v-4.2H177.4z"/>
</g>
<g>
	<path fill="#FFAE5F" d="M137.8,32.4v-4.8h1c0.4,0,0.7,0.1,0.9,0.4c0.2,0.2,0.3,0.6,0.3,1c0,0.4-0.1,0.8-0.3,1
		c-0.2,0.2-0.5,0.4-0.9,0.4h-0.4v2.1H137.8z M138.4,29.6h0.4c0.2,0,0.3,0,0.3-0.1c0.1,0,0.1-0.1,0.1-0.1c0.1-0.1,0.1-0.3,0.1-0.6
		c0-0.2,0-0.3,0-0.4c0-0.1-0.1-0.2-0.1-0.2c-0.1-0.1-0.1-0.1-0.2-0.1c-0.1,0-0.2,0-0.3,0h-0.4V29.6z"/>
	<path fill="#FFAE5F" d="M140.3,31.1v-3.6h0.6v3.6c0,0.2,0,0.3,0,0.4s0.1,0.2,0.1,0.2s0.1,0.1,0.2,0.1c0.1,0,0.1,0,0.1,0
		c0,0,0.1,0,0.1,0c0.1,0,0.1,0,0.2-0.1s0.1-0.1,0.1-0.2s0-0.2,0-0.4v-3.6h0.6v3.6c0,0.4-0.1,0.7-0.3,0.9c-0.1,0.1-0.2,0.2-0.3,0.2
		c-0.1,0.1-0.3,0.1-0.5,0.1s-0.4,0-0.5-0.1c-0.1-0.1-0.2-0.2-0.3-0.2C140.4,31.8,140.3,31.5,140.3,31.1z"/>
	<path fill="#FFAE5F" d="M143,32.4v-4.8h0.5l1,3.4l1-3.4h0.5v4.8h-0.6v-2.3l-0.7,2.3h-0.5l-0.7-2.3v2.3H143z"/>
	<path fill="#FFAE5F" d="M146.5,32.4v-4.8h1c0.4,0,0.7,0.1,0.9,0.4c0.2,0.2,0.3,0.6,0.3,1c0,0.4-0.1,0.8-0.3,1
		c-0.2,0.2-0.5,0.4-0.9,0.4h-0.4v2.1H146.5z M147.1,29.6h0.4c0.2,0,0.3,0,0.3-0.1c0.1,0,0.1-0.1,0.1-0.1c0.1-0.1,0.1-0.3,0.1-0.6
		c0-0.2,0-0.3,0-0.4c0-0.1-0.1-0.2-0.1-0.2c-0.1-0.1-0.1-0.1-0.2-0.1c-0.1,0-0.2,0-0.3,0h-0.4V29.6z"/>
	<path fill="#FFAE5F" d="M149,30.6L149,30.6l0-3.1h0.6v2.1l1.4-2.1h0.7l-1.5,2.3l1.4,2.6H151l-1.1-2l-0.3,0.4v1.6H149L149,30.6
		L149,30.6z"/>
	<path fill="#FFAE5F" d="M152.1,32.4v-4.8h0.6v4.8H152.1z"/>
	<path fill="#FFAE5F" d="M153.3,32.4v-4.8h0.5l1.2,2.9v-2.9h0.6v4.8h-0.5l-1.2-2.9v2.9H153.3z"/>
	<path fill="#FFAE5F" d="M158.1,32.4v-4.8h1c0.4,0,0.7,0.1,0.9,0.4c0.2,0.2,0.3,0.6,0.3,1c0,0.4-0.1,0.8-0.3,1
		c-0.2,0.2-0.5,0.4-0.9,0.4h-0.4v2.1H158.1z M158.7,29.6h0.4c0.2,0,0.3,0,0.3-0.1c0.1,0,0.1-0.1,0.1-0.1c0.1-0.1,0.1-0.3,0.1-0.6
		c0-0.2,0-0.3,0-0.4c0-0.1-0.1-0.2-0.1-0.2c-0.1-0.1-0.1-0.1-0.2-0.1c-0.1,0-0.2,0-0.3,0h-0.4V29.6z"/>
	<path fill="#FFAE5F" d="M160.8,32.4v-4.8h0.6v4.8H160.8z"/>
	<path fill="#FFAE5F" d="M161.9,32.4v-4.8h2v0.6h-1.4v1.5h1.4v0.6h-1.4v1.5h1.4v0.6H161.9z"/>
	<path fill="#FFAE5F" d="M166.4,31v-0.3h0.6V31c0,0.3,0.1,0.5,0.2,0.6c0,0,0.1,0.1,0.1,0.1s0.1,0,0.3,0c0.1,0,0.2,0,0.3-0.1
		c0.1-0.1,0.1-0.1,0.2-0.2c0-0.1,0.1-0.2,0.1-0.2s0-0.2,0-0.2c0-0.1,0-0.2-0.1-0.3s-0.1-0.1-0.1-0.2c-0.1-0.1-0.1-0.1-0.2-0.1
		c-0.1,0-0.1-0.1-0.2-0.1l-0.1-0.1c-0.1,0-0.2-0.1-0.3-0.1c-0.1-0.1-0.2-0.1-0.3-0.2c-0.3-0.3-0.4-0.6-0.4-1c0-0.2,0-0.4,0.1-0.6
		c0.1-0.2,0.1-0.3,0.2-0.4c0.1-0.1,0.2-0.2,0.4-0.3c0.1-0.1,0.3-0.1,0.5-0.1c0.2,0,0.4,0,0.6,0.1c0.1,0.1,0.2,0.2,0.3,0.3
		c0.2,0.2,0.3,0.6,0.3,1v0.3h-0.6v-0.3c0-0.2,0-0.3-0.1-0.4s-0.1-0.2-0.1-0.2c-0.1,0-0.1-0.1-0.2-0.1c-0.1,0-0.1,0-0.2,0
		c-0.1,0-0.2,0-0.3,0.1c-0.1,0.1-0.1,0.1-0.2,0.2c0,0.1-0.1,0.2-0.1,0.3c0,0.1,0,0.2,0,0.2c0,0.1,0,0.2,0.1,0.3
		c0,0.1,0.1,0.2,0.1,0.2c0.1,0.1,0.1,0.1,0.2,0.2c0.1,0,0.1,0.1,0.2,0.1l0.1,0c0.1,0,0.1,0.1,0.3,0.1s0.2,0.1,0.3,0.2
		c0.3,0.2,0.4,0.6,0.4,1c0,0.4-0.1,0.7-0.3,0.9c-0.2,0.3-0.5,0.4-0.9,0.4c-0.4,0-0.7-0.1-0.9-0.4C166.5,31.8,166.4,31.4,166.4,31z"
		/>
	<path fill="#FFAE5F" d="M169,32.4v-4.8h1c0.4,0,0.7,0.1,0.9,0.4c0.2,0.2,0.3,0.6,0.3,1c0,0.4-0.1,0.8-0.3,1
		c-0.2,0.2-0.5,0.4-0.9,0.4h-0.4v2.1H169z M169.6,29.6h0.4c0.2,0,0.3,0,0.3-0.1c0.1,0,0.1-0.1,0.1-0.1c0.1-0.1,0.1-0.3,0.1-0.6
		c0-0.2,0-0.3,0-0.4c0-0.1-0.1-0.2-0.1-0.2c-0.1-0.1-0.1-0.1-0.2-0.1c-0.1,0-0.2,0-0.3,0h-0.4V29.6z"/>
	<path fill="#FFAE5F" d="M171.7,32.4v-4.8h0.6v4.8H171.7z"/>
	<path fill="#FFAE5F" d="M172.8,31v-2.1c0-0.4,0.1-0.8,0.3-1c0.1-0.1,0.2-0.2,0.3-0.3c0.1-0.1,0.3-0.1,0.6-0.1c0.2,0,0.4,0,0.6,0.1
		c0.1,0.1,0.2,0.2,0.3,0.3c0.2,0.2,0.3,0.6,0.3,1v0.3h-0.6v-0.3c0-0.2,0-0.3-0.1-0.4c0-0.1-0.1-0.2-0.1-0.2c-0.1,0-0.1-0.1-0.2-0.1
		c-0.1,0-0.1,0-0.2,0c0,0-0.1,0-0.2,0c-0.1,0-0.1,0-0.2,0.1s-0.1,0.1-0.1,0.2c0,0.1-0.1,0.3-0.1,0.4V31c0,0.3,0.1,0.5,0.2,0.6
		c0,0,0.1,0.1,0.1,0.1c0.1,0,0.1,0.1,0.3,0.1c0.1,0,0.2,0,0.3-0.1s0.1-0.1,0.1-0.1c0.1-0.1,0.1-0.3,0.1-0.6v-0.3h0.6V31
		c0,0.4-0.1,0.8-0.3,1c-0.1,0.1-0.2,0.2-0.3,0.3s-0.3,0.1-0.6,0.1c-0.1,0-0.2,0-0.3,0c-0.1,0-0.2-0.1-0.2-0.1
		c-0.1,0-0.1-0.1-0.2-0.1s-0.1-0.1-0.1-0.1C172.9,31.8,172.8,31.4,172.8,31z"/>
	<path fill="#FFAE5F" d="M175.4,32.4v-4.8h2v0.6H176v1.5h1.4v0.6H176v1.5h1.4v0.6H175.4z"/>
	<path fill="#FFAE5F" d="M177.8,31v-0.3h0.6V31c0,0.3,0.1,0.5,0.2,0.6c0,0,0.1,0.1,0.1,0.1s0.1,0,0.3,0c0.1,0,0.2,0,0.3-0.1
		c0.1-0.1,0.1-0.1,0.2-0.2c0-0.1,0.1-0.2,0.1-0.2s0-0.2,0-0.2c0-0.1,0-0.2-0.1-0.3s-0.1-0.1-0.1-0.2c-0.1-0.1-0.1-0.1-0.2-0.1
		c-0.1,0-0.1-0.1-0.2-0.1l-0.1-0.1c-0.1,0-0.2-0.1-0.3-0.1c-0.1-0.1-0.2-0.1-0.3-0.2c-0.3-0.3-0.4-0.6-0.4-1c0-0.2,0-0.4,0.1-0.6
		c0.1-0.2,0.1-0.3,0.2-0.4c0.1-0.1,0.2-0.2,0.4-0.3c0.1-0.1,0.3-0.1,0.5-0.1c0.2,0,0.4,0,0.6,0.1c0.1,0.1,0.2,0.2,0.3,0.3
		c0.2,0.2,0.3,0.6,0.3,1v0.3h-0.6v-0.3c0-0.2,0-0.3-0.1-0.4s-0.1-0.2-0.1-0.2c-0.1,0-0.1-0.1-0.2-0.1c-0.1,0-0.1,0-0.2,0
		c-0.1,0-0.2,0-0.3,0.1c-0.1,0.1-0.1,0.1-0.2,0.2c0,0.1-0.1,0.2-0.1,0.3c0,0.1,0,0.2,0,0.2c0,0.1,0,0.2,0.1,0.3
		c0,0.1,0.1,0.2,0.1,0.2c0.1,0.1,0.1,0.1,0.2,0.2c0.1,0,0.1,0.1,0.2,0.1l0.1,0c0.1,0,0.1,0.1,0.3,0.1s0.2,0.1,0.3,0.2
		c0.3,0.2,0.4,0.6,0.4,1c0,0.4-0.1,0.7-0.3,0.9c-0.2,0.3-0.5,0.4-0.9,0.4c-0.4,0-0.7-0.1-0.9-0.4C177.9,31.8,177.8,31.4,177.8,31z"
		/>
</g>
<g>
	<defs>
		<rect id="SVGID_59_" width="432" height="144"/>
	</defs>
	<clipPath id="SVGID_60_">
		<use xlink:href="#SVGID_59_"  overflow="visible"/>
	</clipPath>
	<path clip-path="url(#SVGID_60_)" fill="#FFFFFF" d="M178.3,52.9c-1.7,0-3-1.3-3-3c0-1.7,1.3-3,3-3c1.7,0,3,1.3,3,3
		C181.3,51.5,180,52.9,178.3,52.9 M178.3,48.1c-1,0-1.8,0.8-1.8,1.8c0,1,0.8,1.8,1.8,1.8c1,0,1.8-0.8,1.8-1.8
		C180.1,48.9,179.3,48.1,178.3,48.1"/>
	<rect x="177.7" y="52.3" clip-path="url(#SVGID_60_)" fill="#FFFFFF" width="1.2" height="4.3"/>
	<polygon clip-path="url(#SVGID_60_)" fill="#FFFFFF" points="180.5,56.2 178.3,60 176.1,56.2 	"/>
	<path clip-path="url(#SVGID_60_)" fill="#FFFFFF" d="M186.5,52.9c-1.7,0-3-1.3-3-3c0-1.7,1.3-3,3-3c1.7,0,3,1.3,3,3
		C189.5,51.5,188.2,52.9,186.5,52.9 M186.5,48.1c-1,0-1.8,0.8-1.8,1.8c0,1,0.8,1.8,1.8,1.8c1,0,1.8-0.8,1.8-1.8
		C188.3,48.9,187.5,48.1,186.5,48.1"/>
	<path clip-path="url(#SVGID_60_)" fill="#FFFFFF" d="M190,29.4c0,1.9-1.6,3.5-3.5,3.5c-1.9,0-3.5-1.6-3.5-3.5
		c0-1.9,1.6-3.5,3.5-3.5C188.5,25.9,190,27.4,190,29.4"/>
	<path clip-path="url(#SVGID_60_)" fill="#FFFFFF" d="M190,20.8c0,1.9-1.6,3.5-3.5,3.5c-1.9,0-3.5-1.6-3.5-3.5
		c0-1.9,1.6-3.5,3.5-3.5C188.5,17.3,190,18.8,190,20.8"/>
	<rect x="185.9" y="52.3" clip-path="url(#SVGID_60_)" fill="#FFFFFF" width="1.2" height="4.3"/>
	<polygon clip-path="url(#SVGID_60_)" fill="#FFFFFF" points="188.7,56.2 186.5,60 184.3,56.2 	"/>
	<rect x="185.9" y="17.3" clip-path="url(#SVGID_60_)" fill="#FFFFFF" width="1.2" height="30.3"/>
</g>
<g>
	<path fill="#A09F9F" d="M184.6,21.8v-0.5v0v-1.1c0-0.4,0.1-0.7,0.2-0.9c0.1-0.1,0.2-0.2,0.3-0.3c0.1-0.1,0.2-0.1,0.4-0.1
		c0.1,0,0.3,0,0.4,0.1c0.1,0,0.2,0.1,0.3,0.2c0.1,0.2,0.2,0.4,0.2,0.7V20h-0.5v-0.2c0-0.2,0-0.3-0.1-0.4c0,0,0,0-0.1-0.1
		s-0.1,0-0.2,0c-0.1,0-0.1,0-0.2,0.1s-0.1,0.1-0.1,0.2c0,0.1,0,0.2,0,0.3c0,0.1,0,0.2,0,0.2v0c0.1-0.1,0.2-0.1,0.3-0.1
		c0.3,0,0.5,0.1,0.6,0.3c0.1,0.2,0.2,0.5,0.2,0.8v0.4c0,0.2,0,0.3-0.1,0.5c0,0.1-0.1,0.3-0.2,0.4c-0.1,0.1-0.2,0.2-0.3,0.2
		c-0.1,0.1-0.2,0.1-0.3,0.1c-0.3,0-0.5-0.1-0.6-0.3C184.7,22.3,184.6,22.1,184.6,21.8z M185.1,21.8c0,0.2,0,0.3,0.1,0.4
		c0,0,0,0,0.1,0.1c0,0,0.1,0,0.2,0c0.1,0,0.1,0,0.2-0.1s0.1-0.1,0.1-0.2s0-0.1,0.1-0.2c0-0.1,0-0.1,0-0.2v-0.4c0-0.1,0-0.3,0-0.3
		s-0.1-0.1-0.1-0.2c0,0-0.1-0.1-0.1-0.1s-0.1,0-0.1,0c-0.1,0-0.1,0-0.2,0.1s-0.1,0.1-0.1,0.2c0,0.1,0,0.1,0,0.2c0,0.1,0,0.1,0,0.1
		V21.8z"/>
	<path fill="#A09F9F" d="M186.6,21.6V20c0-0.3,0.1-0.6,0.2-0.8c0.1-0.2,0.4-0.3,0.6-0.3c0.3,0,0.5,0.1,0.6,0.3
		c0.1,0.2,0.2,0.5,0.2,0.8v1.7c0,0.3-0.1,0.6-0.2,0.8c-0.1,0.2-0.4,0.3-0.6,0.3c-0.3,0-0.5-0.1-0.6-0.3
		C186.6,22.2,186.6,22,186.6,21.6z M187.1,21.6c0,0.2,0,0.3,0,0.4s0.1,0.1,0.1,0.2c0,0,0.1,0.1,0.1,0.1c0,0,0.1,0,0.1,0
		c0,0,0.1,0,0.1,0c0,0,0.1,0,0.1-0.1c0,0,0.1-0.1,0.1-0.2s0-0.2,0-0.4V20c0-0.2,0-0.3,0-0.4s-0.1-0.1-0.1-0.2c0,0-0.1-0.1-0.1-0.1
		c0,0-0.1,0-0.1,0c0,0-0.1,0-0.1,0c0,0-0.1,0-0.1,0.1s-0.1,0.1-0.1,0.2s0,0.2,0,0.4V21.6z"/>
</g>
<g>
	<defs>
		<rect id="SVGID_61_" width="432" height="144"/>
	</defs>
	<clipPath id="SVGID_62_">
		<use xlink:href="#SVGID_61_"  overflow="visible"/>
	</clipPath>
</g>
<g>
	<path fill="#A09F9F" d="M185.7,28.3l0.6-0.9h0.5v3.9h-0.5v-3l-0.2,0.3L185.7,28.3z"/>
</g>
<g>
	<defs>
		<rect id="SVGID_63_" width="432" height="144"/>
	</defs>
	<clipPath id="SVGID_64_">
		<use xlink:href="#SVGID_63_"  overflow="visible"/>
	</clipPath>
	<path clip-path="url(#SVGID_64_)" fill="#FFFFFF" d="M216.1,40.7c0,4.9-4,9-8.9,9c-4.9,0-9-4-9-9c0-4.9,4-8.9,9-8.9
		C212.1,31.8,216.1,35.8,216.1,40.7"/>
	<path clip-path="url(#SVGID_64_)" fill="#A09F9F" d="M208.5,40.7c0,0.8-0.6,1.4-1.4,1.4c-0.8,0-1.4-0.6-1.4-1.4
		c0-0.8,0.6-1.4,1.4-1.4C207.9,39.3,208.5,40,208.5,40.7"/>
</g>
<g>
	<path fill="#A09F9F" d="M201.4,46.1v-3h0.3l0.6,2.1l0.6-2.1h0.3v3h-0.4v-1.4l-0.4,1.4h-0.3l-0.4-1.4v1.4H201.4z"/>
	<path fill="#A09F9F" d="M203.7,46.1v-3h0.4v3H203.7z"/>
	<path fill="#A09F9F" d="M204.4,46.1v-3h0.3l0.7,1.8V43h0.4v3h-0.3l-0.7-1.8v1.8H204.4z"/>
	<path fill="#A09F9F" d="M206.2,45.3V43h0.4v2.2c0,0.1,0,0.2,0,0.2c0,0.1,0,0.1,0.1,0.1c0,0,0.1,0,0.1,0s0.1,0,0.1,0s0.1,0,0.1,0
		c0,0,0.1,0,0.1,0c0,0,0.1-0.1,0.1-0.1c0-0.1,0-0.1,0-0.2V43h0.4v2.2c0,0.3-0.1,0.4-0.2,0.6c0,0.1-0.1,0.1-0.2,0.2
		c-0.1,0-0.2,0.1-0.3,0.1s-0.2,0-0.3-0.1c-0.1,0-0.1-0.1-0.2-0.2C206.2,45.7,206.2,45.5,206.2,45.3z"/>
	<path fill="#A09F9F" d="M207.8,43.4V43h1.7v0.4h-0.7v2.6h-0.4v-2.6H207.8z"/>
	<path fill="#A09F9F" d="M209.7,46.1v-3h1.3v0.4h-0.9v0.9h0.9v0.4h-0.9v0.9h0.9v0.4H209.7z"/>
	<path fill="#A09F9F" d="M211.2,45.2V45h0.4v0.2c0,0.2,0,0.3,0.1,0.4c0,0,0,0,0.1,0.1c0,0,0.1,0,0.2,0c0.1,0,0.1,0,0.2,0
		c0,0,0.1-0.1,0.1-0.1c0,0,0-0.1,0-0.1c0-0.1,0-0.1,0-0.1c0-0.1,0-0.1,0-0.2c0,0-0.1-0.1-0.1-0.1c0,0-0.1-0.1-0.1-0.1
		s-0.1,0-0.1-0.1l-0.1,0c0,0-0.1,0-0.2-0.1c-0.1,0-0.1-0.1-0.2-0.1c-0.2-0.2-0.2-0.4-0.2-0.6c0-0.1,0-0.2,0.1-0.4
		c0-0.1,0.1-0.2,0.1-0.3s0.1-0.1,0.2-0.2c0.1,0,0.2-0.1,0.3-0.1c0.1,0,0.3,0,0.4,0.1c0.1,0.1,0.2,0.1,0.2,0.2
		c0.1,0.2,0.2,0.4,0.2,0.6v0.2h-0.4v-0.2c0-0.1,0-0.2,0-0.3c0-0.1-0.1-0.1-0.1-0.1s-0.1,0-0.1-0.1c0,0-0.1,0-0.1,0
		c-0.1,0-0.1,0-0.2,0.1c0,0-0.1,0.1-0.1,0.1c0,0.1,0,0.1,0,0.2c0,0.1,0,0.1,0,0.1c0,0.1,0,0.1,0,0.2s0.1,0.1,0.1,0.1
		c0,0,0.1,0.1,0.1,0.1c0,0,0.1,0,0.1,0.1l0.1,0c0,0,0.1,0,0.2,0.1c0.1,0,0.1,0.1,0.2,0.1c0.2,0.2,0.3,0.4,0.3,0.6
		c0,0.2-0.1,0.4-0.2,0.6c-0.1,0.2-0.3,0.3-0.6,0.3c-0.2,0-0.4-0.1-0.5-0.2C211.3,45.7,211.2,45.5,211.2,45.2z"/>
</g>
<g>
	<defs>
		<rect id="SVGID_65_" width="432" height="144"/>
	</defs>
	<clipPath id="SVGID_66_">
		<use xlink:href="#SVGID_65_"  overflow="visible"/>
	</clipPath>
	<rect x="206.7" y="34.8" clip-path="url(#SVGID_66_)" fill="#A09F9F" width="0.8" height="4.9"/>
	<polygon clip-path="url(#SVGID_66_)" fill="#A09F9F" points="205.6,36.1 207,33.6 208.4,36.1 	"/>
	<path clip-path="url(#SVGID_66_)" fill="#FFFFFF" d="M343.6,83.9l1.2-0.5c0,0,0.8,2.2,1,4c0.2,1.8,0.2,3,0.2,3s-1.2-3.5-1.6-4.6
		C344,84.6,343.6,83.9,343.6,83.9"/>
	<path clip-path="url(#SVGID_66_)" fill="#FFAE5F" d="M347.9,88C347.9,87.9,347.9,87.9,347.9,88l-10.5-0.1c0.1,0.3,0.2,0.6,0.4,1
		c0,0,0,0,0,0c0.1,0.2,0.2,0.4,0.3,0.6c0,0,0,0,0,0c0.1,0.2,0.2,0.4,0.3,0.6c0.1,0.3,0.3,0.6,0.4,0.8c1.3,2.5,1.9,1.9,2.8,5.1
		c0.9,3.1,1.8,6.4,1.8,6.4s0,0,0,0c0,0,0,0,0,0c0,0,0,0,0,0c0,0,0,0,0,0c0,0,0,0,0,0c0,0,0,0,0,0c0,0,0,0,0,0c0,0,0,0,0,0
		c0,0,0,0,0,0c0,0,0,0,0,0c0,0,0,0,0,0c0,0,0,0,0,0c0,0,0,0,0,0c0,0,0,0,0,0c0,0,0,0,0.1,0c0,0,0,0,0,0c0,0,0.1,0,0.1,0c0,0,0,0,0,0
		c0,0,0,0,0.1,0c0,0,0,0,0,0c0,0,0,0,0.1,0c0,0,0,0,0,0c0,0,0.1,0,0.1,0c0,0,0,0,0,0c0,0,0.1,0,0.1,0c0,0,0,0,0,0c0,0,0.1,0,0.1,0
		c0,0,0,0,0.1,0c0,0,0.1,0,0.1,0c0,0,0,0,0.1,0c0,0,0.1,0,0.1,0c0,0,0,0,0,0c0,0,0,0,0,0c0.1,0,0.1,0,0.2,0c0,0,0,0,0.1,0
		c0.1,0,0.1,0,0.2,0c0,0,0,0,0,0c0.1,0,0.2,0,0.3,0c0,0,0,0,0.1,0c0.1,0,0.2,0,0.3,0c0,0,0,0,0,0c0.1,0,0.2,0,0.3-0.1
		c0,0,0.1,0,0.1,0c0.1,0,0.2-0.1,0.3-0.1c0,0,0,0,0,0c0.1,0,0.2-0.1,0.4-0.1c0,0,0.1,0,0.1,0c0.1,0,0.3-0.1,0.4-0.1
		c3.3-1,3.6-2.5,3.6-2.5s-1.3-3.1-2.5-6.1C347.6,90.7,348.4,90.7,347.9,88"/>
	<path clip-path="url(#SVGID_66_)" fill="#FFFFFF" d="M347,109.9c0,0,5.5,16.2,20.3,18.6l3.9,15.5h42l1.7-8.6l1.1-6.8
		c3.4,2.2,8,6.5,8.1,15.3h6.6c-0.1-2.2-1-17.4-13.4-23.9l0-0.3c-1-3.1-4.1-5.9-7.8-5.9h-1.8c-0.4-5.5-2-10.4-4.3-14.1l2.3-10.8
		c1.1-0.2,2-1.2,2-2.4c0-1.4-1.1-2.5-2.5-2.5c-1.4,0-2.5,1.1-2.5,2.5c0,0.7,0.3,1.2,0.7,1.7l-3.6,7.8c-2.2-1.9-5.4-2.8-7.5-2.8
		c-2.8,0-6.1,1.3-8.5,3.7l-3.8-8.4c0.4-0.4,0.7-1,0.7-1.7c0-1.4-1.1-2.5-2.5-2.5c-1.4,0-2.5,1.1-2.5,2.5c0,1.2,0.8,2.2,2,2.4
		l2.6,12.2c-1.8,3.5-3,7.8-3.4,12.5h-3c-4,0-7.3,2.5-8,5.9c-4-1-9.6-3.8-12.4-12.2l3.6-6.7l-3.1-8.7l-3.5,1.2l2.3,6.7l-3.4,6.1
		l-6.5-2.6l-2.3-6.7l-3.5,1.2l3,8.7L347,109.9z"/>
	<path clip-path="url(#SVGID_66_)" fill="#FFFFFF" d="M345.2,82.2c0.5,1.3,1.3,3.7,1.6,5.5c0,0.1,0.1,0.3,0.1,0.4
		c0.2,1,0.2,1.6,0.2,2.2c0,1,0,1.8,0.8,3.8c0.9,2.3,1.9,4.8,2.3,5.7c-0.3,0.3-0.9,1-2.8,1.5l0,0l0,0c-0.1,0-0.3,0.1-0.4,0.1l-0.1,0
		c-0.1,0-0.2,0.1-0.4,0.1c-0.1,0-0.2,0.1-0.3,0.1l-0.1,0c-0.1,0-0.2,0-0.3,0.1c-0.1,0-0.2,0-0.2,0l-0.1,0c-0.1,0-0.2,0-0.3,0
		c-0.1,0-0.1,0-0.2,0c-0.1,0-0.1,0-0.2,0h0l-0.1,0l-0.1,0l-0.1,0l-0.1,0l-0.1,0l-0.1,0l0,0.1c-0.3-0.9-1-3.5-1.7-6
		c-0.6-2.1-1.1-2.7-1.7-3.5c-0.3-0.4-0.7-0.9-1.2-1.8c-0.1-0.2-0.3-0.5-0.4-0.8c-0.1-0.2-0.2-0.4-0.3-0.6c-0.1-0.2-0.2-0.4-0.3-0.7
		c-0.2-0.4-0.3-0.9-0.5-1.3c-0.3-0.9-0.6-1.7-0.8-2.3L345.2,82.2 M345.8,80.9l-0.4,0.1l-8.8,3l-0.4,0.1c0,0,0.5,1.5,1.1,3.3
		c0,0,0,0,0,0c0.2,0.4,0.3,0.9,0.5,1.3c0,0,0,0,0,0c0.1,0.2,0.2,0.4,0.3,0.6c0,0,0,0,0,0c0.1,0.2,0.2,0.4,0.3,0.6
		c0.1,0.3,0.3,0.6,0.4,0.8c1.3,2.5,1.9,1.9,2.8,5.1c0.9,3.1,1.8,6.4,1.8,6.4s0,0,0,0c0,0,0,0,0,0c0,0,0,0,0,0c0,0,0,0,0,0
		c0,0,0,0,0,0c0,0,0,0,0,0c0,0,0,0,0,0c0,0,0,0,0,0c0,0,0,0,0,0c0,0,0,0,0,0c0,0,0,0,0,0c0,0,0,0,0,0c0,0,0,0,0,0c0,0,0,0,0,0
		c0,0,0,0,0.1,0c0,0,0,0,0,0c0,0,0.1,0,0.1,0c0,0,0,0,0,0c0,0,0,0,0.1,0c0,0,0,0,0,0c0,0,0,0,0.1,0c0,0,0,0,0,0c0,0,0.1,0,0.1,0
		c0,0,0,0,0,0c0,0,0.1,0,0.1,0c0,0,0,0,0,0c0,0,0.1,0,0.1,0c0,0,0,0,0.1,0c0,0,0.1,0,0.1,0c0,0,0,0,0.1,0c0,0,0.1,0,0.1,0
		c0,0,0,0,0,0c0,0,0,0,0,0c0.1,0,0.1,0,0.2,0c0,0,0,0,0.1,0c0.1,0,0.1,0,0.2,0c0,0,0,0,0,0c0.1,0,0.2,0,0.3,0c0,0,0,0,0.1,0
		c0.1,0,0.2,0,0.3,0c0,0,0,0,0,0c0.1,0,0.2,0,0.3-0.1c0,0,0.1,0,0.1,0c0.1,0,0.2-0.1,0.3-0.1c0,0,0,0,0,0c0.1,0,0.2-0.1,0.4-0.1
		c0,0,0.1,0,0.1,0c0.1,0,0.3-0.1,0.4-0.1c3.3-1,3.6-2.5,3.6-2.5s-1.3-3.1-2.5-6.1c-1.2-3-0.4-3-0.9-5.7c0-0.1-0.1-0.3-0.1-0.4
		c0,0,0,0,0,0C347.2,84.7,345.8,80.9,345.8,80.9"/>
</g>
<g>
	<path fill="#FFAE5F" d="M21.5,68.8V64H22l1,3.4l1-3.4h0.5v4.8h-0.6v-2.3l-0.7,2.3h-0.5l-0.7-2.3v2.3H21.5z"/>
	<path fill="#FFAE5F" d="M25,68.8l1.1-4.8h0.5l1.1,4.8h-0.6l-0.3-1.3h-0.8l-0.3,1.3H25z M26.1,66.9h0.6l-0.3-1.2L26.1,66.9z"/>
	<path fill="#FFAE5F" d="M27.9,68.8V64h1c0.4,0,0.7,0.1,0.9,0.4c0.2,0.2,0.3,0.6,0.3,1c0,0.4-0.1,0.8-0.3,1c0,0,0,0,0,0c0,0,0,0,0,0
		c0.1,0.1,0.2,0.2,0.3,0.4c0.1,0.2,0.1,0.3,0.1,0.5v1.4h-0.6v-1.4c0-0.4-0.2-0.6-0.6-0.6h-0.3h-0.1v2.1H27.9z M28.5,66.1L28.5,66.1
		h0.4c0.2,0,0.3,0,0.3-0.1c0.1,0,0.1-0.1,0.1-0.1c0.1-0.1,0.1-0.3,0.1-0.6c0-0.2,0-0.3,0-0.4s-0.1-0.2-0.1-0.2s-0.1-0.1-0.2-0.1
		c-0.1,0-0.2,0-0.3,0h-0.4V66.1z"/>
	<path fill="#FFAE5F" d="M30.8,68.8V64h0.6v4.8H30.8z"/>
	<path fill="#FFAE5F" d="M31.9,67.5v-0.3h0.6v0.3c0,0.3,0.1,0.5,0.2,0.6c0,0,0.1,0.1,0.1,0.1s0.1,0,0.3,0c0.1,0,0.2,0,0.3-0.1
		c0.1-0.1,0.1-0.1,0.2-0.2c0-0.1,0.1-0.2,0.1-0.2s0-0.2,0-0.2c0-0.1,0-0.2-0.1-0.3s-0.1-0.1-0.1-0.2c-0.1-0.1-0.1-0.1-0.2-0.1
		c-0.1,0-0.1-0.1-0.2-0.1l-0.1-0.1c-0.1,0-0.2-0.1-0.3-0.1c-0.1-0.1-0.2-0.1-0.3-0.2c-0.3-0.3-0.4-0.6-0.4-1c0-0.2,0-0.4,0.1-0.6
		c0.1-0.2,0.1-0.3,0.2-0.4c0.1-0.1,0.2-0.2,0.4-0.3c0.1-0.1,0.3-0.1,0.5-0.1c0.2,0,0.4,0,0.6,0.1c0.1,0.1,0.2,0.2,0.3,0.3
		c0.2,0.2,0.3,0.6,0.3,1v0.3h-0.6v-0.3c0-0.2,0-0.3-0.1-0.4s-0.1-0.2-0.1-0.2c-0.1,0-0.1-0.1-0.2-0.1c-0.1,0-0.1,0-0.2,0
		c-0.1,0-0.2,0-0.3,0.1c-0.1,0.1-0.1,0.1-0.2,0.2c0,0.1-0.1,0.2-0.1,0.3c0,0.1,0,0.2,0,0.2c0,0.1,0,0.2,0.1,0.3
		c0,0.1,0.1,0.2,0.1,0.2c0.1,0.1,0.1,0.1,0.2,0.2c0.1,0,0.1,0.1,0.2,0.1l0.1,0c0.1,0,0.1,0.1,0.3,0.1s0.2,0.1,0.3,0.2
		c0.3,0.2,0.4,0.6,0.4,1c0,0.4-0.1,0.7-0.3,0.9c-0.2,0.3-0.5,0.4-0.9,0.4c-0.4,0-0.7-0.1-0.9-0.4C32,68.2,31.9,67.9,31.9,67.5z"/>
	<path fill="#FFAE5F" d="M36.5,67.5v-2.1c0-0.4,0.1-0.8,0.3-1c0,0,0.1-0.1,0.1-0.1c0.1,0,0.1-0.1,0.2-0.1c0.1,0,0.2-0.1,0.2-0.1
		s0.2,0,0.3,0c0.2,0,0.4,0,0.6,0.1c0.1,0.1,0.2,0.2,0.3,0.3c0.2,0.2,0.3,0.6,0.3,1v2.1c0,0.4-0.1,0.8-0.3,1
		c-0.1,0.1-0.2,0.2-0.3,0.3s-0.3,0.1-0.6,0.1c-0.2,0-0.4,0-0.6-0.1c-0.1-0.1-0.2-0.2-0.3-0.3C36.6,68.2,36.5,67.9,36.5,67.5z
		 M37.2,67.5c0,0.2,0,0.3,0.1,0.4s0.1,0.2,0.1,0.2s0.1,0.1,0.2,0.1c0.1,0,0.1,0,0.2,0c0,0,0.1,0,0.2,0c0.1,0,0.1,0,0.2-0.1
		s0.1-0.1,0.1-0.2c0-0.1,0.1-0.2,0.1-0.4v-2.1c0-0.2,0-0.3-0.1-0.4c0-0.1-0.1-0.2-0.1-0.2s-0.1-0.1-0.2-0.1c-0.1,0-0.1,0-0.2,0
		c0,0-0.1,0-0.2,0c-0.1,0-0.1,0-0.2,0.1s-0.1,0.1-0.1,0.2c0,0.1-0.1,0.2-0.1,0.4V67.5z"/>
	<path fill="#FFAE5F" d="M39.2,64.6V64h2.7v0.6h-1.1v4.2h-0.6v-4.2H39.2z"/>
	<path fill="#FFAE5F" d="M42.2,64.6V64H45v0.6h-1.1v4.2h-0.6v-4.2H42.2z"/>
	<path fill="#FFAE5F" d="M45.2,68.8V64h2v0.6h-1.4v1.5h1.4v0.6h-1.4v1.5h1.4v0.6H45.2z"/>
	<path fill="#FFAE5F" d="M47.7,68.8V64h1c0.4,0,0.7,0.1,0.9,0.4c0.2,0.2,0.3,0.6,0.3,1c0,0.4-0.1,0.8-0.3,1c0,0,0,0,0,0c0,0,0,0,0,0
		c0.1,0.1,0.2,0.2,0.3,0.4c0.1,0.2,0.1,0.3,0.1,0.5v1.4h-0.6v-1.4c0-0.4-0.2-0.6-0.6-0.6h-0.3h-0.1v2.1H47.7z M48.3,66.1L48.3,66.1
		h0.4c0.2,0,0.3,0,0.3-0.1c0.1,0,0.1-0.1,0.1-0.1c0.1-0.1,0.1-0.3,0.1-0.6c0-0.2,0-0.3,0-0.4s-0.1-0.2-0.1-0.2s-0.1-0.1-0.2-0.1
		c-0.1,0-0.2,0-0.3,0h-0.4V66.1z"/>
	<path fill="#FFAE5F" d="M18,72.5h0.6l0.8,3.2l0.8-3.2h0.6l-1.2,4.8h-0.5L18,72.5z"/>
	<path fill="#FFAE5F" d="M21.2,77.3v-4.8h0.6v4.8H21.2z"/>
	<path fill="#FFAE5F" d="M22.4,76v-2.1c0-0.4,0.1-0.8,0.3-1c0.1-0.1,0.2-0.2,0.3-0.3c0.1-0.1,0.3-0.1,0.6-0.1c0.2,0,0.4,0,0.6,0.1
		c0.1,0.1,0.2,0.2,0.3,0.3c0.2,0.2,0.3,0.6,0.3,1v0.3H24v-0.3c0-0.2,0-0.3-0.1-0.4c0-0.1-0.1-0.2-0.1-0.2c-0.1,0-0.1-0.1-0.2-0.1
		c-0.1,0-0.1,0-0.2,0c0,0-0.1,0-0.2,0c-0.1,0-0.1,0-0.2,0.1s-0.1,0.1-0.1,0.2c0,0.1-0.1,0.3-0.1,0.4V76c0,0.3,0.1,0.5,0.2,0.6
		c0,0,0.1,0.1,0.1,0.1s0.1,0.1,0.3,0.1c0.1,0,0.2,0,0.3-0.1s0.1-0.1,0.1-0.1C24,76.4,24,76.2,24,76v-0.3h0.6V76c0,0.4-0.1,0.8-0.3,1
		c-0.1,0.1-0.2,0.2-0.3,0.3c-0.1,0.1-0.3,0.1-0.6,0.1c-0.1,0-0.2,0-0.3,0S23,77.2,23,77.2c-0.1,0-0.1-0.1-0.2-0.1
		c-0.1,0-0.1-0.1-0.1-0.1C22.5,76.7,22.4,76.4,22.4,76z"/>
	<path fill="#FFAE5F" d="M24.9,73.1v-0.6h2.7v0.6h-1.1v4.2H26v-4.2H24.9z"/>
	<path fill="#FFAE5F" d="M27.9,76v-2.1c0-0.4,0.1-0.8,0.3-1c0,0,0.1-0.1,0.1-0.1s0.1-0.1,0.2-0.1c0.1,0,0.2-0.1,0.2-0.1
		c0.1,0,0.2,0,0.3,0c0.2,0,0.4,0,0.6,0.1s0.2,0.2,0.3,0.3c0.2,0.2,0.3,0.6,0.3,1V76c0,0.4-0.1,0.8-0.3,1c-0.1,0.1-0.2,0.2-0.3,0.3
		c-0.1,0.1-0.3,0.1-0.6,0.1c-0.2,0-0.4,0-0.6-0.1c-0.1-0.1-0.2-0.2-0.3-0.3C28,76.7,27.9,76.4,27.9,76z M28.6,76
		c0,0.2,0,0.3,0.1,0.4s0.1,0.2,0.1,0.2s0.1,0.1,0.2,0.1c0.1,0,0.1,0,0.2,0c0,0,0.1,0,0.2,0s0.1,0,0.2-0.1s0.1-0.1,0.1-0.2
		c0-0.1,0.1-0.2,0.1-0.4v-2.1c0-0.2,0-0.3-0.1-0.4c0-0.1-0.1-0.2-0.1-0.2c-0.1,0-0.1-0.1-0.2-0.1s-0.1,0-0.2,0c0,0-0.1,0-0.2,0
		s-0.1,0-0.2,0.1c-0.1,0-0.1,0.1-0.1,0.2c0,0.1-0.1,0.2-0.1,0.4V76z"/>
	<path fill="#FFAE5F" d="M30.6,77.3v-4.8h1c0.4,0,0.7,0.1,0.9,0.4c0.2,0.2,0.3,0.6,0.3,1c0,0.4-0.1,0.8-0.3,1c0,0,0,0,0,0
		c0,0,0,0,0,0c0.1,0.1,0.2,0.2,0.3,0.4c0.1,0.2,0.1,0.3,0.1,0.5v1.4h-0.6v-1.4c0-0.4-0.2-0.6-0.6-0.6h-0.3h-0.1v2.1H30.6z
		 M31.2,74.6L31.2,74.6h0.4c0.2,0,0.3,0,0.3-0.1c0.1,0,0.1-0.1,0.1-0.1c0.1-0.1,0.1-0.3,0.1-0.6c0-0.2,0-0.3,0-0.4
		c0-0.1-0.1-0.2-0.1-0.2c-0.1-0.1-0.1-0.1-0.2-0.1c-0.1,0-0.2,0-0.3,0h-0.4V74.6z"/>
	<path fill="#FFAE5F" d="M33.1,72.5h0.7l1,1.8l1-1.8h0.7L35.1,75v2.3h-0.6V75L33.1,72.5z"/>
	<path fill="#FFAE5F" d="M38.7,77.3v-4.8h0.5l1,3.4l1-3.4h0.5v4.8h-0.6V75l-0.7,2.3h-0.5L39.3,75v2.3H38.7z"/>
	<path fill="#FFAE5F" d="M42.2,77.3l1.1-4.8h0.5l1.1,4.8h-0.6L44,76h-0.8l-0.3,1.3H42.2z M43.3,75.4h0.6l-0.3-1.2L43.3,75.4z"/>
	<path fill="#FFAE5F" d="M45.1,77.3v-4.8h0.6v4.2h1.5v0.6H45.1z"/>
	<path fill="#FFAE5F" d="M47.4,73.1v-0.6h2.7v0.6h-1.1v4.2h-0.6v-4.2H47.4z"/>
	<path fill="#FFAE5F" d="M24,84.5v-2.1c0-0.4,0.1-0.8,0.3-1c0.1-0.1,0.2-0.2,0.3-0.3c0.1-0.1,0.3-0.1,0.6-0.1c0.2,0,0.4,0,0.6,0.1
		c0.1,0.1,0.2,0.2,0.3,0.3c0.2,0.2,0.3,0.6,0.3,1v0.3h-0.6v-0.3c0-0.2,0-0.3-0.1-0.4c0-0.1-0.1-0.2-0.1-0.2c-0.1,0-0.1-0.1-0.2-0.1
		c-0.1,0-0.1,0-0.2,0c0,0-0.1,0-0.2,0c-0.1,0-0.1,0-0.2,0.1s-0.1,0.1-0.1,0.2c0,0.1-0.1,0.3-0.1,0.4v2.1c0,0.3,0.1,0.5,0.2,0.6
		c0,0,0.1,0.1,0.1,0.1s0.1,0.1,0.3,0.1c0.1,0,0.2,0,0.3-0.1s0.1-0.1,0.1-0.1c0.1-0.1,0.1-0.3,0.1-0.6v-0.3h0.6v0.3
		c0,0.4-0.1,0.8-0.3,1c-0.1,0.1-0.2,0.2-0.3,0.3c-0.1,0.1-0.3,0.1-0.6,0.1c-0.1,0-0.2,0-0.3,0s-0.2-0.1-0.2-0.1
		c-0.1,0-0.1-0.1-0.2-0.1c-0.1,0-0.1-0.1-0.1-0.1C24,85.2,24,84.9,24,84.5z"/>
	<path fill="#FFAE5F" d="M26.5,85.8V81h1c0.4,0,0.7,0.1,0.9,0.4c0.2,0.2,0.3,0.6,0.3,1c0,0.4-0.1,0.8-0.3,1c0,0,0,0,0,0c0,0,0,0,0,0
		c0.1,0.1,0.2,0.2,0.3,0.4c0.1,0.2,0.1,0.3,0.1,0.5v1.4h-0.6v-1.4c0-0.4-0.2-0.6-0.6-0.6h-0.3h-0.1v2.1H26.5z M27.1,83.1L27.1,83.1
		h0.4c0.2,0,0.3,0,0.3-0.1C27.9,83,28,83,28,83c0.1-0.1,0.1-0.3,0.1-0.6c0-0.2,0-0.3,0-0.4c0-0.1-0.1-0.2-0.1-0.2
		c-0.1-0.1-0.1-0.1-0.2-0.1c-0.1,0-0.2,0-0.3,0h-0.4V83.1z"/>
	<path fill="#FFAE5F" d="M29,81h0.7l1,1.8l1-1.8h0.7L31,83.5v2.3h-0.6v-2.3L29,81z"/>
	<path fill="#FFAE5F" d="M32.6,84.5v-0.3h0.6v0.3c0,0.3,0.1,0.5,0.2,0.6c0,0,0.1,0.1,0.1,0.1s0.1,0,0.3,0c0.1,0,0.2,0,0.3-0.1
		c0.1,0,0.1-0.1,0.2-0.2c0-0.1,0.1-0.2,0.1-0.2c0-0.1,0-0.2,0-0.2c0-0.1,0-0.2-0.1-0.3s-0.1-0.1-0.1-0.2c-0.1-0.1-0.1-0.1-0.2-0.1
		c-0.1,0-0.1-0.1-0.2-0.1l-0.1-0.1c-0.1,0-0.2-0.1-0.3-0.1c-0.1-0.1-0.2-0.1-0.3-0.2c-0.3-0.3-0.4-0.6-0.4-1c0-0.2,0-0.4,0.1-0.6
		c0.1-0.2,0.1-0.3,0.2-0.4c0.1-0.1,0.2-0.2,0.4-0.3c0.1-0.1,0.3-0.1,0.5-0.1c0.2,0,0.4,0,0.6,0.1s0.2,0.2,0.3,0.3
		c0.2,0.2,0.3,0.6,0.3,1v0.3h-0.6v-0.3c0-0.2,0-0.3-0.1-0.4c0-0.1-0.1-0.2-0.1-0.2s-0.1-0.1-0.2-0.1s-0.1,0-0.2,0
		c-0.1,0-0.2,0-0.3,0.1c-0.1,0.1-0.1,0.1-0.2,0.2c0,0.1-0.1,0.2-0.1,0.3c0,0.1,0,0.2,0,0.2c0,0.1,0,0.2,0.1,0.3s0.1,0.2,0.1,0.2
		s0.1,0.1,0.2,0.2c0.1,0,0.1,0.1,0.2,0.1l0.1,0c0.1,0,0.1,0.1,0.3,0.1c0.1,0.1,0.2,0.1,0.3,0.2c0.3,0.2,0.4,0.6,0.4,1
		c0,0.4-0.1,0.7-0.3,0.9c-0.2,0.3-0.5,0.4-0.9,0.4c-0.4,0-0.7-0.1-0.9-0.4C32.7,85.2,32.6,84.9,32.6,84.5z"/>
	<path fill="#FFAE5F" d="M35.2,81.6V81h2.7v0.6h-1.1v4.2h-0.6v-4.2H35.2z"/>
	<path fill="#FFAE5F" d="M38.2,85.8l1.1-4.8h0.5l1.1,4.8h-0.6L40,84.5h-0.8l-0.3,1.3H38.2z M39.3,83.9h0.6l-0.3-1.2L39.3,83.9z"/>
	<path fill="#FFAE5F" d="M41.1,85.8V81h0.6v4.2h1.5v0.6H41.1z"/>
	<path fill="#FFAE5F" d="M45.4,84.5c0-0.4,0.1-0.8,0.2-1c0,0,0,0,0,0c0,0,0,0,0,0c0,0,0,0-0.1-0.1c-0.2-0.2-0.2-0.5-0.2-1
		c0-0.4,0.1-0.8,0.2-1c0.2-0.3,0.5-0.4,0.8-0.4c0.4,0,0.7,0.1,0.8,0.4c0.2,0.2,0.2,0.6,0.2,1c0,0.4-0.1,0.8-0.2,1c0,0,0,0.1-0.1,0.1
		l0.1,0.1c0.2,0.2,0.2,0.6,0.2,1c0,0.2,0,0.4-0.1,0.6c0,0.2-0.1,0.3-0.2,0.4c-0.2,0.3-0.5,0.4-0.8,0.4c-0.4,0-0.7-0.1-0.8-0.4
		C45.5,85.2,45.4,84.9,45.4,84.5z M46,82.4c0,0.2,0,0.3,0,0.4c0,0.1,0.1,0.2,0.1,0.2s0.1,0.1,0.2,0.1c0.1,0,0.1,0,0.2,0
		c0.1,0,0.1,0,0.2,0c0.1,0,0.1,0,0.2-0.1s0.1-0.1,0.1-0.2c0-0.1,0-0.2,0-0.4c0-0.2,0-0.3,0-0.4c0-0.1-0.1-0.2-0.1-0.2
		s-0.1-0.1-0.2-0.1c-0.1,0-0.1,0-0.2,0c-0.1,0-0.1,0-0.2,0c-0.1,0-0.1,0-0.2,0.1s-0.1,0.1-0.1,0.2C46,82,46,82.2,46,82.4z M46,84.5
		c0,0.2,0,0.3,0,0.4c0,0.1,0.1,0.2,0.1,0.2s0.1,0.1,0.2,0.1c0.1,0,0.1,0,0.2,0c0.1,0,0.1,0,0.2,0c0.1,0,0.1,0,0.2-0.1
		s0.1-0.1,0.1-0.2s0-0.2,0-0.4c0-0.2,0-0.3,0-0.4c0-0.1-0.1-0.2-0.1-0.2c0,0-0.1-0.1-0.1-0.1c0,0-0.1,0-0.2,0s-0.2,0-0.2,0
		c0,0-0.1,0.1-0.1,0.1c0,0-0.1,0.1-0.1,0.2S46,84.3,46,84.5z"/>
	<path fill="#FFAE5F" d="M47.9,84.4v-2.1c0-0.4,0.1-0.7,0.2-1c0.2-0.3,0.4-0.4,0.8-0.4c0.3,0,0.6,0.1,0.8,0.4c0.2,0.2,0.2,0.6,0.2,1
		v2.1c0,0.4-0.1,0.7-0.2,1c-0.2,0.3-0.4,0.4-0.8,0.4c-0.3,0-0.6-0.1-0.8-0.4C48,85.2,47.9,84.9,47.9,84.4z M48.6,84.4
		c0,0.2,0,0.3,0,0.5c0,0.1,0.1,0.2,0.1,0.2c0,0,0.1,0.1,0.1,0.1c0,0,0.1,0,0.1,0c0,0,0.1,0,0.1,0c0,0,0.1,0,0.1-0.1
		c0,0,0.1-0.1,0.1-0.2c0-0.1,0-0.3,0-0.5v-2.1c0-0.2,0-0.3,0-0.4c0-0.1-0.1-0.2-0.1-0.2c0,0-0.1-0.1-0.1-0.1c0,0-0.1,0-0.1,0
		c0,0-0.1,0-0.1,0c0,0-0.1,0-0.1,0.1c0,0-0.1,0.1-0.1,0.2s0,0.3,0,0.4V84.4z"/>
	<path fill="#FFAE5F" d="M24.1,93v-2.1c0-0.4,0.1-0.8,0.3-1c0.1-0.1,0.2-0.2,0.3-0.3c0.1-0.1,0.3-0.1,0.6-0.1c0.2,0,0.4,0,0.6,0.1
		c0.1,0.1,0.2,0.2,0.3,0.3c0.2,0.2,0.3,0.6,0.3,1v0.3h-0.6v-0.3c0-0.2,0-0.3-0.1-0.4c0-0.1-0.1-0.2-0.1-0.2c-0.1,0-0.1-0.1-0.2-0.1
		c-0.1,0-0.1,0-0.2,0c0,0-0.1,0-0.2,0c-0.1,0-0.1,0-0.2,0.1s-0.1,0.1-0.1,0.2c0,0.1-0.1,0.3-0.1,0.4V93c0,0.3,0.1,0.5,0.2,0.6
		c0,0,0.1,0.1,0.1,0.1s0.1,0.1,0.3,0.1c0.1,0,0.2,0,0.3-0.1s0.1-0.1,0.1-0.1c0.1-0.1,0.1-0.3,0.1-0.6v-0.3h0.6V93
		c0,0.4-0.1,0.8-0.3,1c-0.1,0.1-0.2,0.2-0.3,0.3c-0.1,0.1-0.3,0.1-0.6,0.1c-0.1,0-0.2,0-0.3,0s-0.2-0.1-0.2-0.1
		c-0.1,0-0.1-0.1-0.2-0.1c-0.1,0-0.1-0.1-0.1-0.1C24.2,93.7,24.1,93.4,24.1,93z"/>
	<path fill="#FFAE5F" d="M26.6,94.3v-4.8h1c0.4,0,0.7,0.1,0.9,0.4c0.2,0.2,0.3,0.6,0.3,1c0,0.4-0.1,0.8-0.3,1c0,0,0,0,0,0
		c0,0,0,0,0,0c0.1,0.1,0.2,0.2,0.3,0.4c0.1,0.2,0.1,0.3,0.1,0.5v1.4h-0.6v-1.4c0-0.4-0.2-0.6-0.6-0.6h-0.3h-0.1v2.1H26.6z
		 M27.3,91.6L27.3,91.6h0.4c0.2,0,0.3,0,0.3-0.1c0.1,0,0.1-0.1,0.1-0.1c0.1-0.1,0.1-0.3,0.1-0.6c0-0.2,0-0.3,0-0.4
		c0-0.1-0.1-0.2-0.1-0.2c-0.1-0.1-0.1-0.1-0.2-0.1c-0.1,0-0.2,0-0.3,0h-0.4V91.6z"/>
	<path fill="#FFAE5F" d="M29.2,89.5h0.7l1,1.8l1-1.8h0.7L31.2,92v2.3h-0.6V92L29.2,89.5z"/>
	<path fill="#FFAE5F" d="M32.7,93v-0.3h0.6V93c0,0.3,0.1,0.5,0.2,0.6c0,0,0.1,0.1,0.1,0.1s0.1,0,0.3,0c0.1,0,0.2,0,0.3-0.1
		c0.1,0,0.1-0.1,0.2-0.2c0-0.1,0.1-0.2,0.1-0.2c0-0.1,0-0.2,0-0.2c0-0.1,0-0.2-0.1-0.3s-0.1-0.1-0.1-0.2c-0.1-0.1-0.1-0.1-0.2-0.1
		c-0.1,0-0.1-0.1-0.2-0.1l-0.1-0.1c-0.1,0-0.2-0.1-0.3-0.1c-0.1-0.1-0.2-0.1-0.3-0.2c-0.3-0.3-0.4-0.6-0.4-1c0-0.2,0-0.4,0.1-0.6
		c0.1-0.2,0.1-0.3,0.2-0.4c0.1-0.1,0.2-0.2,0.4-0.3c0.1-0.1,0.3-0.1,0.5-0.1c0.2,0,0.4,0,0.6,0.1s0.2,0.2,0.3,0.3
		c0.2,0.2,0.3,0.6,0.3,1v0.3h-0.6v-0.3c0-0.2,0-0.3-0.1-0.4c0-0.1-0.1-0.2-0.1-0.2s-0.1-0.1-0.2-0.1s-0.1,0-0.2,0
		c-0.1,0-0.2,0-0.3,0.1c-0.1,0.1-0.1,0.1-0.2,0.2c0,0.1-0.1,0.2-0.1,0.3c0,0.1,0,0.2,0,0.2c0,0.1,0,0.2,0.1,0.3s0.1,0.2,0.1,0.2
		s0.1,0.1,0.2,0.2c0.1,0,0.1,0.1,0.2,0.1l0.1,0c0.1,0,0.1,0.1,0.3,0.1c0.1,0.1,0.2,0.1,0.3,0.2c0.3,0.2,0.4,0.6,0.4,1
		c0,0.4-0.1,0.7-0.3,0.9c-0.2,0.3-0.5,0.4-0.9,0.4c-0.4,0-0.7-0.1-0.9-0.4C32.8,93.7,32.7,93.4,32.7,93z"/>
	<path fill="#FFAE5F" d="M35.3,90.1v-0.6H38v0.6H37v4.2h-0.6v-4.2H35.3z"/>
	<path fill="#FFAE5F" d="M38.3,94.3l1.1-4.8h0.5l1.1,4.8h-0.6L40.1,93h-0.8l-0.3,1.3H38.3z M39.4,92.4h0.6l-0.3-1.2L39.4,92.4z"/>
	<path fill="#FFAE5F" d="M41.2,94.3v-4.8h0.6v4.2h1.5v0.6H41.2z"/>
	<path fill="#FFAE5F" d="M45.5,93.1v-0.6v0v-1.3c0-0.5,0.1-0.9,0.2-1.1c0.1-0.2,0.2-0.3,0.3-0.4c0.1-0.1,0.3-0.1,0.5-0.1
		c0.2,0,0.3,0,0.5,0.1c0.1,0.1,0.2,0.2,0.3,0.3c0.2,0.2,0.2,0.5,0.2,0.8v0.2H47v-0.2c0-0.2,0-0.4-0.1-0.5c0,0-0.1-0.1-0.1-0.1
		c0,0-0.1,0-0.2,0c-0.1,0-0.2,0-0.2,0.1c-0.1,0.1-0.1,0.2-0.1,0.3c0,0.1,0,0.2-0.1,0.3c0,0.1,0,0.2,0,0.3v0c0.1-0.1,0.3-0.1,0.4-0.1
		c0.3,0,0.6,0.1,0.8,0.4c0.2,0.2,0.2,0.6,0.2,1V93c0,0.2,0,0.4-0.1,0.6s-0.1,0.3-0.2,0.4s-0.2,0.2-0.3,0.3s-0.3,0.1-0.4,0.1
		c-0.3,0-0.6-0.1-0.8-0.4C45.6,93.7,45.5,93.5,45.5,93.1z M46.2,93.1c0,0.2,0,0.4,0.1,0.5c0,0,0.1,0.1,0.1,0.1c0,0,0.1,0,0.2,0
		c0.1,0,0.1,0,0.2-0.1c0.1-0.1,0.1-0.1,0.1-0.2s0.1-0.2,0.1-0.3c0-0.1,0-0.2,0-0.2v-0.5c0-0.2,0-0.3,0-0.4c0-0.1-0.1-0.2-0.1-0.2
		s-0.1-0.1-0.1-0.1c0,0-0.1,0-0.1,0c-0.1,0-0.2,0-0.2,0.1s-0.1,0.1-0.1,0.2c0,0.1,0,0.2-0.1,0.2c0,0.1,0,0.1,0,0.2V93.1z"/>
	<path fill="#FFAE5F" d="M47.9,92.9v-2.1c0-0.4,0.1-0.7,0.2-1c0.2-0.3,0.4-0.4,0.8-0.4c0.3,0,0.6,0.1,0.8,0.4c0.2,0.2,0.2,0.6,0.2,1
		v2.1c0,0.4-0.1,0.7-0.2,1c-0.2,0.3-0.4,0.4-0.8,0.4c-0.3,0-0.6-0.1-0.8-0.4C48,93.7,47.9,93.4,47.9,92.9z M48.6,92.9
		c0,0.2,0,0.3,0,0.5c0,0.1,0.1,0.2,0.1,0.2c0,0,0.1,0.1,0.1,0.1c0,0,0.1,0,0.1,0c0,0,0.1,0,0.1,0c0,0,0.1,0,0.1-0.1
		c0,0,0.1-0.1,0.1-0.2c0-0.1,0-0.3,0-0.5v-2.1c0-0.2,0-0.3,0-0.4c0-0.1-0.1-0.2-0.1-0.2c0,0-0.1-0.1-0.1-0.1c0,0-0.1,0-0.1,0
		c0,0-0.1,0-0.1,0c0,0-0.1,0-0.1,0.1c0,0-0.1,0.1-0.1,0.2s0,0.3,0,0.4V92.9z"/>
	<path fill="#FFAE5F" d="M21.1,102.8V98h0.5l1,3.4l1-3.4h0.5v4.8h-0.6v-2.3l-0.7,2.3h-0.5l-0.7-2.3v2.3H21.1z"/>
	<path fill="#FFAE5F" d="M24.7,101.5V98h0.6v3.6c0,0.2,0,0.3,0,0.4s0.1,0.2,0.1,0.2c0,0,0.1,0.1,0.2,0.1c0.1,0,0.1,0,0.1,0
		c0,0,0.1,0,0.1,0c0.1,0,0.1,0,0.2-0.1c0,0,0.1-0.1,0.1-0.2c0-0.1,0-0.2,0-0.4V98h0.6v3.6c0,0.4-0.1,0.7-0.3,0.9
		c-0.1,0.1-0.2,0.2-0.3,0.2c-0.1,0.1-0.3,0.1-0.5,0.1s-0.4,0-0.5-0.1c-0.1-0.1-0.2-0.2-0.3-0.2C24.7,102.3,24.7,101.9,24.7,101.5z"
		/>
	<path fill="#FFAE5F" d="M27.3,102.8V98h0.5l1.2,2.9V98h0.6v4.8h-0.5l-1.2-2.9v2.9H27.3z"/>
	<path fill="#FFAE5F" d="M30.3,102.8V98h0.6v4.8H30.3z"/>
	<path fill="#FFAE5F" d="M31.4,101.5v-2.1c0-0.4,0.1-0.8,0.3-1c0.1-0.1,0.2-0.2,0.3-0.3c0.1-0.1,0.3-0.1,0.6-0.1
		c0.2,0,0.4,0,0.6,0.1c0.1,0.1,0.2,0.2,0.3,0.3c0.2,0.2,0.3,0.6,0.3,1v0.3h-0.6v-0.3c0-0.2,0-0.3-0.1-0.4c0-0.1-0.1-0.2-0.1-0.2
		c-0.1,0-0.1-0.1-0.2-0.1c-0.1,0-0.1,0-0.2,0c0,0-0.1,0-0.2,0c-0.1,0-0.1,0-0.2,0.1s-0.1,0.1-0.1,0.2c0,0.1-0.1,0.3-0.1,0.4v2.1
		c0,0.3,0.1,0.5,0.2,0.6c0,0,0.1,0.1,0.1,0.1s0.1,0.1,0.3,0.1c0.1,0,0.2,0,0.3-0.1s0.1-0.1,0.1-0.1c0.1-0.1,0.1-0.3,0.1-0.6v-0.3
		h0.6v0.3c0,0.4-0.1,0.8-0.3,1c-0.1,0.1-0.2,0.2-0.3,0.3c-0.1,0.1-0.3,0.1-0.6,0.1c-0.1,0-0.2,0-0.3,0s-0.2-0.1-0.2-0.1
		c-0.1,0-0.1-0.1-0.2-0.1c-0.1,0-0.1-0.1-0.1-0.1C31.5,102.2,31.4,101.9,31.4,101.5z"/>
	<path fill="#FFAE5F" d="M34,102.8V98h0.6v2.1h0.9V98h0.6v4.8h-0.6v-2.1h-0.9v2.1H34z"/>
	<path fill="#FFAE5F" d="M38.7,102.8V98h0.5l1,3.4l1-3.4h0.5v4.8h-0.6v-2.3l-0.7,2.3h-0.5l-0.7-2.3v2.3H38.7z"/>
	<path fill="#FFAE5F" d="M42.2,102.8l1.1-4.8h0.5l1.1,4.8h-0.6l-0.3-1.3h-0.8l-0.3,1.3H42.2z M43.3,100.9h0.6l-0.3-1.2L43.3,100.9z"
		/>
	<path fill="#FFAE5F" d="M45.1,102.8V98h0.6v4.2h1.5v0.6H45.1z"/>
	<path fill="#FFAE5F" d="M47.4,98.6V98h2.7v0.6h-1.1v4.2h-0.6v-4.2H47.4z"/>
	<path fill="#FFAE5F" d="M32.1,111.3v-4.8h1c0.4,0,0.7,0.1,0.9,0.4c0.2,0.2,0.3,0.6,0.3,1c0,0.4-0.1,0.8-0.3,1
		c-0.2,0.2-0.5,0.4-0.9,0.4h-0.4v2.1H32.1z M32.8,108.6h0.4c0.2,0,0.3,0,0.3-0.1c0.1,0,0.1-0.1,0.1-0.1c0.1-0.1,0.1-0.3,0.1-0.6
		c0-0.2,0-0.3,0-0.4c0-0.1-0.1-0.2-0.1-0.2s-0.1-0.1-0.2-0.1c-0.1,0-0.2,0-0.3,0h-0.4V108.6z"/>
	<path fill="#FFAE5F" d="M34.7,110v-3.6h0.6v3.6c0,0.2,0,0.3,0,0.4s0.1,0.2,0.1,0.2c0,0,0.1,0.1,0.2,0.1c0.1,0,0.1,0,0.1,0
		c0,0,0.1,0,0.1,0c0.1,0,0.1,0,0.2-0.1c0,0,0.1-0.1,0.1-0.2c0-0.1,0-0.2,0-0.4v-3.6h0.6v3.6c0,0.4-0.1,0.7-0.3,0.9
		c-0.1,0.1-0.2,0.2-0.3,0.2c-0.1,0.1-0.3,0.1-0.5,0.1s-0.4,0-0.5-0.1c-0.1-0.1-0.2-0.2-0.3-0.2C34.7,110.8,34.7,110.4,34.7,110z"/>
	<path fill="#FFAE5F" d="M37.3,111.3v-4.8h0.5l1,3.4l1-3.4h0.5v4.8h-0.6V109l-0.7,2.3h-0.5l-0.7-2.3v2.3H37.3z"/>
	<path fill="#FFAE5F" d="M40.8,111.3v-4.8h1c0.4,0,0.7,0.1,0.9,0.4c0.2,0.2,0.3,0.6,0.3,1c0,0.4-0.1,0.8-0.3,1
		c-0.2,0.2-0.5,0.4-0.9,0.4h-0.4v2.1H40.8z M41.5,108.6h0.4c0.2,0,0.3,0,0.3-0.1c0.1,0,0.1-0.1,0.1-0.1c0.1-0.1,0.1-0.3,0.1-0.6
		c0-0.2,0-0.3,0-0.4c0-0.1-0.1-0.2-0.1-0.2s-0.1-0.1-0.2-0.1c-0.1,0-0.2,0-0.3,0h-0.4V108.6z"/>
	<path fill="#FFAE5F" d="M43.4,109.6L43.4,109.6l0-3.1H44v2.1l1.4-2.1h0.7l-1.5,2.3l1.4,2.6h-0.7l-1.1-2l-0.3,0.4v1.6h-0.6
		L43.4,109.6L43.4,109.6z"/>
	<path fill="#FFAE5F" d="M46.5,111.3v-4.8h0.6v4.8H46.5z"/>
	<path fill="#FFAE5F" d="M47.6,111.3v-4.8h0.5l1.2,2.9v-2.9H50v4.8h-0.5l-1.2-2.9v2.9H47.6z"/>
</g>
<path fill="#FFFFFF" d="M54.9,78c-1.7,0-3-1.3-3-3c0-1.7,1.3-3,3-3c1.7,0,3,1.3,3,3C57.9,76.7,56.6,78,54.9,78 M54.9,73.2
	c-1,0-1.8,0.8-1.8,1.8c0,1,0.8,1.8,1.8,1.8c1,0,1.8-0.8,1.8-1.8C56.7,74,55.9,73.2,54.9,73.2"/>
<path fill="#FFFFFF" d="M54.9,69c-1.7,0-3-1.3-3-3c0-1.7,1.3-3,3-3c1.7,0,3,1.3,3,3C57.9,67.7,56.6,69,54.9,69 M54.9,64.2
	c-1,0-1.8,0.8-1.8,1.8c0,1,0.8,1.8,1.8,1.8c1,0,1.8-0.8,1.8-1.8C56.7,65,55.9,64.2,54.9,64.2"/>
<path fill="#FFFFFF" d="M54.9,86.6c-1.7,0-3-1.3-3-3c0-1.7,1.3-3,3-3c1.7,0,3,1.3,3,3C57.9,85.3,56.6,86.6,54.9,86.6 M54.9,81.9
	c-1,0-1.8,0.8-1.8,1.8c0,1,0.8,1.8,1.8,1.8c1,0,1.8-0.8,1.8-1.8C56.7,82.7,55.9,81.9,54.9,81.9"/>
<path fill="#FFFFFF" d="M54.9,95.3c-1.7,0-3-1.3-3-3c0-1.7,1.3-3,3-3c1.7,0,3,1.3,3,3C57.9,93.9,56.6,95.3,54.9,95.3 M54.9,90.5
	c-1,0-1.8,0.8-1.8,1.8c0,1,0.8,1.8,1.8,1.8c1,0,1.8-0.8,1.8-1.8C56.7,91.3,55.9,90.5,54.9,90.5"/>
<path fill="#FFFFFF" d="M54.9,103.6c-1.7,0-3-1.3-3-3c0-1.7,1.3-3,3-3c1.7,0,3,1.3,3,3C57.9,102.3,56.6,103.6,54.9,103.6 M54.9,98.9
	c-1,0-1.8,0.8-1.8,1.8c0,1,0.8,1.8,1.8,1.8c1,0,1.8-0.8,1.8-1.8C56.7,99.7,55.9,98.9,54.9,98.9"/>
<path fill="#FFFFFF" d="M54.9,112.3c-1.7,0-3-1.3-3-3c0-1.7,1.3-3,3-3c1.7,0,3,1.3,3,3C57.9,110.9,56.6,112.3,54.9,112.3
	 M54.9,107.5c-1,0-1.8,0.8-1.8,1.8c0,1,0.8,1.8,1.8,1.8c1,0,1.8-0.8,1.8-1.8C56.7,108.3,55.9,107.5,54.9,107.5"/>
<rect x="54.3" y="77.3" fill="#FFFFFF" width="1.2" height="4.1"/>
<rect x="54.3" y="68.3" fill="#FFFFFF" width="1.2" height="4.1"/>
<rect x="54.3" y="85.9" fill="#FFFFFF" width="1.2" height="4.2"/>
<rect x="54.3" y="94.3" fill="#FFFFFF" width="1.2" height="4.1"/>
<rect x="54.3" y="102.9" fill="#FFFFFF" width="1.2" height="4.2"/>
<g>
	<g>
		<path fill="#FFAE5F" d="M285.7,24.6h0.6l0.7,3.1l0.7-3.1h0.5l0.7,3.1l0.7-3.1h0.6l-1.1,4.8h-0.5l-0.7-3.1l-0.7,3.1h-0.5
			L285.7,24.6z"/>
		<path fill="#FFAE5F" d="M290.2,24.6h0.7l1,1.8l1-1.8h0.7l-1.4,2.5v2.3h-0.6v-2.3L290.2,24.6z"/>
		<path fill="#FFAE5F" d="M293.7,29.4v-4.8h2v0.6h-1.4v1.5h1.4v0.6h-1.4v1.5h1.4v0.6H293.7z"/>
		<path fill="#FFAE5F" d="M296.2,29.4l1.1-4.8h0.5l1.1,4.8h-0.6l-0.3-1.3h-0.8l-0.3,1.3H296.2z M297.2,27.5h0.6l-0.3-1.2L297.2,27.5
			z"/>
		<path fill="#FFAE5F" d="M299,28.1v-0.3h0.6v0.3c0,0.3,0.1,0.5,0.2,0.6c0,0,0.1,0.1,0.1,0.1s0.1,0,0.3,0c0.1,0,0.2,0,0.3-0.1
			s0.1-0.1,0.2-0.2c0-0.1,0.1-0.2,0.1-0.2c0-0.1,0-0.2,0-0.2c0-0.1,0-0.2-0.1-0.3c0-0.1-0.1-0.1-0.1-0.2c-0.1-0.1-0.1-0.1-0.2-0.1
			c-0.1,0-0.1-0.1-0.2-0.1l-0.1-0.1c-0.1,0-0.2-0.1-0.3-0.1c-0.1-0.1-0.2-0.1-0.3-0.2c-0.3-0.3-0.4-0.6-0.4-1c0-0.2,0-0.4,0.1-0.6
			c0.1-0.2,0.1-0.3,0.2-0.4c0.1-0.1,0.2-0.2,0.4-0.3c0.1-0.1,0.3-0.1,0.5-0.1c0.2,0,0.4,0,0.6,0.1c0.1,0.1,0.2,0.2,0.3,0.3
			c0.2,0.2,0.3,0.6,0.3,1v0.3h-0.6V26c0-0.2,0-0.3-0.1-0.4c0-0.1-0.1-0.2-0.1-0.2c-0.1,0-0.1-0.1-0.2-0.1c-0.1,0-0.1,0-0.2,0
			c-0.1,0-0.2,0-0.3,0.1c-0.1,0.1-0.1,0.1-0.2,0.2c0,0.1-0.1,0.2-0.1,0.3c0,0.1,0,0.2,0,0.2c0,0.1,0,0.2,0.1,0.3
			c0,0.1,0.1,0.2,0.1,0.2c0.1,0.1,0.1,0.1,0.2,0.2s0.1,0.1,0.2,0.1l0.1,0c0.1,0,0.1,0.1,0.3,0.1c0.1,0.1,0.2,0.1,0.3,0.2
			c0.3,0.2,0.4,0.6,0.4,1c0,0.4-0.1,0.7-0.3,0.9c-0.2,0.3-0.5,0.4-0.9,0.4c-0.4,0-0.7-0.1-0.9-0.4C299.1,28.8,299,28.5,299,28.1z"/>
		<path fill="#FFAE5F" d="M301.6,25.2v-0.6h2.7v0.6h-1.1v4.2h-0.6v-4.2H301.6z"/>
		<path fill="#FFAE5F" d="M306.7,25.7l0.8-1.1h0.6v4.8h-0.6v-3.7l-0.3,0.4L306.7,25.7z"/>
		<path fill="#FFAE5F" d="M308.5,29.4v-0.3c0-0.2,0-0.4,0.1-0.5c0-0.2,0.1-0.3,0.2-0.5c0.1-0.2,0.2-0.3,0.2-0.5l0.3-0.5l0.3-0.4
			l0.2-0.2c0.1-0.1,0.1-0.1,0.1-0.2c0-0.1,0.1-0.1,0.1-0.2c0-0.1,0-0.2,0-0.3c0,0,0-0.1,0-0.2c0-0.1,0-0.1-0.1-0.2s-0.1-0.1-0.1-0.2
			c-0.1-0.1-0.1-0.1-0.2-0.1c0,0-0.1,0-0.1,0c0,0-0.1,0-0.1,0.1c0,0-0.1,0.1-0.1,0.2c0,0.1,0,0.2,0,0.4v0.3h-0.6v-0.3
			c0-0.4,0.1-0.7,0.2-0.9c0.1-0.1,0.2-0.2,0.3-0.2c0.1-0.1,0.3-0.1,0.5-0.1c0.2,0,0.3,0,0.4,0.1c0.1,0.1,0.2,0.1,0.3,0.2
			s0.2,0.2,0.2,0.4c0.1,0.2,0.1,0.3,0.1,0.5h0v0.1h0c0,0.2,0,0.3-0.1,0.4s-0.1,0.2-0.1,0.3c0,0.1-0.1,0.2-0.2,0.3l-0.2,0.3l-0.1,0.2
			c0,0.1-0.1,0.1-0.1,0.2l-0.2,0.4c-0.1,0.1-0.1,0.2-0.2,0.3c-0.1,0.1-0.1,0.2-0.1,0.3c0,0.1-0.1,0.2-0.1,0.3h0.4h0.7h0.3v0.6h-0.3
			h-0.7H308.5z"/>
		<path fill="#FFAE5F" d="M310.8,25.2v-0.6h2.5v0.6l-1.8,4.2h-0.7l1.8-4.2H310.8z"/>
		<path fill="#FFAE5F" d="M313.7,29.4v-0.3c0-0.2,0-0.4,0.1-0.5s0.1-0.3,0.2-0.5c0.1-0.2,0.2-0.3,0.2-0.5l0.3-0.5l0.3-0.4l0.2-0.2
			c0.1-0.1,0.1-0.1,0.1-0.2c0-0.1,0.1-0.1,0.1-0.2s0-0.2,0-0.3c0,0,0-0.1,0-0.2c0-0.1,0-0.1-0.1-0.2c0-0.1-0.1-0.1-0.1-0.2
			c-0.1-0.1-0.1-0.1-0.2-0.1c0,0-0.1,0-0.1,0c0,0-0.1,0-0.1,0.1c0,0-0.1,0.1-0.1,0.2c0,0.1,0,0.2,0,0.4v0.3h-0.6v-0.3
			c0-0.4,0.1-0.7,0.2-0.9c0.1-0.1,0.2-0.2,0.3-0.2c0.1-0.1,0.3-0.1,0.5-0.1c0.1,0,0.3,0,0.4,0.1c0.1,0.1,0.2,0.1,0.3,0.2
			c0.1,0.1,0.2,0.2,0.2,0.4c0.1,0.2,0.1,0.3,0.1,0.5h0v0.1h0c0,0.2,0,0.3-0.1,0.4c0,0.1-0.1,0.2-0.1,0.3c0,0.1-0.1,0.2-0.2,0.3
			l-0.2,0.3l-0.1,0.2c0,0.1-0.1,0.1-0.1,0.2l-0.2,0.4c-0.1,0.1-0.1,0.2-0.2,0.3s-0.1,0.2-0.1,0.3c0,0.1-0.1,0.2-0.1,0.3h0.4h0.7h0.3
			v0.6h-0.3h-0.7H313.7z"/>
	</g>
	<g>
		<rect x="268.1" y="26.6" fill="#FFFFFF" width="10.1" height="1.2"/>
	</g>
	<polygon fill="#FFFFFF" points="267.3,33.3 265.1,37 262.9,33.3 	"/>
	<path fill="#FFFFFF" d="M265.1,30.2c-1.7,0-3-1.3-3-3c0-1.7,1.3-3,3-3c1.7,0,3,1.3,3,3C268.1,28.8,266.8,30.2,265.1,30.2
		 M265.1,25.4c-1,0-1.8,0.8-1.8,1.8c0,1,0.8,1.8,1.8,1.8c1,0,1.8-0.8,1.8-1.8C266.9,26.2,266.1,25.4,265.1,25.4"/>
	<rect x="264.5" y="29.3" fill="#FFFFFF" width="1.2" height="4.3"/>
	<path fill="#FFFFFF" d="M281.1,30.2c-1.7,0-3-1.3-3-3c0-1.7,1.3-3,3-3c1.7,0,3,1.3,3,3C284.1,28.8,282.8,30.2,281.1,30.2
		 M281.1,25.4c-1,0-1.8,0.8-1.8,1.8c0,1,0.8,1.8,1.8,1.8c1,0,1.8-0.8,1.8-1.8C282.9,26.2,282.1,25.4,281.1,25.4"/>
</g>
<g>
	<polygon fill="#FFFFFF" points="231.6,48.2 230.4,48.2 230.4,39.3 243.4,26.3 254.7,26.3 254.7,27.5 243.9,27.5 231.6,39.8 	"/>
	<polygon fill="#FFFFFF" points="231.2,45 223.5,58.3 238.8,58.3 	"/>
	<rect x="256.3" y="29.3" fill="#FFFFFF" width="1.2" height="4.3"/>
	<polygon fill="#FFFFFF" points="259.1,33.3 256.9,37 254.7,33.3 	"/>
	<path fill="#FFFFFF" d="M256.9,30.2c-1.7,0-3-1.3-3-3c0-1.7,1.3-3,3-3c1.7,0,3,1.3,3,3C259.9,28.8,258.6,30.2,256.9,30.2
		 M256.9,25.4c-1,0-1.8,0.8-1.8,1.8c0,1,0.8,1.8,1.8,1.8c1,0,1.8-0.8,1.8-1.8C258.7,26.2,257.9,25.4,256.9,25.4"/>
	<g>
		<path fill="#A09F9F" d="M228.5,52.3v-0.5h2.1v0.5l-1.5,3.5h-0.5l1.4-3.4H228.5z"/>
		<path fill="#A09F9F" d="M230.8,54.6v-1.7c0-0.3,0.1-0.6,0.2-0.8c0.1-0.2,0.4-0.3,0.6-0.3c0.3,0,0.5,0.1,0.6,0.3
			c0.1,0.2,0.2,0.5,0.2,0.8v1.7c0,0.3-0.1,0.6-0.2,0.8c-0.1,0.2-0.4,0.3-0.6,0.3c-0.3,0-0.5-0.1-0.6-0.3
			C230.9,55.2,230.8,54.9,230.8,54.6z M231.3,54.6c0,0.2,0,0.3,0,0.4c0,0.1,0.1,0.1,0.1,0.2c0,0,0.1,0.1,0.1,0.1c0,0,0.1,0,0.1,0
			c0,0,0.1,0,0.1,0c0,0,0.1,0,0.1-0.1c0,0,0.1-0.1,0.1-0.2s0-0.2,0-0.4v-1.7c0-0.2,0-0.3,0-0.4s-0.1-0.1-0.1-0.2
			c0,0-0.1-0.1-0.1-0.1c0,0-0.1,0-0.1,0c0,0-0.1,0-0.1,0s-0.1,0-0.1,0.1c0,0-0.1,0.1-0.1,0.2c0,0.1,0,0.2,0,0.4V54.6z"/>
	</g>
	<g>
		<path fill="#A09F9F" d="M232.8,53.3v-1c0-0.2,0-0.4,0.1-0.5c0,0,0,0,0.1-0.1c0,0,0.1,0,0.1-0.1c0,0,0.1,0,0.1,0c0,0,0.1,0,0.1,0
			c0.1,0,0.2,0,0.3,0.1c0.1,0,0.1,0.1,0.1,0.1c0.1,0.1,0.1,0.3,0.1,0.5v1c0,0.2,0,0.4-0.1,0.5c0,0-0.1,0.1-0.1,0.1
			c-0.1,0-0.2,0.1-0.3,0.1s-0.2,0-0.3-0.1c-0.1,0-0.1-0.1-0.1-0.1C232.9,53.6,232.8,53.5,232.8,53.3z M233.1,53.3c0,0.1,0,0.2,0,0.2
			c0,0,0,0.1,0.1,0.1c0,0,0.1,0,0.1,0c0,0,0.1,0,0.1,0c0,0,0,0,0.1,0c0,0,0.1,0,0.1,0c0,0,0-0.1,0.1-0.1c0,0,0-0.1,0-0.2v-1
			c0-0.1,0-0.2,0-0.2c0,0,0-0.1-0.1-0.1s-0.1,0-0.1,0c0,0-0.1,0-0.1,0c0,0,0,0-0.1,0c0,0-0.1,0-0.1,0s0,0.1-0.1,0.1c0,0,0,0.1,0,0.2
			V53.3z"/>
	</g>
</g>
</svg>
