<?xml version="1.0" encoding="utf-8"?>
<!-- Generator: Adobe Illustrator 18.0.0, SVG Export Plug-In . SVG Version: 6.00 Build 0)  -->
<!DOCTYPE svg PUBLIC "-//W3C//DTD SVG 1.1//EN" "http://www.w3.org/Graphics/SVG/1.1/DTD/svg11.dtd">
<svg version="1.1" id="Layer_1" xmlns="http://www.w3.org/2000/svg" xmlns:xlink="http://www.w3.org/1999/xlink" x="0px" y="0px"
	 viewBox="0 0 432 144" enable-background="new 0 0 432 144" xml:space="preserve">
<g>
	<polygon fill="#FFFFFF" points="224,123.9 217.7,123.9 217.7,87.8 205.4,87.8 205.4,86.6 218.9,86.6 218.9,122.7 223.5,122.7 
		230.5,115.8 230.5,110.5 231.7,110.5 231.7,116.3 	"/>
	<polygon fill="#FFFFFF" points="230.5,110.7 231.7,110.7 231.7,107.1 227.6,107.1 227.6,108.4 230.5,108.4 	"/>
	<polygon fill="#FFFFFF" points="232.1,65.3 227.6,65.3 227.6,64.1 230.8,64.1 230.8,47.4 232.1,47.4 	"/>
	<path fill="#FFFFFF" d="M227.7,70.1c-1.7,0-3-1.3-3-3c0-1.7,1.3-3,3-3v1.2c-1,0-1.8,0.8-1.8,1.8c0,1,0.8,1.8,1.8,1.8V70.1z"/>
	<path fill="#FFFFFF" d="M227.7,79.6c-1.7,0-3-1.3-3-3c0-1.7,1.3-3,3-3v1.2c-1,0-1.8,0.8-1.8,1.8c0,1,0.8,1.8,1.8,1.8V79.6z"/>
	<path fill="#FFFFFF" d="M227.7,74.9v-1.2l6.8,0c1,0,1.8-0.8,1.8-1.8c0-1-0.8-1.8-1.8-1.8h-6.8v-1.2h6.8c1.7,0,3,1.3,3,3
		c0,1.7-1.3,3-3,3H227.7z"/>
	<path fill="#FFFFFF" d="M234.5,94v-1.2c1,0,1.8-0.8,1.8-1.8c0-1-0.8-1.8-1.8-1.8h-6.8c-1.7,0-3-1.3-3-3c0-1.7,1.3-3,3-3l6.8,0
		c1,0,1.8-0.8,1.8-1.8c0-1-0.8-1.8-1.8-1.8h-6.8v-1.2l6.8,0c1.7,0,3,1.3,3,3c0,1.7-1.3,3-3,3h-6.8c-1,0-1.8,0.8-1.8,1.8
		c0,1,0.8,1.8,1.8,1.8h6.8c1.7,0,3,1.3,3,3C237.5,92.6,236.1,94,234.5,94"/>
	<path fill="#FFFFFF" d="M227.7,108.4v-1.2c-1,0-1.8-0.8-1.8-1.8s0.8-1.8,1.8-1.8h6.8c1.7,0,3-1.3,3-3c0-1.7-1.3-3-3-3l-6.8,0
		c-1,0-1.8-0.8-1.8-1.8c0-1,0.8-1.8,1.8-1.8h6.8v-1.2l-6.8,0c-1.7,0-3,1.3-3,3c0,1.7,1.3,3,3,3h6.8c1,0,1.8,0.8,1.8,1.8
		c0,1-0.8,1.8-1.8,1.8h-6.8c-1.7,0-3,1.3-3,3C224.7,107,226,108.4,227.7,108.4"/>
	<g>
		<g>
			<path fill="#0075C9" d="M21.5,76.7v-4.8H22l1,3.4l1-3.4h0.5v4.8h-0.6v-2.3l-0.7,2.3h-0.5l-0.7-2.3v2.3H21.5z"/>
			<path fill="#0075C9" d="M25,76.7l1.1-4.8h0.5l1.1,4.8h-0.6l-0.3-1.3h-0.8l-0.3,1.3H25z M26.1,74.7h0.6l-0.3-1.2L26.1,74.7z"/>
			<path fill="#0075C9" d="M27.9,76.7v-4.8h1c0.4,0,0.7,0.1,0.9,0.4c0.2,0.2,0.3,0.6,0.3,1c0,0.4-0.1,0.8-0.3,1c0,0,0,0,0,0s0,0,0,0
				c0.1,0.1,0.2,0.2,0.3,0.4s0.1,0.3,0.1,0.5v1.4h-0.6v-1.4c0-0.4-0.2-0.6-0.6-0.6h-0.3h-0.1v2.1H27.9z M28.5,74L28.5,74h0.4
				c0.2,0,0.3,0,0.3-0.1c0.1,0,0.1-0.1,0.1-0.1c0.1-0.1,0.1-0.3,0.1-0.6c0-0.2,0-0.3,0-0.4c0-0.1-0.1-0.2-0.1-0.2
				c-0.1-0.1-0.1-0.1-0.2-0.1c-0.1,0-0.2,0-0.3,0h-0.4V74z"/>
			<path fill="#0075C9" d="M30.8,76.7v-4.8h0.6v4.8H30.8z"/>
			<path fill="#0075C9" d="M31.9,75.3V75h0.6v0.3c0,0.3,0.1,0.5,0.2,0.6c0,0,0.1,0.1,0.1,0.1s0.1,0,0.3,0c0.1,0,0.2,0,0.3-0.1
				c0.1,0,0.1-0.1,0.2-0.2c0-0.1,0.1-0.2,0.1-0.2c0-0.1,0-0.2,0-0.2c0-0.1,0-0.2-0.1-0.3s-0.1-0.1-0.1-0.2c-0.1-0.1-0.1-0.1-0.2-0.1
				c-0.1,0-0.1-0.1-0.2-0.1l-0.1-0.1c-0.1,0-0.2-0.1-0.3-0.1c-0.1-0.1-0.2-0.1-0.3-0.2c-0.3-0.3-0.4-0.6-0.4-1c0-0.2,0-0.4,0.1-0.6
				c0.1-0.2,0.1-0.3,0.2-0.4c0.1-0.1,0.2-0.2,0.4-0.3c0.1-0.1,0.3-0.1,0.5-0.1c0.2,0,0.4,0,0.6,0.1s0.2,0.2,0.3,0.3
				c0.2,0.2,0.3,0.6,0.3,1v0.3h-0.6v-0.3c0-0.2,0-0.3-0.1-0.4c0-0.1-0.1-0.2-0.1-0.2s-0.1-0.1-0.2-0.1c-0.1,0-0.1,0-0.2,0
				c-0.1,0-0.2,0-0.3,0.1c-0.1,0.1-0.1,0.1-0.2,0.2c0,0.1-0.1,0.2-0.1,0.3c0,0.1,0,0.2,0,0.2c0,0.1,0,0.2,0.1,0.3s0.1,0.2,0.1,0.2
				s0.1,0.1,0.2,0.2c0.1,0,0.1,0.1,0.2,0.1l0.1,0c0.1,0,0.1,0.1,0.3,0.1c0.1,0.1,0.2,0.1,0.3,0.2c0.3,0.2,0.4,0.6,0.4,1
				c0,0.4-0.1,0.7-0.3,0.9c-0.2,0.3-0.5,0.4-0.9,0.4c-0.4,0-0.7-0.1-0.9-0.4C32,76.1,31.9,75.8,31.9,75.3z"/>
			<path fill="#0075C9" d="M36.5,75.3v-2.1c0-0.4,0.1-0.8,0.3-1c0,0,0.1-0.1,0.1-0.1c0.1,0,0.1-0.1,0.2-0.1s0.2-0.1,0.2-0.1
				c0.1,0,0.2,0,0.3,0c0.2,0,0.4,0,0.6,0.1c0.1,0.1,0.2,0.2,0.3,0.3c0.2,0.2,0.3,0.6,0.3,1v2.1c0,0.4-0.1,0.8-0.3,1
				c-0.1,0.1-0.2,0.2-0.3,0.3c-0.1,0.1-0.3,0.1-0.6,0.1c-0.2,0-0.4,0-0.6-0.1c-0.1-0.1-0.2-0.2-0.3-0.3
				C36.6,76.1,36.5,75.8,36.5,75.3z M37.2,75.3c0,0.2,0,0.3,0.1,0.4s0.1,0.2,0.1,0.2s0.1,0.1,0.2,0.1s0.1,0,0.2,0c0,0,0.1,0,0.2,0
				c0.1,0,0.1,0,0.2-0.1s0.1-0.1,0.1-0.2s0.1-0.2,0.1-0.4v-2.1c0-0.2,0-0.3-0.1-0.4c0-0.1-0.1-0.2-0.1-0.2c-0.1,0-0.1-0.1-0.2-0.1
				s-0.1,0-0.2,0c0,0-0.1,0-0.2,0c-0.1,0-0.1,0-0.2,0.1c-0.1,0-0.1,0.1-0.1,0.2c0,0.1-0.1,0.2-0.1,0.4V75.3z"/>
			<path fill="#0075C9" d="M39.2,72.5v-0.6h2.7v0.6h-1.1v4.2h-0.6v-4.2H39.2z"/>
			<path fill="#0075C9" d="M42.2,72.5v-0.6h2.7v0.6h-1.1v4.2h-0.6v-4.2H42.2z"/>
			<path fill="#0075C9" d="M45.2,76.7v-4.8h2v0.6h-1.4V74h1.4v0.6h-1.4v1.5h1.4v0.6H45.2z"/>
			<path fill="#0075C9" d="M47.7,76.7v-4.8h1c0.4,0,0.7,0.1,0.9,0.4c0.2,0.2,0.3,0.6,0.3,1c0,0.4-0.1,0.8-0.3,1c0,0,0,0,0,0s0,0,0,0
				c0.1,0.1,0.2,0.2,0.3,0.4s0.1,0.3,0.1,0.5v1.4h-0.6v-1.4c0-0.4-0.2-0.6-0.6-0.6h-0.3h-0.1v2.1H47.7z M48.3,74L48.3,74h0.4
				c0.2,0,0.3,0,0.3-0.1c0.1,0,0.1-0.1,0.1-0.1c0.1-0.1,0.1-0.3,0.1-0.6c0-0.2,0-0.3,0-0.4c0-0.1-0.1-0.2-0.1-0.2
				c-0.1-0.1-0.1-0.1-0.2-0.1c-0.1,0-0.2,0-0.3,0h-0.4V74z"/>
			<path fill="#0075C9" d="M24.7,83.9v-2.1c0-0.4,0.1-0.8,0.3-1c0.1-0.1,0.2-0.2,0.3-0.3s0.3-0.1,0.6-0.1c0.2,0,0.4,0,0.6,0.1
				s0.2,0.2,0.3,0.3c0.2,0.2,0.3,0.6,0.3,1v0.3h-0.6v-0.3c0-0.2,0-0.3-0.1-0.4c0-0.1-0.1-0.2-0.1-0.2s-0.1-0.1-0.2-0.1
				c-0.1,0-0.1,0-0.2,0c0,0-0.1,0-0.2,0c-0.1,0-0.1,0-0.2,0.1s-0.1,0.1-0.1,0.2c0,0.1-0.1,0.3-0.1,0.4v2.1c0,0.3,0.1,0.5,0.2,0.6
				c0,0,0.1,0.1,0.1,0.1s0.1,0.1,0.3,0.1c0.1,0,0.2,0,0.3-0.1s0.1-0.1,0.1-0.1c0.1-0.1,0.1-0.3,0.1-0.6v-0.3H27v0.3
				c0,0.4-0.1,0.8-0.3,1c-0.1,0.1-0.2,0.2-0.3,0.3c-0.1,0.1-0.3,0.1-0.6,0.1c-0.1,0-0.2,0-0.3,0s-0.2-0.1-0.2-0.1s-0.1-0.1-0.2-0.1
				C25.1,85,25,85,25,84.9C24.8,84.7,24.7,84.4,24.7,83.9z"/>
			<path fill="#0075C9" d="M27.3,85.3v-4.8h1c0.4,0,0.7,0.1,0.9,0.4c0.2,0.2,0.3,0.6,0.3,1c0,0.4-0.1,0.8-0.3,1c0,0,0,0,0,0s0,0,0,0
				c0.1,0.1,0.2,0.2,0.3,0.4s0.1,0.3,0.1,0.5v1.4h-0.6v-1.4c0-0.4-0.2-0.6-0.6-0.6H28h-0.1v2.1H27.3z M27.9,82.6L27.9,82.6h0.4
				c0.2,0,0.3,0,0.3-0.1c0.1,0,0.1-0.1,0.1-0.1c0.1-0.1,0.1-0.3,0.1-0.6c0-0.2,0-0.3,0-0.4c0-0.1-0.1-0.2-0.1-0.2
				c-0.1-0.1-0.1-0.1-0.2-0.1c-0.1,0-0.2,0-0.3,0h-0.4V82.6z"/>
			<path fill="#0075C9" d="M29.8,80.5h0.7l1,1.8l1-1.8h0.7L31.8,83v2.3h-0.6V83L29.8,80.5z"/>
			<path fill="#0075C9" d="M33.3,83.9v-0.3h0.6v0.3c0,0.3,0.1,0.5,0.2,0.6c0,0,0.1,0.1,0.1,0.1s0.1,0,0.3,0c0.1,0,0.2,0,0.3-0.1
				c0.1,0,0.1-0.1,0.2-0.2c0-0.1,0.1-0.2,0.1-0.2c0-0.1,0-0.2,0-0.2c0-0.1,0-0.2-0.1-0.3s-0.1-0.1-0.1-0.2c-0.1-0.1-0.1-0.1-0.2-0.1
				c-0.1,0-0.1-0.1-0.2-0.1l-0.1-0.1c-0.1,0-0.2-0.1-0.3-0.1c-0.1-0.1-0.2-0.1-0.3-0.2c-0.3-0.3-0.4-0.6-0.4-1c0-0.2,0-0.4,0.1-0.6
				c0.1-0.2,0.1-0.3,0.2-0.4c0.1-0.1,0.2-0.2,0.4-0.3c0.1-0.1,0.3-0.1,0.5-0.1c0.2,0,0.4,0,0.6,0.1s0.2,0.2,0.3,0.3
				c0.2,0.2,0.3,0.6,0.3,1v0.3H35v-0.3c0-0.2,0-0.3-0.1-0.4c0-0.1-0.1-0.2-0.1-0.2s-0.1-0.1-0.2-0.1c-0.1,0-0.1,0-0.2,0
				c-0.1,0-0.2,0-0.3,0.1c-0.1,0.1-0.1,0.1-0.2,0.2c0,0.1-0.1,0.2-0.1,0.3c0,0.1,0,0.2,0,0.2c0,0.1,0,0.2,0.1,0.3s0.1,0.2,0.1,0.2
				s0.1,0.1,0.2,0.2c0.1,0,0.1,0.1,0.2,0.1l0.1,0c0.1,0,0.1,0.1,0.3,0.1c0.1,0.1,0.2,0.1,0.3,0.2c0.3,0.2,0.4,0.6,0.4,1
				c0,0.4-0.1,0.7-0.3,0.9c-0.2,0.3-0.5,0.4-0.9,0.4c-0.4,0-0.7-0.1-0.9-0.4C33.4,84.7,33.3,84.4,33.3,83.9z"/>
			<path fill="#0075C9" d="M35.9,81.1v-0.6h2.7v0.6h-1.1v4.2H37v-4.2H35.9z"/>
			<path fill="#0075C9" d="M39,85.3l1.1-4.8h0.5l1.1,4.8H41L40.7,84h-0.8l-0.3,1.3H39z M40,83.4h0.6l-0.3-1.2L40,83.4z"/>
			<path fill="#0075C9" d="M41.8,85.3v-4.8h0.6v4.2h1.5v0.6H41.8z"/>
			<path fill="#0075C9" d="M46.2,81.6l0.8-1.1h0.6v4.8h-0.6v-3.7L46.7,82L46.2,81.6z"/>
			<path fill="#0075C9" d="M48,84.3v-0.1h0.6v0.1c0,0,0,0.1,0,0.1c0,0,0,0.1,0.1,0.1c0,0,0.1,0.1,0.1,0.1c0.1,0,0.1,0,0.2,0
				s0.1,0,0.2-0.1c0.1-0.1,0.1-0.1,0.1-0.2s0.1-0.2,0.1-0.2c0-0.1,0-0.2,0-0.2v-0.5c0-0.2,0-0.3,0-0.4s-0.1-0.2-0.1-0.2
				c0,0-0.1-0.1-0.1-0.1c0,0-0.1,0-0.2,0c-0.1,0-0.1,0-0.2,0c0,0-0.1,0.1-0.1,0.1c-0.1,0.1-0.1,0.3-0.1,0.5v0.2v0H48v0v-0.2v-2.9
				h0.6H50v0.6h-1.4v1.1c0.1-0.1,0.3-0.1,0.4-0.1c0.2,0,0.4,0,0.5,0.1c0.1,0.1,0.2,0.2,0.3,0.3c0.2,0.2,0.2,0.5,0.2,1V84
				c0,0.4-0.1,0.7-0.2,0.9c-0.1,0.1-0.2,0.3-0.3,0.3c-0.1,0.1-0.3,0.1-0.5,0.1c-0.2,0-0.3,0-0.4-0.1c-0.1-0.1-0.2-0.1-0.3-0.3
				c-0.1-0.1-0.1-0.2-0.2-0.3S48,84.4,48,84.3z"/>
			<path fill="#0075C9" d="M24.2,92.6v-2.1c0-0.4,0.1-0.8,0.3-1c0.1-0.1,0.2-0.2,0.3-0.3s0.3-0.1,0.6-0.1c0.2,0,0.4,0,0.6,0.1
				s0.2,0.2,0.3,0.3c0.2,0.2,0.3,0.6,0.3,1v0.3h-0.6v-0.3c0-0.2,0-0.3-0.1-0.4c0-0.1-0.1-0.2-0.1-0.2s-0.1-0.1-0.2-0.1
				c-0.1,0-0.1,0-0.2,0c0,0-0.1,0-0.2,0c-0.1,0-0.1,0-0.2,0.1s-0.1,0.1-0.1,0.2c0,0.1-0.1,0.3-0.1,0.4v2.1c0,0.3,0.1,0.5,0.2,0.6
				c0,0,0.1,0.1,0.1,0.1s0.1,0.1,0.3,0.1c0.1,0,0.2,0,0.3-0.1s0.1-0.1,0.1-0.1c0.1-0.1,0.1-0.3,0.1-0.6v-0.3h0.6v0.3
				c0,0.4-0.1,0.8-0.3,1c-0.1,0.1-0.2,0.2-0.3,0.3c-0.1,0.1-0.3,0.1-0.6,0.1c-0.1,0-0.2,0-0.3,0s-0.2-0.1-0.2-0.1s-0.1-0.1-0.2-0.1
				c-0.1,0-0.1-0.1-0.1-0.1C24.3,93.3,24.2,93,24.2,92.6z"/>
			<path fill="#0075C9" d="M26.7,93.9v-4.8h1c0.4,0,0.7,0.1,0.9,0.4c0.2,0.2,0.3,0.6,0.3,1c0,0.4-0.1,0.8-0.3,1c0,0,0,0,0,0s0,0,0,0
				c0.1,0.1,0.2,0.2,0.3,0.4s0.1,0.3,0.1,0.5v1.4h-0.6v-1.4c0-0.4-0.2-0.6-0.6-0.6h-0.3h-0.1v2.1H26.7z M27.3,91.2L27.3,91.2h0.4
				c0.2,0,0.3,0,0.3-0.1c0.1,0,0.1-0.1,0.1-0.1c0.1-0.1,0.1-0.3,0.1-0.6c0-0.2,0-0.3,0-0.4c0-0.1-0.1-0.2-0.1-0.2
				c-0.1-0.1-0.1-0.1-0.2-0.1c-0.1,0-0.2,0-0.3,0h-0.4V91.2z"/>
			<path fill="#0075C9" d="M29.3,89.1H30l1,1.8l1-1.8h0.7l-1.4,2.5v2.3h-0.6v-2.3L29.3,89.1z"/>
			<path fill="#0075C9" d="M32.8,92.6v-0.3h0.6v0.3c0,0.3,0.1,0.5,0.2,0.6c0,0,0.1,0.1,0.1,0.1s0.1,0,0.3,0c0.1,0,0.2,0,0.3-0.1
				c0.1,0,0.1-0.1,0.2-0.2c0-0.1,0.1-0.2,0.1-0.2c0-0.1,0-0.2,0-0.2c0-0.1,0-0.2-0.1-0.3s-0.1-0.1-0.1-0.2C34.2,92,34.1,92,34.1,92
				c-0.1,0-0.1-0.1-0.2-0.1l-0.1-0.1c-0.1,0-0.2-0.1-0.3-0.1c-0.1-0.1-0.2-0.1-0.3-0.2c-0.3-0.3-0.4-0.6-0.4-1c0-0.2,0-0.4,0.1-0.6
				c0.1-0.2,0.1-0.3,0.2-0.4c0.1-0.1,0.2-0.2,0.4-0.3c0.1-0.1,0.3-0.1,0.5-0.1c0.2,0,0.4,0,0.6,0.1s0.2,0.2,0.3,0.3
				c0.2,0.2,0.3,0.6,0.3,1v0.3h-0.6v-0.3c0-0.2,0-0.3-0.1-0.4c0-0.1-0.1-0.2-0.1-0.2s-0.1-0.1-0.2-0.1c-0.1,0-0.1,0-0.2,0
				c-0.1,0-0.2,0-0.3,0.1c-0.1,0.1-0.1,0.1-0.2,0.2c0,0.1-0.1,0.2-0.1,0.3c0,0.1,0,0.2,0,0.2c0,0.1,0,0.2,0.1,0.3s0.1,0.2,0.1,0.2
				s0.1,0.1,0.2,0.2c0.1,0,0.1,0.1,0.2,0.1l0.1,0c0.1,0,0.1,0.1,0.3,0.1c0.1,0.1,0.2,0.1,0.3,0.2c0.3,0.2,0.4,0.6,0.4,1
				c0,0.4-0.1,0.7-0.3,0.9c-0.2,0.3-0.5,0.4-0.9,0.4c-0.4,0-0.7-0.1-0.9-0.4C32.9,93.3,32.8,93,32.8,92.6z"/>
			<path fill="#0075C9" d="M35.4,89.7v-0.6h2.7v0.6H37v4.2h-0.6v-4.2H35.4z"/>
			<path fill="#0075C9" d="M38.4,93.9l1.1-4.8H40l1.1,4.8h-0.6l-0.3-1.3h-0.8L39,93.9H38.4z M39.5,92H40l-0.3-1.2L39.5,92z"/>
			<path fill="#0075C9" d="M41.3,93.9v-4.8h0.6v4.2h1.5v0.6H41.3z"/>
			<path fill="#0075C9" d="M45.6,92.6v-0.3h0.6v0.3c0,0.2,0,0.3,0,0.4c0,0.1,0.1,0.2,0.1,0.2c0,0,0.1,0.1,0.1,0.1c0,0,0.1,0,0.2,0
				c0.1,0,0.2,0,0.2-0.1c0.1-0.1,0.1-0.1,0.1-0.2c0-0.1,0-0.2,0-0.2c0-0.1,0-0.1,0-0.2c0-0.1,0-0.3-0.1-0.4c0-0.1-0.1-0.2-0.2-0.2
				c-0.1-0.1-0.1-0.1-0.2-0.1c-0.1,0-0.1,0-0.2,0h-0.3h0v-0.6h0.3c0,0,0.1,0,0.2,0s0.1-0.1,0.2-0.1s0.1-0.1,0.2-0.2
				c0-0.1,0.1-0.2,0.1-0.4c0,0,0-0.1,0-0.1c0-0.1,0-0.2,0-0.2c0-0.1-0.1-0.2-0.1-0.2s-0.1-0.1-0.2-0.1c0,0-0.1,0-0.1,0
				c0,0-0.1,0-0.1,0.1s-0.1,0.1-0.1,0.2c0,0.1,0,0.3,0,0.4v0.3h-0.6v-0.3c0-0.4,0.1-0.7,0.2-1c0.2-0.3,0.4-0.4,0.8-0.4
				c0.3,0,0.6,0.1,0.8,0.4c0.2,0.2,0.2,0.5,0.2,0.9c0,0.3,0,0.5-0.1,0.7c-0.1,0.2-0.2,0.3-0.3,0.4l0,0c0,0,0,0,0,0c0,0,0,0,0,0
				c0.1,0.1,0.2,0.2,0.3,0.4c0.1,0.2,0.1,0.4,0.1,0.7c0,0.2,0,0.3-0.1,0.5c0,0.2-0.1,0.3-0.2,0.4c-0.2,0.3-0.5,0.4-0.8,0.4
				c-0.3,0-0.6-0.1-0.8-0.4c-0.1-0.1-0.1-0.3-0.2-0.4C45.6,93,45.6,92.8,45.6,92.6z"/>
			<path fill="#0075C9" d="M48,92.9v-0.1h0.6v0.1c0,0,0,0.1,0,0.1c0,0,0,0.1,0.1,0.1c0,0,0.1,0.1,0.1,0.1c0.1,0,0.1,0,0.2,0
				s0.1,0,0.2-0.1c0.1-0.1,0.1-0.1,0.1-0.2s0.1-0.2,0.1-0.2c0-0.1,0-0.2,0-0.2v-0.5c0-0.2,0-0.3,0-0.4s-0.1-0.2-0.1-0.2
				c0,0-0.1-0.1-0.1-0.1c0,0-0.1,0-0.2,0c-0.1,0-0.1,0-0.2,0c0,0-0.1,0.1-0.1,0.1c-0.1,0.1-0.1,0.3-0.1,0.5v0.2v0H48v0V92v-2.9h0.6
				H50v0.6h-1.4v1.1c0.1-0.1,0.3-0.1,0.4-0.1c0.2,0,0.4,0,0.5,0.1c0.1,0.1,0.2,0.2,0.3,0.3c0.2,0.2,0.2,0.5,0.2,1v0.5
				c0,0.4-0.1,0.7-0.2,0.9c-0.1,0.1-0.2,0.3-0.3,0.3c-0.1,0.1-0.3,0.1-0.5,0.1c-0.2,0-0.3,0-0.4-0.1c-0.1-0.1-0.2-0.1-0.3-0.3
				c-0.1-0.1-0.1-0.2-0.2-0.3S48,93,48,92.9z"/>
			<path fill="#0075C9" d="M28.2,101.2v-2.1c0-0.4,0.1-0.8,0.3-1c0.1-0.1,0.2-0.2,0.3-0.3s0.3-0.1,0.6-0.1c0.2,0,0.4,0,0.6,0.1
				s0.2,0.2,0.3,0.3c0.2,0.2,0.3,0.6,0.3,1v0.3h-0.6v-0.3c0-0.2,0-0.3-0.1-0.4c0-0.1-0.1-0.2-0.1-0.2s-0.1-0.1-0.2-0.1
				c-0.1,0-0.1,0-0.2,0c0,0-0.1,0-0.2,0c-0.1,0-0.1,0-0.2,0.1s-0.1,0.1-0.1,0.2c0,0.1-0.1,0.3-0.1,0.4v2.1c0,0.3,0.1,0.5,0.2,0.6
				c0,0,0.1,0.1,0.1,0.1s0.1,0.1,0.3,0.1c0.1,0,0.2,0,0.3-0.1s0.1-0.1,0.1-0.1c0.1-0.1,0.1-0.3,0.1-0.6v-0.3h0.6v0.3
				c0,0.4-0.1,0.8-0.3,1c-0.1,0.1-0.2,0.2-0.3,0.3c-0.1,0.1-0.3,0.1-0.6,0.1c-0.1,0-0.2,0-0.3,0s-0.2-0.1-0.2-0.1s-0.1-0.1-0.2-0.1
				c-0.1,0-0.1-0.1-0.1-0.1C28.2,101.9,28.2,101.6,28.2,101.2z"/>
			<path fill="#0075C9" d="M30.7,102.6l1.1-4.8h0.5l1.1,4.8h-0.6l-0.3-1.3h-0.8l-0.3,1.3H30.7z M31.8,100.6h0.6l-0.3-1.2L31.8,100.6
				z"/>
			<path fill="#0075C9" d="M33.6,102.5v-4.8h1c0.4,0,0.7,0.1,0.9,0.4c0.2,0.2,0.3,0.6,0.3,1c0,0.4-0.1,0.8-0.3,1c0,0,0,0,0,0
				s0,0,0,0c0.1,0.1,0.2,0.2,0.3,0.4s0.1,0.3,0.1,0.5v1.4h-0.6v-1.4c0-0.4-0.2-0.6-0.6-0.6h-0.3h-0.1v2.1H33.6z M34.2,99.9
				L34.2,99.9h0.4c0.2,0,0.3,0,0.3-0.1c0.1,0,0.1-0.1,0.1-0.1c0.1-0.1,0.1-0.3,0.1-0.6c0-0.2,0-0.3,0-0.4c0-0.1-0.1-0.2-0.1-0.2
				c-0.1-0.1-0.1-0.1-0.2-0.1c-0.1,0-0.2,0-0.3,0h-0.4V99.9z"/>
			<path fill="#0075C9" d="M36.3,102.6l1.1-4.8h0.5l1.1,4.8h-0.6l-0.3-1.3h-0.8l-0.3,1.3H36.3z M37.4,100.6h0.6l-0.3-1.2L37.4,100.6
				z"/>
			<path fill="#0075C9" d="M39.2,100.4v-0.6h2v0.6H39.2z"/>
			<path fill="#0075C9" d="M41.6,102.5v-4.8h1c0.4,0,0.7,0.1,0.9,0.4c0.2,0.2,0.3,0.6,0.3,1c0,0.4-0.1,0.8-0.3,1
				c-0.2,0.2-0.5,0.4-0.9,0.4h-0.4v2.1H41.6z M42.2,99.8h0.4c0.2,0,0.3,0,0.3-0.1c0.1,0,0.1-0.1,0.1-0.1c0.1-0.1,0.1-0.3,0.1-0.6
				c0-0.2,0-0.3,0-0.4c0-0.1-0.1-0.2-0.1-0.2c-0.1-0.1-0.1-0.1-0.2-0.1c-0.1,0-0.2,0-0.3,0h-0.4V99.8z"/>
			<path fill="#0075C9" d="M44.3,102.6v-4.8H45v4.8H44.3z"/>
			<path fill="#0075C9" d="M45.5,102.5v-4.8h0.6v4.2h1.5v0.6H45.5z"/>
			<path fill="#0075C9" d="M47.8,101.2v-0.3h0.6v0.3c0,0.3,0.1,0.5,0.2,0.6c0,0,0.1,0.1,0.1,0.1s0.1,0,0.3,0c0.1,0,0.2,0,0.3-0.1
				c0.1,0,0.1-0.1,0.2-0.2c0-0.1,0.1-0.2,0.1-0.2c0-0.1,0-0.2,0-0.2c0-0.1,0-0.2-0.1-0.3s-0.1-0.1-0.1-0.2c-0.1-0.1-0.1-0.1-0.2-0.1
				c-0.1,0-0.1-0.1-0.2-0.1l-0.1-0.1c-0.1,0-0.2-0.1-0.3-0.1c-0.1-0.1-0.2-0.1-0.3-0.2c-0.3-0.3-0.4-0.6-0.4-1c0-0.2,0-0.4,0.1-0.6
				c0.1-0.2,0.1-0.3,0.2-0.4c0.1-0.1,0.2-0.2,0.4-0.3c0.1-0.1,0.3-0.1,0.5-0.1c0.2,0,0.4,0,0.6,0.1s0.2,0.2,0.3,0.3
				c0.2,0.2,0.3,0.6,0.3,1v0.3h-0.6v-0.3c0-0.2,0-0.3-0.1-0.4c0-0.1-0.1-0.2-0.1-0.2s-0.1-0.1-0.2-0.1c-0.1,0-0.1,0-0.2,0
				c-0.1,0-0.2,0-0.3,0.1c-0.1,0.1-0.1,0.1-0.2,0.2c0,0.1-0.1,0.2-0.1,0.3c0,0.1,0,0.2,0,0.2c0,0.1,0,0.2,0.1,0.3s0.1,0.2,0.1,0.2
				s0.1,0.1,0.2,0.2c0.1,0,0.1,0.1,0.2,0.1l0.1,0c0.1,0,0.1,0.1,0.3,0.1c0.1,0.1,0.2,0.1,0.3,0.2c0.3,0.2,0.4,0.6,0.4,1
				c0,0.4-0.1,0.7-0.3,0.9c-0.2,0.3-0.5,0.4-0.9,0.4c-0.4,0-0.7-0.1-0.9-0.4C47.9,101.9,47.8,101.6,47.8,101.2z"/>
		</g>
	</g>
	<g>
		<g>
			<g>
				<path fill="#0075C9" d="M265.6,10.8V8.7c0-0.4,0.1-0.8,0.3-1c0.1-0.1,0.2-0.2,0.3-0.3s0.3-0.1,0.6-0.1c0.2,0,0.4,0,0.6,0.1
					s0.2,0.2,0.3,0.3c0.2,0.2,0.3,0.6,0.3,1V9h-0.6V8.7c0-0.2,0-0.3-0.1-0.4c0-0.1-0.1-0.2-0.1-0.2S267,8,266.9,8
					c-0.1,0-0.1,0-0.2,0c0,0-0.1,0-0.2,0c-0.1,0-0.1,0-0.2,0.1s-0.1,0.1-0.1,0.2c0,0.1-0.1,0.3-0.1,0.4v2.1c0,0.3,0.1,0.5,0.2,0.6
					c0,0,0.1,0.1,0.1,0.1s0.1,0.1,0.3,0.1c0.1,0,0.2,0,0.3-0.1s0.1-0.1,0.1-0.1c0.1-0.1,0.1-0.3,0.1-0.6v-0.3h0.6v0.3
					c0,0.4-0.1,0.8-0.3,1c-0.1,0.1-0.2,0.2-0.3,0.3c-0.1,0.1-0.3,0.1-0.6,0.1c-0.1,0-0.2,0-0.3,0s-0.2-0.1-0.2-0.1s-0.1-0.1-0.2-0.1
					c-0.1,0-0.1-0.1-0.1-0.1C265.7,11.6,265.6,11.2,265.6,10.8z"/>
				<path fill="#0075C9" d="M268.3,12.2V7.4h0.6v4.8H268.3z"/>
				<path fill="#0075C9" d="M269.5,8V7.3h2.7V8h-1.1v4.2h-0.6V8H269.5z"/>
				<path fill="#0075C9" d="M272.5,12.2V7.3h1c0.4,0,0.7,0.1,0.9,0.4c0.2,0.2,0.3,0.6,0.3,1c0,0.4-0.1,0.8-0.3,1c0,0,0,0,0,0
					s0,0,0,0c0.1,0.1,0.2,0.2,0.3,0.4s0.1,0.3,0.1,0.5v1.4h-0.6v-1.4c0-0.4-0.2-0.6-0.6-0.6h-0.3h-0.1v2.1H272.5z M273.1,9.5
					L273.1,9.5h0.4c0.2,0,0.3,0,0.3-0.1c0.1,0,0.1-0.1,0.1-0.1c0.1-0.1,0.1-0.3,0.1-0.6c0-0.2,0-0.3,0-0.4c0-0.1-0.1-0.2-0.1-0.2
					C273.9,8,273.8,8,273.8,8c-0.1,0-0.2,0-0.3,0h-0.4V9.5z"/>
				<path fill="#0075C9" d="M275.2,12.2l1.1-4.8h0.5l1.1,4.8h-0.6l-0.3-1.3h-0.8l-0.3,1.3H275.2z M276.3,10.2h0.6L276.6,9
					L276.3,10.2z"/>
				<path fill="#0075C9" d="M265.6,16h0.6l0.7,3.1l0.7-3.1h0.5l0.7,3.1l0.7-3.1h0.6l-1.1,4.8h-0.5l-0.7-3.1l-0.7,3.1h-0.5L265.6,16z
					"/>
				<path fill="#0075C9" d="M270.3,20.8l1.1-4.8h0.5l1.1,4.8h-0.6l-0.3-1.3h-0.8l-0.3,1.3H270.3z M271.4,18.8h0.6l-0.3-1.2
					L271.4,18.8z"/>
				<path fill="#0075C9" d="M273.2,20.8V16h1c0.4,0,0.7,0.1,0.9,0.4c0.2,0.2,0.3,0.6,0.3,1c0,0.4-0.1,0.8-0.3,1c0,0,0,0,0,0s0,0,0,0
					c0.1,0.1,0.2,0.2,0.3,0.4s0.1,0.3,0.1,0.5v1.4h-0.6v-1.4c0-0.4-0.2-0.6-0.6-0.6h-0.3h-0.1v2.1H273.2z M273.8,18.1L273.8,18.1
					h0.4c0.2,0,0.3,0,0.3-0.1c0.1,0,0.1-0.1,0.1-0.1c0.1-0.1,0.1-0.3,0.1-0.6c0-0.2,0-0.3,0-0.4c0-0.1-0.1-0.2-0.1-0.2
					c-0.1-0.1-0.1-0.1-0.2-0.1c-0.1,0-0.2,0-0.3,0h-0.4V18.1z"/>
				<path fill="#0075C9" d="M275.9,20.8V16h1c0.4,0,0.7,0.1,0.9,0.4c0.2,0.2,0.3,0.6,0.3,1c0,0.4-0.1,0.8-0.3,1c0,0,0,0,0,0s0,0,0,0
					c0.1,0.1,0.2,0.2,0.3,0.4s0.1,0.3,0.1,0.5v1.4h-0.6v-1.4c0-0.4-0.2-0.6-0.6-0.6h-0.3h-0.1v2.1H275.9z M276.5,18.1L276.5,18.1
					h0.4c0.2,0,0.3,0,0.3-0.1c0.1,0,0.1-0.1,0.1-0.1c0.1-0.1,0.1-0.3,0.1-0.6c0-0.2,0-0.3,0-0.4c0-0.1-0.1-0.2-0.1-0.2
					c-0.1-0.1-0.1-0.1-0.2-0.1c-0.1,0-0.2,0-0.3,0h-0.4V18.1z"/>
				<path fill="#0075C9" d="M278.9,20.8V16h0.6v4.8H278.9z"/>
				<path fill="#0075C9" d="M280,19.4v-2.1c0-0.4,0.1-0.8,0.3-1c0,0,0.1-0.1,0.1-0.1c0.1,0,0.1-0.1,0.2-0.1s0.2-0.1,0.2-0.1
					c0.1,0,0.2,0,0.3,0c0.2,0,0.4,0,0.6,0.1c0.1,0.1,0.2,0.2,0.3,0.3c0.2,0.2,0.3,0.6,0.3,1v2.1c0,0.4-0.1,0.8-0.3,1
					c-0.1,0.1-0.2,0.2-0.3,0.3c-0.1,0.1-0.3,0.1-0.6,0.1c-0.2,0-0.4,0-0.6-0.1c-0.1-0.1-0.2-0.2-0.3-0.3
					C280.1,20.2,280,19.8,280,19.4z M280.6,19.4c0,0.2,0,0.3,0.1,0.4s0.1,0.2,0.1,0.2s0.1,0.1,0.2,0.1s0.1,0,0.2,0c0,0,0.1,0,0.2,0
					c0.1,0,0.1,0,0.2-0.1s0.1-0.1,0.1-0.2s0.1-0.2,0.1-0.4v-2.1c0-0.2,0-0.3-0.1-0.4c0-0.1-0.1-0.2-0.1-0.2c-0.1,0-0.1-0.1-0.2-0.1
					s-0.1,0-0.2,0c0,0-0.1,0-0.2,0c-0.1,0-0.1,0-0.2,0.1c-0.1,0-0.1,0.1-0.1,0.2c0,0.1-0.1,0.2-0.1,0.4V19.4z"/>
				<path fill="#0075C9" d="M282.6,20.8V16h1c0.4,0,0.7,0.1,0.9,0.4c0.2,0.2,0.3,0.6,0.3,1c0,0.4-0.1,0.8-0.3,1c0,0,0,0,0,0s0,0,0,0
					c0.1,0.1,0.2,0.2,0.3,0.4s0.1,0.3,0.1,0.5v1.4h-0.6v-1.4c0-0.4-0.2-0.6-0.6-0.6h-0.3h-0.1v2.1H282.6z M283.3,18.1L283.3,18.1
					h0.4c0.2,0,0.3,0,0.3-0.1c0.1,0,0.1-0.1,0.1-0.1c0.1-0.1,0.1-0.3,0.1-0.6c0-0.2,0-0.3,0-0.4c0-0.1-0.1-0.2-0.1-0.2
					c-0.1-0.1-0.1-0.1-0.2-0.1c-0.1,0-0.2,0-0.3,0h-0.4V18.1z"/>
			</g>
		</g>
	</g>
	<g>
		<g>
			<path fill="#FFFFFF" d="M54.9,86c-1.7,0-3-1.3-3-3c0-1.7,1.3-3,3-3s3,1.3,3,3C57.9,84.7,56.6,86,54.9,86z M54.9,81.2
				c-1,0-1.8,0.8-1.8,1.8c0,1,0.8,1.8,1.8,1.8c1,0,1.8-0.8,1.8-1.8C56.7,82,55.9,81.2,54.9,81.2z"/>
		</g>
		<g>
			<path fill="#FFFFFF" d="M54.9,77c-1.7,0-3-1.3-3-3c0-1.7,1.3-3,3-3s3,1.3,3,3C57.9,75.7,56.6,77,54.9,77z M54.9,72.2
				c-1,0-1.8,0.8-1.8,1.8c0,1,0.8,1.8,1.8,1.8c1,0,1.8-0.8,1.8-1.8C56.7,73,55.9,72.2,54.9,72.2z"/>
		</g>
		<g>
			<path fill="#FFFFFF" d="M54.9,94.6c-1.7,0-3-1.3-3-3c0-1.7,1.3-3,3-3s3,1.3,3,3C57.9,93.3,56.6,94.6,54.9,94.6z M54.9,89.9
				c-1,0-1.8,0.8-1.8,1.8c0,1,0.8,1.8,1.8,1.8c1,0,1.8-0.8,1.8-1.8C56.7,90.7,55.9,89.9,54.9,89.9z"/>
		</g>
		<g>
			<path fill="#FFFFFF" d="M54.9,103.3c-1.7,0-3-1.3-3-3c0-1.7,1.3-3,3-3s3,1.3,3,3C57.9,101.9,56.6,103.3,54.9,103.3z M54.9,98.5
				c-1,0-1.8,0.8-1.8,1.8c0,1,0.8,1.8,1.8,1.8c1,0,1.8-0.8,1.8-1.8C56.7,99.3,55.9,98.5,54.9,98.5z"/>
		</g>
	</g>
	<g>
		<g>
			<rect x="156.9" y="61" fill="#FFFFFF" width="53" height="51.2"/>
		</g>
		<g>
			<path fill="#FFFFFF" d="M217.6,67.7h-68.3c-0.8,0-1.4-0.6-1.4-1.4s0.6-1.4,1.4-1.4h68.3c0.8,0,1.4,0.6,1.4,1.4
				S218.4,67.7,217.6,67.7z"/>
		</g>
	</g>
	<g>
		<polygon fill="#FFFFFF" points="231.4,48.2 230.2,48.2 230.2,39.3 243.2,26.3 250.6,26.3 250.6,27.5 243.7,27.5 231.4,39.8 		"/>
	</g>
	<g>
		<polygon fill="#FFFFFF" points="293.9,124.7 261,124.7 261,113.2 262.2,113.2 262.2,123.5 293.4,123.5 300.3,116.5 300.3,111.6 
			301.5,111.6 301.5,117.1 		"/>
	</g>
	<g>
		<path fill="none" stroke="#FFFFFF" stroke-width="3" stroke-miterlimit="10" d="M258.5,16.1"/>
	</g>
	<g>
		<polygon fill="#FFFFFF" points="329.9,55.6 335.7,52.2 329.9,48.9 329.9,52.1 		"/>
	</g>
	<g>
		<g>
			<path fill="#FFFFFF" d="M231.2,45l-7.7,13.3h15.4L231.2,45z"/>
		</g>
		<g>
			<g>
				<path fill="#A09F9F" d="M228.5,52.3v-0.5h2.1v0.5l-1.5,3.5h-0.5l1.4-3.4H228.5z"/>
				<path fill="#A09F9F" d="M230.8,54.6v-1.7c0-0.3,0.1-0.6,0.2-0.8c0.1-0.2,0.4-0.3,0.6-0.3c0.3,0,0.5,0.1,0.6,0.3
					c0.1,0.2,0.2,0.5,0.2,0.8v1.7c0,0.3-0.1,0.6-0.2,0.8c-0.1,0.2-0.4,0.3-0.6,0.3c-0.3,0-0.5-0.1-0.6-0.3
					C230.9,55.2,230.8,54.9,230.8,54.6z M231.3,54.6c0,0.2,0,0.3,0,0.4c0,0.1,0.1,0.1,0.1,0.2c0,0,0.1,0.1,0.1,0.1s0.1,0,0.1,0
					c0,0,0.1,0,0.1,0c0,0,0.1,0,0.1-0.1c0,0,0.1-0.1,0.1-0.2s0-0.2,0-0.4v-1.7c0-0.2,0-0.3,0-0.4s-0.1-0.1-0.1-0.2
					c0,0-0.1-0.1-0.1-0.1c0,0-0.1,0-0.1,0c0,0-0.1,0-0.1,0c0,0-0.1,0-0.1,0.1c0,0-0.1,0.1-0.1,0.2c0,0.1,0,0.2,0,0.4V54.6z"/>
				<path fill="#A09F9F" d="M232.8,53.3v-1c0-0.2,0-0.4,0.1-0.5c0,0,0,0,0.1-0.1s0.1,0,0.1-0.1s0.1,0,0.1,0c0,0,0.1,0,0.1,0
					c0.1,0,0.2,0,0.3,0.1c0.1,0,0.1,0.1,0.1,0.1c0.1,0.1,0.1,0.3,0.1,0.5v1c0,0.2,0,0.4-0.1,0.5c0,0-0.1,0.1-0.1,0.1
					c-0.1,0-0.2,0.1-0.3,0.1c-0.1,0-0.2,0-0.3-0.1c-0.1,0-0.1-0.1-0.1-0.1C232.9,53.6,232.8,53.5,232.8,53.3z M233.1,53.3
					c0,0.1,0,0.2,0,0.2c0,0,0,0.1,0.1,0.1s0.1,0,0.1,0c0,0,0.1,0,0.1,0c0,0,0,0,0.1,0c0,0,0.1,0,0.1,0c0,0,0-0.1,0.1-0.1
					s0-0.1,0-0.2v-1c0-0.1,0-0.2,0-0.2c0,0,0-0.1-0.1-0.1c0,0-0.1,0-0.1,0c0,0-0.1,0-0.1,0c0,0,0,0-0.1,0s-0.1,0-0.1,0
					c0,0,0,0.1-0.1,0.1c0,0,0,0.1,0,0.2V53.3z"/>
			</g>
		</g>
	</g>
	<g>
		<path fill="#FFFFFF" d="M245,38.2v53.4v7.6v17.8c0,1.1,0.9,2,2,2c1.1,0,2-0.9,2-2v-10.5l4.6,8.3h15.4l4.6-8.3v11.3
			c0,1.1,0.9,2,2,2c1.1,0,2-0.9,2-2V99.2v-8.4V38.2H245z"/>
	</g>
	<g>
		<rect x="252.3" y="29.3" fill="#FFFFFF" width="1.2" height="4.3"/>
	</g>
	<g>
		<polygon fill="#FFFFFF" points="255.1,33.3 252.9,37 250.7,33.3 		"/>
	</g>
	<g>
		<path fill="#FFFFFF" d="M252.9,30.2c-1.7,0-3-1.3-3-3c0-1.7,1.3-3,3-3c1.7,0,3,1.3,3,3C255.9,28.8,254.6,30.2,252.9,30.2z
			 M252.9,25.4c-1,0-1.8,0.8-1.8,1.8c0,1,0.8,1.8,1.8,1.8c1,0,1.8-0.8,1.8-1.8C254.7,26.2,253.9,25.4,252.9,25.4z"/>
	</g>
	<g>
		<rect x="260.5" y="29.3" fill="#FFFFFF" width="1.2" height="4.3"/>
	</g>
	<g>
		<polygon fill="#FFFFFF" points="263.3,33.3 261.1,37 258.9,33.3 		"/>
	</g>
	<g>
		<path fill="#FFFFFF" d="M261.1,30.2c-1.7,0-3-1.3-3-3c0-1.7,1.3-3,3-3c1.7,0,3,1.3,3,3C264.1,28.8,262.8,30.2,261.1,30.2z
			 M261.1,25.4c-1,0-1.8,0.8-1.8,1.8c0,1,0.8,1.8,1.8,1.8c1,0,1.8-0.8,1.8-1.8C262.9,26.2,262.1,25.4,261.1,25.4z"/>
	</g>
	<g>
		<rect x="260.5" y="21.1" fill="#FFFFFF" width="1.2" height="4.3"/>
	</g>
	<g>
		<path fill="#FFFFFF" d="M261.1,22c-1.7,0-3-1.3-3-3c0-1.7,1.3-3,3-3c1.7,0,3,1.3,3,3C264.1,20.6,262.8,22,261.1,22z M261.1,17.2
			c-1,0-1.8,0.8-1.8,1.8c0,1,0.8,1.8,1.8,1.8c1,0,1.8-0.8,1.8-1.8C262.9,18,262.1,17.2,261.1,17.2z"/>
	</g>
	<g>
		<path fill="#FFFFFF" d="M309.3,112.3h-17.8V78.2h17.8V112.3z M292.7,111h15.4V79.4h-15.4V111z"/>
	</g>
	<g>
		<rect x="341.5" y="57.8" fill="#0075C9" width="1.2" height="31.4"/>
	</g>
	<g>
		<g>
			<path fill="#FFFFFF" d="M313.2,57.7h-24.4c0.5,2.8,1.2,5,1.8,6.4h20.8C312.1,62.7,312.8,60.5,313.2,57.7z"/>
		</g>
		<g>
			<path fill="#FFFFFF" d="M288.4,51.8c0,1.7,0.1,3.3,0.3,4.7h24.7c0.2-1.4,0.3-3,0.3-4.7c0-1.6-0.1-3.1-0.2-4.5h-24.8
				C288.5,48.7,288.4,50.2,288.4,51.8z"/>
		</g>
		<g>
			<path fill="#FFFFFF" d="M290.5,39.7c-0.6,1.5-1.2,3.6-1.6,6.4h24.5c-0.4-2.8-1-4.9-1.6-6.4H290.5z"/>
		</g>
		<g>
			<path fill="#FFFFFF" d="M311.3,38.6c-0.5-1.2-1-1.7-1-1.7h-18.5c0,0-0.4,0.6-0.9,1.7H311.3z"/>
		</g>
		<g>
			<path fill="#FFFFFF" d="M291.1,65.1c0.4,0.9,0.7,1.3,0.7,1.3h18.5c0,0,0.3-0.4,0.7-1.3H291.1z"/>
		</g>
	</g>
	<g>
		<rect x="310.2" y="51.6" fill="#FFFFFF" width="20.6" height="1.2"/>
	</g>
	<g>
		<path fill="#FFFFFF" d="M304.5,106.4h-8.2c-0.7,0-1.2-0.6-1.2-1.2s0.6-1.2,1.2-1.2h8.2c0.7,0,1.2,0.6,1.2,1.2
			S305.2,106.4,304.5,106.4z"/>
	</g>
	<g>
		<path fill="#FFFFFF" d="M304.5,99.5h-8.2c-0.7,0-1.2-0.6-1.2-1.2s0.6-1.2,1.2-1.2h8.2c0.7,0,1.2,0.6,1.2,1.2
			S305.2,99.5,304.5,99.5z"/>
	</g>
	<g>
		<path fill="#FFFFFF" d="M304.5,92.7h-8.2c-0.7,0-1.2-0.6-1.2-1.2s0.6-1.2,1.2-1.2h8.2c0.7,0,1.2,0.6,1.2,1.2
			S305.2,92.7,304.5,92.7z"/>
	</g>
	<g>
		<path fill="#FFFFFF" d="M304.5,85.9h-8.2c-0.7,0-1.2-0.6-1.2-1.2c0-0.7,0.6-1.2,1.2-1.2h8.2c0.7,0,1.2,0.6,1.2,1.2
			C305.7,85.3,305.2,85.9,304.5,85.9z"/>
	</g>
	<g>
		<rect x="299.7" y="66" fill="#FFFFFF" width="1.2" height="12.5"/>
	</g>
	<g>
		<g>
			<polygon fill="#FFFFFF" points="63,77.4 74,57.6 102.2,57.6 113.3,77.4 113.3,111.5 63,111.5 			"/>
		</g>
	</g>
	<g>
		<g>
			<path fill="#0075C9" d="M72.6,85.3V72.9h0.2h0.4h0.2h0.4H74l2.5,8.7l2.5-8.7h0.1h0.5h0.2H80h0.3v12.4h-0.6V73.5h-0.4l-2.9,10.3
				l-2.9-10.3h-0.4v11.8H72.6z M73.6,85.3V75.1l2.9,10.1l2.9-10.1v10.2h-0.6v-5.9l-1.7,5.9h-1.2l-1.7-5.9v5.9H73.6z"/>
			<path fill="#0075C9" d="M81.8,85.3l2.9-12.4h0.1h0.5h0h0.5h0.1l2.9,12.4h-0.6l-2.7-11.7h-0.4l-2.7,11.7H81.8z M82.8,85.3l0.9-4.1
				h3.1l0.9,4.1h-0.6l-0.8-3.4h-2.2l-0.8,3.4H82.8z M83.8,80.9l1.5-6.3l1.5,6.3H83.8z M84.6,80.3H86l-0.7-3L84.6,80.3z"/>
			<path fill="#0075C9" d="M89.5,76.5c0-0.5,0.1-1,0.2-1.4c0.1-0.4,0.3-0.8,0.6-1.1c0.3-0.3,0.6-0.6,0.9-0.7
				c0.4-0.2,0.8-0.3,1.2-0.3c0.6,0,1.1,0.1,1.4,0.3c0.4,0.2,0.6,0.4,0.8,0.7c0.5,0.6,0.7,1.5,0.7,2.6v0.8h-0.6v-0.8
				c0-1-0.2-1.7-0.6-2.2c-0.4-0.5-1-0.8-1.8-0.8c-0.8,0-1.4,0.3-1.8,0.9c-0.4,0.5-0.6,1.2-0.6,2.1c0,0.5,0.1,0.9,0.2,1.2
				c0.2,0.3,0.4,0.6,0.6,0.8c0.2,0.2,0.5,0.4,0.7,0.5c0.2,0.1,0.4,0.2,0.6,0.3l0.3,0.1c0.1,0.1,0.3,0.1,0.5,0.2s0.4,0.2,0.6,0.4
				c0.2,0.2,0.4,0.4,0.5,0.7c0.1,0.3,0.2,0.6,0.2,1.1c0,0.8-0.2,1.4-0.5,1.8s-0.8,0.6-1.4,0.6c-0.7,0-1.1-0.2-1.5-0.6
				c-0.3-0.4-0.5-1.1-0.5-1.9V81h0.6v0.8c0,0.7,0.1,1.2,0.4,1.6c0.1,0.1,0.2,0.2,0.3,0.2c0.1,0.1,0.4,0.1,0.7,0.1
				c0.3,0,0.5-0.1,0.7-0.2s0.3-0.3,0.4-0.5c0.1-0.2,0.2-0.4,0.2-0.6c0-0.2,0-0.4,0-0.6c0-0.3,0-0.5-0.1-0.7
				c-0.1-0.2-0.2-0.4-0.4-0.5c-0.1-0.1-0.3-0.3-0.5-0.4s-0.4-0.2-0.5-0.3L92,79.9c-0.2-0.1-0.4-0.2-0.7-0.3
				c-0.3-0.1-0.5-0.3-0.8-0.6C89.8,78.3,89.5,77.5,89.5,76.5z M89.5,81.8V81h0.6v0.8c0,1,0.2,1.7,0.6,2.2c0.4,0.5,1,0.7,1.8,0.7
				c0.4,0,0.7-0.1,1-0.2s0.6-0.3,0.8-0.6c0.2-0.2,0.3-0.5,0.4-0.9c0.1-0.3,0.2-0.7,0.2-1.1c0-0.5-0.1-0.9-0.3-1.2s-0.4-0.6-0.6-0.8
				c-0.2-0.2-0.5-0.4-0.7-0.5c-0.2-0.1-0.4-0.2-0.6-0.3L92.4,79c-0.2-0.1-0.3-0.2-0.6-0.3c-0.2-0.1-0.4-0.3-0.6-0.5
				s-0.4-0.4-0.5-0.7c-0.1-0.3-0.2-0.6-0.2-1.1c0-0.3,0-0.6,0.1-0.9s0.2-0.6,0.3-0.8c0.2-0.2,0.4-0.4,0.6-0.6
				c0.3-0.2,0.6-0.2,0.9-0.2c0.7,0,1.1,0.2,1.5,0.6c0.3,0.4,0.5,1.1,0.5,2v0.8h-0.6v-0.8c0-0.5,0-0.9-0.1-1.1
				c-0.1-0.3-0.2-0.5-0.4-0.6c-0.1-0.1-0.3-0.2-0.5-0.2c-0.2,0-0.3,0-0.4,0c-0.3,0-0.6,0.1-0.8,0.2c-0.2,0.2-0.3,0.3-0.4,0.6
				c-0.1,0.2-0.2,0.4-0.2,0.7c0,0.2,0,0.4,0,0.5c0,0.3,0,0.5,0.1,0.7s0.2,0.4,0.4,0.5c0.1,0.2,0.3,0.3,0.5,0.4
				c0.2,0.1,0.4,0.2,0.6,0.3l0.3,0.1c0.2,0.1,0.4,0.2,0.6,0.3c0.3,0.1,0.5,0.3,0.8,0.6c0.7,0.6,1,1.5,1,2.5c0,1-0.2,1.7-0.7,2.4
				c-0.5,0.7-1.3,1.1-2.3,1.1c-1,0-1.7-0.3-2.2-1C89.7,83.8,89.5,82.9,89.5,81.8z"/>
			<path fill="#0075C9" d="M96.2,85.3V72.9h0.6v6v0.4v6H96.2z M97.2,78.9v-6h0.6v5.4h2.4v-5.4h0.6v6H97.2z M97.2,85.3v-6h3.6v6h-0.6
				v-5.4h-2.4v5.4H97.2z M101.1,85.3v-6v-0.4v-6h0.6v12.4H101.1z"/>
			<path fill="#0075C9" d="M72,89v-0.8h9.2V89h-4.4h-0.5H72z M72,90.4v-0.8h4.4v15h-0.8V90.4H72z M76.8,104.6v-0.8V89.6h4.4v0.8
				h-3.6v14.2H76.8z"/>
			<path fill="#0075C9" d="M83.7,100.2v-12h0.8v12c0,1.2,0.2,2,0.7,2.6c0.5,0.6,1.2,0.9,2.2,0.9c1,0,1.7-0.3,2.2-0.9
				c0.5-0.6,0.7-1.5,0.7-2.6v-12H91v12c0,1.4-0.3,2.4-0.9,3.1c-0.2,0.3-0.6,0.6-1,0.8c-0.4,0.3-1,0.4-1.8,0.4s-1.3-0.1-1.8-0.4
				c-0.4-0.3-0.8-0.5-1-0.8C84,102.6,83.7,101.6,83.7,100.2z M85,100.2v-12h0.8v12c0,0.6,0.1,1,0.2,1.3c0.1,0.3,0.2,0.5,0.4,0.7
				c0.2,0.1,0.3,0.2,0.5,0.2c0.2,0,0.3,0,0.5,0c0.1,0,0.3,0,0.5,0c0.2,0,0.4-0.1,0.5-0.2s0.3-0.4,0.4-0.7c0.1-0.3,0.2-0.7,0.2-1.3
				v-12h0.8v12c0,1-0.2,1.8-0.6,2.3c-0.4,0.5-1,0.7-1.8,0.7c-0.8,0-1.4-0.2-1.8-0.7C85.2,102.1,85,101.3,85,100.2z"/>
			<path fill="#0075C9" d="M94,104.5V88.2h0.2h0.6h0.1h0.6h0.3l4,9.9v-9.9h0.8v13.9L95.3,89h-0.5v15.5H94z M95.3,104.5V90.6
				l5.3,13.1h0.4V88.2h0.8v16.3h-0.2h-0.6H101h-0.6h-0.3l-4-9.9v9.9H95.3z"/>
		</g>
	</g>
	<g>
		<g>
			<path fill="#0075C9" d="M167,88.2v-0.8h0.8h0.2h0.3h1.8c1.1,0,1.9-0.3,2.4-0.9c0.5-0.6,0.7-1.5,0.7-2.7c0-1.2-0.2-2.2-0.7-2.8
				c-0.2-0.3-0.5-0.5-0.9-0.7c1.1-0.4,1.6-1.6,1.6-3.4c0-1.3-0.2-2.2-0.8-2.8c-0.5-0.6-1.3-0.9-2.3-0.9h-2h-0.2H167v-0.7h3
				c1.3,0,2.3,0.4,2.9,1.2c0.6,0.7,0.9,1.8,0.9,3.2c0,1.4-0.3,2.5-0.9,3.2c-0.1,0.1-0.1,0.2-0.2,0.2c0.1,0.1,0.1,0.1,0.2,0.2
				c0.6,0.7,0.9,1.8,0.9,3.2c0,1.4-0.3,2.5-0.9,3.2c-0.6,0.8-1.6,1.2-2.9,1.2h-1H167z M167,87v-0.8V73.8h0.8V87H167z M168.2,80.1
				v-6.4h1.8c0.9,0,1.6,0.2,2,0.7c0.4,0.5,0.6,1.3,0.6,2.4c0,1.1-0.2,1.9-0.6,2.4s-1.1,0.8-2,0.8H168.2z M168.2,87v-6.4h1.8
				c0.9,0,1.6,0.3,2,0.8c0.4,0.5,0.6,1.3,0.6,2.4c0,1.1-0.2,1.9-0.6,2.4c-0.4,0.5-1.1,0.7-2,0.7H168.2z M169,79.4h1
				c0.5,0,0.8-0.1,1-0.2c0.2-0.1,0.3-0.2,0.4-0.3c0.3-0.4,0.4-1,0.4-2c0-0.6,0-1-0.1-1.3s-0.2-0.6-0.4-0.7c-0.2-0.2-0.4-0.3-0.6-0.3
				c-0.2,0-0.5-0.1-0.7-0.1h-1V79.4z M169,86.2h1c0.3,0,0.5,0,0.7-0.1s0.4-0.1,0.6-0.3s0.3-0.4,0.4-0.7s0.1-0.8,0.1-1.3
				c0-0.6-0.1-1-0.2-1.3s-0.2-0.6-0.4-0.7s-0.4-0.3-0.6-0.3c-0.2,0-0.5-0.1-0.7-0.1h-1V86.2z"/>
			<path fill="#0075C9" d="M176.3,83.7v-6.8c0-1.4,0.3-2.5,0.9-3.2c0.2-0.3,0.6-0.6,1-0.8c0.4-0.3,1.1-0.4,1.8-0.4
				c0.8,0,1.4,0.1,1.8,0.4c0.4,0.3,0.8,0.5,1,0.8c0.6,0.8,0.9,1.8,0.9,3.2v6.8c0,1.4-0.3,2.5-0.9,3.2c-0.1,0.1-0.2,0.3-0.4,0.4
				s-0.4,0.3-0.6,0.4s-0.5,0.2-0.8,0.3s-0.6,0.1-1,0.1c-0.8,0-1.4-0.1-1.8-0.4s-0.8-0.6-1-0.8C176.6,86.2,176.3,85.1,176.3,83.7z
				 M177,83.7c0,1.2,0.2,2.1,0.7,2.7c0.5,0.7,1.3,1,2.2,1c1,0,1.7-0.3,2.2-1c0.5-0.6,0.8-1.5,0.8-2.7v-6.8c0-1.2-0.2-2.1-0.8-2.8
				c-0.5-0.6-1.3-1-2.2-1c-1,0-1.7,0.3-2.2,1c-0.5,0.6-0.7,1.5-0.7,2.8V83.7z M177.5,83.7v-6.8c0-1.1,0.2-1.9,0.6-2.4
				c0.4-0.5,1-0.8,1.8-0.8c0.8,0,1.5,0.3,1.8,0.8c0.4,0.5,0.6,1.3,0.6,2.4v6.8c0,2.1-0.8,3.2-2.5,3.2
				C178.3,86.9,177.5,85.9,177.5,83.7z M178.3,83.7c0,0.6,0.1,1.1,0.2,1.4c0.1,0.3,0.3,0.6,0.5,0.7c0.2,0.1,0.4,0.2,0.6,0.3
				c0.2,0,0.4,0,0.5,0c0.1,0,0.3,0,0.5,0c0.2,0,0.4-0.1,0.6-0.3c0.2-0.1,0.3-0.4,0.5-0.7c0.1-0.3,0.2-0.8,0.2-1.4v-6.8
				c0-0.6-0.1-1.1-0.2-1.4s-0.3-0.6-0.5-0.7c-0.2-0.1-0.4-0.2-0.6-0.3c-0.2,0-0.4,0-0.5,0c-0.2,0-0.3,0-0.5,0
				c-0.2,0-0.4,0.1-0.6,0.3c-0.2,0.1-0.3,0.4-0.5,0.7c-0.1,0.3-0.2,0.8-0.2,1.4V83.7z"/>
			<path fill="#0075C9" d="M186.8,88.2V72.5h0.8v15.7H186.8z M188.1,88.2V72.5h0.7v15.7H188.1z"/>
			<path fill="#0075C9" d="M191.8,88.2V72.5h0.8v15h6.1v0.8H191.8z M193,86.9V72.5h0.8v13.7h4.8v0.7H193z"/>
			<path fill="#0075C9" d="M166.9,97.4L166.9,97.4l0-6.2h0.5v9.7h-0.5L166.9,97.4L166.9,97.4z M167.7,97v-5.8h0.5v4.2l2.7-4.2h0.5
				L167.7,97z M167.7,100.9v-3.3l1-1.6l2.7,4.9h-0.5l-2.2-4l-0.5,0.8v3.2H167.7z M168.9,95.8l2.9-4.5h0.6l-2.9,4.5l2.9,5.1h-0.5
				L168.9,95.8z"/>
			<path fill="#0075C9" d="M172.9,100.9v-9.7h4v0.5h-3.5v4.2v0.3v4.2h3.5v0.5H172.9z M173.7,96V92h3.2v0.5h-2.8v3h2.8V96H173.7z
				 M173.7,100.2v-3.9h3.2v0.5h-2.8v3h2.8v0.5H173.7z"/>
			<path fill="#0075C9" d="M177.6,91.7v-0.5h5.5v0.5h-2.6h-0.3H177.6z M177.6,92.5V92h2.6v8.9h-0.5v-8.4H177.6z M180.5,100.9v-0.5
				V92h2.6v0.5H181v8.4H180.5z"/>
			<path fill="#0075C9" d="M183.7,91.7v-0.5h5.5v0.5h-2.6h-0.3H183.7z M183.7,92.5V92h2.6v8.9h-0.5v-8.4H183.7z M186.6,100.9v-0.5
				V92h2.6v0.5H187v8.4H186.6z"/>
			<path fill="#0075C9" d="M189.9,100.9v-9.7h0.5v9.2h3.7v0.5H189.9z M190.6,100.2v-8.9h0.5v8.4h3v0.5H190.6z"/>
			<path fill="#0075C9" d="M194.5,100.9v-9.7h4v0.5H195v4.2v0.3v4.2h3.5v0.5H194.5z M195.3,96V92h3.2v0.5h-2.8v3h2.8V96H195.3z
				 M195.3,100.2v-3.9h3.2v0.5h-2.8v3h2.8v0.5H195.3z"/>
		</g>
	</g>
	<g>
		<g>
			<path fill="#0075C9" d="M255.8,46.5h11.2v4.6h-0.5V47h-4.9h-0.3h-5.4V46.5z M255.8,47.4h5.4v3.7h-0.5v-3.2h-4.9V47.4z
				 M261.5,47.4h4.5v3.7h-0.5v-3.2h-3.4v3.2h-0.5V47.4z"/>
			<path fill="#0075C9" d="M255.8,52.1h11.2v4.6h-0.5v-4.1h-4.9h-0.3h-4.9v4.1h-0.5V52.1z M256.7,53h4.5v3.7h-0.5v-3.2h-3.4v3.2
				h-0.5V53z M261.5,53h4.5v3.7h-0.5v-3.2h-3.4v3.2h-0.5V53z"/>
			<path fill="#0075C9" d="M266.4,57.8h0.5v2.3c0,1-0.3,1.7-0.8,2.2c-0.5,0.4-1.3,0.7-2.3,0.7c-1,0-1.8-0.2-2.3-0.7c0,0,0,0-0.1-0.1
				c0,0-0.1-0.1-0.1-0.1c-0.3,0.3-0.6,0.5-0.9,0.6c-0.4,0.1-0.8,0.2-1.2,0.2h-3.3v-0.5h3.3c0.8,0,1.3-0.2,1.8-0.7
				c0.2-0.2,0.3-0.4,0.4-0.6c0.3,0.8,1.2,1.3,2.5,1.3c0.9,0,1.6-0.2,2-0.5c0.4-0.4,0.7-1,0.7-1.8v-1.6v-0.2V57.8z M255.8,57.8H266
				v0.5h-10.3V57.8z M255.8,58.7h5.3v1.2v0.2c0,0.6-0.2,1.1-0.5,1.5c-0.3,0.3-0.8,0.5-1.5,0.5h-3.3v-0.5h3.3c1,0,1.5-0.5,1.5-1.4
				v-0.7v-0.2h-4.8V58.7z M261.4,58.7h4.6v1.4c0,0.7-0.2,1.2-0.5,1.5c-0.4,0.3-1,0.5-1.8,0.5c-0.8,0-1.4-0.2-1.8-0.5
				c-0.4-0.3-0.5-0.8-0.5-1.5v-0.2V58.7z M262,59.2v0.2v0.7c0,0.4,0,0.7,0.1,0.8c0.1,0.1,0.2,0.2,0.2,0.3c0.3,0.2,0.8,0.3,1.4,0.3
				c0.4,0,0.7,0,0.9-0.1c0.2-0.1,0.4-0.2,0.5-0.3s0.2-0.3,0.3-0.4c0-0.2,0.1-0.4,0.1-0.6v-0.9H262z"/>
			<path fill="#0075C9" d="M255.8,64.1H267v0.2v0.4v0.2v0.3v0.2l-7.9,2.3l7.9,2.2V70v0.4v0.2v0.2v0.3h-11.2v-0.5h10.6v-0.3l-9.3-2.7
				l9.3-2.7v-0.3h-10.6V64.1z M255.8,65h9.2l-9.1,2.6l9.1,2.6h-9.2v-0.5h5.4l-5.4-1.5v-1.1l5.4-1.5h-5.4V65z"/>
			<path fill="#0075C9" d="M255.8,72.2h11.2v4.6h-0.5v-4.1h-4.9h-0.3h-4.9v4.1h-0.5V72.2z M256.7,73.1h4.5v3.7h-0.5v-3.2h-3.4v3.2
				h-0.5V73.1z M261.5,73.1h4.5v3.7h-0.5v-3.2h-3.4v3.2h-0.5V73.1z"/>
			<path fill="#0075C9" d="M255.8,77.9H267V78v0.4v0.1v0.4v0.2l-6.8,2.7h6.8v0.5h-9.5l9-3.6v-0.3h-10.6V77.9z M255.8,78.8h9.6
				l-9,3.6v0.3H267v0.5h-11.2v-0.2v-0.4v-0.1v-0.4V82l6.8-2.7h-6.8V78.8z"/>
			<path fill="#0075C9" d="M265.5,84.2h0.5v3h-10.3v-0.5h9.7V84.2z M255.8,87.5h0.5h9.8v3h-0.5v-2.4h-9.7V87.5z M266.4,84.2h0.5v6.3
				h-0.5v-3v-0.3V84.2z"/>
			<path fill="#0075C9" d="M255.8,91.3h11.2V96h-0.5v-4.1h-4.9h-0.3h-4.9V96h-0.5V91.3z M256.7,92.2h4.5V96h-0.5v-3.2h-3.4V96h-0.5
				V92.2z M261.5,92.2h4.5V96h-0.5v-3.2h-3.4V96h-0.5V92.2z"/>
			<path fill="#0075C9" d="M266.4,97h0.5v2.3c0,1-0.3,1.7-0.8,2.2c-0.5,0.4-1.3,0.7-2.3,0.7c-1,0-1.8-0.2-2.3-0.7c0,0,0,0-0.1-0.1
				c0,0-0.1-0.1-0.1-0.1c-0.3,0.3-0.6,0.5-0.9,0.6c-0.4,0.1-0.8,0.2-1.2,0.2h-3.3v-0.5h3.3c0.8,0,1.3-0.2,1.8-0.7
				c0.2-0.2,0.3-0.4,0.4-0.6c0.3,0.8,1.2,1.3,2.5,1.3c0.9,0,1.6-0.2,2-0.5c0.4-0.4,0.7-1,0.7-1.8v-1.6v-0.2V97z M255.8,97H266v0.5
				h-10.3V97z M255.8,97.9h5.3v1.2v0.2c0,0.6-0.2,1.1-0.5,1.5c-0.3,0.3-0.8,0.5-1.5,0.5h-3.3v-0.5h3.3c1,0,1.5-0.5,1.5-1.4v-0.7
				v-0.2h-4.8V97.9z M261.4,97.9h4.6v1.4c0,0.7-0.2,1.2-0.5,1.5c-0.4,0.3-1,0.5-1.8,0.5c-0.8,0-1.4-0.2-1.8-0.5
				c-0.4-0.3-0.5-0.8-0.5-1.5v-0.2V97.9z M262,98.4v0.2v0.7c0,0.4,0,0.7,0.1,0.8c0.1,0.1,0.2,0.2,0.2,0.3c0.3,0.2,0.8,0.3,1.4,0.3
				c0.4,0,0.7,0,0.9-0.1c0.2-0.1,0.4-0.2,0.5-0.3s0.2-0.3,0.3-0.4c0-0.2,0.1-0.4,0.1-0.6v-0.9H262z"/>
		</g>
	</g>
	<g>
		<g>
			<path fill="#0075C9" d="M294.1,53L294.1,53l0-5h0.4v7.9h-0.4L294.1,53L294.1,53z M294.7,52.7V48h0.4v3.4l2.2-3.4h0.4L294.7,52.7z
				 M294.7,55.9v-2.7l0.8-1.3l2.2,4h-0.4l-1.8-3.2l-0.4,0.7v2.6H294.7z M295.7,51.7L298,48h0.5l-2.4,3.7l2.3,4.2H298L295.7,51.7z"/>
			<path fill="#0075C9" d="M299.5,55.9V48h3.3v0.4h-2.9v3.4v0.2v3.4h2.9v0.4H299.5z M300.1,51.8v-3.2h2.6V49h-2.2v2.4h2.2v0.4H300.1
				z M300.1,55.3v-3.2h2.6v0.4h-2.2v2.4h2.2v0.4H300.1z"/>
			<path fill="#0075C9" d="M304,53.6v-3.4c0-0.7,0.2-1.2,0.5-1.6c0.3-0.4,0.8-0.6,1.4-0.6c0.6,0,1.1,0.2,1.4,0.6
				c0.3,0.4,0.5,0.9,0.5,1.6v0.5h-0.4v-0.5c0-0.6-0.1-1.1-0.4-1.4c-0.2-0.3-0.6-0.5-1.1-0.5c-0.5,0-0.9,0.2-1.1,0.5
				c-0.2,0.3-0.4,0.8-0.4,1.4v3.4c0,0.6,0.1,1.1,0.4,1.4c0.3,0.3,0.6,0.5,1.1,0.5c0.5,0,0.9-0.2,1.1-0.5c0.2-0.3,0.4-0.8,0.4-1.4
				v-1.2h-1.9V52h2.2v1.6c0,0.7-0.2,1.2-0.5,1.6c-0.1,0.1-0.3,0.3-0.5,0.4c-0.2,0.1-0.5,0.2-0.9,0.2c-0.4,0-0.7-0.1-0.9-0.2
				c-0.2-0.1-0.4-0.3-0.5-0.4C304.1,54.9,304,54.4,304,53.6z M304.6,53.6v-3.4c0-0.6,0.1-1,0.3-1.2c0.2-0.3,0.5-0.4,0.9-0.4
				s0.7,0.1,0.9,0.4c0.2,0.3,0.3,0.7,0.3,1.2v0.5h-0.4v-0.5c0-0.3,0-0.5-0.1-0.7c0-0.2-0.1-0.3-0.2-0.4c-0.1-0.1-0.2-0.1-0.3-0.2
				c-0.1,0-0.2,0-0.3,0c-0.1,0-0.2,0-0.3,0c-0.1,0-0.2,0.1-0.3,0.2c-0.1,0.1-0.1,0.2-0.2,0.4c0,0.2-0.1,0.4-0.1,0.7v3.4
				c0,0.3,0,0.6,0.1,0.7c0.1,0.2,0.1,0.3,0.2,0.4c0.1,0.1,0.2,0.1,0.3,0.1s0.2,0,0.3,0s0.2,0,0.3,0c0.1,0,0.2-0.1,0.3-0.1
				c0.1-0.1,0.2-0.2,0.2-0.4c0.1-0.2,0.1-0.4,0.1-0.7v-0.6h-1.2v-0.4h1.6v1c0,0.6-0.1,1-0.3,1.2c-0.2,0.3-0.5,0.4-0.9,0.4
				c-0.4,0-0.7-0.1-0.9-0.4C304.7,54.6,304.6,54.2,304.6,53.6z"/>
		</g>
	</g>
	<g>
		<polygon fill="#FFFFFF" points="55.5,71.2 54.3,71.2 54.3,42.8 63.9,33.2 84.2,33.2 84.2,43.9 82.9,43.9 82.9,34.4 64.4,34.4 
			55.5,43.3 		"/>
	</g>
	<g>
		<rect x="54.3" y="85.3" fill="#FFFFFF" width="1.2" height="4.1"/>
	</g>
	<g>
		<rect x="54.3" y="76.3" fill="#FFFFFF" width="1.2" height="4.1"/>
	</g>
	<g>
		<rect x="54.3" y="93.9" fill="#FFFFFF" width="1.2" height="4.2"/>
	</g>
	<g>
		<g>
			<path fill="#FFFFFF" d="M83.3,48.9c-1.7,0-3-1.3-3-3c0-1.7,1.3-3,3-3c1.7,0,3,1.3,3,3C86.3,47.6,85,48.9,83.3,48.9z M83.3,44.1
				c-1,0-1.8,0.8-1.8,1.8c0,1,0.8,1.8,1.8,1.8c1,0,1.8-0.8,1.8-1.8C85.1,44.9,84.3,44.1,83.3,44.1z"/>
		</g>
	</g>
	<g>
		<rect x="82.7" y="48.3" fill="#FFFFFF" width="1.2" height="4.3"/>
	</g>
	<g>
		<polygon fill="#FFFFFF" points="85.5,52.2 83.3,56 81.1,52.2 		"/>
	</g>
	<g>
		<g>
			<path fill="#FFFFFF" d="M91.5,48.9c-1.7,0-3-1.3-3-3c0-1.7,1.3-3,3-3c1.7,0,3,1.3,3,3C94.5,47.6,93.2,48.9,91.5,48.9z M91.5,44.1
				c-1,0-1.8,0.8-1.8,1.8c0,1,0.8,1.8,1.8,1.8c1,0,1.8-0.8,1.8-1.8C93.3,44.9,92.5,44.1,91.5,44.1z"/>
		</g>
	</g>
	<g>
		<rect x="90.9" y="48.3" fill="#FFFFFF" width="1.2" height="4.3"/>
	</g>
	<g>
		<polygon fill="#FFFFFF" points="93.7,52.2 91.5,56 89.3,52.2 		"/>
	</g>
	<g>
		<g>
			<g>
				<path fill="#FFFFFF" d="M115.5,40.3c0.6,4.9-2.8,9-7.7,9c-4.9,0-8.3-4-7.7-9c0.6-5.5,7.7-12.4,7.7-15.5
					C107.7,27.9,114.8,35.2,115.5,40.3z"/>
			</g>
		</g>
	</g>
	<g>
		<g>
			<path fill="#A09F9F" d="M104.4,42.7v-4.5h0.6v2h0.9v-2h0.6v4.5h-0.6v-2h-0.9v2H104.4z"/>
			<path fill="#A09F9F" d="M106.9,42.7v-0.3c0-0.2,0-0.4,0.1-0.5s0.1-0.3,0.2-0.4c0.1-0.1,0.1-0.3,0.2-0.4l0.3-0.5l0.2-0.3L108,40
				c0-0.1,0.1-0.1,0.1-0.2s0.1-0.1,0.1-0.2c0-0.1,0-0.2,0-0.3c0,0,0-0.1,0-0.2c0-0.1,0-0.1-0.1-0.2c0-0.1-0.1-0.1-0.1-0.2
				c0,0-0.1-0.1-0.2-0.1c0,0-0.1,0-0.1,0s-0.1,0-0.1,0.1s-0.1,0.1-0.1,0.2c0,0.1,0,0.2,0,0.4v0.3h-0.6v-0.3c0-0.4,0.1-0.7,0.2-0.9
				c0.1-0.1,0.1-0.2,0.3-0.2s0.3-0.1,0.5-0.1c0.1,0,0.3,0,0.4,0.1c0.1,0.1,0.2,0.1,0.3,0.2c0.1,0.1,0.1,0.2,0.2,0.4
				c0,0.1,0.1,0.3,0.1,0.5h0v0h0c0,0.1,0,0.3,0,0.4c0,0.1-0.1,0.2-0.1,0.3s-0.1,0.2-0.2,0.3l-0.2,0.2l-0.1,0.1
				c0,0.1-0.1,0.1-0.1,0.2l-0.2,0.4c-0.1,0.1-0.1,0.2-0.2,0.3c0,0.1-0.1,0.2-0.1,0.3c0,0.1-0.1,0.2-0.1,0.3h0.4h0.7h0.3v0.6h-0.3
				h-0.7H106.9z"/>
			<path fill="#A09F9F" d="M109.1,41.4v-1.9c0-0.4,0.1-0.7,0.2-0.9c0.2-0.3,0.4-0.4,0.7-0.4c0.3,0,0.6,0.1,0.7,0.4
				c0.1,0.2,0.2,0.5,0.2,0.9v1.9c0,0.4-0.1,0.7-0.2,0.9c-0.2,0.3-0.4,0.4-0.7,0.4c-0.3,0-0.6-0.1-0.7-0.4
				C109.2,42.1,109.1,41.8,109.1,41.4z M109.7,41.4c0,0.2,0,0.3,0,0.4s0.1,0.2,0.1,0.2s0.1,0.1,0.1,0.1s0.1,0,0.1,0c0,0,0.1,0,0.1,0
				s0.1,0,0.1-0.1c0,0,0.1-0.1,0.1-0.2c0-0.1,0-0.2,0-0.4v-1.9c0-0.2,0-0.3,0-0.4c0-0.1-0.1-0.2-0.1-0.2c0,0-0.1-0.1-0.1-0.1
				c0,0-0.1,0-0.1,0c0,0-0.1,0-0.1,0c0,0-0.1,0-0.1,0.1s-0.1,0.1-0.1,0.2s0,0.2,0,0.4V41.4z"/>
		</g>
	</g>
	<g>
		<polygon fill="#FFFFFF" points="92.1,43.5 90.9,43.5 90.9,40 94.9,36.1 105.5,36.1 105.5,37.3 95.4,37.3 92.1,40.6 		"/>
	</g>
	<g>
		<g>
			<path fill="#FFFFFF" d="M28.2,42.5L28.2,42.5l1.8-0.6l0.1,0c0,0,0.3,0.8,0.4,1.4c0.1,0.5-0.1,0.5,0.2,1.1
				c0.2,0.6,0.5,1.2,0.5,1.2s0,0.3-0.7,0.5c-0.6,0.2-0.8,0-0.8,0s-0.2-0.6-0.3-1.2c-0.2-0.6-0.3-0.5-0.5-1c0-0.1-0.1-0.1-0.1-0.2
				C28.4,43.2,28.2,42.5,28.2,42.5z"/>
		</g>
		<g>
			<path fill="#FFFFFF" d="M29.1,45l0.4,1.3l1.2,0.5l0.7-1.2l-0.4-1.3l0.7-0.2l0.6,1.7L31.5,47c0.5,1.6,1.6,2.1,2.4,2.3
				c0.1-0.6,0.8-1.1,1.5-1.1H36c0.1-0.9,0.3-1.7,0.6-2.4l-0.5-2.3c-0.2,0-0.4-0.2-0.4-0.5c0-0.3,0.2-0.5,0.5-0.5
				c0.3,0,0.5,0.2,0.5,0.5c0,0.1,0,0.2-0.1,0.3l0.7,1.6c0.5-0.5,1.1-0.7,1.6-0.7c0.4,0,1,0.2,1.4,0.5l0.7-1.5
				c-0.1-0.1-0.1-0.2-0.1-0.3c0-0.3,0.2-0.5,0.5-0.5c0.3,0,0.5,0.2,0.5,0.5c0,0.2-0.2,0.4-0.4,0.5l-0.4,2.1c0.5,0.7,0.8,1.7,0.8,2.7
				h0.3c0.7,0,1.3,0.5,1.5,1.1l0,0.1c2.5,1.3,2.6,4.6,2.6,4.6l1.1,1l0,1.8l-0.7,0l0-1.3l-1-0.9l-1,0.9l0,1.4l-0.7,0l0-1.8l1.1-1
				c0-1.7-0.9-2.6-1.5-3l-0.2,1.3l-0.5,2.5c-0.2,0.6-0.4,1-1,1.3l-0.1,0l0.9,5.4c1.1,0.5,1.1,1.8,1.1,1.8h-4c0,0,0-1.3,1-1.8
				l-0.8-5.3l0,0h-1.3l-0.4,0l-0.8,5.3c1,0.5,1,1.8,1,1.8h-4c0,0,0-1.4,1.2-1.9l0.8-5.3c-0.6-0.2-0.9-0.7-1.1-1.3l-1-3.9
				c-2.8-0.5-3.9-3.5-3.9-3.5L29,46.9l-0.6-1.7L29.1,45z"/>
		</g>
	</g>
	<g>
		<g>
			<path fill="#FFFFFF" d="M350.1,11.1l-2.4-7l-1.5,0.5c-0.1-1.2-0.3-1.9-0.3-1.9h-7.6c0,0-0.2,0.7-0.3,1.9l-1.5-0.5l-2.4,7
				c-0.1,0.3-0.1,0.6,0.1,0.9l4.3,7.6l-0.3,1.3l1.7,1.9v18.1l-1.7,1.9l1,4.3h1.7v2.4c-1.1,0.5-1.9,1.6-1.9,2.9
				c0,1.3,0.8,2.4,1.9,2.9V58h2.5v-2.7c1.1-0.5,1.9-1.6,1.9-2.9c0-1.3-0.8-2.4-1.9-2.9v-2.4h1.7l1-4.3l-1.7-1.9V22.8l1.7-1.9
				l-0.3-1.3l4.3-7.7C350.2,11.7,350.2,11.4,350.1,11.1z M343.9,52.4c0,1-0.8,1.8-1.8,1.8c-1,0-1.8-0.8-1.8-1.8c0-1,0.8-1.8,1.8-1.8
				C343.1,50.6,343.9,51.4,343.9,52.4z M337.9,6.4c0,0.7,0,1.5,0.1,2.4c0.5,4.5,0.9,6.8,1.1,7.6l-2.9-5.1L337.9,6.4z M345.2,16.2
				c0.2-1.2,0.7-4.2,1-7.4c0.1-0.9,0.1-1.7,0.1-2.4l1.7,4.9L345.2,16.2z"/>
		</g>
		<g>
			<g>
				<path fill="#0075C9" d="M338.8,5.5L338.8,5.5l0.6-0.2l0,0c0,0,0.1,0.3,0.1,0.5c0,0.2,0,0.2,0.1,0.4c0.1,0.2,0.2,0.4,0.2,0.4
					s0,0.1-0.2,0.2c-0.2,0.1-0.3,0-0.3,0s-0.1-0.2-0.1-0.4c-0.1-0.2-0.1-0.2-0.2-0.3c0,0,0,0,0-0.1C338.8,5.7,338.8,5.5,338.8,5.5z"
					/>
			</g>
			<g>
				<path fill="#0075C9" d="M339,6.3l0.1,0.4l0.4,0.2l0.2-0.4l-0.1-0.4l0.2-0.1l0.2,0.6L339.9,7c0.2,0.5,0.5,0.7,0.8,0.8
					c0-0.2,0.3-0.4,0.5-0.4h0.2c0-0.3,0.1-0.6,0.2-0.8l-0.2-0.8c-0.1,0-0.1-0.1-0.1-0.2c0-0.1,0.1-0.2,0.2-0.2
					c0.1,0,0.2,0.1,0.2,0.2c0,0,0,0.1,0,0.1l0.2,0.5c0.2-0.2,0.4-0.2,0.5-0.2c0.1,0,0.3,0.1,0.5,0.2l0.2-0.5c0,0,0-0.1,0-0.1
					c0-0.1,0.1-0.2,0.2-0.2c0.1,0,0.2,0.1,0.2,0.2c0,0.1-0.1,0.1-0.1,0.2l-0.1,0.7c0.2,0.2,0.3,0.6,0.3,0.9h0.1
					c0.2,0,0.4,0.2,0.5,0.4l0,0c0.8,0.4,0.9,1.5,0.9,1.5l0.4,0.3l0,0.6l-0.2,0l0-0.5l-0.3-0.3l-0.3,0.3l0,0.5l-0.2,0l0-0.6l0.4-0.3
					c0-0.6-0.3-0.9-0.5-1l-0.1,0.4l-0.2,0.8c-0.1,0.2-0.1,0.3-0.3,0.4l0,0l0.3,1.8c0.4,0.2,0.4,0.6,0.4,0.6h-1.3c0,0,0-0.4,0.3-0.6
					l-0.3-1.8l0,0h-0.4l-0.1,0l-0.3,1.8c0.3,0.2,0.3,0.6,0.3,0.6h-1.3c0,0,0-0.5,0.4-0.6l0.3-1.8c-0.2-0.1-0.3-0.2-0.4-0.4l-0.3-1.3
					c-0.9-0.2-1.3-1.2-1.3-1.2L339,7l-0.2-0.6L339,6.3z"/>
			</g>
		</g>
	</g>
	<g>
		<g>
			<path fill="#FFFFFF" d="M230.4,22.1c-0.3-0.7-0.8-1.3-1.4-1.8c1.6-0.4,2.9-1,2.9-1s-2.4-1.5-3.4-2.2c-1-0.6-3.2-1-4.1-0.1
				c-0.1,0.1-0.2,0.2-0.3,0.4v-2.8h-2v2.7c-0.1-0.1-0.1-0.2-0.2-0.2c-0.9-0.9-3.1-0.5-4.1,0.1c-1,0.6-3.4,2.2-3.4,2.2s1.4,0.6,3.1,1
				c-0.6,0.5-1,1.1-1.3,1.8c-0.7,1.6-0.7,2-0.7,2s0.7,0.1,1.7,0.1c-0.2,0.3-0.4,0.6-0.6,0.9c-0.7,1.4-0.1,3.7-0.1,3.7
				s0.8-0.3,1.8-0.7c0,0.5,0,0.9,0.1,1.3c0.4,1.2,1.4,2.9,1.4,2.9s0.6-0.7,1-1.2c0.1,0.7,0.5,1.3,1,1.8c0.6,0.5,1.1,0.9,1.3,1l0,0.1
				c0,0,0,0,0,0c0,0,0,0,0,0l0-0.1c0.2-0.1,0.7-0.5,1.3-1c0.5-0.4,1-1,1-1.8c0.4,0.5,1,1.2,1,1.2s1-1.7,1.4-2.9
				c0.1-0.4,0.2-0.9,0.1-1.3c1,0.4,1.8,0.7,1.8,0.7s0.6-2.4-0.1-3.7c-0.2-0.3-0.4-0.6-0.6-0.9c1,0,1.8-0.1,1.8-0.1
				S231.2,23.7,230.4,22.1z"/>
		</g>
		<g>
			<g>
				<path fill="#A09F9F" d="M220.5,24.2v-3h0.6c0.3,0,0.5,0.1,0.6,0.2c0.1,0.1,0.2,0.4,0.2,0.6v1.3c0,0.3-0.1,0.5-0.2,0.6
					c-0.1,0.2-0.3,0.2-0.6,0.2H220.5z M220.9,23.8h0.2c0,0,0.1,0,0.1,0c0,0,0.1,0,0.1-0.1c0,0,0.1-0.1,0.1-0.1s0-0.2,0-0.3V22
					c0-0.1,0-0.2,0-0.3s0-0.1-0.1-0.1s-0.1-0.1-0.1-0.1c0,0-0.1,0-0.1,0h-0.2V23.8z"/>
				<path fill="#A09F9F" d="M222.3,24.2v-3h0.6c0.3,0,0.5,0.1,0.6,0.2c0.1,0.1,0.2,0.3,0.2,0.6c0,0.3-0.1,0.5-0.2,0.6c0,0,0,0,0,0
					s0,0,0,0c0.1,0.1,0.1,0.2,0.2,0.3s0.1,0.2,0.1,0.3v0.9h-0.4v-0.9c0-0.3-0.1-0.4-0.4-0.4h-0.2h0v1.3H222.3z M222.7,22.5
					L222.7,22.5h0.2c0.1,0,0.2,0,0.2,0c0,0,0.1,0,0.1-0.1c0.1-0.1,0.1-0.2,0.1-0.4c0-0.1,0-0.2,0-0.2s0-0.1-0.1-0.1
					s-0.1-0.1-0.1-0.1c0,0-0.1,0-0.2,0h-0.2V22.5z"/>
				<path fill="#A09F9F" d="M224,21.2h0.4l0.6,1.1l0.6-1.1h0.4l-0.9,1.6v1.5h-0.4v-1.5L224,21.2z"/>
				<path fill="#A09F9F" d="M220.8,28.3v-3h0.4v1.3h0.6v-1.3h0.4v3h-0.4V27h-0.6v1.3H220.8z"/>
				<path fill="#A09F9F" d="M222.6,27.4v-1.3c0-0.3,0.1-0.5,0.2-0.6c0,0,0-0.1,0.1-0.1c0,0,0.1-0.1,0.1-0.1c0,0,0.1,0,0.2-0.1
					s0.1,0,0.2,0c0.1,0,0.3,0,0.4,0.1c0.1,0.1,0.2,0.1,0.2,0.2c0.1,0.1,0.2,0.4,0.2,0.6v1.3c0,0.3-0.1,0.5-0.2,0.6
					c0,0.1-0.1,0.1-0.2,0.2s-0.2,0.1-0.4,0.1c-0.1,0-0.3,0-0.3-0.1s-0.2-0.1-0.2-0.2C222.6,27.9,222.6,27.7,222.6,27.4z M223,27.4
					c0,0.1,0,0.2,0,0.3c0,0.1,0.1,0.1,0.1,0.1c0,0,0.1,0,0.1,0.1c0,0,0.1,0,0.1,0c0,0,0.1,0,0.1,0c0,0,0.1,0,0.1-0.1
					c0,0,0.1-0.1,0.1-0.1s0-0.2,0-0.3v-1.3c0-0.1,0-0.2,0-0.3c0-0.1-0.1-0.1-0.1-0.1c0,0-0.1,0-0.1-0.1c0,0-0.1,0-0.1,0
					c0,0-0.1,0-0.1,0c0,0-0.1,0-0.1,0.1c0,0-0.1,0.1-0.1,0.1c0,0.1,0,0.2,0,0.3V27.4z"/>
				<path fill="#A09F9F" d="M224.4,28.3v-3h0.6c0.3,0,0.5,0.1,0.6,0.2c0.1,0.1,0.2,0.4,0.2,0.6c0,0.3-0.1,0.5-0.2,0.6
					c-0.1,0.2-0.3,0.2-0.6,0.2h-0.2v1.3H224.4z M224.7,26.6h0.2c0.1,0,0.2,0,0.2,0c0,0,0.1,0,0.1-0.1c0.1-0.1,0.1-0.2,0.1-0.4
					c0-0.1,0-0.2,0-0.2c0-0.1,0-0.1-0.1-0.1c0,0-0.1-0.1-0.1-0.1c0,0-0.1,0-0.2,0h-0.2V26.6z"/>
			</g>
		</g>
	</g>
	<g>
		<g>
			<path fill="#0075C9" d="M162.4,13.4v-2.1c0-0.4,0.1-0.8,0.3-1c0.1-0.1,0.2-0.2,0.3-0.3s0.3-0.1,0.6-0.1c0.2,0,0.4,0,0.6,0.1
				s0.2,0.2,0.3,0.3c0.2,0.2,0.3,0.6,0.3,1v0.3h-0.6v-0.3c0-0.2,0-0.3-0.1-0.4c0-0.1-0.1-0.2-0.1-0.2s-0.1-0.1-0.2-0.1
				c-0.1,0-0.1,0-0.2,0c0,0-0.1,0-0.2,0c-0.1,0-0.1,0-0.2,0.1s-0.1,0.1-0.1,0.2c0,0.1-0.1,0.3-0.1,0.4v2.1c0,0.3,0.1,0.5,0.2,0.6
				c0,0,0.1,0.1,0.1,0.1s0.1,0.1,0.3,0.1c0.1,0,0.2,0,0.3-0.1s0.1-0.1,0.1-0.1c0.1-0.1,0.1-0.3,0.1-0.6v-0.3h0.6v0.3
				c0,0.4-0.1,0.8-0.3,1c-0.1,0.1-0.2,0.2-0.3,0.3c-0.1,0.1-0.3,0.1-0.6,0.1c-0.1,0-0.2,0-0.3,0s-0.2-0.1-0.2-0.1s-0.1-0.1-0.2-0.1
				c-0.1,0-0.1-0.1-0.1-0.1C162.5,14.1,162.4,13.8,162.4,13.4z"/>
			<path fill="#0075C9" d="M165,14.8V9.9h0.6V12h0.9V9.9h0.6v4.8h-0.6v-2.1h-0.9v2.1H165z"/>
			<path fill="#0075C9" d="M167.8,14.8V9.9h0.6v4.8H167.8z"/>
			<path fill="#0075C9" d="M169,14.8V9.9h0.5l1.2,2.9V9.9h0.6v4.8h-0.5l-1.2-2.9v2.9H169z"/>
			<path fill="#0075C9" d="M171.8,13.4v-2.1c0-0.4,0.1-0.8,0.3-1c0,0,0.1-0.1,0.1-0.1c0.1,0,0.1-0.1,0.2-0.1s0.2-0.1,0.2-0.1
				c0.1,0,0.2,0,0.3,0c0.2,0,0.4,0,0.6,0.1c0.1,0.1,0.2,0.2,0.3,0.3c0.2,0.2,0.3,0.6,0.3,1v2.1c0,0.4-0.1,0.8-0.3,1
				c-0.1,0.1-0.2,0.2-0.3,0.3c-0.1,0.1-0.3,0.1-0.6,0.1c-0.2,0-0.4,0-0.6-0.1c-0.1-0.1-0.2-0.2-0.3-0.3
				C171.8,14.1,171.8,13.8,171.8,13.4z M172.4,13.4c0,0.2,0,0.3,0.1,0.4s0.1,0.2,0.1,0.2s0.1,0.1,0.2,0.1s0.1,0,0.2,0
				c0,0,0.1,0,0.2,0c0.1,0,0.1,0,0.2-0.1s0.1-0.1,0.1-0.2s0.1-0.2,0.1-0.4v-2.1c0-0.2,0-0.3-0.1-0.4c0-0.1-0.1-0.2-0.1-0.2
				c-0.1,0-0.1-0.1-0.2-0.1s-0.1,0-0.2,0c0,0-0.1,0-0.2,0c-0.1,0-0.1,0-0.2,0.1c-0.1,0-0.1,0.1-0.1,0.2c0,0.1-0.1,0.2-0.1,0.4V13.4z
				"/>
			<path fill="#0075C9" d="M174.4,13.4v-2.1c0-0.4,0.1-0.8,0.3-1c0,0,0.1-0.1,0.1-0.1c0.1,0,0.1-0.1,0.2-0.1s0.2-0.1,0.2-0.1
				c0.1,0,0.2,0,0.3,0c0.2,0,0.4,0,0.6,0.1c0.1,0.1,0.2,0.2,0.3,0.3c0.2,0.2,0.3,0.6,0.3,1v2.1c0,0.4-0.1,0.8-0.3,1
				c-0.1,0.1-0.2,0.2-0.3,0.3c-0.1,0.1-0.3,0.1-0.6,0.1c-0.2,0-0.4,0-0.6-0.1c-0.1-0.1-0.2-0.2-0.3-0.3
				C174.5,14.1,174.4,13.8,174.4,13.4z M175,13.4c0,0.2,0,0.3,0.1,0.4s0.1,0.2,0.1,0.2s0.1,0.1,0.2,0.1s0.1,0,0.2,0c0,0,0.1,0,0.2,0
				c0.1,0,0.1,0,0.2-0.1s0.1-0.1,0.1-0.2s0.1-0.2,0.1-0.4v-2.1c0-0.2,0-0.3-0.1-0.4c0-0.1-0.1-0.2-0.1-0.2c-0.1,0-0.1-0.1-0.2-0.1
				s-0.1,0-0.2,0c0,0-0.1,0-0.2,0c-0.1,0-0.1,0-0.2,0.1c-0.1,0-0.1,0.1-0.1,0.2c0,0.1-0.1,0.2-0.1,0.4V13.4z"/>
			<path fill="#0075C9" d="M177.1,13L177.1,13l0-3.1h0.6V12l1.4-2.1h0.7l-1.5,2.3l1.4,2.6H179l-1.1-2l-0.3,0.4v1.6h-0.6L177.1,13
				L177.1,13z"/>
			<path fill="#0075C9" d="M160.2,18.5h0.6l0.7,3.1l0.7-3.1h0.5l0.7,3.1l0.7-3.1h0.6l-1.1,4.8h-0.5l-0.7-3.1l-0.7,3.1h-0.5
				L160.2,18.5z"/>
			<path fill="#0075C9" d="M165,23.4l1.1-4.8h0.5l1.1,4.8H167l-0.3-1.3h-0.8l-0.3,1.3H165z M166,21.4h0.6l-0.3-1.2L166,21.4z"/>
			<path fill="#0075C9" d="M167.8,23.4v-4.8h1c0.4,0,0.7,0.1,0.9,0.4c0.2,0.2,0.3,0.6,0.3,1c0,0.4-0.1,0.8-0.3,1c0,0,0,0,0,0
				s0,0,0,0c0.1,0.1,0.2,0.2,0.3,0.4s0.1,0.3,0.1,0.5v1.4h-0.6v-1.4c0-0.4-0.2-0.6-0.6-0.6h-0.3h-0.1v2.1H167.8z M168.4,20.7
				L168.4,20.7h0.4c0.2,0,0.3,0,0.3-0.1c0.1,0,0.1-0.1,0.1-0.1c0.1-0.1,0.1-0.3,0.1-0.6c0-0.2,0-0.3,0-0.4c0-0.1-0.1-0.2-0.1-0.2
				c-0.1-0.1-0.1-0.1-0.2-0.1c-0.1,0-0.2,0-0.3,0h-0.4V20.7z"/>
			<path fill="#0075C9" d="M170.6,23.4v-4.8h1c0.4,0,0.7,0.1,0.9,0.4c0.2,0.2,0.3,0.6,0.3,1c0,0.4-0.1,0.8-0.3,1c0,0,0,0,0,0
				s0,0,0,0c0.1,0.1,0.2,0.2,0.3,0.4s0.1,0.3,0.1,0.5v1.4h-0.6v-1.4c0-0.4-0.2-0.6-0.6-0.6h-0.3h-0.1v2.1H170.6z M171.2,20.7
				L171.2,20.7h0.4c0.2,0,0.3,0,0.3-0.1c0.1,0,0.1-0.1,0.1-0.1c0.1-0.1,0.1-0.3,0.1-0.6c0-0.2,0-0.3,0-0.4c0-0.1-0.1-0.2-0.1-0.2
				c-0.1-0.1-0.1-0.1-0.2-0.1c-0.1,0-0.2,0-0.3,0h-0.4V20.7z"/>
			<path fill="#0075C9" d="M173.5,23.4v-4.8h0.6v4.8H173.5z"/>
			<path fill="#0075C9" d="M174.6,22v-2.1c0-0.4,0.1-0.8,0.3-1c0,0,0.1-0.1,0.1-0.1c0.1,0,0.1-0.1,0.2-0.1s0.2-0.1,0.2-0.1
				c0.1,0,0.2,0,0.3,0c0.2,0,0.4,0,0.6,0.1c0.1,0.1,0.2,0.2,0.3,0.3c0.2,0.2,0.3,0.6,0.3,1V22c0,0.4-0.1,0.8-0.3,1
				c-0.1,0.1-0.2,0.2-0.3,0.3c-0.1,0.1-0.3,0.1-0.6,0.1c-0.2,0-0.4,0-0.6-0.1c-0.1-0.1-0.2-0.2-0.3-0.3
				C174.7,22.8,174.6,22.4,174.6,22z M175.2,22c0,0.2,0,0.3,0.1,0.4s0.1,0.2,0.1,0.2s0.1,0.1,0.2,0.1s0.1,0,0.2,0c0,0,0.1,0,0.2,0
				c0.1,0,0.1,0,0.2-0.1s0.1-0.1,0.1-0.2s0.1-0.2,0.1-0.4v-2.1c0-0.2,0-0.3-0.1-0.4c0-0.1-0.1-0.2-0.1-0.2c-0.1,0-0.1-0.1-0.2-0.1
				s-0.1,0-0.2,0c0,0-0.1,0-0.2,0c-0.1,0-0.1,0-0.2,0.1c-0.1,0-0.1,0.1-0.1,0.2c0,0.1-0.1,0.2-0.1,0.4V22z"/>
			<path fill="#0075C9" d="M177.3,23.4v-4.8h1c0.4,0,0.7,0.1,0.9,0.4c0.2,0.2,0.3,0.6,0.3,1c0,0.4-0.1,0.8-0.3,1c0,0,0,0,0,0
				s0,0,0,0c0.1,0.1,0.2,0.2,0.3,0.4s0.1,0.3,0.1,0.5v1.4h-0.6v-1.4c0-0.4-0.2-0.6-0.6-0.6H178h-0.1v2.1H177.3z M177.9,20.7
				L177.9,20.7h0.4c0.2,0,0.3,0,0.3-0.1c0.1,0,0.1-0.1,0.1-0.1c0.1-0.1,0.1-0.3,0.1-0.6c0-0.2,0-0.3,0-0.4c0-0.1-0.1-0.2-0.1-0.2
				c-0.1-0.1-0.1-0.1-0.2-0.1c-0.1,0-0.2,0-0.3,0h-0.4V20.7z"/>
			<path fill="#0075C9" d="M154.7,30.6v-2.1c0-0.4,0.1-0.8,0.3-1c0.1-0.1,0.2-0.2,0.3-0.3s0.3-0.1,0.6-0.1c0.2,0,0.4,0,0.6,0.1
				s0.2,0.2,0.3,0.3c0.2,0.2,0.3,0.6,0.3,1v0.3h-0.6v-0.3c0-0.2,0-0.3-0.1-0.4c0-0.1-0.1-0.2-0.1-0.2s-0.1-0.1-0.2-0.1
				c-0.1,0-0.1,0-0.2,0c0,0-0.1,0-0.2,0c-0.1,0-0.1,0-0.2,0.1s-0.1,0.1-0.1,0.2c0,0.1-0.1,0.3-0.1,0.4v2.1c0,0.3,0.1,0.5,0.2,0.6
				c0,0,0.1,0.1,0.1,0.1s0.1,0.1,0.3,0.1c0.1,0,0.2,0,0.3-0.1s0.1-0.1,0.1-0.1c0.1-0.1,0.1-0.3,0.1-0.6v-0.3h0.6v0.3
				c0,0.4-0.1,0.8-0.3,1c-0.1,0.1-0.2,0.2-0.3,0.3c-0.1,0.1-0.3,0.1-0.6,0.1c-0.1,0-0.2,0-0.3,0s-0.2-0.1-0.2-0.1s-0.1-0.1-0.2-0.1
				c-0.1,0-0.1-0.1-0.1-0.1C154.8,31.4,154.7,31,154.7,30.6z"/>
			<path fill="#0075C9" d="M157.2,32v-4.8h2v0.6h-1.4v1.5h1.4v0.6h-1.4v1.5h1.4V32H157.2z"/>
			<path fill="#0075C9" d="M159.7,32v-4.8h0.5l1.2,2.9v-2.9h0.6V32h-0.5l-1.2-2.9V32H159.7z"/>
			<path fill="#0075C9" d="M162.4,27.8v-0.6h2.7v0.6h-1.1V32h-0.6v-4.2H162.4z"/>
			<path fill="#0075C9" d="M165.5,32v-4.8h2v0.6h-1.4v1.5h1.4v0.6h-1.4v1.5h1.4V32H165.5z"/>
			<path fill="#0075C9" d="M167.9,32v-4.8h0.5l1.2,2.9v-2.9h0.6V32h-0.5l-1.2-2.9V32H167.9z"/>
			<path fill="#0075C9" d="M170.7,32v-4.8h0.5l1.2,2.9v-2.9h0.6V32h-0.5l-1.2-2.9V32H170.7z"/>
			<path fill="#0075C9" d="M173.7,32v-4.8h0.6V32H173.7z"/>
			<path fill="#0075C9" d="M174.8,32l1.1-4.8h0.5l1.1,4.8h-0.6l-0.3-1.3h-0.8l-0.3,1.3H174.8z M175.9,30h0.6l-0.3-1.2L175.9,30z"/>
			<path fill="#0075C9" d="M177.7,32v-4.8h0.6v4.2h1.5V32H177.7z"/>
			<path fill="#0075C9" d="M167.5,39.2v-2.1c0-0.4,0.1-0.8,0.3-1c0.1-0.1,0.2-0.2,0.3-0.3s0.3-0.1,0.6-0.1c0.2,0,0.4,0,0.6,0.1
				s0.2,0.2,0.3,0.3c0.2,0.2,0.3,0.6,0.3,1v0.3h-0.6v-0.3c0-0.2,0-0.3-0.1-0.4c0-0.1-0.1-0.2-0.1-0.2s-0.1-0.1-0.2-0.1
				c-0.1,0-0.1,0-0.2,0c0,0-0.1,0-0.2,0c-0.1,0-0.1,0-0.2,0.1s-0.1,0.1-0.1,0.2c0,0.1-0.1,0.3-0.1,0.4v2.1c0,0.3,0.1,0.5,0.2,0.6
				c0,0,0.1,0.1,0.1,0.1s0.1,0.1,0.3,0.1c0.1,0,0.2,0,0.3-0.1s0.1-0.1,0.1-0.1c0.1-0.1,0.1-0.3,0.1-0.6v-0.3h0.6v0.3
				c0,0.4-0.1,0.8-0.3,1c-0.1,0.1-0.2,0.2-0.3,0.3c-0.1,0.1-0.3,0.1-0.6,0.1c-0.1,0-0.2,0-0.3,0s-0.2-0.1-0.2-0.1s-0.1-0.1-0.2-0.1
				c-0.1,0-0.1-0.1-0.1-0.1C167.6,40,167.5,39.7,167.5,39.2z"/>
			<path fill="#0075C9" d="M170.3,40.6v-4.8h0.6v4.8H170.3z"/>
			<path fill="#0075C9" d="M171.4,36.4v-0.6h2.7v0.6h-1.1v4.2h-0.6v-4.2H171.4z"/>
			<path fill="#0075C9" d="M174.4,40.6v-4.8h1c0.4,0,0.7,0.1,0.9,0.4c0.2,0.2,0.3,0.6,0.3,1c0,0.4-0.1,0.8-0.3,1c0,0,0,0,0,0
				s0,0,0,0c0.1,0.1,0.2,0.2,0.3,0.4s0.1,0.3,0.1,0.5v1.4H176v-1.4c0-0.4-0.2-0.6-0.6-0.6h-0.3H175v2.1H174.4z M175,37.9L175,37.9
				h0.4c0.2,0,0.3,0,0.3-0.1c0.1,0,0.1-0.1,0.1-0.1c0.1-0.1,0.1-0.3,0.1-0.6c0-0.2,0-0.3,0-0.4c0-0.1-0.1-0.2-0.1-0.2
				c-0.1-0.1-0.1-0.1-0.2-0.1c-0.1,0-0.2,0-0.3,0H175V37.9z"/>
			<path fill="#0075C9" d="M177.1,40.6l1.1-4.8h0.5l1.1,4.8h-0.6l-0.3-1.3h-0.8l-0.3,1.3H177.1z M178.2,38.6h0.6l-0.3-1.2
				L178.2,38.6z"/>
		</g>
	</g>
	<g>
		<g>
			<path fill="#FFFFFF" d="M178.3,52.9c-1.7,0-3-1.3-3-3c0-1.7,1.3-3,3-3c1.7,0,3,1.3,3,3C181.3,51.5,180,52.9,178.3,52.9z
				 M178.3,48.1c-1,0-1.8,0.8-1.8,1.8c0,1,0.8,1.8,1.8,1.8c1,0,1.8-0.8,1.8-1.8C180.1,48.9,179.3,48.1,178.3,48.1z"/>
		</g>
	</g>
	<g>
		<rect x="177.7" y="52.3" fill="#FFFFFF" width="1.2" height="4.3"/>
	</g>
	<g>
		<polygon fill="#FFFFFF" points="180.5,56.2 178.3,60 176.1,56.2 		"/>
	</g>
	<g>
		<g>
			<path fill="#FFFFFF" d="M186.5,52.9c-1.7,0-3-1.3-3-3c0-1.7,1.3-3,3-3c1.7,0,3,1.3,3,3C189.5,51.5,188.2,52.9,186.5,52.9z
				 M186.5,48.1c-1,0-1.8,0.8-1.8,1.8c0,1,0.8,1.8,1.8,1.8c1,0,1.8-0.8,1.8-1.8C188.3,48.9,187.5,48.1,186.5,48.1z"/>
		</g>
	</g>
	<g>
		<g>
			<circle fill="#FFFFFF" cx="186.6" cy="29.4" r="3.5"/>
		</g>
	</g>
	<g>
		<g>
			<circle fill="#FFFFFF" cx="186.6" cy="20.7" r="3.5"/>
		</g>
	</g>
	<g>
		<g>
			<circle fill="#FFFFFF" cx="186.6" cy="38" r="3.5"/>
		</g>
	</g>
	<g>
		<rect x="185.9" y="52.3" fill="#FFFFFF" width="1.2" height="4.3"/>
	</g>
	<g>
		<polygon fill="#FFFFFF" points="188.7,56.2 186.5,60 184.3,56.2 		"/>
	</g>
	<g>
		<rect x="185.9" y="14.6" fill="#FFFFFF" width="1.2" height="33"/>
	</g>
	<g>
		<g>
			<path fill="#A09F9F" d="M184.6,22.8v-0.2c0-0.2,0-0.3,0-0.4s0.1-0.3,0.1-0.4s0.1-0.2,0.2-0.4l0.3-0.4l0.2-0.3l0.1-0.2
				c0-0.1,0.1-0.1,0.1-0.2c0-0.1,0-0.1,0.1-0.2c0-0.1,0-0.1,0-0.2c0,0,0-0.1,0-0.1s0-0.1,0-0.2s-0.1-0.1-0.1-0.2
				c0,0-0.1-0.1-0.2-0.1c0,0-0.1,0-0.1,0c0,0-0.1,0-0.1,0.1c0,0-0.1,0.1-0.1,0.2c0,0.1,0,0.2,0,0.3v0.3h-0.5v-0.3
				c0-0.3,0.1-0.6,0.2-0.7c0-0.1,0.1-0.1,0.2-0.2c0.1-0.1,0.2-0.1,0.4-0.1c0.1,0,0.2,0,0.3,0.1c0.1,0,0.2,0.1,0.3,0.2
				s0.1,0.2,0.2,0.3c0,0.1,0.1,0.3,0.1,0.4h0v0h0c0,0.1,0,0.2,0,0.3c0,0.1-0.1,0.2-0.1,0.3s-0.1,0.2-0.1,0.2l-0.2,0.2l-0.1,0.1
				c0,0-0.1,0.1-0.1,0.1l-0.2,0.3c-0.1,0.1-0.1,0.2-0.2,0.3c0,0.1-0.1,0.2-0.1,0.2c0,0.1,0,0.2-0.1,0.2h0.3h0.6h0.3v0.5H186h-0.6
				H184.6z"/>
			<path fill="#A09F9F" d="M186.5,21.6V20c0-0.3,0.1-0.6,0.2-0.8c0.1-0.2,0.4-0.3,0.6-0.3c0.3,0,0.5,0.1,0.6,0.3
				c0.1,0.2,0.2,0.5,0.2,0.8v1.7c0,0.3-0.1,0.6-0.2,0.8c-0.1,0.2-0.4,0.3-0.6,0.3c-0.3,0-0.5-0.1-0.6-0.3
				C186.6,22.2,186.5,22,186.5,21.6z M187,21.6c0,0.2,0,0.3,0,0.4c0,0.1,0.1,0.1,0.1,0.2c0,0,0.1,0.1,0.1,0.1s0.1,0,0.1,0
				c0,0,0.1,0,0.1,0c0,0,0.1,0,0.1-0.1c0,0,0.1-0.1,0.1-0.2s0-0.2,0-0.4V20c0-0.2,0-0.3,0-0.4s-0.1-0.1-0.1-0.2c0,0-0.1-0.1-0.1-0.1
				c0,0-0.1,0-0.1,0c0,0-0.1,0-0.1,0c0,0-0.1,0-0.1,0.1c0,0-0.1,0.1-0.1,0.2c0,0.1,0,0.2,0,0.4V21.6z"/>
		</g>
	</g>
	<g>
		<g>
			<circle fill="#FFFFFF" cx="186.6" cy="11.7" r="3.5"/>
		</g>
	</g>
	<g>
		<g>
			<path fill="#A09F9F" d="M184.6,12.8v-0.5v0v-1.1c0-0.4,0.1-0.7,0.2-0.9c0.1-0.1,0.2-0.2,0.3-0.3c0.1-0.1,0.2-0.1,0.4-0.1
				c0.1,0,0.3,0,0.4,0.1c0.1,0,0.2,0.1,0.3,0.2c0.1,0.2,0.2,0.4,0.2,0.7V11h-0.5v-0.2c0-0.2,0-0.3-0.1-0.4c0,0,0,0-0.1-0.1
				s-0.1,0-0.2,0c-0.1,0-0.1,0-0.2,0.1c0,0.1-0.1,0.1-0.1,0.2c0,0.1,0,0.2,0,0.3c0,0.1,0,0.2,0,0.2v0c0.1,0,0.2-0.1,0.3-0.1
				c0.3,0,0.5,0.1,0.6,0.3c0.1,0.2,0.2,0.5,0.2,0.8v0.4c0,0.2,0,0.3-0.1,0.5c0,0.1-0.1,0.3-0.2,0.4c-0.1,0.1-0.2,0.2-0.3,0.2
				s-0.2,0.1-0.3,0.1c-0.3,0-0.5-0.1-0.6-0.3C184.7,13.3,184.6,13.1,184.6,12.8z M185.1,12.8c0,0.2,0,0.3,0.1,0.4c0,0,0,0,0.1,0.1
				s0.1,0,0.2,0c0.1,0,0.1,0,0.2-0.1c0,0,0.1-0.1,0.1-0.2c0-0.1,0-0.1,0.1-0.2c0-0.1,0-0.1,0-0.2v-0.4c0-0.1,0-0.3,0-0.3
				c0-0.1-0.1-0.1-0.1-0.2c0,0-0.1-0.1-0.1-0.1s-0.1,0-0.1,0c-0.1,0-0.1,0-0.2,0.1c0,0.1-0.1,0.1-0.1,0.2c0,0.1,0,0.1,0,0.2
				s0,0.1,0,0.1V12.8z"/>
			<path fill="#A09F9F" d="M186.5,12.6V11c0-0.3,0.1-0.6,0.2-0.8c0.1-0.2,0.4-0.3,0.6-0.3c0.3,0,0.5,0.1,0.6,0.3
				c0.1,0.2,0.2,0.5,0.2,0.8v1.7c0,0.3-0.1,0.6-0.2,0.8c-0.1,0.2-0.4,0.3-0.6,0.3c-0.3,0-0.5-0.1-0.6-0.3
				C186.6,13.2,186.5,13,186.5,12.6z M187,12.6c0,0.2,0,0.3,0,0.4c0,0.1,0.1,0.1,0.1,0.2c0,0,0.1,0.1,0.1,0.1s0.1,0,0.1,0
				c0,0,0.1,0,0.1,0c0,0,0.1,0,0.1-0.1c0,0,0.1-0.1,0.1-0.2s0-0.2,0-0.4V11c0-0.2,0-0.3,0-0.4s-0.1-0.1-0.1-0.2c0,0-0.1-0.1-0.1-0.1
				c0,0-0.1,0-0.1,0c0,0-0.1,0-0.1,0c0,0-0.1,0-0.1,0.1c0,0-0.1,0.1-0.1,0.2c0,0.1,0,0.2,0,0.4V12.6z"/>
		</g>
	</g>
	<g>
		<g>
			<path fill="#A09F9F" d="M184.9,28.3l0.6-0.9h0.5v3.9h-0.5v-3l-0.2,0.3L184.9,28.3z"/>
			<path fill="#A09F9F" d="M186.4,30.2v-1.7c0-0.3,0.1-0.6,0.2-0.8c0.1-0.2,0.4-0.3,0.6-0.3c0.3,0,0.5,0.1,0.6,0.3
				c0.1,0.2,0.2,0.5,0.2,0.8v1.7c0,0.3-0.1,0.6-0.2,0.8c-0.1,0.2-0.4,0.3-0.6,0.3c-0.3,0-0.5-0.1-0.6-0.3
				C186.4,30.8,186.4,30.6,186.4,30.2z M186.9,30.2c0,0.2,0,0.3,0,0.4c0,0.1,0.1,0.1,0.1,0.2c0,0,0.1,0.1,0.1,0.1s0.1,0,0.1,0
				c0,0,0.1,0,0.1,0c0,0,0.1,0,0.1-0.1c0,0,0.1-0.1,0.1-0.2s0-0.2,0-0.4v-1.7c0-0.2,0-0.3,0-0.4s-0.1-0.1-0.1-0.2
				c0,0-0.1-0.1-0.1-0.1c0,0-0.1,0-0.1,0c0,0-0.1,0-0.1,0c0,0-0.1,0-0.1,0.1c0,0-0.1,0.1-0.1,0.2c0,0.1,0,0.2,0,0.4V30.2z"/>
		</g>
	</g>
	<g>
		<g>
			<path fill="#A09F9F" d="M185.7,37l0.6-0.9h0.5V40h-0.5v-3l-0.2,0.3L185.7,37z"/>
		</g>
	</g>
	<g>
		<g>
			<g>
				<circle fill="#FFFFFF" cx="207.1" cy="40.7" r="8.9"/>
			</g>
		</g>
		<g>
			<g>
				<circle fill="#A09F9F" cx="207.1" cy="40.7" r="1.4"/>
			</g>
		</g>
		<g>
			<g>
				<path fill="#A09F9F" d="M201.4,46.1v-3h0.3l0.6,2.1l0.6-2.1h0.3v3h-0.4v-1.4l-0.4,1.4h-0.3l-0.4-1.4v1.4H201.4z"/>
				<path fill="#A09F9F" d="M203.7,46.1v-3h0.4v3H203.7z"/>
				<path fill="#A09F9F" d="M204.4,46.1v-3h0.3l0.7,1.8V43h0.4v3h-0.3l-0.7-1.8v1.8H204.4z"/>
				<path fill="#A09F9F" d="M206.2,45.3V43h0.4v2.2c0,0.1,0,0.2,0,0.2c0,0.1,0,0.1,0.1,0.1c0,0,0.1,0,0.1,0c0,0,0.1,0,0.1,0
					s0.1,0,0.1,0c0,0,0.1,0,0.1,0c0,0,0.1-0.1,0.1-0.1c0-0.1,0-0.1,0-0.2V43h0.4v2.2c0,0.3-0.1,0.4-0.2,0.6c0,0.1-0.1,0.1-0.2,0.2
					s-0.2,0.1-0.3,0.1c-0.1,0-0.2,0-0.3-0.1s-0.1-0.1-0.2-0.2C206.2,45.7,206.2,45.5,206.2,45.3z"/>
				<path fill="#A09F9F" d="M207.8,43.4V43h1.7v0.4h-0.7v2.6h-0.4v-2.6H207.8z"/>
				<path fill="#A09F9F" d="M209.7,46.1v-3h1.3v0.4h-0.9v0.9h0.9v0.4h-0.9v0.9h0.9v0.4H209.7z"/>
				<path fill="#A09F9F" d="M211.2,45.2V45h0.4v0.2c0,0.2,0,0.3,0.1,0.4c0,0,0,0,0.1,0.1c0,0,0.1,0,0.2,0c0.1,0,0.1,0,0.2,0
					s0.1-0.1,0.1-0.1s0-0.1,0-0.1c0-0.1,0-0.1,0-0.1c0-0.1,0-0.1,0-0.2c0,0,0-0.1-0.1-0.1s-0.1-0.1-0.1-0.1c0,0-0.1,0-0.1-0.1
					l-0.1,0c0,0-0.1,0-0.2-0.1c-0.1,0-0.1-0.1-0.2-0.1c-0.2-0.2-0.2-0.4-0.2-0.6c0-0.1,0-0.2,0.1-0.4c0-0.1,0.1-0.2,0.1-0.3
					s0.1-0.1,0.2-0.2c0.1,0,0.2-0.1,0.3-0.1c0.1,0,0.3,0,0.4,0.1c0.1,0.1,0.2,0.1,0.2,0.2c0.1,0.2,0.2,0.4,0.2,0.6v0.2h-0.4v-0.2
					c0-0.1,0-0.2,0-0.3s-0.1-0.1-0.1-0.1c0,0-0.1,0-0.1-0.1c0,0-0.1,0-0.1,0c-0.1,0-0.1,0-0.2,0.1c0,0-0.1,0.1-0.1,0.1
					c0,0.1,0,0.1,0,0.2c0,0.1,0,0.1,0,0.1c0,0.1,0,0.1,0,0.2c0,0.1,0,0.1,0.1,0.1s0.1,0.1,0.1,0.1c0,0,0.1,0,0.1,0.1l0.1,0
					c0,0,0.1,0,0.2,0.1s0.1,0.1,0.2,0.1c0.2,0.2,0.3,0.4,0.3,0.6c0,0.2-0.1,0.4-0.2,0.6c-0.1,0.2-0.3,0.3-0.6,0.3
					c-0.2,0-0.4-0.1-0.5-0.2C211.3,45.7,211.2,45.5,211.2,45.2z"/>
			</g>
		</g>
		<g>
			<rect x="206.7" y="34.8" fill="#A09F9F" width="0.8" height="4.9"/>
		</g>
		<g>
			<polygon fill="#A09F9F" points="205.6,36.1 207,33.6 208.4,36.1 			"/>
		</g>
	</g>
	<g>
		<polygon fill="#FFFFFF" points="207.8,33 206.5,33 206.5,19.7 199.6,12.8 188.6,12.8 188.6,11.6 200.1,11.6 207.8,19.2 		"/>
	</g>
</g>
<path fill="#FFFFFF" d="M343.6,83.9l1.2-0.5c0,0,0.8,2.2,1,4s0.2,3,0.2,3s-1.2-3.5-1.6-4.6C344,84.6,343.6,83.9,343.6,83.9z"/>
<g>
	<path fill="#0075C9" d="M347.9,88C347.9,87.9,347.9,87.9,347.9,88l-10.5-0.1c0.1,0.3,0.2,0.6,0.4,1c0,0,0,0,0,0
		c0.1,0.2,0.2,0.4,0.3,0.6c0,0,0,0,0,0c0.1,0.2,0.2,0.4,0.3,0.6c0.1,0.3,0.3,0.6,0.4,0.8c1.3,2.5,1.9,1.9,2.8,5.1
		c0.9,3.1,1.8,6.4,1.8,6.4s0,0,0,0c0,0,0,0,0,0c0,0,0,0,0,0c0,0,0,0,0,0c0,0,0,0,0,0c0,0,0,0,0,0c0,0,0,0,0,0c0,0,0,0,0,0
		c0,0,0,0,0,0c0,0,0,0,0,0c0,0,0,0,0,0c0,0,0,0,0,0c0,0,0,0,0,0c0,0,0,0,0,0c0,0,0,0,0.1,0c0,0,0,0,0,0c0,0,0.1,0,0.1,0c0,0,0,0,0,0
		c0,0,0,0,0.1,0c0,0,0,0,0,0c0,0,0,0,0.1,0c0,0,0,0,0,0c0,0,0.1,0,0.1,0c0,0,0,0,0,0c0,0,0.1,0,0.1,0c0,0,0,0,0,0c0,0,0.1,0,0.1,0
		c0,0,0,0,0.1,0c0,0,0.1,0,0.1,0c0,0,0,0,0.1,0c0,0,0.1,0,0.1,0c0,0,0,0,0,0c0,0,0,0,0,0c0.1,0,0.1,0,0.2,0c0,0,0,0,0.1,0
		c0.1,0,0.1,0,0.2,0c0,0,0,0,0,0c0.1,0,0.2,0,0.3,0c0,0,0,0,0.1,0c0.1,0,0.2,0,0.3,0c0,0,0,0,0,0c0.1,0,0.2,0,0.3-0.1
		c0,0,0.1,0,0.1,0c0.1,0,0.2-0.1,0.3-0.1c0,0,0,0,0,0c0.1,0,0.2-0.1,0.4-0.1c0,0,0.1,0,0.1,0c0.1,0,0.3-0.1,0.4-0.1
		c3.3-1,3.6-2.5,3.6-2.5s-1.3-3.1-2.5-6.1C347.6,90.7,348.4,90.7,347.9,88z"/>
</g>
<path fill="#FFFFFF" d="M347,109.9c0,0,5.5,16.2,20.3,18.6l3.9,15.5h42l1.7-8.6l1.1-6.8c3.4,2.2,7.9,6.5,8.1,15.3h6.6
	c-0.1-2.2-1-17.4-13.4-23.9l0-0.3c-1-3.1-4.1-5.9-7.8-5.9h-1.8c-0.4-5.5-2-10.4-4.3-14.1l2.3-10.8c1.1-0.2,2-1.2,2-2.4
	c0-1.4-1.1-2.5-2.5-2.5c-1.4,0-2.5,1.1-2.5,2.5c0,0.6,0.3,1.2,0.7,1.7l-3.6,7.8c-2.2-1.9-5.4-2.8-7.4-2.8c-2.8,0-6.1,1.3-8.5,3.7
	l-3.8-8.4c0.4-0.4,0.7-1,0.7-1.7c0-1.4-1.1-2.5-2.5-2.5c-1.4,0-2.5,1.1-2.5,2.5c0,1.2,0.8,2.2,2,2.4l2.6,12.2
	c-1.8,3.5-3,7.8-3.4,12.5h-3c-4,0-7.3,2.6-8,5.9c-4-1-9.6-3.8-12.4-12.2l3.6-6.7l-3.1-8.7l-3.5,1.2l2.3,6.7l-3.4,6.1l-6.5-2.6
	l-2.3-6.7l-3.5,1.2l3,8.7L347,109.9z"/>
<g>
	<path fill="#FFFFFF" d="M345.2,82.2c0.5,1.3,1.3,3.7,1.6,5.5c0,0.1,0.1,0.3,0.1,0.4c0.2,1,0.2,1.6,0.2,2.2c0,1,0,1.8,0.8,3.8
		c0.9,2.3,1.9,4.8,2.3,5.7c-0.3,0.3-1,1-2.8,1.5l0,0l0,0c-0.1,0-0.3,0.1-0.4,0.1l-0.1,0c-0.1,0-0.2,0.1-0.4,0.1
		c-0.1,0-0.2,0.1-0.3,0.1l-0.1,0c-0.1,0-0.2,0-0.3,0.1c-0.1,0-0.2,0-0.2,0l-0.1,0c-0.1,0-0.2,0-0.3,0c-0.1,0-0.1,0-0.2,0
		c-0.1,0-0.1,0-0.2,0l0,0l-0.1,0l-0.1,0l-0.1,0l-0.1,0l-0.1,0l0,0.1c-0.3-0.9-1-3.5-1.7-6c-0.6-2.1-1.1-2.7-1.7-3.5
		c-0.3-0.4-0.7-0.9-1.2-1.8c-0.1-0.2-0.3-0.5-0.4-0.8c-0.1-0.2-0.2-0.4-0.3-0.6c-0.1-0.2-0.2-0.4-0.3-0.7c-0.2-0.4-0.3-0.9-0.5-1.3
		c-0.3-0.9-0.6-1.7-0.8-2.3L345.2,82.2 M345.8,80.9l-0.4,0.1l-8.8,3l-0.4,0.1c0,0,0.5,1.5,1.1,3.3h0c0,0,0,0,0,0
		c0.2,0.4,0.3,0.9,0.5,1.3c0,0,0,0,0,0c0.1,0.2,0.2,0.4,0.3,0.6c0,0,0,0,0,0c0.1,0.2,0.2,0.4,0.3,0.6c0.1,0.3,0.3,0.6,0.4,0.8
		c1.3,2.5,1.9,1.9,2.8,5.1c0.9,3.1,1.8,6.4,1.8,6.4s0,0,0,0c0,0,0,0,0,0c0,0,0,0,0,0c0,0,0,0,0,0c0,0,0,0,0,0c0,0,0,0,0,0
		c0,0,0,0,0,0c0,0,0,0,0,0c0,0,0,0,0,0c0,0,0,0,0,0c0,0,0,0,0,0c0,0,0,0,0,0c0,0,0,0,0,0c0,0,0,0,0,0c0,0,0,0,0.1,0c0,0,0,0,0,0
		c0,0,0.1,0,0.1,0c0,0,0,0,0,0c0,0,0,0,0.1,0c0,0,0,0,0,0c0,0,0,0,0.1,0c0,0,0,0,0,0c0,0,0.1,0,0.1,0c0,0,0,0,0,0c0,0,0.1,0,0.1,0
		c0,0,0,0,0,0c0,0,0.1,0,0.1,0c0,0,0,0,0.1,0c0,0,0.1,0,0.1,0c0,0,0,0,0.1,0c0,0,0.1,0,0.1,0c0,0,0,0,0,0c0,0,0,0,0,0
		c0.1,0,0.1,0,0.2,0c0,0,0,0,0.1,0c0.1,0,0.1,0,0.2,0c0,0,0,0,0,0c0.1,0,0.2,0,0.3,0c0,0,0,0,0.1,0c0.1,0,0.2,0,0.3,0c0,0,0,0,0,0
		c0.1,0,0.2,0,0.3-0.1c0,0,0.1,0,0.1,0c0.1,0,0.2-0.1,0.3-0.1c0,0,0,0,0,0c0.1,0,0.2-0.1,0.4-0.1c0,0,0.1,0,0.1,0
		c0.1,0,0.3-0.1,0.4-0.1c3.3-1,3.6-2.5,3.6-2.5s-1.3-3.1-2.5-6.1c-1.2-3-0.4-3-0.9-5.7c0-0.1-0.1-0.3-0.1-0.4c0,0,0,0,0,0h0
		C347.2,84.7,345.8,80.9,345.8,80.9L345.8,80.9z"/>
</g>
<g>
	<g>
		<path fill="#FFFFFF" d="M70.3,123.2v-0.3h0.6v0.3c0,0.3,0,0.4,0.1,0.6c0,0,0.1,0.1,0.1,0.1s0.1,0,0.2,0c0.1,0,0.2,0,0.3-0.1
			s0.1-0.1,0.1-0.2s0.1-0.1,0.1-0.2s0-0.1,0-0.2c0-0.1,0-0.2,0-0.3s-0.1-0.1-0.1-0.2s-0.1-0.1-0.2-0.1s-0.1-0.1-0.2-0.1l-0.1,0
			c-0.1,0-0.1-0.1-0.2-0.1s-0.2-0.1-0.3-0.2c-0.2-0.2-0.4-0.5-0.4-0.9c0-0.2,0-0.4,0.1-0.5s0.1-0.3,0.2-0.4c0.1-0.1,0.2-0.2,0.3-0.3
			s0.3-0.1,0.4-0.1c0.2,0,0.4,0,0.5,0.1s0.2,0.2,0.3,0.2c0.2,0.2,0.3,0.5,0.3,0.9v0.3h-0.6v-0.3c0-0.2,0-0.3,0-0.4s-0.1-0.2-0.1-0.2
			s-0.1-0.1-0.2-0.1s-0.1,0-0.1,0c-0.1,0-0.2,0-0.3,0.1s-0.1,0.1-0.1,0.2s-0.1,0.2-0.1,0.2s0,0.1,0,0.2c0,0.1,0,0.2,0,0.3
			s0.1,0.1,0.1,0.2s0.1,0.1,0.2,0.1s0.1,0.1,0.2,0.1l0.1,0c0.1,0,0.1,0.1,0.2,0.1s0.2,0.1,0.3,0.2c0.2,0.2,0.4,0.5,0.4,0.9
			c0,0.3-0.1,0.6-0.3,0.8c-0.2,0.3-0.5,0.4-0.8,0.4c-0.4,0-0.6-0.1-0.8-0.3C70.4,123.9,70.3,123.6,70.3,123.2z"/>
		<path fill="#FFFFFF" d="M72.7,120.6v-0.6h2.5v0.6h-1v3.9h-0.6v-3.9H72.7z"/>
		<path fill="#FFFFFF" d="M75.4,124.5v-4.4h1.8v0.6H76v1.4h1.3v0.6H76v1.4h1.3v0.6H75.4z"/>
		<path fill="#FFFFFF" d="M77.7,124.5l1-4.4h0.4l1,4.4h-0.6l-0.3-1.2h-0.8l-0.3,1.2H77.7z M78.7,122.7h0.5l-0.3-1.1L78.7,122.7z"/>
		<path fill="#FFFFFF" d="M80.3,124.5v-4.4h0.5l0.9,3.1l0.9-3.1h0.5v4.4h-0.6v-2.1l-0.6,2.1h-0.4l-0.6-2.1v2.1H80.3z"/>
		<path fill="#FFFFFF" d="M85.4,123.2v-1.9c0-0.4,0.1-0.7,0.3-0.9c0.1-0.1,0.2-0.2,0.3-0.2s0.3-0.1,0.5-0.1c0.2,0,0.4,0,0.5,0.1
			s0.2,0.2,0.3,0.2c0.2,0.2,0.3,0.5,0.3,0.9v0.3h-0.6v-0.3c0-0.2,0-0.3-0.1-0.4s-0.1-0.2-0.1-0.2c0,0-0.1-0.1-0.2-0.1s-0.1,0-0.1,0
			c0,0-0.1,0-0.1,0s-0.1,0-0.2,0.1s-0.1,0.1-0.1,0.2s0,0.2,0,0.4v1.9c0,0.3,0,0.4,0.1,0.6c0,0,0.1,0.1,0.1,0.1s0.1,0,0.2,0
			c0.1,0,0.2,0,0.2,0s0.1-0.1,0.1-0.1c0.1-0.1,0.1-0.3,0.1-0.6v-0.3h0.6v0.3c0,0.4-0.1,0.7-0.3,0.9c-0.1,0.1-0.2,0.2-0.3,0.2
			s-0.3,0.1-0.5,0.1c-0.1,0-0.2,0-0.3,0c-0.1,0-0.2,0-0.2-0.1s-0.1-0.1-0.2-0.1c0,0-0.1-0.1-0.1-0.1
			C85.5,123.9,85.4,123.6,85.4,123.2z"/>
		<path fill="#FFFFFF" d="M87.7,123.2v-1.9c0-0.4,0.1-0.7,0.3-0.9c0,0,0.1-0.1,0.1-0.1c0,0,0.1-0.1,0.2-0.1s0.1-0.1,0.2-0.1
			s0.2,0,0.3,0c0.2,0,0.4,0,0.5,0.1s0.2,0.2,0.3,0.2c0.2,0.2,0.3,0.5,0.3,0.9v1.9c0,0.4-0.1,0.7-0.3,0.9c-0.1,0.1-0.2,0.2-0.3,0.2
			s-0.3,0.1-0.5,0.1c-0.2,0-0.4,0-0.5-0.1s-0.2-0.2-0.3-0.2C87.8,123.9,87.7,123.6,87.7,123.2z M88.3,123.2c0,0.2,0,0.3,0,0.4
			s0.1,0.2,0.1,0.2s0.1,0.1,0.2,0.1s0.1,0,0.1,0c0,0,0.1,0,0.1,0s0.1,0,0.2-0.1s0.1-0.1,0.1-0.2s0.1-0.2,0.1-0.4v-1.9
			c0-0.2,0-0.3-0.1-0.4s-0.1-0.2-0.1-0.2s-0.1-0.1-0.2-0.1s-0.1,0-0.1,0c0,0-0.1,0-0.1,0s-0.1,0-0.2,0.1s-0.1,0.1-0.1,0.2
			s0,0.2,0,0.4V123.2z"/>
		<path fill="#FFFFFF" d="M90.1,124.5v-4.4h0.5l1.1,2.7v-2.7h0.6v4.4h-0.5l-1.1-2.7v2.7H90.1z"/>
		<path fill="#FFFFFF" d="M92.7,120.6v-0.6h2.5v0.6h-1v3.9h-0.6v-3.9H92.7z"/>
		<path fill="#FFFFFF" d="M95.4,124.5v-4.4h0.9c0.4,0,0.7,0.1,0.9,0.3c0.2,0.2,0.3,0.5,0.3,0.9c0,0.4-0.1,0.7-0.3,0.9c0,0,0,0,0,0
			s0,0,0,0c0.1,0.1,0.2,0.2,0.2,0.4c0.1,0.1,0.1,0.3,0.1,0.5v1.3h-0.6v-1.3c0-0.4-0.2-0.6-0.6-0.6h-0.3H96v1.9H95.4z M96,122L96,122
			h0.4c0.2,0,0.3,0,0.3-0.1c0.1,0,0.1-0.1,0.1-0.1c0.1-0.1,0.1-0.3,0.1-0.6c0-0.1,0-0.3,0-0.4s-0.1-0.2-0.1-0.2s-0.1-0.1-0.2-0.1
			s-0.2,0-0.2,0H96V122z"/>
		<path fill="#FFFFFF" d="M97.9,123.2v-1.9c0-0.4,0.1-0.7,0.3-0.9c0,0,0.1-0.1,0.1-0.1c0,0,0.1-0.1,0.2-0.1s0.1-0.1,0.2-0.1
			s0.2,0,0.3,0c0.2,0,0.4,0,0.5,0.1s0.2,0.2,0.3,0.2c0.2,0.2,0.3,0.5,0.3,0.9v1.9c0,0.4-0.1,0.7-0.3,0.9c-0.1,0.1-0.2,0.2-0.3,0.2
			s-0.3,0.1-0.5,0.1c-0.2,0-0.4,0-0.5-0.1s-0.2-0.2-0.3-0.2C98,123.9,97.9,123.6,97.9,123.2z M98.5,123.2c0,0.2,0,0.3,0,0.4
			s0.1,0.2,0.1,0.2s0.1,0.1,0.2,0.1s0.1,0,0.1,0c0,0,0.1,0,0.1,0s0.1,0,0.2-0.1s0.1-0.1,0.1-0.2s0.1-0.2,0.1-0.4v-1.9
			c0-0.2,0-0.3-0.1-0.4s-0.1-0.2-0.1-0.2s-0.1-0.1-0.2-0.1s-0.1,0-0.1,0c0,0-0.1,0-0.1,0s-0.1,0-0.2,0.1s-0.1,0.1-0.1,0.2
			s0,0.2,0,0.4V123.2z"/>
		<path fill="#FFFFFF" d="M100.4,124.5v-4.4h0.6v3.9h1.4v0.6H100.4z"/>
	</g>
	<g>
		<polygon fill="#FFFFFF" points="128.4,111.4 120.5,111.4 120.5,88.6 108.4,88.6 108.4,87.3 121.7,87.3 121.7,110.1 127.9,110.1 
			134.6,103.4 134.6,56.8 142.4,48.9 176.4,48.9 176.4,50.2 142.9,50.2 135.8,57.3 135.8,103.9 		"/>
	</g>
	<path fill="#FFFFFF" d="M143.7,125.8c-1.7,0-3-1.3-3-3c0-1.7,1.3-3,3-3c1.7,0,3,1.3,3,3C146.7,124.5,145.3,125.8,143.7,125.8
		 M143.7,121c-1,0-1.8,0.8-1.8,1.8c0,1,0.8,1.8,1.8,1.8c1,0,1.8-0.8,1.8-1.8C145.5,121.8,144.7,121,143.7,121"/>
	<path fill="#FFFFFF" d="M130,125.8c-1.7,0-3-1.3-3-3c0-1.7,1.3-3,3-3c1.7,0,3,1.3,3,3C133,124.5,131.7,125.8,130,125.8 M130,121
		c-1,0-1.8,0.8-1.8,1.8c0,1,0.8,1.8,1.8,1.8c1,0,1.8-0.8,1.8-1.8C131.8,121.8,131,121,130,121"/>
	<rect x="162.2" y="116.5" fill="#FFFFFF" width="0.8" height="4.9"/>
	<polygon fill="#FFFFFF" points="164.8,116.5 162.6,112.7 160.4,116.5 	"/>
	<rect x="169" y="116.5" fill="#FFFFFF" width="0.8" height="4.9"/>
	<polygon fill="#FFFFFF" points="171.6,116.5 169.4,112.7 167.2,116.5 	"/>
	<rect x="175.8" y="116.5" fill="#FFFFFF" width="0.8" height="4.9"/>
	<polygon fill="#FFFFFF" points="178.4,116.5 176.2,112.7 174.1,116.5 	"/>
	<rect x="182.7" y="116.5" fill="#FFFFFF" width="0.8" height="4.9"/>
	<polygon fill="#FFFFFF" points="185.2,116.5 183.1,112.7 180.9,116.5 	"/>
	<rect x="189.5" y="116.5" fill="#FFFFFF" width="0.8" height="4.9"/>
	<polygon fill="#FFFFFF" points="192.1,116.5 189.9,112.7 187.7,116.5 	"/>
	<rect x="196.3" y="116.5" fill="#FFFFFF" width="0.8" height="4.9"/>
	<polygon fill="#FFFFFF" points="198.9,116.5 196.7,112.7 194.5,116.5 	"/>
	<rect x="203.1" y="116.5" fill="#FFFFFF" width="0.8" height="4.9"/>
	<polygon fill="#FFFFFF" points="205.7,116.5 203.5,112.7 201.4,116.5 	"/>
	<path fill="#FFFFFF" d="M110.3,125.8c-1.7,0-3-1.3-3-3c0-1.7,1.3-3,3-3c1.7,0,3,1.3,3,3C113.3,124.5,111.9,125.8,110.3,125.8
		 M110.3,121c-1,0-1.8,0.8-1.8,1.8c0,1,0.8,1.8,1.8,1.8c1,0,1.8-0.8,1.8-1.8C112,121.8,111.3,121,110.3,121"/>
	<path fill="#FFFFFF" d="M131.7,121.3c-0.2,0-0.3-0.1-0.4-0.2c-0.2-0.2-0.2-0.6,0-0.9l8.6-8.6c0.2-0.2,0.6-0.2,0.9,0
		c0.2,0.2,0.2,0.6,0,0.9l-8.6,8.6C132.1,121.2,131.9,121.3,131.7,121.3"/>
	<path fill="#FFFFFF" d="M124.8,70.7c0,6.4-5.2,11.6-11.6,11.6c-6.4,0-11.6-5.2-11.6-11.6c0-6.4,5.2-11.6,11.6-11.6
		C119.7,59.1,124.8,64.3,124.8,70.7"/>
	<g>
		<g>
			<g>
				<path fill="#A09F9F" d="M109.5,67.3l0.7-1h0.5v4.4h-0.6v-3.4l-0.3,0.3L109.5,67.3z"/>
				<path fill="#A09F9F" d="M111.2,69.8L111.2,69.8l0.6-0.1v0.1c0,0,0,0.1,0,0.1s0,0.1,0.1,0.1s0.1,0.1,0.1,0.1s0.1,0,0.2,0
					s0.1,0,0.2-0.1s0.1-0.1,0.1-0.2s0-0.1,0.1-0.2s0-0.1,0-0.2V69c0-0.2,0-0.3,0-0.4s0-0.1-0.1-0.2c0,0,0-0.1-0.1-0.1s-0.1,0-0.2,0
					s-0.1,0-0.2,0s-0.1,0.1-0.1,0.1c-0.1,0.1-0.1,0.2-0.1,0.4v0.2v0h-0.6v0v-0.2v-2.7h0.6h1.3v0.6h-1.3v1c0.1,0,0.2-0.1,0.4-0.1
					c0.2,0,0.4,0,0.5,0.1s0.2,0.2,0.3,0.2c0.1,0.2,0.2,0.5,0.2,0.9v0.4c0,0.3-0.1,0.6-0.2,0.8c-0.1,0.1-0.2,0.2-0.3,0.3
					s-0.3,0.1-0.4,0.1c-0.1,0-0.3,0-0.4-0.1s-0.2-0.1-0.3-0.2c-0.1-0.1-0.1-0.2-0.2-0.3S111.2,69.9,111.2,69.8z"/>
				<path fill="#A09F9F" d="M113.4,69.5v-0.6l1.4-2.6h0.5v4.4h-0.6v-1.2H113.4z M114.1,68.9h0.7v-1.3L114.1,68.9z"/>
			</g>
			<g>
				<path fill="#A09F9F" d="M116,68.3v-1c0-0.2,0-0.4,0.1-0.5c0,0,0,0,0.1-0.1c0,0,0.1,0,0.1-0.1c0,0,0.1,0,0.1,0s0.1,0,0.1,0
					c0.1,0,0.2,0,0.3,0.1c0.1,0,0.1,0.1,0.1,0.1c0.1,0.1,0.1,0.3,0.1,0.5v1c0,0.2,0,0.4-0.1,0.5c0,0-0.1,0.1-0.1,0.1
					c-0.1,0-0.2,0.1-0.3,0.1c-0.1,0-0.2,0-0.3-0.1c-0.1,0-0.1-0.1-0.1-0.1C116.1,68.6,116,68.5,116,68.3z M116.3,68.3
					c0,0.1,0,0.2,0,0.2c0,0,0,0.1,0.1,0.1s0.1,0,0.1,0c0,0,0.1,0,0.1,0c0,0,0,0,0.1,0c0,0,0.1,0,0.1,0s0-0.1,0.1-0.1
					c0,0,0-0.1,0-0.2v-1c0-0.1,0-0.2,0-0.2c0,0,0-0.1-0.1-0.1s-0.1,0-0.1,0c0,0-0.1,0-0.1,0c0,0,0,0-0.1,0s-0.1,0-0.1,0
					s0,0.1-0.1,0.1s0,0.1,0,0.2V68.3z"/>
			</g>
		</g>
	</g>
	<g>
		<g>
			<path fill="#A09F9F" d="M108.7,73.9v-0.4v0v-0.8c0-0.3,0-0.5,0.1-0.7c0.1-0.1,0.1-0.2,0.2-0.2c0.1-0.1,0.2-0.1,0.3-0.1
				c0.1,0,0.2,0,0.3,0.1s0.2,0.1,0.2,0.2c0.1,0.1,0.2,0.3,0.2,0.5v0.1h-0.4v-0.1c0-0.1,0-0.2-0.1-0.3c0,0,0,0-0.1-0.1
				c0,0-0.1,0-0.1,0c-0.1,0-0.1,0-0.1,0.1c0,0-0.1,0.1-0.1,0.2c0,0.1,0,0.1,0,0.2c0,0.1,0,0.1,0,0.2v0c0.1,0,0.2-0.1,0.3-0.1
				c0.2,0,0.4,0.1,0.5,0.2c0.1,0.1,0.1,0.3,0.1,0.6v0.3c0,0.1,0,0.2,0,0.4c0,0.1-0.1,0.2-0.1,0.3c-0.1,0.1-0.1,0.1-0.2,0.2
				c-0.1,0-0.2,0.1-0.3,0.1c-0.2,0-0.4-0.1-0.5-0.2C108.8,74.3,108.7,74.1,108.7,73.9z M109.1,73.9c0,0.1,0,0.2,0.1,0.3
				c0,0,0,0,0.1,0.1s0.1,0,0.1,0c0,0,0.1,0,0.1,0c0,0,0.1-0.1,0.1-0.1c0,0,0-0.1,0-0.2c0-0.1,0-0.1,0-0.2v-0.3c0-0.1,0-0.2,0-0.3
				c0-0.1,0-0.1-0.1-0.1c0,0-0.1,0-0.1-0.1c0,0-0.1,0-0.1,0c-0.1,0-0.1,0-0.1,0.1s-0.1,0.1-0.1,0.1s0,0.1,0,0.2c0,0,0,0.1,0,0.1
				V73.9z"/>
			<path fill="#A09F9F" d="M110.2,73.8v-1.3c0-0.3,0-0.5,0.1-0.6c0.1-0.2,0.3-0.3,0.5-0.3c0.2,0,0.4,0.1,0.5,0.3
				c0.1,0.1,0.1,0.3,0.1,0.6v1.3c0,0.3,0,0.5-0.1,0.6c-0.1,0.2-0.3,0.3-0.5,0.3c-0.2,0-0.4-0.1-0.5-0.3
				C110.3,74.3,110.2,74.1,110.2,73.8z M110.6,73.8c0,0.1,0,0.2,0,0.3s0,0.1,0.1,0.1c0,0,0.1,0,0.1,0.1c0,0,0.1,0,0.1,0s0,0,0.1,0
				c0,0,0.1,0,0.1-0.1c0,0,0.1-0.1,0.1-0.1s0-0.2,0-0.3v-1.3c0-0.1,0-0.2,0-0.3c0-0.1,0-0.1-0.1-0.1s-0.1,0-0.1-0.1c0,0-0.1,0-0.1,0
				s0,0-0.1,0c0,0-0.1,0-0.1,0.1s-0.1,0.1-0.1,0.1c0,0.1,0,0.2,0,0.3V73.8z"/>
			<path fill="#A09F9F" d="M113,74.7v-3h0.3l0.6,2.1l0.6-2.1h0.3v3h-0.4v-1.4l-0.4,1.4h-0.3l-0.4-1.4v1.4H113z"/>
			<path fill="#A09F9F" d="M115.4,74.7v-3h0.4v3H115.4z"/>
			<path fill="#A09F9F" d="M116.1,74.7v-3h0.3l0.7,1.8v-1.8h0.4v3h-0.3l-0.7-1.8v1.8H116.1z"/>
		</g>
	</g>
	<g>
		<rect x="113.3" y="122.2" fill="#FFFFFF" width="14.3" height="1.2"/>
	</g>
	<g>
		<rect x="146.7" y="122.2" fill="#FFFFFF" width="11.2" height="1.2"/>
	</g>
	<g>
		<g>
			<path fill="#A09F9F" d="M119.9,66.5c-2.3-3.7-7.2-4.8-10.9-2.5l-0.7-1.1c4.3-2.7,9.9-1.4,12.6,2.9L119.9,66.5z"/>
		</g>
		<g>
			<path fill="#A09F9F" d="M113.3,79.9c-0.7,0-1.4-0.1-2-0.2c-2.4-0.5-4.4-2-5.7-4c-1.9-3.1-1.9-7,0.2-10l1,0.7
				c-1.8,2.6-1.8,6-0.1,8.6c1.1,1.8,2.9,3,4.9,3.5c2.1,0.5,4.2,0.1,6-1l0.7,1.1C116.7,79.4,115,79.9,113.3,79.9z"/>
		</g>
		<g>
			<path fill="#A09F9F" d="M120.6,76.2l-1-0.7c1.9-2.6,2.1-6.2,0.3-8.9l1.1-0.7C123,69,122.8,73.2,120.6,76.2z"/>
		</g>
		<polygon fill="#A09F9F" points="111,64.3 107.4,64.4 109,61.2 		"/>
		<polygon fill="#A09F9F" points="115.4,77.3 119.1,77.2 117.4,80.3 		"/>
	</g>
	<path fill="#FFFFFF" d="M208,120.7h-49.8c-1.3,0-2.3,1-2.3,2.3c0,1.3,1,2.3,2.3,2.3H208c1.3,0,2.3-1,2.3-2.3
		C210.3,121.7,209.3,120.7,208,120.7"/>
</g>
<g>
	<g>
		<path fill="#0075C9" d="M290.7,24.6h0.6l0.7,3.1l0.7-3.1h0.5l0.7,3.1l0.7-3.1h0.6l-1.1,4.8h-0.5l-0.7-3.1l-0.7,3.1h-0.5
			L290.7,24.6z"/>
		<path fill="#0075C9" d="M295.2,24.6h0.7l1,1.8l1-1.8h0.7l-1.4,2.5v2.3h-0.6v-2.3L295.2,24.6z"/>
		<path fill="#0075C9" d="M298.7,29.4v-4.8h2v0.6h-1.4v1.5h1.4v0.6h-1.4v1.5h1.4v0.6H298.7z"/>
		<path fill="#0075C9" d="M301.2,29.4l1.1-4.8h0.5l1.1,4.8h-0.6l-0.3-1.3h-0.8l-0.3,1.3H301.2z M302.2,27.5h0.6l-0.3-1.2L302.2,27.5
			z"/>
		<path fill="#0075C9" d="M304,28.1v-0.3h0.6v0.3c0,0.3,0.1,0.5,0.2,0.6c0,0,0.1,0.1,0.1,0.1s0.1,0,0.3,0c0.1,0,0.2,0,0.3-0.1
			s0.1-0.1,0.2-0.2c0-0.1,0.1-0.2,0.1-0.2c0-0.1,0-0.2,0-0.2c0-0.1,0-0.2-0.1-0.3c0-0.1-0.1-0.1-0.1-0.2c-0.1-0.1-0.1-0.1-0.2-0.1
			c-0.1,0-0.1-0.1-0.2-0.1l-0.1-0.1c-0.1,0-0.2-0.1-0.3-0.1c-0.1-0.1-0.2-0.1-0.3-0.2c-0.3-0.3-0.4-0.6-0.4-1c0-0.2,0-0.4,0.1-0.6
			c0.1-0.2,0.1-0.3,0.2-0.4c0.1-0.1,0.2-0.2,0.4-0.3c0.1-0.1,0.3-0.1,0.5-0.1c0.2,0,0.4,0,0.6,0.1c0.1,0.1,0.2,0.2,0.3,0.3
			c0.2,0.2,0.3,0.6,0.3,1v0.3h-0.6V26c0-0.2,0-0.3-0.1-0.4c0-0.1-0.1-0.2-0.1-0.2c-0.1,0-0.1-0.1-0.2-0.1c-0.1,0-0.1,0-0.2,0
			c-0.1,0-0.2,0-0.3,0.1c-0.1,0.1-0.1,0.1-0.2,0.2s-0.1,0.2-0.1,0.3c0,0.1,0,0.2,0,0.2c0,0.1,0,0.2,0.1,0.3c0,0.1,0.1,0.2,0.1,0.2
			c0.1,0.1,0.1,0.1,0.2,0.2s0.1,0.1,0.2,0.1l0.1,0c0.1,0,0.1,0.1,0.3,0.1c0.1,0.1,0.2,0.1,0.3,0.2c0.3,0.2,0.4,0.6,0.4,1
			c0,0.4-0.1,0.7-0.3,0.9c-0.2,0.3-0.5,0.4-0.9,0.4c-0.4,0-0.7-0.1-0.9-0.4C304.1,28.8,304,28.5,304,28.1z"/>
		<path fill="#0075C9" d="M306.6,25.2v-0.6h2.7v0.6h-1.1v4.2h-0.6v-4.2H306.6z"/>
		<path fill="#0075C9" d="M311.7,25.7l0.8-1.1h0.6v4.8h-0.6v-3.7l-0.3,0.4L311.7,25.7z"/>
		<path fill="#0075C9" d="M313.5,29.4v-0.3c0-0.2,0-0.4,0.1-0.5c0-0.2,0.1-0.3,0.2-0.5c0.1-0.2,0.2-0.3,0.2-0.5l0.3-0.5l0.3-0.4
			l0.2-0.2c0.1-0.1,0.1-0.1,0.1-0.2c0-0.1,0.1-0.1,0.1-0.2c0-0.1,0-0.2,0-0.3c0,0,0-0.1,0-0.2c0-0.1,0-0.1-0.1-0.2s-0.1-0.1-0.1-0.2
			c-0.1-0.1-0.1-0.1-0.2-0.1c0,0-0.1,0-0.1,0c0,0-0.1,0-0.1,0.1c0,0-0.1,0.1-0.1,0.2c0,0.1,0,0.2,0,0.4v0.3h-0.6v-0.3
			c0-0.4,0.1-0.7,0.2-0.9c0.1-0.1,0.2-0.2,0.3-0.2c0.1-0.1,0.3-0.1,0.5-0.1c0.2,0,0.3,0,0.4,0.1c0.1,0.1,0.2,0.1,0.3,0.2
			s0.2,0.2,0.2,0.4c0.1,0.2,0.1,0.3,0.1,0.5h0v0.1h0c0,0.2,0,0.3-0.1,0.4s-0.1,0.2-0.1,0.3c0,0.1-0.1,0.2-0.2,0.3l-0.2,0.3l-0.1,0.2
			c0,0.1-0.1,0.1-0.1,0.2l-0.2,0.4c-0.1,0.1-0.1,0.2-0.2,0.3c-0.1,0.1-0.1,0.2-0.1,0.3c0,0.1-0.1,0.2-0.1,0.3h0.4h0.7h0.3v0.6h-0.3
			h-0.7H313.5z"/>
		<path fill="#0075C9" d="M315.8,25.2v-0.6h2.5v0.6l-1.8,4.2h-0.7l1.8-4.2H315.8z"/>
		<path fill="#0075C9" d="M318.7,29.4v-0.3c0-0.2,0-0.4,0.1-0.5s0.1-0.3,0.2-0.5c0.1-0.2,0.2-0.3,0.2-0.5l0.3-0.5l0.3-0.4l0.2-0.2
			c0.1-0.1,0.1-0.1,0.1-0.2c0-0.1,0.1-0.1,0.1-0.2s0-0.2,0-0.3c0,0,0-0.1,0-0.2c0-0.1,0-0.1-0.1-0.2c0-0.1-0.1-0.1-0.1-0.2
			c-0.1-0.1-0.1-0.1-0.2-0.1c0,0-0.1,0-0.1,0c0,0-0.1,0-0.1,0.1c0,0-0.1,0.1-0.1,0.2c0,0.1,0,0.2,0,0.4v0.3h-0.6v-0.3
			c0-0.4,0.1-0.7,0.2-0.9c0.1-0.1,0.2-0.2,0.3-0.2c0.1-0.1,0.3-0.1,0.5-0.1c0.1,0,0.3,0,0.4,0.1c0.1,0.1,0.2,0.1,0.3,0.2
			c0.1,0.1,0.2,0.2,0.2,0.4s0.1,0.3,0.1,0.5h0v0.1h0c0,0.2,0,0.3-0.1,0.4c0,0.1-0.1,0.2-0.1,0.3c0,0.1-0.1,0.2-0.2,0.3l-0.2,0.3
			l-0.1,0.2c0,0.1-0.1,0.1-0.1,0.2l-0.2,0.4c-0.1,0.1-0.1,0.2-0.2,0.3s-0.1,0.2-0.1,0.3c0,0.1-0.1,0.2-0.1,0.3h0.4h0.7h0.3v0.6h-0.3
			h-0.7H318.7z"/>
	</g>
</g>
<g>
	<rect x="273.1" y="26.6" fill="#FFFFFF" width="10.1" height="1.2"/>
</g>
<polygon fill="#FFFFFF" points="272.3,33.3 270.1,37 267.9,33.3 "/>
<path fill="#FFFFFF" d="M270.1,30.2c-1.7,0-3-1.3-3-3c0-1.7,1.3-3,3-3c1.7,0,3,1.3,3,3C273.1,28.8,271.8,30.2,270.1,30.2
	 M270.1,25.4c-1,0-1.8,0.8-1.8,1.8c0,1,0.8,1.8,1.8,1.8c1,0,1.8-0.8,1.8-1.8C271.9,26.2,271.1,25.4,270.1,25.4"/>
<rect x="269.5" y="29.3" fill="#FFFFFF" width="1.2" height="4.3"/>
<path fill="#FFFFFF" d="M286.1,30.2c-1.7,0-3-1.3-3-3c0-1.7,1.3-3,3-3c1.7,0,3,1.3,3,3C289.1,28.8,287.8,30.2,286.1,30.2
	 M286.1,25.4c-1,0-1.8,0.8-1.8,1.8c0,1,0.8,1.8,1.8,1.8c1,0,1.8-0.8,1.8-1.8C287.9,26.2,287.1,25.4,286.1,25.4"/>
<g>
	<rect x="260.5" y="12.4" fill="#FFFFFF" width="1.2" height="4.6"/>
</g>
<g>
	<polygon fill="#FFFFFF" points="223.9,16 222.7,16 222.7,9.6 258.9,9.6 258.9,10.9 223.9,10.9 	"/>
</g>
<g>
	<path fill="#FFFFFF" d="M261.1,13c-1.7,0-3-1.3-3-3c0-1.7,1.3-3,3-3c1.7,0,3,1.3,3,3C264.1,11.6,262.8,13,261.1,13z M261.1,8.2
		c-1,0-1.8,0.8-1.8,1.8c0,1,0.8,1.8,1.8,1.8c1,0,1.8-0.8,1.8-1.8C262.9,9,262.1,8.2,261.1,8.2z"/>
</g>
</svg>
