<?xml version="1.0" encoding="utf-8"?>
<!-- Generator: Adobe Illustrator 18.0.0, SVG Export Plug-In . SVG Version: 6.00 Build 0)  -->
<!DOCTYPE svg PUBLIC "-//W3C//DTD SVG 1.1//EN" "http://www.w3.org/Graphics/SVG/1.1/DTD/svg11.dtd">
<svg version="1.1" id="Layer_1" xmlns="http://www.w3.org/2000/svg" xmlns:xlink="http://www.w3.org/1999/xlink" x="0px" y="0px"
	 viewBox="0 0 432 144" enable-background="new 0 0 432 144" xml:space="preserve">
<polygon fill="#FFFFFF" points="207.6,41.7 206.4,41.7 206.4,28.4 199.4,21.5 188.4,21.5 188.4,20.2 200,20.2 207.6,27.9 "/>
<g>
	<defs>
		<rect id="SVGID_1_" x="-0.3" y="-0.3" width="432.3" height="144.1"/>
	</defs>
	<clipPath id="SVGID_2_">
		<use xlink:href="#SVGID_1_"  overflow="visible"/>
	</clipPath>
</g>
<g>
	<defs>
		<rect id="SVGID_3_" x="-0.3" y="-0.3" width="432.3" height="144.1"/>
	</defs>
	<clipPath id="SVGID_4_">
		<use xlink:href="#SVGID_3_"  overflow="visible"/>
	</clipPath>
</g>
<g>
	<defs>
		<rect id="SVGID_5_" x="-0.3" y="-0.3" width="432.3" height="144.1"/>
	</defs>
	<clipPath id="SVGID_6_">
		<use xlink:href="#SVGID_5_"  overflow="visible"/>
	</clipPath>
</g>
<g>
	<defs>
		<rect id="SVGID_7_" x="-0.3" y="-0.3" width="432.3" height="144.1"/>
	</defs>
	<clipPath id="SVGID_8_">
		<use xlink:href="#SVGID_7_"  overflow="visible"/>
	</clipPath>
</g>
<g>
	<defs>
		<rect id="SVGID_9_" x="-0.3" y="-0.3" width="432.3" height="144.1"/>
	</defs>
	<clipPath id="SVGID_10_">
		<use xlink:href="#SVGID_9_"  overflow="visible"/>
	</clipPath>
</g>
<g>
	<defs>
		<rect id="SVGID_11_" x="-0.3" y="-0.3" width="432.3" height="144.1"/>
	</defs>
	<clipPath id="SVGID_12_">
		<use xlink:href="#SVGID_11_"  overflow="visible"/>
	</clipPath>
</g>
<g>
	<defs>
		<rect id="SVGID_13_" x="-0.3" y="-0.3" width="432.3" height="144.1"/>
	</defs>
	<clipPath id="SVGID_14_">
		<use xlink:href="#SVGID_13_"  overflow="visible"/>
	</clipPath>
</g>
<g>
	<defs>
		<rect id="SVGID_15_" x="-0.3" y="-0.3" width="432.3" height="144.1"/>
	</defs>
	<clipPath id="SVGID_16_">
		<use xlink:href="#SVGID_15_"  overflow="visible"/>
	</clipPath>
</g>
<g>
	<defs>
		<rect id="SVGID_17_" x="-0.3" y="-0.3" width="432.3" height="144.1"/>
	</defs>
	<clipPath id="SVGID_18_">
		<use xlink:href="#SVGID_17_"  overflow="visible"/>
	</clipPath>
</g>
<g>
	<defs>
		<rect id="SVGID_19_" x="-0.3" y="-0.3" width="432.3" height="144.1"/>
	</defs>
	<clipPath id="SVGID_20_">
		<use xlink:href="#SVGID_19_"  overflow="visible"/>
	</clipPath>
</g>
<g>
	<defs>
		<rect id="SVGID_21_" x="-0.3" y="-0.3" width="432.3" height="144.1"/>
	</defs>
	<clipPath id="SVGID_22_">
		<use xlink:href="#SVGID_21_"  overflow="visible"/>
	</clipPath>
</g>
<g>
	<defs>
		<rect id="SVGID_23_" x="-0.3" y="-0.3" width="432.3" height="144.1"/>
	</defs>
	<clipPath id="SVGID_24_">
		<use xlink:href="#SVGID_23_"  overflow="visible"/>
	</clipPath>
</g>
<g>
	<defs>
		<rect id="SVGID_25_" x="-0.3" y="-0.3" width="432.3" height="144.1"/>
	</defs>
	<clipPath id="SVGID_26_">
		<use xlink:href="#SVGID_25_"  overflow="visible"/>
	</clipPath>
</g>
<g>
	<defs>
		<rect id="SVGID_27_" x="-0.3" y="-0.3" width="432.3" height="144.1"/>
	</defs>
	<clipPath id="SVGID_28_">
		<use xlink:href="#SVGID_27_"  overflow="visible"/>
	</clipPath>
</g>
<g>
	<defs>
		<rect id="SVGID_29_" x="-0.3" y="-0.3" width="432.3" height="144.1"/>
	</defs>
	<clipPath id="SVGID_30_">
		<use xlink:href="#SVGID_29_"  overflow="visible"/>
	</clipPath>
</g>
<g>
	<defs>
		<rect id="SVGID_31_" x="-0.3" y="-0.3" width="432.3" height="144.1"/>
	</defs>
	<clipPath id="SVGID_32_">
		<use xlink:href="#SVGID_31_"  overflow="visible"/>
	</clipPath>
</g>
<g>
	<defs>
		<rect id="SVGID_33_" x="-0.3" y="-0.3" width="432.3" height="144.1"/>
	</defs>
	<clipPath id="SVGID_34_">
		<use xlink:href="#SVGID_33_"  overflow="visible"/>
	</clipPath>
</g>
<g>
	<defs>
		<rect id="SVGID_35_" x="-0.3" y="-0.3" width="432.3" height="144.1"/>
	</defs>
	<clipPath id="SVGID_36_">
		<use xlink:href="#SVGID_35_"  overflow="visible"/>
	</clipPath>
</g>
<g>
	<defs>
		<rect id="SVGID_37_" x="-0.3" y="-0.3" width="432.3" height="144.1"/>
	</defs>
	<clipPath id="SVGID_38_">
		<use xlink:href="#SVGID_37_"  overflow="visible"/>
	</clipPath>
</g>
<g>
	<defs>
		<rect id="SVGID_39_" x="-0.3" y="-0.3" width="432.3" height="144.1"/>
	</defs>
	<clipPath id="SVGID_40_">
		<use xlink:href="#SVGID_39_"  overflow="visible"/>
	</clipPath>
</g>
<g>
	<defs>
		<rect id="SVGID_41_" x="-0.3" y="-0.3" width="432.3" height="144.1"/>
	</defs>
	<clipPath id="SVGID_42_">
		<use xlink:href="#SVGID_41_"  overflow="visible"/>
	</clipPath>
</g>
<g>
	<defs>
		<rect id="SVGID_43_" x="-0.3" y="-0.3" width="432.3" height="144.1"/>
	</defs>
	<clipPath id="SVGID_44_">
		<use xlink:href="#SVGID_43_"  overflow="visible"/>
	</clipPath>
</g>
<g>
	<defs>
		<rect id="SVGID_45_" x="-0.3" y="-0.3" width="432.3" height="144.1"/>
	</defs>
	<clipPath id="SVGID_46_">
		<use xlink:href="#SVGID_45_"  overflow="visible"/>
	</clipPath>
</g>
<g>
	<defs>
		<rect id="SVGID_47_" x="-0.3" y="-0.3" width="432.3" height="144.1"/>
	</defs>
	<clipPath id="SVGID_48_">
		<use xlink:href="#SVGID_47_"  overflow="visible"/>
	</clipPath>
</g>
<g>
	<path fill="#9B5A25" d="M285.6,8.9h0.6l0.7,3.1l0.7-3.1h0.5l0.7,3.1l0.7-3.1h0.6l-1.1,4.8h-0.5l-0.7-3.1l-0.7,3.1h-0.5L285.6,8.9z"
		/>
	<path fill="#9B5A25" d="M290.1,8.9h0.7l1,1.8l1-1.8h0.7l-1.4,2.5v2.3h-0.6v-2.3L290.1,8.9z"/>
	<path fill="#9B5A25" d="M293.6,13.7V8.9h2v0.6h-1.4V11h1.4v0.6h-1.4v1.5h1.4v0.6H293.6z"/>
	<path fill="#9B5A25" d="M296.1,13.7l1.1-4.8h0.5l1.1,4.8h-0.6l-0.3-1.3H297l-0.3,1.3H296.1z M297.1,11.8h0.6l-0.3-1.2L297.1,11.8z"
		/>
	<path fill="#9B5A25" d="M298.9,12.4V12h0.6v0.3c0,0.3,0.1,0.5,0.2,0.6c0,0,0.1,0.1,0.1,0.1s0.1,0,0.3,0c0.1,0,0.2,0,0.3-0.1
		c0.1-0.1,0.1-0.1,0.2-0.2c0-0.1,0.1-0.2,0.1-0.2c0-0.1,0-0.2,0-0.2c0-0.1,0-0.2-0.1-0.3c0-0.1-0.1-0.1-0.1-0.2
		c-0.1-0.1-0.1-0.1-0.2-0.1s-0.1-0.1-0.2-0.1l-0.1-0.1c-0.1,0-0.2-0.1-0.3-0.1s-0.2-0.1-0.3-0.2c-0.3-0.3-0.4-0.6-0.4-1
		c0-0.2,0-0.4,0.1-0.6c0.1-0.2,0.1-0.3,0.2-0.4c0.1-0.1,0.2-0.2,0.4-0.3c0.1-0.1,0.3-0.1,0.5-0.1c0.2,0,0.4,0,0.6,0.1
		c0.1,0.1,0.2,0.2,0.3,0.3c0.2,0.2,0.3,0.6,0.3,1v0.3h-0.6v-0.3c0-0.2,0-0.3-0.1-0.4c0-0.1-0.1-0.2-0.1-0.2c-0.1,0-0.1-0.1-0.2-0.1
		c-0.1,0-0.1,0-0.2,0c-0.1,0-0.2,0-0.3,0.1c-0.1,0.1-0.1,0.1-0.2,0.2c0,0.1-0.1,0.2-0.1,0.3c0,0.1,0,0.2,0,0.2c0,0.1,0,0.2,0.1,0.3
		s0.1,0.2,0.1,0.2c0.1,0.1,0.1,0.1,0.2,0.2c0.1,0,0.1,0.1,0.2,0.1l0.1,0c0.1,0,0.1,0.1,0.3,0.1c0.1,0,0.2,0.1,0.3,0.2
		c0.3,0.3,0.4,0.6,0.4,1c0,0.4-0.1,0.7-0.3,0.9c-0.2,0.3-0.5,0.4-0.9,0.4c-0.4,0-0.7-0.1-0.9-0.4C299,13.1,298.9,12.8,298.9,12.4z"
		/>
	<path fill="#9B5A25" d="M301.5,9.5V8.9h2.7v0.6h-1.1v4.2h-0.6V9.5H301.5z"/>
	<path fill="#9B5A25" d="M306.6,10l0.8-1.1h0.6v4.8h-0.6V10l-0.3,0.4L306.6,10z"/>
	<path fill="#9B5A25" d="M308.4,12.3v-2.1c0-0.4,0.1-0.7,0.2-1c0.2-0.3,0.4-0.4,0.8-0.4s0.6,0.1,0.8,0.4c0.2,0.2,0.2,0.6,0.2,1v2.1
		c0,0.4-0.1,0.7-0.2,1c-0.2,0.3-0.4,0.4-0.8,0.4s-0.6-0.1-0.8-0.4C308.5,13.1,308.4,12.8,308.4,12.3z M309,12.3c0,0.2,0,0.3,0,0.5
		s0.1,0.2,0.1,0.2c0,0,0.1,0.1,0.1,0.1c0,0,0.1,0,0.1,0s0.1,0,0.1,0c0,0,0.1,0,0.1-0.1c0,0,0.1-0.1,0.1-0.2c0-0.1,0-0.3,0-0.5v-2.1
		c0-0.2,0-0.3,0-0.4c0-0.1-0.1-0.2-0.1-0.2c0,0-0.1-0.1-0.1-0.1c0,0-0.1,0-0.1,0s-0.1,0-0.1,0c0,0-0.1,0-0.1,0.1
		c0,0-0.1,0.1-0.1,0.2s0,0.3,0,0.4V12.3z"/>
	<path fill="#9B5A25" d="M310.9,12.4c0-0.4,0.1-0.8,0.2-1c0,0,0,0,0,0c0,0,0,0,0,0c0,0,0,0-0.1-0.1c-0.2-0.2-0.2-0.5-0.2-1
		c0-0.4,0.1-0.8,0.2-1c0.2-0.3,0.5-0.4,0.8-0.4c0.4,0,0.7,0.1,0.8,0.4c0.2,0.2,0.3,0.6,0.3,1c0,0.4-0.1,0.8-0.3,1c0,0,0,0.1-0.1,0.1
		l0.1,0.1c0.2,0.2,0.3,0.6,0.3,1c0,0.2,0,0.4-0.1,0.6s-0.1,0.3-0.2,0.4c-0.2,0.3-0.5,0.4-0.8,0.4c-0.4,0-0.7-0.1-0.8-0.4
		C310.9,13.1,310.9,12.8,310.9,12.4z M311.5,10.3c0,0.2,0,0.3,0,0.4c0,0.1,0.1,0.2,0.1,0.2s0.1,0.1,0.2,0.1c0.1,0,0.1,0,0.2,0
		c0.1,0,0.1,0,0.2,0c0.1,0,0.1,0,0.2-0.1s0.1-0.1,0.1-0.2c0-0.1,0-0.2,0-0.4c0-0.2,0-0.3,0-0.4c0-0.1-0.1-0.2-0.1-0.2
		s-0.1-0.1-0.2-0.1c-0.1,0-0.1,0-0.2,0c-0.1,0-0.1,0-0.2,0c-0.1,0-0.1,0-0.2,0.1s-0.1,0.1-0.1,0.2C311.5,9.9,311.5,10.1,311.5,10.3z
		 M311.5,12.4c0,0.2,0,0.3,0,0.4c0,0.1,0.1,0.2,0.1,0.2c0,0,0.1,0.1,0.2,0.1s0.1,0,0.2,0c0.1,0,0.1,0,0.2,0s0.1,0,0.2-0.1
		c0,0,0.1-0.1,0.1-0.2c0-0.1,0-0.2,0-0.4c0-0.2,0-0.3,0-0.4c0-0.1-0.1-0.2-0.1-0.2c0,0-0.1-0.1-0.1-0.1c0,0-0.1,0-0.2,0
		s-0.2,0-0.2,0c0,0-0.1,0.1-0.1,0.1c0,0-0.1,0.1-0.1,0.2C311.5,12,311.5,12.2,311.5,12.4z"/>
	<path fill="#9B5A25" d="M313.4,12.4v-0.6l1.5-2.9h0.6v4.8h-0.6v-1.3H313.4z M314.1,11.8h0.8v-1.4L314.1,11.8z"/>
	<path fill="#9B5A25" d="M285.6,16.8h0.6l0.7,3.1l0.7-3.1h0.5l0.7,3.1l0.7-3.1h0.6l-1.1,4.8h-0.5l-0.7-3.1l-0.7,3.1h-0.5L285.6,16.8
		z"/>
	<path fill="#9B5A25" d="M290.3,21.6v-4.8h0.6v2.1h0.9v-2.1h0.6v4.8h-0.6v-2.1h-0.9v2.1H290.3z"/>
	<path fill="#9B5A25" d="M293.2,21.6v-4.8h0.6v4.8H293.2z"/>
	<path fill="#9B5A25" d="M294.3,17.4v-0.6h2.7v0.6H296v4.2h-0.6v-4.2H294.3z"/>
	<path fill="#9B5A25" d="M297.3,21.6v-4.8h2v0.6H298v1.5h1.4v0.6H298V21h1.4v0.6H297.3z"/>
	<path fill="#9B5A25" d="M301.8,21.6l1.1-4.8h0.5l1.1,4.8h-0.6l-0.3-1.3h-0.8l-0.3,1.3H301.8z M302.9,19.6h0.6l-0.3-1.2L302.9,19.6z
		"/>
	<path fill="#9B5A25" d="M304.7,21.6v-4.8h0.5l1,3.4l1-3.4h0.5v4.8h-0.6v-2.3l-0.7,2.3H306l-0.7-2.3v2.3H304.7z"/>
	<path fill="#9B5A25" d="M308.2,21.6v-4.8h2v0.6h-1.4v1.5h1.4v0.6h-1.4V21h1.4v0.6H308.2z"/>
	<path fill="#9B5A25" d="M310.6,21.6v-4.8h1c0.4,0,0.7,0.1,0.9,0.4c0.2,0.2,0.3,0.6,0.3,1c0,0.4-0.1,0.8-0.3,1c0,0,0,0,0,0
		c0,0,0,0,0,0c0.1,0.1,0.2,0.2,0.3,0.4s0.1,0.3,0.1,0.5v1.4h-0.6v-1.4c0-0.4-0.2-0.6-0.6-0.6h-0.3h-0.1v2.1H310.6z M311.3,18.9
		L311.3,18.9h0.4c0.2,0,0.3,0,0.3-0.1c0.1,0,0.1-0.1,0.1-0.1c0.1-0.1,0.1-0.3,0.1-0.6c0-0.2,0-0.3,0-0.4c0-0.1-0.1-0.2-0.1-0.2
		c0-0.1-0.1-0.1-0.2-0.1c-0.1,0-0.2,0-0.3,0h-0.4V18.9z"/>
	<path fill="#9B5A25" d="M313.6,21.6v-4.8h0.6v4.8H313.6z"/>
	<path fill="#9B5A25" d="M314.7,20.2v-2.1c0-0.4,0.1-0.8,0.3-1c0.1-0.1,0.2-0.2,0.3-0.3c0.1-0.1,0.3-0.1,0.6-0.1s0.4,0,0.6,0.1
		c0.1,0.1,0.2,0.2,0.3,0.3c0.2,0.2,0.3,0.6,0.3,1v0.3h-0.6v-0.3c0-0.2,0-0.3-0.1-0.4c0-0.1-0.1-0.2-0.1-0.2s-0.1-0.1-0.2-0.1
		c-0.1,0-0.1,0-0.2,0c0,0-0.1,0-0.2,0c-0.1,0-0.1,0-0.2,0.1s-0.1,0.1-0.1,0.2c0,0.1-0.1,0.3-0.1,0.4v2.1c0,0.3,0.1,0.5,0.2,0.6
		c0,0,0.1,0.1,0.1,0.1s0.1,0.1,0.3,0.1s0.2,0,0.3-0.1s0.1-0.1,0.1-0.1c0.1-0.1,0.1-0.3,0.1-0.6v-0.3h0.6v0.3c0,0.4-0.1,0.8-0.3,1
		c-0.1,0.1-0.2,0.2-0.3,0.3c-0.1,0.1-0.3,0.1-0.6,0.1c-0.1,0-0.2,0-0.3,0s-0.2-0.1-0.2-0.1c-0.1,0-0.1-0.1-0.2-0.1
		c-0.1,0-0.1-0.1-0.1-0.1C314.8,21,314.7,20.7,314.7,20.2z"/>
	<path fill="#9B5A25" d="M317.2,21.6l1.1-4.8h0.5l1.1,4.8h-0.6l-0.3-1.3h-0.8l-0.3,1.3H317.2z M318.3,19.6h0.6l-0.3-1.2L318.3,19.6z
		"/>
	<path fill="#9B5A25" d="M320.1,21.6v-4.8h0.5l1.2,2.9v-2.9h0.6v4.8h-0.5l-1.2-2.9v2.9H320.1z"/>
	<path fill="#9B5A25" d="M324.9,20.2v-2.1c0-0.4,0.1-0.8,0.3-1c0,0,0.1-0.1,0.1-0.1c0.1,0,0.1-0.1,0.2-0.1c0.1,0,0.2-0.1,0.2-0.1
		s0.2,0,0.3,0c0.2,0,0.4,0,0.6,0.1c0.1,0.1,0.2,0.2,0.3,0.3c0.2,0.2,0.3,0.6,0.3,1v2.1c0,0.4-0.1,0.8-0.3,1
		c-0.1,0.1-0.2,0.2-0.3,0.3c-0.1,0.1-0.3,0.1-0.6,0.1c-0.2,0-0.4,0-0.6-0.1c-0.1-0.1-0.2-0.2-0.3-0.3C325,21,324.9,20.7,324.9,20.2z
		 M325.5,20.2c0,0.2,0,0.3,0.1,0.4c0,0.1,0.1,0.2,0.1,0.2s0.1,0.1,0.2,0.1c0.1,0,0.1,0,0.2,0c0,0,0.1,0,0.2,0c0.1,0,0.1,0,0.2-0.1
		s0.1-0.1,0.1-0.2c0-0.1,0.1-0.2,0.1-0.4v-2.1c0-0.2,0-0.3-0.1-0.4c0-0.1-0.1-0.2-0.1-0.2c-0.1,0-0.1-0.1-0.2-0.1
		c-0.1,0-0.1,0-0.2,0c0,0-0.1,0-0.2,0c-0.1,0-0.1,0-0.2,0.1c-0.1,0-0.1,0.1-0.1,0.2c0,0.1-0.1,0.2-0.1,0.4V20.2z"/>
	<path fill="#9B5A25" d="M327.6,21.6l1.1-4.8h0.5l1.1,4.8h-0.6l-0.3-1.3h-0.8l-0.3,1.3H327.6z M328.7,19.6h0.6l-0.3-1.2L328.7,19.6z
		"/>
	<path fill="#9B5A25" d="M330.4,19.9L330.4,19.9l0-3.1h0.6v2.1l1.4-2.1h0.7l-1.5,2.3l1.4,2.6h-0.7l-1.1-2l-0.3,0.4v1.6h-0.6
		L330.4,19.9L330.4,19.9z"/>
	<path fill="#9B5A25" d="M285.6,29.5v-4.8h0.5l1,3.4l1-3.4h0.5v4.8H288v-2.3l-0.7,2.3h-0.5l-0.7-2.3v2.3H285.6z"/>
	<path fill="#9B5A25" d="M289.1,29.5v-4.8h2v0.6h-1.4v1.5h1.4v0.6h-1.4v1.5h1.4v0.6H289.1z"/>
	<path fill="#9B5A25" d="M291.5,29.5v-4.8h1c0.4,0,0.7,0.1,0.9,0.4c0.2,0.2,0.3,0.6,0.3,1v2c0,0.4-0.1,0.8-0.3,1
		c-0.2,0.3-0.5,0.4-0.9,0.4H291.5z M292.2,28.9h0.3c0.1,0,0.2,0,0.2,0c0.1,0,0.1,0,0.2-0.1c0.1-0.1,0.1-0.1,0.1-0.2
		c0-0.1,0.1-0.2,0.1-0.4v-2c0-0.2,0-0.3-0.1-0.4c0-0.1-0.1-0.2-0.1-0.2c-0.1-0.1-0.1-0.1-0.2-0.1s-0.1,0-0.2,0h-0.3V28.9z"/>
	<path fill="#9B5A25" d="M294.3,29.5v-4.8h0.6v4.8H294.3z"/>
	<path fill="#9B5A25" d="M295.4,28.2v-3.6h0.6v3.6c0,0.2,0,0.3,0,0.4c0,0.1,0.1,0.2,0.1,0.2c0,0,0.1,0.1,0.2,0.1c0.1,0,0.1,0,0.1,0
		c0,0,0.1,0,0.1,0c0.1,0,0.1,0,0.2-0.1c0,0,0.1-0.1,0.1-0.2s0-0.2,0-0.4v-3.6h0.6v3.6c0,0.4-0.1,0.7-0.3,0.9
		c-0.1,0.1-0.2,0.2-0.3,0.2s-0.3,0.1-0.5,0.1c-0.2,0-0.4,0-0.5-0.1c-0.1-0.1-0.2-0.2-0.3-0.2C295.5,28.9,295.4,28.6,295.4,28.2z"/>
	<path fill="#9B5A25" d="M298.1,29.5v-4.8h0.5l1,3.4l1-3.4h0.5v4.8h-0.6v-2.3l-0.7,2.3h-0.5l-0.7-2.3v2.3H298.1z"/>
	<path fill="#9B5A25" d="M303.6,25.3v-0.6h2.7v0.6h-1.1v4.2h-0.6v-4.2H303.6z"/>
	<path fill="#9B5A25" d="M306.7,28.1V26c0-0.4,0.1-0.8,0.3-1c0,0,0.1-0.1,0.1-0.1c0.1,0,0.1-0.1,0.2-0.1c0.1,0,0.2-0.1,0.2-0.1
		s0.2,0,0.3,0c0.2,0,0.4,0,0.6,0.1c0.1,0.1,0.2,0.2,0.3,0.3c0.2,0.2,0.3,0.6,0.3,1v2.1c0,0.4-0.1,0.8-0.3,1
		c-0.1,0.1-0.2,0.2-0.3,0.3c-0.1,0.1-0.3,0.1-0.6,0.1c-0.2,0-0.4,0-0.6-0.1c-0.1-0.1-0.2-0.2-0.3-0.3
		C306.8,28.9,306.7,28.5,306.7,28.1z M307.3,28.1c0,0.2,0,0.3,0.1,0.4c0,0.1,0.1,0.2,0.1,0.2c0.1,0,0.1,0.1,0.2,0.1
		c0.1,0,0.1,0,0.2,0c0,0,0.1,0,0.2,0c0.1,0,0.1,0,0.2-0.1s0.1-0.1,0.1-0.2c0-0.1,0.1-0.2,0.1-0.4V26c0-0.2,0-0.3-0.1-0.4
		c0-0.1-0.1-0.2-0.1-0.2c-0.1,0-0.1-0.1-0.2-0.1c-0.1,0-0.1,0-0.2,0c0,0-0.1,0-0.2,0c-0.1,0-0.1,0-0.2,0.1c-0.1,0-0.1,0.1-0.1,0.2
		c0,0.1-0.1,0.2-0.1,0.4V28.1z"/>
	<path fill="#9B5A25" d="M309.3,29.5l1.1-4.8h0.5l1.1,4.8h-0.6l-0.3-1.3h-0.8l-0.3,1.3H309.3z M310.4,27.5h0.6l-0.3-1.2L310.4,27.5z
		"/>
	<path fill="#9B5A25" d="M312.2,28.1v-0.3h0.6v0.3c0,0.3,0.1,0.5,0.2,0.6c0,0,0.1,0.1,0.1,0.1s0.1,0,0.3,0c0.1,0,0.2,0,0.3-0.1
		c0.1-0.1,0.1-0.1,0.2-0.2c0-0.1,0.1-0.2,0.1-0.2c0-0.1,0-0.2,0-0.2c0-0.1,0-0.2-0.1-0.3s-0.1-0.1-0.1-0.2c-0.1-0.1-0.1-0.1-0.2-0.1
		c-0.1,0-0.1-0.1-0.2-0.1l-0.1-0.1c-0.1,0-0.2-0.1-0.3-0.1c-0.1-0.1-0.2-0.1-0.3-0.2c-0.3-0.3-0.4-0.6-0.4-1c0-0.2,0-0.4,0.1-0.6
		s0.1-0.3,0.2-0.4c0.1-0.1,0.2-0.2,0.4-0.3s0.3-0.1,0.5-0.1c0.2,0,0.4,0,0.6,0.1c0.1,0.1,0.2,0.2,0.3,0.3c0.2,0.2,0.3,0.6,0.3,1v0.3
		h-0.6V26c0-0.2,0-0.3-0.1-0.4c0-0.1-0.1-0.2-0.1-0.2s-0.1-0.1-0.2-0.1s-0.1,0-0.2,0c-0.1,0-0.2,0-0.3,0.1c-0.1,0.1-0.1,0.1-0.2,0.2
		c0,0.1-0.1,0.2-0.1,0.3c0,0.1,0,0.2,0,0.2c0,0.1,0,0.2,0.1,0.3c0,0.1,0.1,0.2,0.1,0.2s0.1,0.1,0.2,0.2c0.1,0,0.1,0.1,0.2,0.1l0.1,0
		c0.1,0,0.1,0.1,0.3,0.1c0.1,0,0.2,0.1,0.3,0.2c0.3,0.3,0.4,0.6,0.4,1c0,0.4-0.1,0.7-0.3,0.9c-0.2,0.3-0.5,0.4-0.9,0.4
		c-0.4,0-0.7-0.1-0.9-0.4C312.3,28.9,312.2,28.6,312.2,28.1z"/>
	<path fill="#9B5A25" d="M314.8,25.3v-0.6h2.7v0.6h-1.1v4.2h-0.6v-4.2H314.8z"/>
	<path fill="#9B5A25" d="M319.9,28.1V26c0-0.4,0.1-0.8,0.3-1c0.1-0.1,0.2-0.2,0.3-0.3c0.1-0.1,0.3-0.1,0.6-0.1s0.4,0,0.6,0.1
		c0.1,0.1,0.2,0.2,0.3,0.3c0.2,0.2,0.3,0.6,0.3,1v0.3h-0.6V26c0-0.2,0-0.3-0.1-0.4s-0.1-0.2-0.1-0.2c-0.1,0-0.1-0.1-0.2-0.1
		c-0.1,0-0.1,0-0.2,0c0,0-0.1,0-0.2,0c-0.1,0-0.1,0-0.2,0.1s-0.1,0.1-0.1,0.2c0,0.1-0.1,0.3-0.1,0.4v2.1c0,0.3,0,0.5,0.2,0.6
		c0,0,0.1,0.1,0.1,0.1s0.1,0.1,0.3,0.1s0.2,0,0.3-0.1s0.1-0.1,0.1-0.1c0.1-0.1,0.1-0.3,0.1-0.6v-0.3h0.6v0.3c0,0.4-0.1,0.8-0.3,1
		c-0.1,0.1-0.2,0.2-0.3,0.3c-0.1,0.1-0.3,0.1-0.6,0.1c-0.1,0-0.2,0-0.3,0s-0.2-0.1-0.2-0.1c-0.1,0-0.1-0.1-0.2-0.1
		c-0.1,0-0.1-0.1-0.1-0.1C319.9,28.9,319.9,28.5,319.9,28.1z"/>
	<path fill="#9B5A25" d="M322.4,29.5v-4.8h0.6v2.1h0.9v-2.1h0.6v4.8H324v-2.1H323v2.1H322.4z"/>
	<path fill="#9B5A25" d="M325.1,29.5v-4.8h2v0.6h-1.4v1.5h1.4v0.6h-1.4v1.5h1.4v0.6H325.1z"/>
	<path fill="#9B5A25" d="M327.5,29.5v-4.8h1c0.4,0,0.7,0.1,0.9,0.4c0.2,0.2,0.3,0.6,0.3,1c0,0.4-0.1,0.8-0.3,1c0,0,0,0,0,0s0,0,0,0
		c0.1,0.1,0.2,0.2,0.3,0.4s0.1,0.3,0.1,0.5v1.4h-0.6v-1.4c0-0.4-0.2-0.6-0.6-0.6h-0.3h-0.1v2.1H327.5z M328.1,26.8L328.1,26.8h0.4
		c0.2,0,0.3,0,0.3-0.1c0.1,0,0.1-0.1,0.1-0.1c0.1-0.1,0.1-0.3,0.1-0.6c0-0.2,0-0.3,0-0.4s-0.1-0.2-0.1-0.2c0-0.1-0.1-0.1-0.2-0.1
		c-0.1,0-0.2,0-0.3,0h-0.4V26.8z"/>
	<path fill="#9B5A25" d="M330.3,29.5v-4.8h1c0.4,0,0.7,0.1,0.9,0.4c0.2,0.2,0.3,0.6,0.3,1c0,0.4-0.1,0.8-0.3,1c0,0,0,0,0,0s0,0,0,0
		c0.1,0.1,0.2,0.2,0.3,0.4s0.1,0.3,0.1,0.5v1.4h-0.6v-1.4c0-0.4-0.2-0.6-0.6-0.6H331h-0.1v2.1H330.3z M330.9,26.8L330.9,26.8h0.4
		c0.2,0,0.3,0,0.3-0.1c0.1,0,0.1-0.1,0.1-0.1c0.1-0.1,0.1-0.3,0.1-0.6c0-0.2,0-0.3,0-0.4s-0.1-0.2-0.1-0.2c0-0.1-0.1-0.1-0.2-0.1
		c-0.1,0-0.2,0-0.3,0h-0.4V26.8z"/>
	<path fill="#9B5A25" d="M332.8,24.7h0.7l1,1.8l1-1.8h0.7l-1.4,2.5v2.3h-0.6v-2.3L332.8,24.7z"/>
</g>
<g>
	<defs>
		<rect id="SVGID_49_" x="-0.3" y="-0.3" width="432.3" height="144.1"/>
	</defs>
	<clipPath id="SVGID_50_">
		<use xlink:href="#SVGID_49_"  overflow="visible"/>
	</clipPath>
	<rect x="156.7" y="60.7" clip-path="url(#SVGID_50_)" fill="#FFFFFF" width="53" height="51.2"/>
	<path clip-path="url(#SVGID_50_)" fill="#FFFFFF" d="M217.4,67.4h-68.3c-0.8,0-1.4-0.6-1.4-1.4c0-0.8,0.6-1.4,1.4-1.4h68.3
		c0.8,0,1.4,0.6,1.4,1.4C218.8,66.7,218.2,67.4,217.4,67.4"/>
</g>
<g>
	<defs>
		<rect id="SVGID_51_" x="-0.3" y="-0.3" width="432.3" height="144.1"/>
	</defs>
	<clipPath id="SVGID_52_">
		<use xlink:href="#SVGID_51_"  overflow="visible"/>
	</clipPath>
	<polygon clip-path="url(#SVGID_52_)" fill="#FFFFFF" points="224,123.9 217.7,123.9 217.7,87.8 205.4,87.8 205.4,86.6 218.9,86.6 
		218.9,122.7 223.5,122.7 230.5,115.8 230.5,110.5 231.7,110.5 231.7,116.3 	"/>
	<polygon clip-path="url(#SVGID_52_)" fill="#FFFFFF" points="230.5,110.7 231.7,110.7 231.7,107.1 227.6,107.1 227.6,108.4 
		230.5,108.4 	"/>
	<polygon clip-path="url(#SVGID_52_)" fill="#FFFFFF" points="231.5,47.9 230.3,47.9 230.3,39 243.3,25.9 254.6,25.9 254.6,27.2 
		243.8,27.2 231.5,39.5 	"/>
	<polygon clip-path="url(#SVGID_52_)" fill="#FFFFFF" points="232.1,65.3 227.6,65.3 227.6,64.1 230.8,64.1 230.8,47.4 232.1,47.4 	
		"/>
	<polygon clip-path="url(#SVGID_52_)" fill="#FFFFFF" points="293.8,124.4 260.8,124.4 260.8,113 262.1,113 262.1,123.2 
		293.3,123.2 300.2,116.3 300.2,111.3 301.4,111.3 301.4,116.8 	"/>
	<path clip-path="url(#SVGID_52_)" fill="#FFFFFF" d="M227.7,70.1c-1.7,0-3-1.3-3-3c0-1.7,1.3-3,3-3v1.2c-1,0-1.8,0.8-1.8,1.8
		c0,1,0.8,1.8,1.8,1.8V70.1z"/>
	<path clip-path="url(#SVGID_52_)" fill="#FFFFFF" d="M227.7,79.6c-1.7,0-3-1.3-3-3c0-1.7,1.3-3,3-3v1.2c-1,0-1.8,0.8-1.8,1.8
		c0,1,0.8,1.8,1.8,1.8V79.6z"/>
	<path clip-path="url(#SVGID_52_)" fill="#FFFFFF" d="M227.7,74.9v-1.2l6.8,0c1,0,1.8-0.8,1.8-1.8c0-1-0.8-1.8-1.8-1.8h-6.8v-1.2
		h6.8c1.7,0,3,1.3,3,3c0,1.7-1.3,3-3,3H227.7z"/>
	<path clip-path="url(#SVGID_52_)" fill="#FFFFFF" d="M234.5,94v-1.2c1,0,1.8-0.8,1.8-1.8c0-1-0.8-1.8-1.8-1.8h-6.8
		c-1.7,0-3-1.3-3-3c0-1.7,1.3-3,3-3l6.8,0c1,0,1.8-0.8,1.8-1.8c0-1-0.8-1.8-1.8-1.8h-6.8v-1.2l6.8,0c1.7,0,3,1.3,3,3
		c0,1.7-1.3,3-3,3h-6.8c-1,0-1.8,0.8-1.8,1.8c0,1,0.8,1.8,1.8,1.8h6.8c1.7,0,3,1.3,3,3C237.5,92.6,236.1,94,234.5,94"/>
	<path clip-path="url(#SVGID_52_)" fill="#FFFFFF" d="M227.7,108.4v-1.2c-1,0-1.8-0.8-1.8-1.8s0.8-1.8,1.8-1.8h6.8c1.7,0,3-1.3,3-3
		c0-1.7-1.3-3-3-3l-6.8,0c-1,0-1.8-0.8-1.8-1.8c0-1,0.8-1.8,1.8-1.8h6.8v-1.2l-6.8,0c-1.7,0-3,1.3-3,3c0,1.7,1.3,3,3,3h6.8
		c1,0,1.8,0.8,1.8,1.8c0,1-0.8,1.8-1.8,1.8h-6.8c-1.7,0-3,1.3-3,3C224.7,107,226,108.4,227.7,108.4"/>
	<polygon clip-path="url(#SVGID_52_)" fill="#FFFFFF" points="329.8,55.3 335.6,51.9 329.8,48.6 329.8,51.8 	"/>
	<polygon clip-path="url(#SVGID_52_)" fill="#FFFFFF" points="231,44.7 223.3,58 238.7,58 	"/>
</g>
<g>
	<path fill="#A09F9F" d="M228.4,52v-0.5h2.1V52l-1.5,3.5h-0.5l1.4-3.4H228.4z"/>
	<path fill="#A09F9F" d="M230.7,54.3v-1.7c0-0.3,0.1-0.6,0.2-0.8c0.1-0.2,0.4-0.3,0.6-0.3c0.3,0,0.5,0.1,0.6,0.3
		c0.1,0.2,0.2,0.5,0.2,0.8v1.7c0,0.3-0.1,0.6-0.2,0.8c-0.1,0.2-0.4,0.3-0.6,0.3c-0.3,0-0.5-0.1-0.6-0.3
		C230.8,54.9,230.7,54.6,230.7,54.3z M231.2,54.3c0,0.2,0,0.3,0,0.4c0,0.1,0.1,0.1,0.1,0.2s0.1,0.1,0.1,0.1c0,0,0.1,0,0.1,0
		s0.1,0,0.1,0c0,0,0.1,0,0.1-0.1c0,0,0.1-0.1,0.1-0.2c0-0.1,0-0.2,0-0.4v-1.7c0-0.2,0-0.3,0-0.4c0-0.1-0.1-0.1-0.1-0.2
		c0,0-0.1-0.1-0.1-0.1c0,0-0.1,0-0.1,0s-0.1,0-0.1,0c0,0-0.1,0-0.1,0.1s-0.1,0.1-0.1,0.2c0,0.1,0,0.2,0,0.4V54.3z"/>
</g>
<g>
	<path fill="#A09F9F" d="M232.7,53v-1c0-0.2,0-0.4,0.1-0.5c0,0,0,0,0.1-0.1c0,0,0.1,0,0.1-0.1c0,0,0.1,0,0.1,0c0,0,0.1,0,0.1,0
		c0.1,0,0.2,0,0.3,0.1c0.1,0,0.1,0.1,0.1,0.1c0.1,0.1,0.1,0.3,0.1,0.5v1c0,0.2,0,0.4-0.1,0.5c0,0-0.1,0.1-0.1,0.1
		c-0.1,0-0.2,0.1-0.3,0.1c-0.1,0-0.2,0-0.3-0.1c-0.1,0-0.1-0.1-0.1-0.1C232.7,53.3,232.7,53.2,232.7,53z M233,53c0,0.1,0,0.2,0,0.2
		c0,0,0,0.1,0.1,0.1s0.1,0,0.1,0c0,0,0.1,0,0.1,0c0,0,0,0,0.1,0c0,0,0.1,0,0.1,0c0,0,0-0.1,0.1-0.1c0,0,0-0.1,0-0.2v-1
		c0-0.1,0-0.2,0-0.2c0,0,0-0.1-0.1-0.1c0,0-0.1,0-0.1,0c0,0-0.1,0-0.1,0c0,0,0,0-0.1,0s-0.1,0-0.1,0s0,0.1-0.1,0.1c0,0,0,0.1,0,0.2
		V53z"/>
</g>
<g>
	<defs>
		<rect id="SVGID_53_" x="-0.3" y="-0.3" width="432.3" height="144.1"/>
	</defs>
	<clipPath id="SVGID_54_">
		<use xlink:href="#SVGID_53_"  overflow="visible"/>
	</clipPath>
	<path clip-path="url(#SVGID_54_)" fill="#FFFFFF" d="M244.8,37.9v53.4v7.6v17.8c0,1.1,0.9,2,2,2s2-0.9,2-2v-10.5l4.6,8.3h15.4
		l4.6-8.3v11.3c0,1.1,0.9,2,2,2c1.1,0,2-0.9,2-2V98.9v-8.4V37.9H244.8z"/>
	<rect x="256.2" y="29" clip-path="url(#SVGID_54_)" fill="#FFFFFF" width="1.2" height="4.3"/>
	<polygon clip-path="url(#SVGID_54_)" fill="#FFFFFF" points="258.9,33 256.8,36.7 254.6,33 	"/>
	<path clip-path="url(#SVGID_54_)" fill="#FFFFFF" d="M256.8,29.9c-1.7,0-3-1.3-3-3c0-1.7,1.3-3,3-3c1.7,0,3,1.3,3,3
		C259.8,28.5,258.4,29.9,256.8,29.9 M256.8,25.1c-1,0-1.8,0.8-1.8,1.8c0,1,0.8,1.8,1.8,1.8c1,0,1.8-0.8,1.8-1.8
		C258.5,25.9,257.8,25.1,256.8,25.1"/>
	<rect x="264.4" y="29" clip-path="url(#SVGID_54_)" fill="#FFFFFF" width="1.2" height="4.3"/>
	<polygon clip-path="url(#SVGID_54_)" fill="#FFFFFF" points="267.2,33 265,36.7 262.8,33 	"/>
	<path clip-path="url(#SVGID_54_)" fill="#FFFFFF" d="M265,29.9c-1.7,0-3-1.3-3-3c0-1.7,1.3-3,3-3c1.7,0,3,1.3,3,3
		C268,28.5,266.6,29.9,265,29.9 M265,25.1c-1,0-1.8,0.8-1.8,1.8c0,1,0.8,1.8,1.8,1.8c1,0,1.8-0.8,1.8-1.8
		C266.8,25.9,266,25.1,265,25.1"/>
	<path clip-path="url(#SVGID_54_)" fill="#FFFFFF" d="M281,29.9c-1.7,0-3-1.3-3-3c0-1.7,1.3-3,3-3c1.7,0,3,1.3,3,3
		C284,28.5,282.7,29.9,281,29.9 M281,25.1c-1,0-1.8,0.8-1.8,1.8c0,1,0.8,1.8,1.8,1.8c1,0,1.8-0.8,1.8-1.8
		C282.8,25.9,282,25.1,281,25.1"/>
	<path clip-path="url(#SVGID_54_)" fill="#FFFFFF" d="M281,22.3c-1.7,0-3-1.3-3-3c0-1.7,1.3-3,3-3c1.7,0,3,1.3,3,3
		C284,21,282.7,22.3,281,22.3 M281,17.5c-1,0-1.8,0.8-1.8,1.8c0,1,0.8,1.8,1.8,1.8c1,0,1.8-0.8,1.8-1.8
		C282.8,18.3,282,17.5,281,17.5"/>
	<path clip-path="url(#SVGID_54_)" fill="#FFFFFF" d="M281,14.8c-1.7,0-3-1.3-3-3c0-1.7,1.3-3,3-3c1.7,0,3,1.3,3,3
		C284,13.4,282.7,14.8,281,14.8 M281,10c-1,0-1.8,0.8-1.8,1.8c0,1,0.8,1.8,1.8,1.8c1,0,1.8-0.8,1.8-1.8C282.8,10.8,282,10,281,10"/>
	<path clip-path="url(#SVGID_54_)" fill="#FFFFFF" d="M309.2,112h-17.8V77.9h17.8V112z M292.6,110.8H308V79.2h-15.4V110.8z"/>
	<rect x="341.4" y="57.5" clip-path="url(#SVGID_54_)" fill="#9B5A25" width="1.2" height="31.5"/>
	<path clip-path="url(#SVGID_54_)" fill="#FFFFFF" d="M313.2,57.4h-24.4c0.4,2.8,1.2,5,1.8,6.4h20.8C312,62.4,312.7,60.2,313.2,57.4
		"/>
	<path clip-path="url(#SVGID_54_)" fill="#FFFFFF" d="M288.3,51.5c0,1.7,0.1,3.3,0.3,4.7h24.7c0.2-1.4,0.3-3,0.3-4.7
		c0-1.6-0.1-3.1-0.2-4.5h-24.8C288.4,48.4,288.3,49.9,288.3,51.5"/>
	<path clip-path="url(#SVGID_54_)" fill="#FFFFFF" d="M290.4,39.3c-0.6,1.5-1.2,3.6-1.6,6.4h24.5c-0.4-2.8-1-4.9-1.6-6.4H290.4z"/>
	<path clip-path="url(#SVGID_54_)" fill="#FFFFFF" d="M311.2,38.3c-0.5-1.2-1-1.7-1-1.7h-18.5c0,0-0.4,0.6-0.9,1.7H311.2z"/>
	<path clip-path="url(#SVGID_54_)" fill="#FFFFFF" d="M291,64.9c0.4,0.9,0.7,1.3,0.7,1.3h18.5c0,0,0.3-0.4,0.7-1.3H291z"/>
	<rect x="310.1" y="51.3" clip-path="url(#SVGID_54_)" fill="#FFFFFF" width="20.6" height="1.2"/>
	<path clip-path="url(#SVGID_54_)" fill="#FFFFFF" d="M304.4,106.1h-8.2c-0.7,0-1.2-0.6-1.2-1.2s0.6-1.2,1.2-1.2h8.2
		c0.7,0,1.2,0.6,1.2,1.2S305.1,106.1,304.4,106.1"/>
	<path clip-path="url(#SVGID_54_)" fill="#FFFFFF" d="M304.4,99.3h-8.2c-0.7,0-1.2-0.6-1.2-1.2c0-0.7,0.6-1.2,1.2-1.2h8.2
		c0.7,0,1.2,0.6,1.2,1.2C305.6,98.7,305.1,99.3,304.4,99.3"/>
	<path clip-path="url(#SVGID_54_)" fill="#FFFFFF" d="M304.4,92.4h-8.2c-0.7,0-1.2-0.6-1.2-1.2c0-0.7,0.6-1.2,1.2-1.2h8.2
		c0.7,0,1.2,0.6,1.2,1.2C305.6,91.9,305.1,92.4,304.4,92.4"/>
	<path clip-path="url(#SVGID_54_)" fill="#FFFFFF" d="M304.4,85.6h-8.2c-0.7,0-1.2-0.6-1.2-1.2c0-0.7,0.6-1.2,1.2-1.2h8.2
		c0.7,0,1.2,0.6,1.2,1.2C305.6,85.1,305.1,85.6,304.4,85.6"/>
	<rect x="299.6" y="65.7" clip-path="url(#SVGID_54_)" fill="#FFFFFF" width="1.2" height="12.5"/>
	<polygon clip-path="url(#SVGID_54_)" fill="#FFFFFF" points="62.7,77.1 73.8,57.3 102,57.3 113.1,77.1 113.1,111.3 62.7,111.3 	"/>
</g>
<g>
	<path fill="#BC752A" d="M72.3,85V72.6h0.2h0.4h0.2h0.4h0.3l2.5,8.7l2.5-8.7h0.1h0.5h0.2h0.3h0.3V85h-0.6V73.2h-0.4l-2.9,10.3
		l-2.9-10.3h-0.4V85H72.3z M73.3,85V74.9L76.2,85l2.9-10.1V85h-0.6v-5.9L76.8,85h-1.2l-1.7-5.9V85H73.3z"/>
	<path fill="#BC752A" d="M81.5,85l2.9-12.4h0.1H85h0h0.5h0.1L88.5,85h-0.6l-2.7-11.7h-0.4L82.1,85H81.5z M82.5,85l0.9-4.1h3.1
		l0.9,4.1h-0.6l-0.8-3.5H84L83.2,85H82.5z M83.6,80.6l1.5-6.3l1.5,6.3H83.6z M84.3,80h1.4L85,77L84.3,80z"/>
	<path fill="#BC752A" d="M89.3,76.2c0-0.5,0.1-1,0.2-1.4s0.3-0.8,0.6-1.1c0.3-0.3,0.6-0.5,0.9-0.7c0.4-0.2,0.8-0.3,1.2-0.3
		c0.6,0,1.1,0.1,1.4,0.3c0.4,0.2,0.6,0.4,0.8,0.7c0.5,0.6,0.7,1.5,0.7,2.6V77h-0.6v-0.8c0-1-0.2-1.7-0.6-2.2c-0.4-0.5-1-0.8-1.8-0.8
		c-0.8,0-1.4,0.3-1.8,0.9c-0.4,0.5-0.6,1.2-0.6,2.1c0,0.5,0.1,0.9,0.2,1.2c0.2,0.3,0.4,0.6,0.6,0.8c0.2,0.2,0.5,0.4,0.7,0.5
		S91.8,79,92,79l0.3,0.1c0.1,0.1,0.3,0.1,0.5,0.2s0.4,0.2,0.6,0.4c0.2,0.2,0.4,0.4,0.5,0.7c0.1,0.3,0.2,0.6,0.2,1.1
		c0,0.8-0.2,1.4-0.5,1.8c-0.3,0.4-0.8,0.6-1.5,0.6c-0.7,0-1.2-0.2-1.5-0.6c-0.3-0.4-0.5-1.1-0.5-1.9v-0.8h0.6v0.8
		c0,0.7,0.1,1.2,0.4,1.6c0.1,0.1,0.2,0.2,0.3,0.2c0.1,0.1,0.4,0.1,0.7,0.1c0.3,0,0.5-0.1,0.7-0.2c0.2-0.1,0.3-0.3,0.4-0.5
		s0.2-0.4,0.2-0.6c0-0.2,0-0.4,0-0.6c0-0.3,0-0.5-0.1-0.7c-0.1-0.2-0.2-0.4-0.4-0.5s-0.3-0.3-0.5-0.4c-0.2-0.1-0.4-0.2-0.5-0.3
		l-0.3-0.1c-0.2-0.1-0.4-0.2-0.7-0.3c-0.3-0.1-0.5-0.3-0.8-0.6C89.6,78,89.3,77.2,89.3,76.2z M89.3,81.5v-0.8h0.6v0.8
		c0,1,0.2,1.7,0.6,2.2c0.4,0.5,1,0.7,1.8,0.7c0.4,0,0.7-0.1,1-0.2c0.3-0.1,0.6-0.3,0.8-0.6c0.2-0.2,0.3-0.5,0.4-0.9
		c0.1-0.3,0.2-0.7,0.2-1.1c0-0.5-0.1-0.9-0.3-1.2c-0.2-0.3-0.4-0.6-0.6-0.8c-0.2-0.2-0.5-0.4-0.7-0.5c-0.2-0.1-0.4-0.2-0.6-0.3
		l-0.3-0.1c-0.2-0.1-0.3-0.2-0.6-0.3S91.2,78.2,91,78s-0.4-0.4-0.5-0.7c-0.1-0.3-0.2-0.6-0.2-1.1c0-0.3,0-0.6,0.1-0.9
		c0.1-0.3,0.2-0.6,0.3-0.8c0.2-0.2,0.4-0.4,0.6-0.6c0.3-0.2,0.6-0.2,0.9-0.2c0.7,0,1.1,0.2,1.5,0.6c0.3,0.4,0.5,1.1,0.5,2V77h-0.6
		v-0.8c0-0.5,0-0.9-0.1-1.1c-0.1-0.3-0.2-0.5-0.4-0.6c-0.1-0.1-0.3-0.2-0.5-0.2c-0.2,0-0.3,0-0.4,0c-0.3,0-0.6,0.1-0.8,0.2
		c-0.2,0.2-0.3,0.3-0.4,0.6c-0.1,0.2-0.2,0.4-0.2,0.7c0,0.2,0,0.4,0,0.5c0,0.3,0,0.5,0.1,0.7c0.1,0.2,0.2,0.4,0.4,0.5
		c0.1,0.2,0.3,0.3,0.5,0.4c0.2,0.1,0.4,0.2,0.6,0.3l0.3,0.1c0.2,0.1,0.4,0.2,0.6,0.3c0.3,0.1,0.5,0.3,0.8,0.6c0.7,0.6,1,1.5,1,2.5
		c0,1-0.2,1.7-0.7,2.4c-0.5,0.7-1.3,1.1-2.3,1.1c-1,0-1.7-0.3-2.2-1C89.5,83.5,89.3,82.6,89.3,81.5z"/>
	<path fill="#BC752A" d="M95.9,85V72.6h0.6v6V79v6H95.9z M96.9,78.6v-6h0.6V78h2.4v-5.4h0.6v6H96.9z M96.9,85v-6h3.6v6h-0.6v-5.4
		h-2.4V85H96.9z M100.9,85v-6v-0.4v-6h0.6V85H100.9z"/>
</g>
<g>
	<path fill="#BC752A" d="M71.7,88.8V88H81v0.8h-4.4h-0.5H71.7z M71.7,90.1v-0.8h4.4v15h-0.8V90.1H71.7z M76.6,104.3v-0.8V89.3H81
		v0.8h-3.6v14.2H76.6z"/>
	<path fill="#BC752A" d="M83.5,100V88h0.8v12c0,1.2,0.2,2,0.7,2.6c0.5,0.6,1.2,0.9,2.2,0.9c1,0,1.7-0.3,2.2-0.9
		c0.5-0.6,0.7-1.5,0.7-2.6V88h0.8v12c0,1.4-0.3,2.4-0.9,3.1c-0.2,0.3-0.6,0.6-1,0.8c-0.4,0.3-1,0.4-1.8,0.4s-1.3-0.1-1.8-0.4
		c-0.4-0.3-0.8-0.5-1-0.8C83.8,102.4,83.5,101.3,83.5,100z M84.8,100V88h0.8v12c0,0.6,0.1,1,0.2,1.3c0.1,0.3,0.2,0.5,0.4,0.7
		c0.2,0.1,0.3,0.2,0.5,0.2c0.2,0,0.3,0,0.5,0s0.3,0,0.5,0s0.4-0.1,0.5-0.2s0.3-0.4,0.4-0.7c0.1-0.3,0.2-0.7,0.2-1.3V88h0.8v12
		c0,1-0.2,1.8-0.6,2.3c-0.4,0.5-1,0.7-1.8,0.7c-0.8,0-1.4-0.2-1.8-0.7C85,101.8,84.8,101,84.8,100z"/>
	<path fill="#BC752A" d="M93.8,104.3V88H94h0.6h0.1h0.6h0.3l4,9.9V88h0.8v13.9L95,88.7h-0.5v15.6H93.8z M95.1,104.3V90.3l5.3,13.1
		h0.4V88h0.8v16.3h-0.2h-0.6h-0.1h-0.6h-0.3l-4-9.9v9.9H95.1z"/>
</g>
<g>
	<path fill="#BC752A" d="M166.8,88v-0.8h0.8h0.2h0.3h1.8c1.1,0,1.9-0.3,2.4-0.9c0.5-0.6,0.7-1.5,0.7-2.8c0-1.2-0.2-2.2-0.7-2.8
		c-0.2-0.3-0.5-0.5-0.9-0.7c1.1-0.4,1.6-1.6,1.6-3.4c0-1.3-0.2-2.2-0.8-2.8c-0.5-0.6-1.3-0.9-2.3-0.9h-2h-0.2h-0.8v-0.8h3
		c1.3,0,2.3,0.4,2.9,1.2c0.6,0.7,0.9,1.8,0.9,3.2c0,1.4-0.3,2.5-0.9,3.2c-0.1,0.1-0.1,0.2-0.2,0.2c0.1,0.1,0.1,0.1,0.2,0.2
		c0.6,0.7,0.9,1.8,0.9,3.2c0,1.4-0.3,2.5-0.9,3.2c-0.6,0.8-1.6,1.2-2.9,1.2h-1H166.8z M166.8,86.7v-0.8V73.5h0.8v13.2H166.8z
		 M168,79.8v-6.4h1.8c0.9,0,1.6,0.2,2,0.8c0.4,0.5,0.6,1.3,0.6,2.4c0,1.1-0.2,1.9-0.6,2.4c-0.4,0.5-1.1,0.8-2,0.8H168z M168,86.7
		v-6.4h1.8c0.9,0,1.6,0.3,2,0.8c0.4,0.5,0.6,1.3,0.6,2.4c0,1.1-0.2,1.9-0.6,2.4c-0.4,0.5-1.1,0.7-2,0.7H168z M168.8,79.1h1
		c0.5,0,0.8,0,1-0.2c0.2-0.1,0.3-0.2,0.4-0.3c0.3-0.4,0.4-1,0.4-2c0-0.6,0-1-0.1-1.3c-0.1-0.3-0.2-0.6-0.4-0.7
		c-0.2-0.2-0.4-0.3-0.6-0.3c-0.2,0-0.5-0.1-0.7-0.1h-1V79.1z M168.8,85.9h1c0.3,0,0.5,0,0.7-0.1c0.2,0,0.4-0.1,0.6-0.3
		c0.2-0.2,0.3-0.4,0.4-0.7c0.1-0.3,0.1-0.8,0.1-1.3c0-0.6-0.1-1-0.2-1.3s-0.2-0.6-0.4-0.7s-0.4-0.3-0.6-0.3c-0.2,0-0.5-0.1-0.7-0.1
		h-1V85.9z"/>
	<path fill="#BC752A" d="M176.1,83.4v-6.8c0-1.4,0.3-2.5,0.9-3.2c0.2-0.3,0.6-0.6,1-0.8s1.1-0.4,1.8-0.4s1.4,0.1,1.8,0.4
		c0.4,0.3,0.8,0.5,1,0.8c0.6,0.8,0.9,1.8,0.9,3.2v6.8c0,1.4-0.3,2.5-0.9,3.2c-0.1,0.1-0.3,0.3-0.4,0.4c-0.2,0.2-0.4,0.3-0.6,0.4
		c-0.2,0.1-0.5,0.2-0.8,0.3c-0.3,0.1-0.6,0.1-1,0.1c-0.8,0-1.4-0.1-1.8-0.4c-0.4-0.3-0.8-0.6-1-0.8
		C176.4,85.9,176.1,84.8,176.1,83.4z M176.8,83.4c0,1.2,0.2,2.1,0.7,2.7c0.5,0.7,1.3,1,2.2,1s1.7-0.3,2.2-1c0.5-0.6,0.8-1.5,0.8-2.7
		v-6.8c0-1.2-0.2-2.1-0.8-2.8c-0.5-0.6-1.3-1-2.2-1s-1.7,0.3-2.2,1c-0.5,0.6-0.7,1.5-0.7,2.8V83.4z M177.3,83.4v-6.8
		c0-1.1,0.2-1.9,0.6-2.4c0.4-0.5,1-0.8,1.8-0.8c0.8,0,1.5,0.3,1.8,0.8c0.4,0.5,0.6,1.3,0.6,2.4v6.8c0,2.1-0.8,3.2-2.5,3.2
		S177.3,85.6,177.3,83.4z M178.1,83.4c0,0.6,0.1,1.1,0.2,1.4c0.1,0.3,0.3,0.6,0.5,0.7s0.4,0.2,0.6,0.3c0.2,0,0.4,0,0.5,0
		c0.1,0,0.3,0,0.5,0c0.2,0,0.4-0.1,0.6-0.3c0.2-0.1,0.3-0.4,0.5-0.7c0.1-0.3,0.2-0.8,0.2-1.4v-6.8c0-0.6-0.1-1.1-0.2-1.4
		c-0.1-0.3-0.3-0.6-0.5-0.7c-0.2-0.1-0.4-0.2-0.6-0.3c-0.2,0-0.4,0-0.5,0c-0.2,0-0.3,0-0.5,0c-0.2,0-0.4,0.1-0.6,0.3
		s-0.3,0.4-0.5,0.7c-0.1,0.3-0.2,0.8-0.2,1.4V83.4z"/>
	<path fill="#BC752A" d="M186.6,87.9V72.2h0.8v15.7H186.6z M187.9,87.9V72.2h0.8v15.7H187.9z"/>
	<path fill="#BC752A" d="M191.6,87.9V72.2h0.8v15h6.1v0.8H191.6z M192.8,86.7V72.2h0.8v13.7h4.8v0.8H192.8z"/>
</g>
<g>
	<path fill="#BC752A" d="M166.7,97.2L166.7,97.2l0-6.2h0.5v9.7h-0.5L166.7,97.2L166.7,97.2z M167.5,96.8V91h0.5v4.2l2.7-4.2h0.5
		L167.5,96.8z M167.5,100.7v-3.3l1-1.6l2.7,4.9h-0.5l-2.2-4l-0.5,0.8v3.2H167.5z M168.7,95.5l2.9-4.5h0.6l-2.9,4.5l2.9,5.1h-0.5
		L168.7,95.5z"/>
	<path fill="#BC752A" d="M172.7,100.7V91h4v0.5h-3.5v4.2V96v4.2h3.5v0.5H172.7z M173.5,95.7v-3.9h3.2v0.5h-2.8v3h2.8v0.5H173.5z
		 M173.5,99.9V96h3.2v0.5h-2.8v3h2.8v0.5H173.5z"/>
	<path fill="#BC752A" d="M177.4,91.5V91h5.5v0.5h-2.6H180H177.4z M177.4,92.2v-0.5h2.6v8.9h-0.5v-8.4H177.4z M180.3,100.7v-0.5v-8.4
		h2.6v0.5h-2.1v8.4H180.3z"/>
	<path fill="#BC752A" d="M183.5,91.5V91h5.5v0.5h-2.6h-0.3H183.5z M183.5,92.2v-0.5h2.6v8.9h-0.5v-8.4H183.5z M186.4,100.7v-0.5
		v-8.4h2.6v0.5h-2.1v8.4H186.4z"/>
	<path fill="#BC752A" d="M189.7,100.7V91h0.5v9.2h3.8v0.5H189.7z M190.5,99.9V91h0.5v8.4h3v0.5H190.5z"/>
	<path fill="#BC752A" d="M194.4,100.7V91h4v0.5h-3.5v4.2V96v4.2h3.5v0.5H194.4z M195.1,95.7v-3.9h3.2v0.5h-2.8v3h2.8v0.5H195.1z
		 M195.1,99.9V96h3.2v0.5h-2.8v3h2.8v0.5H195.1z"/>
</g>
<g>
	<path fill="#BC752A" d="M255.6,46.2h11.2v4.6h-0.5v-4.1h-4.9h-0.3h-5.4V46.2z M255.6,47.1h5.4v3.7h-0.5v-3.2h-4.9V47.1z
		 M261.4,47.1h4.5v3.7h-0.5v-3.2h-3.4v3.2h-0.5V47.1z"/>
	<path fill="#BC752A" d="M255.6,51.8h11.2v4.6h-0.5v-4.1h-4.9h-0.3h-4.9v4.1h-0.5V51.8z M256.5,52.7h4.5v3.7h-0.5v-3.2h-3.4v3.2
		h-0.5V52.7z M261.4,52.7h4.5v3.7h-0.5v-3.2h-3.4v3.2h-0.5V52.7z"/>
	<path fill="#BC752A" d="M266.3,57.5h0.5v2.3c0,1-0.3,1.7-0.8,2.2c-0.5,0.4-1.3,0.7-2.3,0.7c-1,0-1.8-0.2-2.3-0.7c0,0,0,0-0.1-0.1
		c0,0-0.1-0.1-0.1-0.1c-0.3,0.3-0.6,0.5-0.9,0.6s-0.8,0.2-1.2,0.2h-3.3v-0.5h3.3c0.8,0,1.3-0.2,1.8-0.7c0.2-0.2,0.3-0.4,0.4-0.6
		c0.3,0.9,1.2,1.3,2.5,1.3c0.9,0,1.6-0.2,2-0.5c0.4-0.4,0.7-1,0.7-1.8v-1.6V58V57.5z M255.6,57.5h10.3V58h-10.3V57.5z M255.6,58.3
		h5.3v1.2v0.2c0,0.6-0.2,1.1-0.5,1.5c-0.3,0.3-0.8,0.5-1.5,0.5h-3.3v-0.5h3.3c1,0,1.5-0.5,1.5-1.4v-0.7v-0.2h-4.8V58.3z M261.3,58.3
		h4.6v1.4c0,0.7-0.2,1.2-0.5,1.5c-0.4,0.3-1,0.5-1.8,0.5c-0.8,0-1.4-0.2-1.8-0.5c-0.4-0.3-0.5-0.8-0.5-1.5v-0.2V58.3z M261.9,58.9
		v0.2v0.7c0,0.4,0,0.7,0.1,0.8c0.1,0.1,0.2,0.2,0.2,0.3c0.3,0.2,0.8,0.3,1.4,0.3c0.4,0,0.7,0,0.9-0.1c0.2-0.1,0.4-0.2,0.5-0.3
		c0.1-0.1,0.2-0.3,0.3-0.4c0-0.2,0.1-0.4,0.1-0.6v-0.9H261.9z"/>
	<path fill="#BC752A" d="M255.6,63.8h11.2V64v0.4v0.2v0.3V65l-7.9,2.3l7.9,2.2v0.1v0.4v0.2v0.2v0.3h-11.2v-0.5h10.7V70l-9.3-2.7
		l9.3-2.7v-0.3h-10.7V63.8z M255.6,64.7h9.2l-9.1,2.6l9.2,2.6h-9.2v-0.5h5.4l-5.4-1.5v-1.1l5.4-1.5h-5.4V64.7z"/>
	<path fill="#BC752A" d="M255.6,71.9h11.2v4.6h-0.5v-4.1h-4.9h-0.3h-4.9v4.1h-0.5V71.9z M256.5,72.8h4.5v3.7h-0.5v-3.2h-3.4v3.2
		h-0.5V72.8z M261.4,72.8h4.5v3.7h-0.5v-3.2h-3.4v3.2h-0.5V72.8z"/>
	<path fill="#BC752A" d="M255.7,77.6h11.2v0.1v0.4v0.1v0.4v0.2l-6.8,2.7h6.8v0.5h-9.5l9-3.6v-0.3h-10.7V77.6z M255.7,78.5h9.6
		l-9,3.6v0.3h10.6V83h-11.2v-0.2v-0.4v-0.1v-0.4v-0.2l6.8-2.7h-6.8V78.5z"/>
	<path fill="#BC752A" d="M265.4,83.9h0.5v3h-10.3v-0.5h9.8V83.9z M255.6,87.2h0.5h9.8v3h-0.5v-2.4h-9.8V87.2z M266.3,83.9h0.5v6.3
		h-0.5v-3v-0.3V83.9z"/>
	<path fill="#BC752A" d="M255.6,91h11.2v4.6h-0.5v-4.1h-4.9h-0.3h-4.9v4.1h-0.5V91z M256.5,91.9h4.5v3.7h-0.5v-3.2h-3.4v3.2h-0.5
		V91.9z M261.4,91.9h4.5v3.7h-0.5v-3.2h-3.4v3.2h-0.5V91.9z"/>
	<path fill="#BC752A" d="M266.3,96.7h0.5V99c0,1-0.3,1.7-0.8,2.2c-0.5,0.4-1.3,0.7-2.3,0.7c-1,0-1.8-0.2-2.3-0.7c0,0,0,0-0.1-0.1
		c0,0-0.1-0.1-0.1-0.1c-0.3,0.3-0.6,0.5-0.9,0.6s-0.8,0.2-1.2,0.2h-3.3v-0.5h3.3c0.8,0,1.3-0.2,1.8-0.7c0.2-0.2,0.3-0.4,0.4-0.6
		c0.3,0.9,1.2,1.3,2.5,1.3c0.9,0,1.6-0.2,2-0.5c0.4-0.4,0.7-1,0.7-1.8v-1.6v-0.2V96.7z M255.6,96.7h10.3v0.5h-10.3V96.7z
		 M255.6,97.6h5.3v1.2V99c0,0.6-0.2,1.1-0.5,1.5c-0.3,0.3-0.8,0.5-1.5,0.5h-3.3v-0.5h3.3c1,0,1.5-0.5,1.5-1.4v-0.7v-0.2h-4.8V97.6z
		 M261.3,97.6h4.6V99c0,0.7-0.2,1.2-0.5,1.5c-0.4,0.3-1,0.5-1.8,0.5c-0.8,0-1.4-0.2-1.8-0.5c-0.4-0.3-0.5-0.8-0.5-1.5v-0.2V97.6z
		 M261.9,98.1v0.2V99c0,0.4,0,0.7,0.1,0.8c0.1,0.1,0.2,0.2,0.2,0.3c0.3,0.2,0.8,0.3,1.4,0.3c0.4,0,0.7,0,0.9-0.1
		c0.2-0.1,0.4-0.2,0.5-0.3c0.1-0.1,0.2-0.3,0.3-0.4c0-0.2,0.1-0.4,0.1-0.6v-0.9H261.9z"/>
</g>
<g>
	<path fill="#BC752A" d="M294,52.7L294,52.7l0-5h0.4v7.9H294L294,52.7L294,52.7z M294.6,52.4v-4.7h0.4v3.4l2.2-3.4h0.4L294.6,52.4z
		 M294.6,55.6v-2.7l0.8-1.3l2.2,4h-0.4l-1.8-3.2L295,53v2.6H294.6z M295.6,51.4l2.4-3.7h0.5l-2.4,3.7l2.3,4.2h-0.4L295.6,51.4z"/>
	<path fill="#BC752A" d="M299.4,55.6v-7.9h3.3v0.4h-2.9v3.4v0.2v3.4h2.9v0.4H299.4z M300,51.5v-3.2h2.6v0.4h-2.3v2.4h2.3v0.4H300z
		 M300,55v-3.2h2.6v0.4h-2.3v2.4h2.3V55H300z"/>
	<path fill="#BC752A" d="M303.9,53.3V50c0-0.7,0.2-1.2,0.5-1.6c0.3-0.4,0.8-0.6,1.4-0.6c0.6,0,1.1,0.2,1.4,0.6
		c0.3,0.4,0.5,0.9,0.5,1.6v0.5h-0.4V50c0-0.6-0.1-1.1-0.4-1.4c-0.2-0.3-0.6-0.5-1.1-0.5c-0.5,0-0.9,0.2-1.1,0.5
		c-0.2,0.3-0.4,0.8-0.4,1.4v3.4c0,0.6,0.1,1.1,0.4,1.4c0.3,0.3,0.6,0.5,1.1,0.5c0.5,0,0.9-0.2,1.1-0.5c0.2-0.3,0.4-0.8,0.4-1.4v-1.2
		h-1.9v-0.4h2.2v1.6c0,0.7-0.2,1.2-0.5,1.6c-0.1,0.1-0.3,0.3-0.5,0.4c-0.2,0.1-0.5,0.2-0.9,0.2c-0.4,0-0.7-0.1-0.9-0.2
		c-0.2-0.1-0.4-0.3-0.5-0.4C304,54.6,303.9,54.1,303.9,53.3z M304.5,53.3V50c0-0.6,0.1-1,0.3-1.2c0.2-0.3,0.5-0.4,0.9-0.4
		s0.7,0.1,0.9,0.4c0.2,0.3,0.3,0.7,0.3,1.2v0.5h-0.4V50c0-0.3,0-0.5-0.1-0.7c0-0.2-0.1-0.3-0.2-0.4c-0.1-0.1-0.2-0.1-0.3-0.2
		c-0.1,0-0.2,0-0.3,0c-0.1,0-0.2,0-0.3,0c-0.1,0-0.2,0.1-0.3,0.2c-0.1,0.1-0.1,0.2-0.2,0.4c0,0.2-0.1,0.4-0.1,0.7v3.4
		c0,0.3,0,0.6,0.1,0.7c0.1,0.2,0.1,0.3,0.2,0.4c0.1,0.1,0.2,0.1,0.3,0.1c0.1,0,0.2,0,0.3,0s0.2,0,0.3,0c0.1,0,0.2-0.1,0.3-0.1
		c0.1-0.1,0.2-0.2,0.2-0.4c0.1-0.2,0.1-0.4,0.1-0.7v-0.6h-1.2v-0.4h1.6v1c0,0.6-0.1,1-0.3,1.2c-0.2,0.3-0.5,0.4-0.9,0.4
		c-0.4,0-0.7-0.1-0.9-0.4C304.6,54.3,304.5,53.9,304.5,53.3z"/>
</g>
<g>
	<defs>
		<rect id="SVGID_55_" x="-0.3" y="-0.3" width="432.3" height="144.1"/>
	</defs>
	<clipPath id="SVGID_56_">
		<use xlink:href="#SVGID_55_"  overflow="visible"/>
	</clipPath>
	<polygon clip-path="url(#SVGID_56_)" fill="#FFFFFF" points="55.3,80.9 54.1,80.9 54.1,42.5 63.7,32.9 83.9,32.9 83.9,43.6 
		82.7,43.6 82.7,34.1 64.2,34.1 55.3,43 	"/>
	<path clip-path="url(#SVGID_56_)" fill="#FFFFFF" d="M83.1,48.6c-1.7,0-3-1.3-3-3c0-1.7,1.3-3,3-3c1.7,0,3,1.3,3,3
		C86.1,47.3,84.7,48.6,83.1,48.6 M83.1,43.8c-1,0-1.8,0.8-1.8,1.8c0,1,0.8,1.8,1.8,1.8c1,0,1.8-0.8,1.8-1.8
		C84.8,44.6,84,43.8,83.1,43.8"/>
	<rect x="82.4" y="48" clip-path="url(#SVGID_56_)" fill="#FFFFFF" width="1.2" height="4.3"/>
	<polygon clip-path="url(#SVGID_56_)" fill="#FFFFFF" points="85.2,51.9 83.1,55.7 80.9,51.9 	"/>
	<path clip-path="url(#SVGID_56_)" fill="#FFFFFF" d="M91.3,48.6c-1.7,0-3-1.3-3-3c0-1.7,1.3-3,3-3c1.7,0,3,1.3,3,3
		C94.3,47.3,92.9,48.6,91.3,48.6 M91.3,43.8c-1,0-1.8,0.8-1.8,1.8c0,1,0.8,1.8,1.8,1.8c1,0,1.8-0.8,1.8-1.8
		C93,44.6,92.2,43.8,91.3,43.8"/>
	<rect x="90.7" y="48" clip-path="url(#SVGID_56_)" fill="#FFFFFF" width="1.2" height="4.3"/>
	<polygon clip-path="url(#SVGID_56_)" fill="#FFFFFF" points="93.4,51.9 91.3,55.7 89.1,51.9 	"/>
	<path clip-path="url(#SVGID_56_)" fill="#FFFFFF" d="M115.2,40c0.6,4.9-2.8,9-7.7,9c-4.9,0-8.3-4-7.7-9c0.6-5.5,7.7-12.4,7.7-15.5
		C107.5,27.6,114.6,34.9,115.2,40"/>
</g>
<g>
	<path fill="#A09F9F" d="M104.1,42.4v-4.5h0.6v2h0.9v-2h0.6v4.5h-0.6v-2h-0.9v2H104.1z"/>
	<path fill="#A09F9F" d="M106.6,42.4v-0.3c0-0.2,0-0.4,0.1-0.5c0-0.2,0.1-0.3,0.2-0.4c0.1-0.1,0.1-0.3,0.2-0.4l0.3-0.5l0.2-0.3
		l0.2-0.2c0-0.1,0.1-0.1,0.1-0.2c0-0.1,0.1-0.1,0.1-0.2s0-0.2,0-0.3c0,0,0-0.1,0-0.2c0-0.1,0-0.1-0.1-0.2c0-0.1-0.1-0.1-0.1-0.2
		c0,0-0.1-0.1-0.2-0.1c0,0-0.1,0-0.1,0c0,0-0.1,0-0.1,0.1c0,0-0.1,0.1-0.1,0.2s0,0.2,0,0.4v0.3h-0.6v-0.3c0-0.4,0.1-0.7,0.2-0.9
		c0.1-0.1,0.1-0.2,0.3-0.2c0.1-0.1,0.3-0.1,0.5-0.1c0.1,0,0.3,0,0.4,0.1c0.1,0.1,0.2,0.1,0.3,0.2c0.1,0.1,0.1,0.2,0.2,0.4
		c0,0.1,0.1,0.3,0.1,0.5h0v0h0c0,0.1,0,0.3,0,0.4c0,0.1-0.1,0.2-0.1,0.3c0,0.1-0.1,0.2-0.2,0.3l-0.2,0.2l-0.1,0.2
		c0,0.1-0.1,0.1-0.1,0.2l-0.2,0.4c-0.1,0.1-0.1,0.2-0.2,0.3c0,0.1-0.1,0.2-0.1,0.3c0,0.1-0.1,0.2-0.1,0.3h0.4h0.7h0.3v0.6h-0.3h-0.7
		H106.6z"/>
	<path fill="#A09F9F" d="M108.9,41.1v-1.9c0-0.4,0.1-0.7,0.2-0.9c0.2-0.3,0.4-0.4,0.7-0.4s0.6,0.1,0.7,0.4c0.1,0.2,0.2,0.5,0.2,0.9
		v1.9c0,0.4-0.1,0.7-0.2,0.9c-0.2,0.3-0.4,0.4-0.7,0.4s-0.6-0.1-0.7-0.4C108.9,41.8,108.9,41.5,108.9,41.1z M109.4,41.1
		c0,0.2,0,0.3,0,0.4c0,0.1,0.1,0.2,0.1,0.2s0.1,0.1,0.1,0.1c0,0,0.1,0,0.1,0s0.1,0,0.1,0c0,0,0.1,0,0.1-0.1s0.1-0.1,0.1-0.2
		c0-0.1,0-0.2,0-0.4v-1.9c0-0.2,0-0.3,0-0.4c0-0.1-0.1-0.2-0.1-0.2s-0.1-0.1-0.1-0.1c0,0-0.1,0-0.1,0s-0.1,0-0.1,0
		c0,0-0.1,0-0.1,0.1s-0.1,0.1-0.1,0.2c0,0.1,0,0.2,0,0.4V41.1z"/>
</g>
<g>
	<defs>
		<rect id="SVGID_57_" x="-0.3" y="-0.3" width="432.3" height="144.1"/>
	</defs>
	<clipPath id="SVGID_58_">
		<use xlink:href="#SVGID_57_"  overflow="visible"/>
	</clipPath>
	<polygon clip-path="url(#SVGID_58_)" fill="#FFFFFF" points="91.9,43.2 90.7,43.2 90.7,39.7 94.6,35.8 105.3,35.8 105.3,37 
		95.1,37 91.9,40.2 	"/>
	<path clip-path="url(#SVGID_58_)" fill="#FFFFFF" d="M27.9,54.2L27.9,54.2l1.8-0.6l0.1,0c0,0,0.3,0.8,0.4,1.4
		c0.1,0.5-0.1,0.5,0.2,1.1c0.2,0.6,0.5,1.2,0.5,1.2s0,0.3-0.7,0.5c-0.6,0.2-0.8,0-0.8,0s-0.2-0.6-0.3-1.2c-0.2-0.6-0.3-0.5-0.5-1
		c0,0-0.1-0.1-0.1-0.2C28.1,54.9,27.9,54.2,27.9,54.2"/>
	<path clip-path="url(#SVGID_58_)" fill="#FFFFFF" d="M28.8,56.7l0.4,1.3l1.2,0.5l0.7-1.2L30.7,56l0.7-0.2l0.6,1.7l-0.7,1.3
		c0.5,1.6,1.6,2.1,2.4,2.3c0.1-0.6,0.8-1.1,1.5-1.1h0.6c0.1-0.9,0.3-1.7,0.6-2.4l-0.5-2.3c-0.2,0-0.4-0.2-0.4-0.5
		c0-0.3,0.2-0.5,0.5-0.5c0.3,0,0.5,0.2,0.5,0.5c0,0.1,0,0.2-0.1,0.3l0.7,1.6c0.5-0.5,1.1-0.7,1.6-0.7c0.4,0,1,0.2,1.4,0.5l0.7-1.5
		c-0.1-0.1-0.1-0.2-0.1-0.3c0-0.3,0.2-0.5,0.5-0.5c0.3,0,0.5,0.2,0.5,0.5c0,0.2-0.2,0.4-0.4,0.5l-0.4,2.1c0.5,0.7,0.8,1.7,0.8,2.7
		H42c0.7,0,1.3,0.5,1.5,1.1l0,0.1c2.5,1.3,2.6,4.6,2.6,4.6l1.1,1l0,1.8l-0.7,0l0-1.4l-1-0.9l-1,0.9l0,1.4l-0.7,0l0-1.8l1.1-1
		c0-1.7-0.9-2.6-1.5-3L43,64.1l-0.5,2.5c-0.2,0.6-0.4,1-1,1.3l-0.1,0l0.9,5.4c1.1,0.5,1.1,1.8,1.1,1.8h-4c0,0,0-1.3,1-1.8L39.5,68
		l0,0h-1.3l-0.4,0L37,73.3c1,0.5,1,1.8,1,1.8h-4c0,0,0-1.4,1.2-1.9l0.8-5.3c-0.6-0.2-0.9-0.7-1.1-1.3l-1-3.9
		c-2.8-0.5-3.9-3.5-3.9-3.5l-1.3-0.6l-0.6-1.7L28.8,56.7z"/>
	<path clip-path="url(#SVGID_58_)" fill="#FFFFFF" d="M350,10.8l-2.4-7l-1.5,0.5c-0.1-1.3-0.3-1.9-0.3-1.9h-7.6c0,0-0.2,0.7-0.3,1.9
		l-1.5-0.5l-2.4,7c-0.1,0.3-0.1,0.6,0.1,0.9l4.3,7.6l-0.3,1.3l1.7,1.9v18.1l-1.7,1.9l1,4.3h1.7v2.4c-1.1,0.5-1.9,1.6-1.9,2.9
		c0,1.3,0.8,2.4,1.9,2.9v2.7h2.5V55c1.1-0.5,1.9-1.6,1.9-2.9c0-1.3-0.8-2.4-1.9-2.9v-2.4h1.7l1-4.3l-1.7-1.9V22.5l1.7-1.9l-0.3-1.3
		l4.3-7.7C350.1,11.3,350.1,11,350,10.8 M343.8,52.1c0,1-0.8,1.8-1.8,1.8c-1,0-1.8-0.8-1.8-1.8c0-1,0.8-1.8,1.8-1.8
		C343,50.3,343.8,51.1,343.8,52.1 M337.9,6.1c0,0.7,0,1.5,0.1,2.4c0.5,4.5,0.9,6.8,1.1,7.6l-2.9-5.1L337.9,6.1z M345.1,15.9
		c0.2-1.2,0.7-4.2,1-7.4c0.1-0.9,0.1-1.7,0.1-2.4l1.7,4.9L345.1,15.9z"/>
	<path clip-path="url(#SVGID_58_)" fill="#9B5A25" d="M338.7,5.2L338.7,5.2l0.6-0.2l0,0c0,0,0.1,0.3,0.1,0.5c0,0.2,0,0.2,0.1,0.4
		c0.1,0.2,0.2,0.4,0.2,0.4s0,0.1-0.2,0.2c-0.2,0.1-0.3,0-0.3,0s-0.1-0.2-0.1-0.4c-0.1-0.2-0.1-0.2-0.2-0.3c0,0,0,0,0-0.1
		C338.8,5.4,338.7,5.2,338.7,5.2"/>
	<path clip-path="url(#SVGID_58_)" fill="#9B5A25" d="M339,6l0.1,0.4l0.4,0.2l0.2-0.4l-0.1-0.4l0.2-0.1l0.2,0.6l-0.2,0.4
		c0.2,0.5,0.5,0.7,0.8,0.8c0-0.2,0.3-0.4,0.5-0.4h0.2c0-0.3,0.1-0.6,0.2-0.8l-0.2-0.8c-0.1,0-0.1-0.1-0.1-0.2c0-0.1,0.1-0.2,0.2-0.2
		c0.1,0,0.2,0.1,0.2,0.2c0,0,0,0.1,0,0.1l0.2,0.5c0.2-0.2,0.4-0.2,0.5-0.2c0.1,0,0.3,0.1,0.5,0.2l0.2-0.5c0,0,0-0.1,0-0.1
		c0-0.1,0.1-0.2,0.2-0.2c0.1,0,0.2,0.1,0.2,0.2c0,0.1-0.1,0.1-0.1,0.2L343,6.2c0.2,0.2,0.3,0.6,0.3,0.9h0.1c0.2,0,0.4,0.2,0.5,0.4
		l0,0c0.9,0.4,0.9,1.5,0.9,1.5l0.4,0.3l0,0.6l-0.2,0l0-0.5l-0.3-0.3l-0.3,0.3l0,0.5l-0.2,0l0-0.6l0.4-0.3c0-0.6-0.3-0.9-0.5-1
		l-0.1,0.4l-0.2,0.8c-0.1,0.2-0.1,0.3-0.3,0.4l0,0l0.3,1.8c0.4,0.2,0.4,0.6,0.4,0.6h-1.3c0,0,0-0.4,0.3-0.6l-0.3-1.8h0h-0.5l-0.1,0
		l-0.3,1.8c0.3,0.2,0.3,0.6,0.3,0.6h-1.3c0,0,0-0.5,0.4-0.6l0.3-1.8c-0.2-0.1-0.3-0.2-0.4-0.4L340.7,8c-0.9-0.2-1.3-1.2-1.3-1.2
		L339,6.6l-0.2-0.6L339,6z"/>
</g>
<g>
	<path fill="#9B5A25" d="M162.6,22.1V20c0-0.4,0.1-0.8,0.3-1c0.1-0.1,0.2-0.2,0.3-0.3s0.3-0.1,0.6-0.1s0.4,0,0.6,0.1
		s0.2,0.2,0.3,0.3c0.2,0.2,0.3,0.6,0.3,1v0.3h-0.6V20c0-0.2,0-0.3-0.1-0.4c0-0.1-0.1-0.2-0.1-0.2c-0.1,0-0.1-0.1-0.2-0.1
		c-0.1,0-0.1,0-0.2,0c0,0-0.1,0-0.2,0c-0.1,0-0.1,0-0.2,0.1s-0.1,0.1-0.1,0.2s-0.1,0.3-0.1,0.4v2.1c0,0.3,0.1,0.5,0.2,0.6
		c0,0,0.1,0.1,0.1,0.1s0.1,0.1,0.3,0.1s0.2,0,0.3-0.1s0.1-0.1,0.1-0.1c0.1-0.1,0.1-0.3,0.1-0.6v-0.3h0.6v0.3c0,0.4-0.1,0.8-0.3,1
		c-0.1,0.1-0.2,0.2-0.3,0.3c-0.1,0.1-0.3,0.1-0.6,0.1c-0.1,0-0.2,0-0.3,0s-0.2-0.1-0.2-0.1c-0.1,0-0.1-0.1-0.2-0.1s-0.1-0.1-0.1-0.1
		C162.7,22.8,162.6,22.5,162.6,22.1z"/>
	<path fill="#9B5A25" d="M165.2,23.4v-4.8h0.6v2.1h0.9v-2.1h0.6v4.8h-0.6v-2.1h-0.9v2.1H165.2z"/>
	<path fill="#9B5A25" d="M168.1,23.4v-4.8h0.6v4.8H168.1z"/>
	<path fill="#9B5A25" d="M169.2,23.4v-4.8h0.5l1.2,2.9v-2.9h0.6v4.8H171l-1.2-2.9v2.9H169.2z"/>
	<path fill="#9B5A25" d="M172,22.1V20c0-0.4,0.1-0.8,0.3-1c0,0,0.1-0.1,0.1-0.1c0.1,0,0.1-0.1,0.2-0.1c0.1,0,0.2-0.1,0.2-0.1
		s0.2,0,0.3,0c0.2,0,0.4,0,0.6,0.1c0.1,0.1,0.2,0.2,0.3,0.3c0.2,0.2,0.3,0.6,0.3,1v2.1c0,0.4-0.1,0.8-0.3,1
		c-0.1,0.1-0.2,0.2-0.3,0.3c-0.1,0.1-0.3,0.1-0.6,0.1c-0.2,0-0.4,0-0.6-0.1c-0.1-0.1-0.2-0.2-0.3-0.3C172.1,22.8,172,22.5,172,22.1z
		 M172.6,22.1c0,0.2,0,0.3,0.1,0.4c0,0.1,0.1,0.2,0.1,0.2s0.1,0.1,0.2,0.1c0.1,0,0.1,0,0.2,0c0,0,0.1,0,0.2,0c0.1,0,0.1,0,0.2-0.1
		s0.1-0.1,0.1-0.2c0-0.1,0.1-0.2,0.1-0.4V20c0-0.2,0-0.3-0.1-0.4c0-0.1-0.1-0.2-0.1-0.2c-0.1,0-0.1-0.1-0.2-0.1c-0.1,0-0.1,0-0.2,0
		c0,0-0.1,0-0.2,0c-0.1,0-0.1,0-0.2,0.1c-0.1,0-0.1,0.1-0.1,0.2c0,0.1-0.1,0.2-0.1,0.4V22.1z"/>
	<path fill="#9B5A25" d="M174.6,22.1V20c0-0.4,0.1-0.8,0.3-1c0,0,0.1-0.1,0.1-0.1c0.1,0,0.1-0.1,0.2-0.1c0.1,0,0.2-0.1,0.2-0.1
		s0.2,0,0.3,0c0.2,0,0.4,0,0.6,0.1c0.1,0.1,0.2,0.2,0.3,0.3c0.2,0.2,0.3,0.6,0.3,1v2.1c0,0.4-0.1,0.8-0.3,1
		c-0.1,0.1-0.2,0.2-0.3,0.3c-0.1,0.1-0.3,0.1-0.6,0.1c-0.2,0-0.4,0-0.6-0.1c-0.1-0.1-0.2-0.2-0.3-0.3
		C174.7,22.8,174.6,22.5,174.6,22.1z M175.2,22.1c0,0.2,0,0.3,0.1,0.4c0,0.1,0.1,0.2,0.1,0.2s0.1,0.1,0.2,0.1c0.1,0,0.1,0,0.2,0
		c0,0,0.1,0,0.2,0c0.1,0,0.1,0,0.2-0.1s0.1-0.1,0.1-0.2c0-0.1,0.1-0.2,0.1-0.4V20c0-0.2,0-0.3-0.1-0.4c0-0.1-0.1-0.2-0.1-0.2
		c-0.1,0-0.1-0.1-0.2-0.1c-0.1,0-0.1,0-0.2,0c0,0-0.1,0-0.2,0c-0.1,0-0.1,0-0.2,0.1c-0.1,0-0.1,0.1-0.1,0.2c0,0.1-0.1,0.2-0.1,0.4
		V22.1z"/>
	<path fill="#9B5A25" d="M177.3,21.7L177.3,21.7l0-3.1h0.6v2.1l1.4-2.1h0.7l-1.5,2.3l1.4,2.6h-0.7l-1.1-2l-0.3,0.4v1.6h-0.6
		L177.3,21.7L177.3,21.7z"/>
	<path fill="#9B5A25" d="M156.1,31.3v-4.8h2v0.6h-1.4v1.5h1.4v0.6h-1.4v1.5h1.4v0.6H156.1z"/>
	<path fill="#9B5A25" d="M158.5,31.3l1.1-4.8h0.5l1.1,4.8h-0.6l-0.3-1.3h-0.8l-0.3,1.3H158.5z M159.6,29.4h0.6l-0.3-1.2L159.6,29.4z
		"/>
	<path fill="#9B5A25" d="M161.4,30v-0.3h0.6V30c0,0.3,0.1,0.5,0.2,0.6c0,0,0.1,0.1,0.1,0.1s0.1,0,0.3,0c0.1,0,0.2,0,0.3-0.1
		c0.1-0.1,0.1-0.1,0.2-0.2c0-0.1,0.1-0.2,0.1-0.2c0-0.1,0-0.2,0-0.2c0-0.1,0-0.2-0.1-0.3s-0.1-0.1-0.1-0.2c-0.1-0.1-0.1-0.1-0.2-0.1
		s-0.1-0.1-0.2-0.1l-0.1-0.1c-0.1,0-0.2-0.1-0.3-0.1s-0.2-0.1-0.3-0.2c-0.3-0.3-0.4-0.6-0.4-1c0-0.2,0-0.4,0.1-0.6
		c0.1-0.2,0.1-0.3,0.2-0.4c0.1-0.1,0.2-0.2,0.4-0.3s0.3-0.1,0.5-0.1c0.2,0,0.4,0,0.6,0.1c0.1,0.1,0.2,0.2,0.3,0.3
		c0.2,0.2,0.3,0.6,0.3,1v0.3h-0.6v-0.3c0-0.2,0-0.3-0.1-0.4c0-0.1-0.1-0.2-0.1-0.2c-0.1,0-0.1-0.1-0.2-0.1s-0.1,0-0.2,0
		c-0.1,0-0.2,0-0.3,0.1c-0.1,0.1-0.1,0.1-0.2,0.2c0,0.1-0.1,0.2-0.1,0.3c0,0.1,0,0.2,0,0.2c0,0.1,0,0.2,0.1,0.3s0.1,0.2,0.1,0.2
		s0.1,0.1,0.2,0.2c0.1,0,0.1,0.1,0.2,0.1l0.1,0c0.1,0,0.1,0.1,0.3,0.1c0.1,0,0.2,0.1,0.3,0.2c0.3,0.3,0.4,0.6,0.4,1
		c0,0.4-0.1,0.7-0.3,0.9c-0.2,0.3-0.5,0.4-0.9,0.4c-0.4,0-0.7-0.1-0.9-0.4C161.5,30.7,161.4,30.4,161.4,30z"/>
	<path fill="#9B5A25" d="M164,27.1v-0.6h2.7v0.6h-1.1v4.2H165v-4.2H164z"/>
	<path fill="#9B5A25" d="M169,29.6L169,29.6l0-3.1h0.6v2.1l1.4-2.1h0.7l-1.5,2.3l1.4,2.6H171l-1.1-2l-0.3,0.4v1.6H169L169,29.6
		L169,29.6z"/>
	<path fill="#9B5A25" d="M172,31.3v-4.8h2v0.6h-1.4v1.5h1.4v0.6h-1.4v1.5h1.4v0.6H172z"/>
	<path fill="#9B5A25" d="M174.4,31.3v-4.8h0.5l1.2,2.9v-2.9h0.6v4.8h-0.5l-1.2-2.9v2.9H174.4z"/>
	<path fill="#9B5A25" d="M177.2,27.1v-0.6h2.7v0.6h-1.1v4.2h-0.6v-4.2H177.2z"/>
	<path fill="#9B5A25" d="M156.1,39.2v-4.8h2V35h-1.4v1.5h1.4v0.6h-1.4v1.5h1.4v0.6H156.1z"/>
	<path fill="#9B5A25" d="M158.5,39.2l1.1-4.8h0.5l1.1,4.8h-0.6l-0.3-1.3h-0.8l-0.3,1.3H158.5z M159.6,37.2h0.6l-0.3-1.2L159.6,37.2z
		"/>
	<path fill="#9B5A25" d="M161.4,37.8v-0.3h0.6v0.3c0,0.3,0.1,0.5,0.2,0.6c0,0,0.1,0.1,0.1,0.1s0.1,0,0.3,0c0.1,0,0.2,0,0.3-0.1
		c0.1-0.1,0.1-0.1,0.2-0.2c0-0.1,0.1-0.2,0.1-0.2c0-0.1,0-0.2,0-0.2c0-0.1,0-0.2-0.1-0.3s-0.1-0.1-0.1-0.2c-0.1-0.1-0.1-0.1-0.2-0.1
		s-0.1-0.1-0.2-0.1l-0.1-0.1c-0.1,0-0.2-0.1-0.3-0.1s-0.2-0.1-0.3-0.2c-0.3-0.3-0.4-0.6-0.4-1c0-0.2,0-0.4,0.1-0.6
		c0.1-0.2,0.1-0.3,0.2-0.4c0.1-0.1,0.2-0.2,0.4-0.3s0.3-0.1,0.5-0.1c0.2,0,0.4,0,0.6,0.1c0.1,0.1,0.2,0.2,0.3,0.3
		c0.2,0.2,0.3,0.6,0.3,1v0.3h-0.6v-0.3c0-0.2,0-0.3-0.1-0.4c0-0.1-0.1-0.2-0.1-0.2c-0.1,0-0.1-0.1-0.2-0.1s-0.1,0-0.2,0
		c-0.1,0-0.2,0-0.3,0.1c-0.1,0.1-0.1,0.1-0.2,0.2c0,0.1-0.1,0.2-0.1,0.3c0,0.1,0,0.2,0,0.2c0,0.1,0,0.2,0.1,0.3s0.1,0.2,0.1,0.2
		s0.1,0.1,0.2,0.2c0.1,0,0.1,0.1,0.2,0.1l0.1,0c0.1,0,0.1,0.1,0.3,0.1c0.1,0,0.2,0.1,0.3,0.2c0.3,0.3,0.4,0.6,0.4,1
		c0,0.4-0.1,0.7-0.3,0.9c-0.2,0.3-0.5,0.4-0.9,0.4c-0.4,0-0.7-0.1-0.9-0.4C161.5,38.6,161.4,38.3,161.4,37.8z"/>
	<path fill="#9B5A25" d="M164,35v-0.6h2.7V35h-1.1v4.2H165V35H164z"/>
	<path fill="#9B5A25" d="M169,37.4L169,37.4l0-3.1h0.6v2.1l1.4-2.1h0.7l-1.5,2.3l1.4,2.6H171l-1.1-2l-0.3,0.4v1.6H169L169,37.4
		L169,37.4z"/>
	<path fill="#9B5A25" d="M172,39.2v-4.8h2V35h-1.4v1.5h1.4v0.6h-1.4v1.5h1.4v0.6H172z"/>
	<path fill="#9B5A25" d="M174.4,39.2v-4.8h0.5l1.2,2.9v-2.9h0.6v4.8h-0.5l-1.2-2.9v2.9H174.4z"/>
	<path fill="#9B5A25" d="M177.2,35v-0.6h2.7V35h-1.1v4.2h-0.6V35H177.2z"/>
</g>
<g>
	<defs>
		<rect id="SVGID_59_" x="-0.3" y="-0.3" width="432.3" height="144.1"/>
	</defs>
	<clipPath id="SVGID_60_">
		<use xlink:href="#SVGID_59_"  overflow="visible"/>
	</clipPath>
	<path clip-path="url(#SVGID_60_)" fill="#FFFFFF" d="M178.1,52.6c-1.7,0-3-1.3-3-3c0-1.7,1.3-3,3-3c1.7,0,3,1.3,3,3
		C181.1,51.2,179.8,52.6,178.1,52.6 M178.1,47.8c-1,0-1.8,0.8-1.8,1.8c0,1,0.8,1.8,1.8,1.8c1,0,1.8-0.8,1.8-1.8
		C179.9,48.6,179.1,47.8,178.1,47.8"/>
	<rect x="177.5" y="52" clip-path="url(#SVGID_60_)" fill="#FFFFFF" width="1.2" height="4.3"/>
	<polygon clip-path="url(#SVGID_60_)" fill="#FFFFFF" points="180.3,55.9 178.1,59.7 176,55.9 	"/>
	<path clip-path="url(#SVGID_60_)" fill="#FFFFFF" d="M186.3,52.6c-1.7,0-3-1.3-3-3c0-1.7,1.3-3,3-3c1.7,0,3,1.3,3,3
		C189.4,51.2,188,52.6,186.3,52.6 M186.3,47.8c-1,0-1.8,0.8-1.8,1.8c0,1,0.8,1.8,1.8,1.8c1,0,1.8-0.8,1.8-1.8
		C188.1,48.6,187.3,47.8,186.3,47.8"/>
	<path clip-path="url(#SVGID_60_)" fill="#FFFFFF" d="M189.9,29c0,1.9-1.6,3.5-3.5,3.5c-1.9,0-3.5-1.6-3.5-3.5
		c0-1.9,1.6-3.5,3.5-3.5C188.3,25.6,189.9,27.1,189.9,29"/>
	<path clip-path="url(#SVGID_60_)" fill="#FFFFFF" d="M189.9,37.5c0,1.9-1.6,3.5-3.5,3.5c-1.9,0-3.5-1.6-3.5-3.5
		c0-1.9,1.6-3.5,3.5-3.5C188.3,34,189.9,35.6,189.9,37.5"/>
	<path clip-path="url(#SVGID_60_)" fill="#FFFFFF" d="M189.9,20.4c0,1.9-1.6,3.5-3.5,3.5c-1.9,0-3.5-1.6-3.5-3.5
		c0-1.9,1.6-3.5,3.5-3.5C188.3,16.9,189.9,18.5,189.9,20.4"/>
	<rect x="185.7" y="52" clip-path="url(#SVGID_60_)" fill="#FFFFFF" width="1.2" height="4.3"/>
	<polygon clip-path="url(#SVGID_60_)" fill="#FFFFFF" points="188.5,55.9 186.3,59.7 184.2,55.9 	"/>
	<rect x="185.7" y="16.9" clip-path="url(#SVGID_60_)" fill="#FFFFFF" width="1.2" height="30.3"/>
</g>
<g>
	<path fill="#A09F9F" d="M184.4,21.4v-0.5v0v-1.1c0-0.4,0.1-0.7,0.2-0.9c0.1-0.1,0.2-0.2,0.3-0.3c0.1-0.1,0.2-0.1,0.4-0.1
		c0.1,0,0.3,0,0.4,0.1c0.1,0,0.2,0.1,0.3,0.2c0.1,0.2,0.2,0.4,0.2,0.7v0.2h-0.5v-0.2c0-0.2,0-0.3-0.1-0.4c0,0,0,0-0.1-0.1
		c0,0-0.1,0-0.2,0c-0.1,0-0.1,0-0.2,0.1c0,0.1-0.1,0.1-0.1,0.2c0,0.1,0,0.2,0,0.3c0,0.1,0,0.2,0,0.2v0c0.1,0,0.2-0.1,0.3-0.1
		c0.3,0,0.5,0.1,0.6,0.3c0.1,0.2,0.2,0.5,0.2,0.8v0.4c0,0.2,0,0.3-0.1,0.5c0,0.1-0.1,0.3-0.2,0.4c-0.1,0.1-0.2,0.2-0.3,0.2
		c-0.1,0.1-0.2,0.1-0.3,0.1c-0.3,0-0.5-0.1-0.6-0.3C184.5,22,184.4,21.7,184.4,21.4z M184.9,21.4c0,0.2,0,0.3,0.1,0.4
		c0,0,0,0,0.1,0.1c0,0,0.1,0,0.2,0c0.1,0,0.1,0,0.2-0.1c0,0,0.1-0.1,0.1-0.2s0-0.1,0.1-0.2c0-0.1,0-0.1,0-0.2v-0.4
		c0-0.1,0-0.3,0-0.3c0-0.1-0.1-0.1-0.1-0.2c0,0-0.1-0.1-0.1-0.1c0,0-0.1,0-0.1,0c-0.1,0-0.1,0-0.2,0.1s-0.1,0.1-0.1,0.2
		c0,0.1,0,0.1,0,0.2s0,0.1,0,0.1V21.4z"/>
	<path fill="#A09F9F" d="M186.4,21.3v-1.7c0-0.3,0.1-0.6,0.2-0.8c0.1-0.2,0.4-0.3,0.6-0.3c0.3,0,0.5,0.1,0.6,0.3
		c0.1,0.2,0.2,0.5,0.2,0.8v1.7c0,0.3-0.1,0.6-0.2,0.8c-0.1,0.2-0.4,0.3-0.6,0.3c-0.3,0-0.5-0.1-0.6-0.3
		C186.5,21.9,186.4,21.6,186.4,21.3z M186.9,21.3c0,0.2,0,0.3,0,0.4c0,0.1,0.1,0.1,0.1,0.2s0.1,0.1,0.1,0.1c0,0,0.1,0,0.1,0
		c0,0,0.1,0,0.1,0c0,0,0.1,0,0.1-0.1s0.1-0.1,0.1-0.2c0-0.1,0-0.2,0-0.4v-1.7c0-0.2,0-0.3,0-0.4c0-0.1-0.1-0.1-0.1-0.2
		s-0.1-0.1-0.1-0.1c0,0-0.1,0-0.1,0c0,0-0.1,0-0.1,0c0,0-0.1,0-0.1,0.1s-0.1,0.1-0.1,0.2c0,0.1,0,0.2,0,0.4V21.3z"/>
</g>
<g>
	<defs>
		<rect id="SVGID_61_" x="-0.3" y="-0.3" width="432.3" height="144.1"/>
	</defs>
	<clipPath id="SVGID_62_">
		<use xlink:href="#SVGID_61_"  overflow="visible"/>
	</clipPath>
</g>
<g>
	<path fill="#A09F9F" d="M184.6,28l0.6-0.9h0.5v3.9h-0.5v-3l-0.2,0.3L184.6,28z"/>
	<path fill="#A09F9F" d="M186,30.2L186,30.2l0.5-0.1v0.1c0,0,0,0.1,0,0.1c0,0,0,0.1,0.1,0.1c0,0,0.1,0.1,0.1,0.1c0,0,0.1,0,0.2,0
		c0.1,0,0.1,0,0.2-0.1c0,0,0.1-0.1,0.1-0.2s0-0.1,0.1-0.2c0-0.1,0-0.1,0-0.2v-0.4c0-0.1,0-0.2,0-0.3c0-0.1,0-0.1-0.1-0.2
		c0,0,0-0.1-0.1-0.1c0,0-0.1,0-0.2,0s-0.1,0-0.2,0s-0.1,0-0.1,0.1c-0.1,0.1-0.1,0.2-0.1,0.4v0.2v0H186v0v-0.2v-2.4h0.5h1.2v0.5h-1.2
		v0.9c0.1,0,0.2-0.1,0.3-0.1c0.2,0,0.3,0,0.4,0.1c0.1,0.1,0.2,0.1,0.2,0.2c0.1,0.2,0.2,0.4,0.2,0.8V30c0,0.3-0.1,0.5-0.2,0.7
		c-0.1,0.1-0.2,0.2-0.3,0.3c-0.1,0.1-0.2,0.1-0.4,0.1c-0.1,0-0.2,0-0.3-0.1s-0.2-0.1-0.3-0.2c-0.1-0.1-0.1-0.2-0.2-0.3
		C186.1,30.4,186,30.3,186,30.2z"/>
</g>
<g>
	<path fill="#A09F9F" d="M185.5,38.7L185.5,38.7l0.5-0.1v0.1c0,0,0,0.1,0,0.1c0,0,0,0.1,0.1,0.1c0,0,0.1,0.1,0.1,0.1
		c0,0,0.1,0,0.2,0c0.1,0,0.1,0,0.2-0.1c0,0,0.1-0.1,0.1-0.2s0-0.1,0.1-0.2c0-0.1,0-0.1,0-0.2V38c0-0.1,0-0.2,0-0.3
		c0-0.1,0-0.1-0.1-0.2c0,0,0-0.1-0.1-0.1c0,0-0.1,0-0.2,0s-0.1,0-0.2,0s-0.1,0-0.1,0.1c-0.1,0.1-0.1,0.2-0.1,0.4v0.2v0h-0.5v0V38
		v-2.4h0.5h1.2v0.5H186V37c0.1,0,0.2-0.1,0.3-0.1c0.2,0,0.3,0,0.4,0.1c0.1,0.1,0.2,0.1,0.2,0.2c0.1,0.2,0.2,0.4,0.2,0.8v0.4
		c0,0.3-0.1,0.5-0.2,0.7c-0.1,0.1-0.2,0.2-0.3,0.3c-0.1,0.1-0.2,0.1-0.4,0.1c-0.1,0-0.2,0-0.3-0.1s-0.2-0.1-0.3-0.2
		c-0.1-0.1-0.1-0.2-0.2-0.3C185.5,38.9,185.5,38.8,185.5,38.7z"/>
</g>
<g>
	<defs>
		<rect id="SVGID_63_" x="-0.3" y="-0.3" width="432.3" height="144.1"/>
	</defs>
	<clipPath id="SVGID_64_">
		<use xlink:href="#SVGID_63_"  overflow="visible"/>
	</clipPath>
	<path clip-path="url(#SVGID_64_)" fill="#FFFFFF" d="M215.9,40.4c0,4.9-4,9-9,9c-4.9,0-9-4-9-9c0-4.9,4-9,9-9
		C211.9,31.4,215.9,35.5,215.9,40.4"/>
	<path clip-path="url(#SVGID_64_)" fill="#A09F9F" d="M208.3,40.4c0,0.8-0.6,1.4-1.4,1.4c-0.8,0-1.4-0.6-1.4-1.4
		c0-0.8,0.6-1.4,1.4-1.4C207.7,39,208.3,39.7,208.3,40.4"/>
</g>
<g>
	<path fill="#A09F9F" d="M201.2,45.8v-3h0.3l0.6,2.1l0.6-2.1h0.3v3h-0.4v-1.4l-0.4,1.4H202l-0.4-1.4v1.4H201.2z"/>
	<path fill="#A09F9F" d="M203.5,45.8v-3h0.4v3H203.5z"/>
	<path fill="#A09F9F" d="M204.3,45.8v-3h0.3l0.7,1.8v-1.8h0.4v3h-0.3l-0.7-1.8v1.8H204.3z"/>
	<path fill="#A09F9F" d="M206,44.9v-2.2h0.4v2.2c0,0.1,0,0.2,0,0.2s0,0.1,0.1,0.1c0,0,0.1,0,0.1,0s0.1,0,0.1,0s0.1,0,0.1,0
		c0,0,0.1,0,0.1,0c0,0,0.1-0.1,0.1-0.1s0-0.1,0-0.2v-2.2h0.4v2.2c0,0.3-0.1,0.4-0.2,0.6c0,0.1-0.1,0.1-0.2,0.2
		c-0.1,0-0.2,0.1-0.3,0.1s-0.2,0-0.3-0.1s-0.1-0.1-0.2-0.2C206,45.4,206,45.2,206,44.9z"/>
	<path fill="#A09F9F" d="M207.7,43.1v-0.4h1.7v0.4h-0.7v2.6h-0.4v-2.6H207.7z"/>
	<path fill="#A09F9F" d="M209.5,45.8v-3h1.3v0.4h-0.9V44h0.9v0.4h-0.9v0.9h0.9v0.4H209.5z"/>
	<path fill="#A09F9F" d="M211.1,44.9v-0.2h0.4v0.2c0,0.2,0,0.3,0.1,0.4c0,0,0,0,0.1,0.1c0,0,0.1,0,0.2,0c0.1,0,0.1,0,0.2,0
		c0,0,0.1-0.1,0.1-0.1c0,0,0-0.1,0-0.1c0-0.1,0-0.1,0-0.1c0-0.1,0-0.1,0-0.2s0-0.1-0.1-0.1c0,0-0.1-0.1-0.1-0.1c0,0-0.1,0-0.1-0.1
		l-0.1,0c0,0-0.1,0-0.2-0.1c-0.1,0-0.1-0.1-0.2-0.1c-0.2-0.2-0.2-0.4-0.2-0.6c0-0.1,0-0.2,0.1-0.4c0-0.1,0.1-0.2,0.1-0.3
		c0.1-0.1,0.1-0.1,0.2-0.2c0.1,0,0.2-0.1,0.3-0.1c0.1,0,0.3,0,0.4,0.1c0.1,0.1,0.2,0.1,0.2,0.2c0.1,0.2,0.2,0.4,0.2,0.6v0.2h-0.4
		v-0.2c0-0.1,0-0.2,0-0.3s-0.1-0.1-0.1-0.1c0,0-0.1,0-0.1-0.1c0,0-0.1,0-0.1,0c-0.1,0-0.1,0-0.2,0.1s-0.1,0.1-0.1,0.1
		c0,0.1,0,0.1,0,0.2c0,0.1,0,0.1,0,0.1c0,0.1,0,0.1,0,0.2s0,0.1,0.1,0.1c0,0,0.1,0.1,0.1,0.1c0,0,0.1,0,0.1,0.1l0.1,0
		c0,0,0.1,0,0.2,0.1c0.1,0,0.1,0.1,0.2,0.1c0.2,0.2,0.3,0.4,0.3,0.6c0,0.2-0.1,0.4-0.2,0.6c-0.1,0.2-0.3,0.3-0.6,0.3
		c-0.2,0-0.4-0.1-0.5-0.2C211.1,45.4,211.1,45.2,211.1,44.9z"/>
</g>
<g>
	<defs>
		<rect id="SVGID_65_" x="-0.3" y="-0.3" width="432.3" height="144.1"/>
	</defs>
	<clipPath id="SVGID_66_">
		<use xlink:href="#SVGID_65_"  overflow="visible"/>
	</clipPath>
	<rect x="206.6" y="34.5" clip-path="url(#SVGID_66_)" fill="#A09F9F" width="0.8" height="4.9"/>
	<polygon clip-path="url(#SVGID_66_)" fill="#A09F9F" points="205.5,35.8 206.9,33.3 208.3,35.8 	"/>
	<path clip-path="url(#SVGID_66_)" fill="#FFFFFF" d="M343.5,83.7l1.2-0.5c0,0,0.8,2.2,1,4c0.2,1.8,0.2,3,0.2,3s-1.2-3.5-1.6-4.6
		C343.9,84.3,343.5,83.7,343.5,83.7"/>
	<path clip-path="url(#SVGID_66_)" fill="#9B5A25" d="M347.8,87.7C347.8,87.7,347.8,87.6,347.8,87.7l-10.5-0.1
		c0.1,0.3,0.2,0.6,0.4,1c0,0,0,0,0,0c0.1,0.2,0.2,0.4,0.3,0.6c0,0,0,0,0,0c0.1,0.2,0.2,0.4,0.3,0.6c0.1,0.3,0.3,0.6,0.4,0.8
		c1.3,2.5,1.9,1.9,2.8,5.1c0.9,3.1,1.8,6.4,1.8,6.4s0,0,0,0c0,0,0,0,0,0c0,0,0,0,0,0c0,0,0,0,0,0c0,0,0,0,0,0c0,0,0,0,0,0
		c0,0,0,0,0,0c0,0,0,0,0,0c0,0,0,0,0,0c0,0,0,0,0,0c0,0,0,0,0,0c0,0,0,0,0,0c0,0,0,0,0,0c0,0,0,0,0,0c0,0,0,0,0.1,0c0,0,0,0,0,0
		c0,0,0.1,0,0.1,0c0,0,0,0,0,0c0,0,0,0,0.1,0c0,0,0,0,0,0c0,0,0,0,0.1,0c0,0,0,0,0,0c0,0,0.1,0,0.1,0c0,0,0,0,0,0c0,0,0.1,0,0.1,0
		c0,0,0,0,0,0c0,0,0.1,0,0.1,0c0,0,0,0,0.1,0c0,0,0.1,0,0.1,0c0,0,0,0,0.1,0c0,0,0.1,0,0.1,0c0,0,0,0,0,0c0,0,0,0,0,0
		c0.1,0,0.1,0,0.2,0c0,0,0,0,0.1,0c0.1,0,0.1,0,0.2,0c0,0,0,0,0,0c0.1,0,0.2,0,0.3,0c0,0,0,0,0.1,0c0.1,0,0.2,0,0.3,0c0,0,0,0,0,0
		c0.1,0,0.2,0,0.3-0.1c0,0,0.1,0,0.1,0c0.1,0,0.2-0.1,0.3-0.1c0,0,0,0,0,0c0.1,0,0.2-0.1,0.4-0.1c0,0,0.1,0,0.1,0
		c0.1,0,0.3-0.1,0.4-0.1c3.3-1,3.6-2.5,3.6-2.5s-1.3-3.1-2.5-6.1C347.5,90.4,348.3,90.5,347.8,87.7"/>
	<path clip-path="url(#SVGID_66_)" fill="#FFFFFF" d="M346.9,109.6c0,0,5.5,16.2,20.3,18.6l3.9,15.5h42l1.7-8.6l1.1-6.8
		c3.4,2.2,8,6.5,8.1,15.3h6.6c-0.1-2.2-1.1-17.4-13.4-23.9l0-0.3c-1-3.1-4.1-5.9-7.9-5.9h-1.8c-0.4-5.5-2-10.4-4.3-14.2l2.3-10.8
		c1.1-0.2,2-1.2,2-2.4c0-1.4-1.1-2.5-2.5-2.5c-1.4,0-2.5,1.1-2.5,2.5c0,0.7,0.3,1.2,0.7,1.7l-3.6,7.8c-2.2-1.9-5.4-2.8-7.5-2.8
		c-2.8,0-6.1,1.3-8.5,3.7l-3.8-8.5c0.4-0.4,0.7-1,0.7-1.7c0-1.4-1.1-2.5-2.5-2.5c-1.4,0-2.5,1.1-2.5,2.5c0,1.2,0.8,2.2,2,2.4
		l2.6,12.2c-1.8,3.5-3,7.8-3.4,12.5h-3c-4,0-7.3,2.6-8,5.9c-4-1-9.6-3.8-12.4-12.2l3.6-6.7l-3.1-8.7l-3.5,1.2l2.3,6.7l-3.4,6.1
		l-6.5-2.6l-2.3-6.7l-3.5,1.2l3,8.7L346.9,109.6z"/>
	<path clip-path="url(#SVGID_66_)" fill="#FFFFFF" d="M345.1,81.9c0.5,1.3,1.3,3.7,1.6,5.5c0,0.1,0.1,0.3,0.1,0.4
		c0.2,1,0.2,1.6,0.2,2.2c0,1,0,1.8,0.8,3.8c0.9,2.3,1.9,4.8,2.3,5.7c-0.3,0.3-0.9,1-2.8,1.5l0,0l0,0c-0.1,0-0.3,0.1-0.4,0.1l-0.1,0
		c-0.1,0-0.2,0.1-0.4,0.1c-0.1,0-0.2,0.1-0.3,0.1l-0.1,0c-0.1,0-0.2,0-0.3,0.1c-0.1,0-0.2,0-0.2,0l-0.1,0c-0.1,0-0.2,0-0.3,0
		c-0.1,0-0.1,0-0.2,0c-0.1,0-0.1,0-0.2,0h0l-0.1,0l-0.1,0l-0.1,0l-0.1,0l-0.1,0l-0.1,0l0,0.1c-0.3-0.9-1-3.5-1.7-6
		c-0.6-2.1-1.1-2.7-1.7-3.5c-0.3-0.4-0.7-0.9-1.2-1.8c-0.1-0.2-0.3-0.5-0.4-0.8c-0.1-0.2-0.2-0.4-0.3-0.6c-0.1-0.2-0.2-0.4-0.3-0.7
		c-0.2-0.4-0.3-0.9-0.5-1.3c-0.3-0.9-0.6-1.7-0.8-2.3L345.1,81.9 M345.7,80.6l-0.4,0.1l-8.8,3l-0.4,0.1c0,0,0.5,1.5,1.1,3.3
		c0,0,0,0,0,0c0.2,0.4,0.3,0.9,0.5,1.3c0,0,0,0,0,0c0.1,0.2,0.2,0.4,0.3,0.6c0,0,0,0,0,0c0.1,0.2,0.2,0.4,0.3,0.6
		c0.1,0.3,0.3,0.6,0.4,0.8c1.3,2.5,1.9,1.9,2.8,5.1c0.9,3.1,1.8,6.4,1.8,6.4s0,0,0,0c0,0,0,0,0,0c0,0,0,0,0,0c0,0,0,0,0,0
		c0,0,0,0,0,0c0,0,0,0,0,0c0,0,0,0,0,0c0,0,0,0,0,0c0,0,0,0,0,0c0,0,0,0,0,0c0,0,0,0,0,0c0,0,0,0,0,0c0,0,0,0,0,0c0,0,0,0,0,0
		c0,0,0,0,0.1,0c0,0,0,0,0,0c0,0,0.1,0,0.1,0c0,0,0,0,0,0c0,0,0,0,0.1,0c0,0,0,0,0,0c0,0,0,0,0.1,0c0,0,0,0,0,0c0,0,0.1,0,0.1,0
		c0,0,0,0,0,0c0,0,0.1,0,0.1,0c0,0,0,0,0,0c0,0,0.1,0,0.1,0c0,0,0,0,0.1,0c0,0,0.1,0,0.1,0c0,0,0,0,0.1,0c0,0,0.1,0,0.1,0
		c0,0,0,0,0,0c0,0,0,0,0,0c0.1,0,0.1,0,0.2,0c0,0,0,0,0.1,0c0.1,0,0.1,0,0.2,0c0,0,0,0,0,0c0.1,0,0.2,0,0.3,0c0,0,0,0,0.1,0
		c0.1,0,0.2,0,0.3,0c0,0,0,0,0,0c0.1,0,0.2,0,0.3-0.1c0,0,0.1,0,0.1,0c0.1,0,0.2-0.1,0.3-0.1c0,0,0,0,0,0c0.1,0,0.2-0.1,0.4-0.1
		c0,0,0.1,0,0.1,0c0.1,0,0.3-0.1,0.4-0.1c3.3-1,3.6-2.5,3.6-2.5s-1.3-3.1-2.5-6.1c-1.2-3-0.4-3-0.9-5.7c0-0.1-0.1-0.3-0.1-0.4
		c0,0,0,0,0,0C347.2,84.5,345.7,80.6,345.7,80.6"/>
</g>
<g>
	<path fill="#9B5A25" d="M21.2,85.6v-4.8h0.5l1,3.4l1-3.4h0.5v4.8h-0.6v-2.3l-0.7,2.3h-0.5l-0.7-2.3v2.3H21.2z"/>
	<path fill="#9B5A25" d="M24.7,85.6l1.1-4.8h0.5l1.1,4.8h-0.6l-0.3-1.3h-0.8l-0.3,1.3H24.7z M25.8,83.6h0.6l-0.3-1.2L25.8,83.6z"/>
	<path fill="#9B5A25" d="M27.6,85.6v-4.8h1c0.4,0,0.7,0.1,0.9,0.4c0.2,0.2,0.3,0.6,0.3,1c0,0.4-0.1,0.8-0.3,1c0,0,0,0,0,0s0,0,0,0
		c0.1,0.1,0.2,0.2,0.3,0.4c0.1,0.2,0.1,0.3,0.1,0.5v1.4h-0.6v-1.4c0-0.4-0.2-0.6-0.6-0.6h-0.3h-0.1v2.1H27.6z M28.2,82.9L28.2,82.9
		h0.4c0.2,0,0.3,0,0.3-0.1c0.1,0,0.1-0.1,0.1-0.1c0.1-0.1,0.1-0.3,0.1-0.6c0-0.2,0-0.3,0-0.4c0-0.1-0.1-0.2-0.1-0.2
		c-0.1-0.1-0.1-0.1-0.2-0.1c-0.1,0-0.2,0-0.3,0h-0.4V82.9z"/>
	<path fill="#9B5A25" d="M30.5,85.6v-4.8h0.6v4.8H30.5z"/>
	<path fill="#9B5A25" d="M31.6,84.2v-0.3h0.6v0.3c0,0.3,0.1,0.5,0.2,0.6c0,0,0.1,0.1,0.1,0.1s0.1,0,0.3,0c0.1,0,0.2,0,0.3-0.1
		c0.1-0.1,0.1-0.1,0.2-0.2c0-0.1,0.1-0.2,0.1-0.2c0-0.1,0-0.2,0-0.2c0-0.1,0-0.2-0.1-0.3s-0.1-0.1-0.1-0.2c-0.1-0.1-0.1-0.1-0.2-0.1
		s-0.1-0.1-0.2-0.1l-0.1-0.1c-0.1,0-0.2-0.1-0.3-0.1s-0.2-0.1-0.3-0.2c-0.3-0.3-0.4-0.6-0.4-1c0-0.2,0-0.4,0.1-0.6
		c0.1-0.2,0.1-0.3,0.2-0.4c0.1-0.1,0.2-0.2,0.4-0.3s0.3-0.1,0.5-0.1c0.2,0,0.4,0,0.6,0.1c0.1,0.1,0.2,0.2,0.3,0.3
		c0.2,0.2,0.3,0.6,0.3,1v0.3h-0.6v-0.3c0-0.2,0-0.3-0.1-0.4c0-0.1-0.1-0.2-0.1-0.2c-0.1,0-0.1-0.1-0.2-0.1s-0.1,0-0.2,0
		c-0.1,0-0.2,0-0.3,0.1c-0.1,0.1-0.1,0.1-0.2,0.2c0,0.1-0.1,0.2-0.1,0.3c0,0.1,0,0.2,0,0.2c0,0.1,0,0.2,0.1,0.3s0.1,0.2,0.1,0.2
		s0.1,0.1,0.2,0.2c0.1,0,0.1,0.1,0.2,0.1l0.1,0c0.1,0,0.1,0.1,0.3,0.1c0.1,0,0.2,0.1,0.3,0.2c0.3,0.3,0.4,0.6,0.4,1
		c0,0.4-0.1,0.7-0.3,0.9c-0.2,0.3-0.5,0.4-0.9,0.4c-0.4,0-0.7-0.1-0.9-0.4C31.7,85,31.6,84.6,31.6,84.2z"/>
	<path fill="#9B5A25" d="M36.3,84.2v-2.1c0-0.4,0.1-0.8,0.3-1c0,0,0.1-0.1,0.1-0.1c0.1,0,0.1-0.1,0.2-0.1c0.1,0,0.2-0.1,0.2-0.1
		s0.2,0,0.3,0c0.2,0,0.4,0,0.6,0.1c0.1,0.1,0.2,0.2,0.3,0.3c0.2,0.2,0.3,0.6,0.3,1v2.1c0,0.4-0.1,0.8-0.3,1
		c-0.1,0.1-0.2,0.2-0.3,0.3c-0.1,0.1-0.3,0.1-0.6,0.1c-0.2,0-0.4,0-0.6-0.1c-0.1-0.1-0.2-0.2-0.3-0.3C36.4,84.9,36.3,84.6,36.3,84.2
		z M36.9,84.2c0,0.2,0,0.3,0.1,0.4c0,0.1,0.1,0.2,0.1,0.2s0.1,0.1,0.2,0.1c0.1,0,0.1,0,0.2,0c0,0,0.1,0,0.2,0c0.1,0,0.1,0,0.2-0.1
		s0.1-0.1,0.1-0.2c0-0.1,0.1-0.2,0.1-0.4v-2.1c0-0.2,0-0.3-0.1-0.4c0-0.1-0.1-0.2-0.1-0.2c-0.1,0-0.1-0.1-0.2-0.1
		c-0.1,0-0.1,0-0.2,0c0,0-0.1,0-0.2,0c-0.1,0-0.1,0-0.2,0.1c-0.1,0-0.1,0.1-0.1,0.2c0,0.1-0.1,0.2-0.1,0.4V84.2z"/>
	<path fill="#9B5A25" d="M38.9,81.3v-0.6h2.7v0.6h-1.1v4.2H40v-4.2H38.9z"/>
	<path fill="#9B5A25" d="M41.9,81.3v-0.6h2.7v0.6h-1.1v4.2H43v-4.2H41.9z"/>
	<path fill="#9B5A25" d="M45,85.6v-4.8h2v0.6h-1.4v1.5H47v0.6h-1.4v1.5H47v0.6H45z"/>
	<path fill="#9B5A25" d="M47.4,85.6v-4.8h1c0.4,0,0.7,0.1,0.9,0.4c0.2,0.2,0.3,0.6,0.3,1c0,0.4-0.1,0.8-0.3,1c0,0,0,0,0,0s0,0,0,0
		c0.1,0.1,0.2,0.2,0.3,0.4c0.1,0.2,0.1,0.3,0.1,0.5v1.4H49v-1.4c0-0.4-0.2-0.6-0.6-0.6h-0.3H48v2.1H47.4z M48,82.9L48,82.9h0.4
		c0.2,0,0.3,0,0.3-0.1c0.1,0,0.1-0.1,0.1-0.1c0.1-0.1,0.1-0.3,0.1-0.6c0-0.2,0-0.3,0-0.4c0-0.1-0.1-0.2-0.1-0.2
		c-0.1-0.1-0.1-0.1-0.2-0.1c-0.1,0-0.2,0-0.3,0H48V82.9z"/>
	<path fill="#9B5A25" d="M4.4,89.2H5l0.7,3.1l0.7-3.1h0.5l0.7,3.1l0.7-3.1h0.6l-1.1,4.8H7.3L6.6,91L6,94.1H5.5L4.4,89.2z"/>
	<path fill="#9B5A25" d="M9.1,94.1v-4.8h0.6v2.1h0.9v-2.1h0.6v4.8h-0.6V92H9.7v2.1H9.1z"/>
	<path fill="#9B5A25" d="M12,94.1v-4.8h0.6v4.8H12z"/>
	<path fill="#9B5A25" d="M13.1,89.8v-0.6h2.7v0.6h-1.1v4.2h-0.6v-4.2H13.1z"/>
	<path fill="#9B5A25" d="M16.2,94.1v-4.8h2v0.6h-1.4v1.5h1.4V92h-1.4v1.5h1.4v0.6H16.2z"/>
	<path fill="#9B5A25" d="M20.6,89.2h0.6l0.7,3.1l0.7-3.1h0.5l0.7,3.1l0.7-3.1h0.6L24,94.1h-0.5L22.9,91l-0.7,3.1h-0.5L20.6,89.2z"/>
	<path fill="#9B5A25" d="M25.3,94.1v-4.8H26v2.1h0.9v-2.1h0.6v4.8h-0.6V92H26v2.1H25.3z"/>
	<path fill="#9B5A25" d="M28,94.1v-4.8h2v0.6h-1.4v1.5H30V92h-1.4v1.5H30v0.6H28z"/>
	<path fill="#9B5A25" d="M30.5,94.1l1.1-4.8h0.5l1.1,4.8h-0.6l-0.3-1.3h-0.8l-0.3,1.3H30.5z M31.6,92.1h0.6l-0.3-1.2L31.6,92.1z"/>
	<path fill="#9B5A25" d="M33.3,89.8v-0.6h2.7v0.6H35v4.2h-0.6v-4.2H33.3z"/>
	<path fill="#9B5A25" d="M38.4,94.1v-4.8h0.5l1,3.4l1-3.4h0.5v4.8h-0.6v-2.3l-0.7,2.3h-0.5L39,91.7v2.3H38.4z"/>
	<path fill="#9B5A25" d="M41.9,94.1l1.1-4.8h0.5l1.1,4.8H44l-0.3-1.3h-0.8l-0.3,1.3H41.9z M43,92.1h0.6l-0.3-1.2L43,92.1z"/>
	<path fill="#9B5A25" d="M44.8,94.1v-4.8h0.6v4.2h1.5v0.6H44.8z"/>
	<path fill="#9B5A25" d="M47.1,89.8v-0.6h2.7v0.6h-1.1v4.2h-0.6v-4.2H47.1z"/>
	<path fill="#9B5A25" d="M12.6,101.2v-2.1c0-0.4,0.1-0.8,0.3-1c0.1-0.1,0.2-0.2,0.3-0.3s0.3-0.1,0.6-0.1s0.4,0,0.6,0.1
		s0.2,0.2,0.3,0.3c0.2,0.2,0.3,0.6,0.3,1v0.3h-0.6v-0.3c0-0.2,0-0.3-0.1-0.4c0-0.1-0.1-0.2-0.1-0.2c-0.1,0-0.1-0.1-0.2-0.1
		c-0.1,0-0.1,0-0.2,0c0,0-0.1,0-0.2,0c-0.1,0-0.1,0-0.2,0.1s-0.1,0.1-0.1,0.2s-0.1,0.3-0.1,0.4v2.1c0,0.3,0.1,0.5,0.2,0.6
		c0,0,0.1,0.1,0.1,0.1s0.1,0.1,0.3,0.1s0.2,0,0.3-0.1s0.1-0.1,0.1-0.1c0.1-0.1,0.1-0.3,0.1-0.6v-0.3h0.6v0.3c0,0.4-0.1,0.8-0.3,1
		c-0.1,0.1-0.2,0.2-0.3,0.3c-0.1,0.1-0.3,0.1-0.6,0.1c-0.1,0-0.2,0-0.3,0s-0.2-0.1-0.2-0.1c-0.1,0-0.1-0.1-0.2-0.1s-0.1-0.1-0.1-0.1
		C12.7,102,12.6,101.6,12.6,101.2z"/>
	<path fill="#9B5A25" d="M15.2,102.6v-4.8h0.6v2.1h0.9v-2.1h0.6v4.8h-0.6v-2.1h-0.9v2.1H15.2z"/>
	<path fill="#9B5A25" d="M17.8,101.2v-2.1c0-0.4,0.1-0.8,0.3-1c0,0,0.1-0.1,0.1-0.1c0.1,0,0.1-0.1,0.2-0.1c0.1,0,0.2-0.1,0.2-0.1
		s0.2,0,0.3,0c0.2,0,0.4,0,0.6,0.1c0.1,0.1,0.2,0.2,0.3,0.3c0.2,0.2,0.3,0.6,0.3,1v2.1c0,0.4-0.1,0.8-0.3,1
		c-0.1,0.1-0.2,0.2-0.3,0.3c-0.1,0.1-0.3,0.1-0.6,0.1c-0.2,0-0.4,0-0.6-0.1c-0.1-0.1-0.2-0.2-0.3-0.3
		C17.9,102,17.8,101.6,17.8,101.2z M18.5,101.2c0,0.2,0,0.3,0.1,0.4c0,0.1,0.1,0.2,0.1,0.2s0.1,0.1,0.2,0.1c0.1,0,0.1,0,0.2,0
		c0,0,0.1,0,0.2,0c0.1,0,0.1,0,0.2-0.1s0.1-0.1,0.1-0.2c0-0.1,0.1-0.2,0.1-0.4v-2.1c0-0.2,0-0.3-0.1-0.4c0-0.1-0.1-0.2-0.1-0.2
		c-0.1,0-0.1-0.1-0.2-0.1c-0.1,0-0.1,0-0.2,0c0,0-0.1,0-0.2,0c-0.1,0-0.1,0-0.2,0.1c-0.1,0-0.1,0.1-0.1,0.2c0,0.1-0.1,0.2-0.1,0.4
		V101.2z"/>
	<path fill="#9B5A25" d="M20.5,101.2v-2.1c0-0.4,0.1-0.8,0.3-1c0.1-0.1,0.2-0.2,0.3-0.3s0.3-0.1,0.6-0.1s0.4,0,0.6,0.1
		s0.2,0.2,0.3,0.3c0.2,0.2,0.3,0.6,0.3,1v0.3h-0.6v-0.3c0-0.2,0-0.3-0.1-0.4c0-0.1-0.1-0.2-0.1-0.2c-0.1,0-0.1-0.1-0.2-0.1
		c-0.1,0-0.1,0-0.2,0c0,0-0.1,0-0.2,0c-0.1,0-0.1,0-0.2,0.1s-0.1,0.1-0.1,0.2s-0.1,0.3-0.1,0.4v2.1c0,0.3,0.1,0.5,0.2,0.6
		c0,0,0.1,0.1,0.1,0.1s0.1,0.1,0.3,0.1s0.2,0,0.3-0.1s0.1-0.1,0.1-0.1c0.1-0.1,0.1-0.3,0.1-0.6v-0.3h0.6v0.3c0,0.4-0.1,0.8-0.3,1
		c-0.1,0.1-0.2,0.2-0.3,0.3c-0.1,0.1-0.3,0.1-0.6,0.1c-0.1,0-0.2,0-0.3,0s-0.2-0.1-0.2-0.1c-0.1,0-0.1-0.1-0.2-0.1s-0.1-0.1-0.1-0.1
		C20.6,102,20.5,101.6,20.5,101.2z"/>
	<path fill="#9B5A25" d="M23,101.2v-2.1c0-0.4,0.1-0.8,0.3-1c0,0,0.1-0.1,0.1-0.1c0.1,0,0.1-0.1,0.2-0.1c0.1,0,0.2-0.1,0.2-0.1
		s0.2,0,0.3,0c0.2,0,0.4,0,0.6,0.1c0.1,0.1,0.2,0.2,0.3,0.3c0.2,0.2,0.3,0.6,0.3,1v2.1c0,0.4-0.1,0.8-0.3,1
		c-0.1,0.1-0.2,0.2-0.3,0.3c-0.1,0.1-0.3,0.1-0.6,0.1c-0.2,0-0.4,0-0.6-0.1c-0.1-0.1-0.2-0.2-0.3-0.3C23.1,102,23,101.6,23,101.2z
		 M23.7,101.2c0,0.2,0,0.3,0.1,0.4c0,0.1,0.1,0.2,0.1,0.2s0.1,0.1,0.2,0.1c0.1,0,0.1,0,0.2,0c0,0,0.1,0,0.2,0c0.1,0,0.1,0,0.2-0.1
		s0.1-0.1,0.1-0.2c0-0.1,0.1-0.2,0.1-0.4v-2.1c0-0.2,0-0.3-0.1-0.4c0-0.1-0.1-0.2-0.1-0.2c-0.1,0-0.1-0.1-0.2-0.1
		c-0.1,0-0.1,0-0.2,0c0,0-0.1,0-0.2,0c-0.1,0-0.1,0-0.2,0.1c-0.1,0-0.1,0.1-0.1,0.2c0,0.1-0.1,0.2-0.1,0.4V101.2z"/>
	<path fill="#9B5A25" d="M25.7,102.6v-4.8h0.6v4.2h1.5v0.6H25.7z"/>
	<path fill="#9B5A25" d="M28,102.6l1.1-4.8h0.5l1.1,4.8h-0.6l-0.3-1.3H29l-0.3,1.3H28z M29.1,100.6h0.6l-0.3-1.2L29.1,100.6z"/>
	<path fill="#9B5A25" d="M30.9,98.3v-0.6h2.7v0.6h-1.1v4.2H32v-4.2H30.9z"/>
	<path fill="#9B5A25" d="M33.9,102.6v-4.8h2v0.6h-1.4v1.5h1.4v0.6h-1.4v1.5h1.4v0.6H33.9z"/>
	<path fill="#9B5A25" d="M38.4,102.6v-4.8h0.5l1,3.4l1-3.4h0.5v4.8h-0.6v-2.3l-0.7,2.3h-0.5l-0.7-2.3v2.3H38.4z"/>
	<path fill="#9B5A25" d="M41.9,102.6l1.1-4.8h0.5l1.1,4.8H44l-0.3-1.3h-0.8l-0.3,1.3H41.9z M43,100.6h0.6l-0.3-1.2L43,100.6z"/>
	<path fill="#9B5A25" d="M44.8,102.6v-4.8h0.6v4.2h1.5v0.6H44.8z"/>
	<path fill="#9B5A25" d="M47.1,98.3v-0.6h2.7v0.6h-1.1v4.2h-0.6v-4.2H47.1z"/>
	<path fill="#9B5A25" d="M30.5,109.7v-2.1c0-0.4,0.1-0.8,0.3-1c0.1-0.1,0.2-0.2,0.3-0.3s0.3-0.1,0.6-0.1s0.4,0,0.6,0.1
		s0.2,0.2,0.3,0.3c0.2,0.2,0.3,0.6,0.3,1v0.3h-0.6v-0.3c0-0.2,0-0.3-0.1-0.4c0-0.1-0.1-0.2-0.1-0.2c-0.1,0-0.1-0.1-0.2-0.1
		c-0.1,0-0.1,0-0.2,0c0,0-0.1,0-0.2,0c-0.1,0-0.1,0-0.2,0.1s-0.1,0.1-0.1,0.2s-0.1,0.3-0.1,0.4v2.1c0,0.3,0.1,0.5,0.2,0.6
		c0,0,0.1,0.1,0.1,0.1s0.1,0.1,0.3,0.1s0.2,0,0.3-0.1s0.1-0.1,0.1-0.1c0.1-0.1,0.1-0.3,0.1-0.6v-0.3h0.6v0.3c0,0.4-0.1,0.8-0.3,1
		c-0.1,0.1-0.2,0.2-0.3,0.3c-0.1,0.1-0.3,0.1-0.6,0.1c-0.1,0-0.2,0-0.3,0s-0.2-0.1-0.2-0.1c-0.1,0-0.1-0.1-0.2-0.1s-0.1-0.1-0.1-0.1
		C30.6,110.5,30.5,110.1,30.5,109.7z"/>
	<path fill="#9B5A25" d="M33,111.1l1.1-4.8h0.5l1.1,4.8h-0.6l-0.3-1.3H34l-0.3,1.3H33z M34.1,109.1h0.6l-0.3-1.2L34.1,109.1z"/>
	<path fill="#9B5A25" d="M35.9,111.1v-4.8h1c0.4,0,0.7,0.1,0.9,0.4c0.2,0.2,0.3,0.6,0.3,1c0,0.4-0.1,0.8-0.3,1c0,0,0,0,0,0s0,0,0,0
		c0.1,0.1,0.2,0.2,0.3,0.4c0.1,0.2,0.1,0.3,0.1,0.5v1.4h-0.6v-1.4c0-0.4-0.2-0.6-0.6-0.6h-0.3h-0.1v2.1H35.9z M36.5,108.4
		L36.5,108.4h0.4c0.2,0,0.3,0,0.3-0.1c0.1,0,0.1-0.1,0.1-0.1c0.1-0.1,0.1-0.3,0.1-0.6c0-0.2,0-0.3,0-0.4c0-0.1-0.1-0.2-0.1-0.2
		c-0.1-0.1-0.1-0.1-0.2-0.1c-0.1,0-0.2,0-0.3,0h-0.4V108.4z"/>
	<path fill="#9B5A25" d="M38.6,111.1l1.1-4.8h0.5l1.1,4.8h-0.6l-0.3-1.3h-0.8l-0.3,1.3H38.6z M39.7,109.1h0.6l-0.3-1.2L39.7,109.1z"
		/>
	<path fill="#9B5A25" d="M43.5,107.3l0.8-1.1h0.6v4.8h-0.6v-3.7l-0.3,0.4L43.5,107.3z"/>
	<path fill="#9B5A25" d="M45.3,111.1v-0.3c0-0.2,0-0.4,0.1-0.5c0-0.2,0.1-0.3,0.2-0.5c0.1-0.2,0.2-0.3,0.2-0.5l0.3-0.5l0.3-0.4
		l0.2-0.2c0.1-0.1,0.1-0.1,0.1-0.2c0-0.1,0.1-0.1,0.1-0.2c0-0.1,0-0.2,0-0.3c0,0,0-0.1,0-0.2c0-0.1,0-0.1-0.1-0.2s-0.1-0.1-0.1-0.2
		c-0.1-0.1-0.1-0.1-0.2-0.1c0,0-0.1,0-0.1,0c0,0-0.1,0-0.1,0.1c0,0-0.1,0.1-0.1,0.2s0,0.2,0,0.4v0.3h-0.6v-0.3
		c0-0.4,0.1-0.7,0.2-0.9c0.1-0.1,0.2-0.2,0.3-0.2s0.3-0.1,0.5-0.1c0.1,0,0.3,0,0.4,0.1c0.1,0.1,0.2,0.1,0.3,0.2
		c0.1,0.1,0.2,0.2,0.2,0.4c0.1,0.2,0.1,0.3,0.1,0.5h0v0.1h0c0,0.2,0,0.3-0.1,0.4c0,0.1-0.1,0.2-0.1,0.3c0,0.1-0.1,0.2-0.2,0.3
		l-0.2,0.3l-0.1,0.2c0,0.1-0.1,0.1-0.1,0.2l-0.2,0.4c-0.1,0.1-0.1,0.2-0.2,0.3s-0.1,0.2-0.1,0.3s-0.1,0.2-0.1,0.3h0.4h0.7h0.3v0.6
		h-0.3h-0.7H45.3z"/>
	<path fill="#9B5A25" d="M47.7,109.7v-2.1c0-0.4,0.1-0.7,0.2-1c0.2-0.3,0.4-0.4,0.8-0.4s0.6,0.1,0.8,0.4c0.2,0.2,0.2,0.6,0.2,1v2.1
		c0,0.4-0.1,0.7-0.2,1c-0.2,0.3-0.4,0.4-0.8,0.4s-0.6-0.1-0.8-0.4C47.8,110.4,47.7,110.1,47.7,109.7z M48.3,109.7c0,0.2,0,0.3,0,0.5
		s0.1,0.2,0.1,0.2s0.1,0.1,0.1,0.1s0.1,0,0.1,0s0.1,0,0.1,0s0.1,0,0.1-0.1s0.1-0.1,0.1-0.2c0-0.1,0-0.3,0-0.5v-2.1
		c0-0.2,0-0.3,0-0.4c0-0.1-0.1-0.2-0.1-0.2s-0.1-0.1-0.1-0.1c0,0-0.1,0-0.1,0s-0.1,0-0.1,0c0,0-0.1,0-0.1,0.1s-0.1,0.1-0.1,0.2
		s0,0.3,0,0.4V109.7z"/>
</g>
<g>
	<rect x="267.5" y="26.2" fill="#FFFFFF" width="10.5" height="1.2"/>
</g>
<path fill="#FFFFFF" d="M54.7,86.4c-1.7,0-3-1.3-3-3c0-1.7,1.3-3,3-3c1.7,0,3,1.3,3,3C57.7,85,56.3,86.4,54.7,86.4 M54.7,81.6
	c-1,0-1.8,0.8-1.8,1.8c0,1,0.8,1.8,1.8,1.8c1,0,1.8-0.8,1.8-1.8C56.4,82.4,55.6,81.6,54.7,81.6"/>
<path fill="#FFFFFF" d="M54.7,95c-1.7,0-3-1.3-3-3c0-1.7,1.3-3,3-3c1.7,0,3,1.3,3,3C57.7,93.7,56.3,95,54.7,95 M54.7,90.2
	c-1,0-1.8,0.8-1.8,1.8c0,1,0.8,1.8,1.8,1.8c1,0,1.8-0.8,1.8-1.8C56.4,91,55.6,90.2,54.7,90.2"/>
<path fill="#FFFFFF" d="M54.7,103.4c-1.7,0-3-1.3-3-3c0-1.7,1.3-3,3-3c1.7,0,3,1.3,3,3C57.7,102,56.3,103.4,54.7,103.4 M54.7,98.6
	c-1,0-1.8,0.8-1.8,1.8c0,1,0.8,1.8,1.8,1.8c1,0,1.8-0.8,1.8-1.8C56.4,99.4,55.6,98.6,54.7,98.6"/>
<path fill="#FFFFFF" d="M54.7,112c-1.7,0-3-1.3-3-3c0-1.7,1.3-3,3-3c1.7,0,3,1.3,3,3C57.7,110.7,56.3,112,54.7,112 M54.7,107.3
	c-1,0-1.8,0.8-1.8,1.8c0,1,0.8,1.8,1.8,1.8c1,0,1.8-0.8,1.8-1.8C56.4,108.1,55.6,107.3,54.7,107.3"/>
<rect x="54.1" y="85.6" fill="#FFFFFF" width="1.2" height="4.2"/>
<rect x="54.1" y="94" fill="#FFFFFF" width="1.2" height="4.1"/>
<rect x="54.1" y="102.6" fill="#FFFFFF" width="1.2" height="4.2"/>
<g>
	<g>
		<path fill="#FFFFFF" d="M70.3,123.2v-0.3h0.6v0.3c0,0.3,0,0.4,0.1,0.6c0,0,0.1,0.1,0.1,0.1s0.1,0,0.2,0c0.1,0,0.2,0,0.3-0.1
			s0.1-0.1,0.1-0.2s0.1-0.1,0.1-0.2s0-0.1,0-0.2c0-0.1,0-0.2,0-0.3s-0.1-0.1-0.1-0.2s-0.1-0.1-0.2-0.1s-0.1-0.1-0.2-0.1l-0.1,0
			c-0.1,0-0.1-0.1-0.2-0.1s-0.2-0.1-0.3-0.2c-0.2-0.2-0.4-0.5-0.4-0.9c0-0.2,0-0.4,0.1-0.5s0.1-0.3,0.2-0.4c0.1-0.1,0.2-0.2,0.3-0.3
			s0.3-0.1,0.4-0.1c0.2,0,0.4,0,0.5,0.1s0.2,0.2,0.3,0.2c0.2,0.2,0.3,0.5,0.3,0.9v0.3h-0.6v-0.3c0-0.2,0-0.3,0-0.4s-0.1-0.2-0.1-0.2
			s-0.1-0.1-0.2-0.1s-0.1,0-0.1,0c-0.1,0-0.2,0-0.3,0.1s-0.1,0.1-0.1,0.2s-0.1,0.2-0.1,0.2s0,0.1,0,0.2c0,0.1,0,0.2,0,0.3
			s0.1,0.1,0.1,0.2s0.1,0.1,0.2,0.1s0.1,0.1,0.2,0.1l0.1,0c0.1,0,0.1,0.1,0.2,0.1s0.2,0.1,0.3,0.2c0.2,0.2,0.4,0.5,0.4,0.9
			c0,0.3-0.1,0.6-0.3,0.8c-0.2,0.3-0.5,0.4-0.8,0.4c-0.4,0-0.6-0.1-0.8-0.3C70.4,123.9,70.3,123.6,70.3,123.2z"/>
		<path fill="#FFFFFF" d="M72.7,120.6v-0.6h2.5v0.6h-1v3.9h-0.6v-3.9H72.7z"/>
		<path fill="#FFFFFF" d="M75.4,124.5v-4.4h1.8v0.6H76v1.4h1.3v0.6H76v1.4h1.3v0.6H75.4z"/>
		<path fill="#FFFFFF" d="M77.7,124.5l1-4.4h0.4l1,4.4h-0.6l-0.3-1.2h-0.8l-0.3,1.2H77.7z M78.7,122.7h0.5l-0.3-1.1L78.7,122.7z"/>
		<path fill="#FFFFFF" d="M80.3,124.5v-4.4h0.5l0.9,3.1l0.9-3.1h0.5v4.4h-0.6v-2.1l-0.6,2.1h-0.4l-0.6-2.1v2.1H80.3z"/>
		<path fill="#FFFFFF" d="M85.4,123.2v-1.9c0-0.4,0.1-0.7,0.3-0.9c0.1-0.1,0.2-0.2,0.3-0.2s0.3-0.1,0.5-0.1c0.2,0,0.4,0,0.5,0.1
			s0.2,0.2,0.3,0.2c0.2,0.2,0.3,0.5,0.3,0.9v0.3h-0.6v-0.3c0-0.2,0-0.3-0.1-0.4s-0.1-0.2-0.1-0.2c0,0-0.1-0.1-0.2-0.1s-0.1,0-0.1,0
			c0,0-0.1,0-0.1,0s-0.1,0-0.2,0.1s-0.1,0.1-0.1,0.2s0,0.2,0,0.4v1.9c0,0.3,0,0.4,0.1,0.6c0,0,0.1,0.1,0.1,0.1s0.1,0,0.2,0
			c0.1,0,0.2,0,0.2,0s0.1-0.1,0.1-0.1c0.1-0.1,0.1-0.3,0.1-0.6v-0.3h0.6v0.3c0,0.4-0.1,0.7-0.3,0.9c-0.1,0.1-0.2,0.2-0.3,0.2
			s-0.3,0.1-0.5,0.1c-0.1,0-0.2,0-0.3,0c-0.1,0-0.2,0-0.2-0.1s-0.1-0.1-0.2-0.1c0,0-0.1-0.1-0.1-0.1
			C85.5,123.9,85.4,123.6,85.4,123.2z"/>
		<path fill="#FFFFFF" d="M87.7,123.2v-1.9c0-0.4,0.1-0.7,0.3-0.9c0,0,0.1-0.1,0.1-0.1c0,0,0.1-0.1,0.2-0.1s0.1-0.1,0.2-0.1
			s0.2,0,0.3,0c0.2,0,0.4,0,0.5,0.1s0.2,0.2,0.3,0.2c0.2,0.2,0.3,0.5,0.3,0.9v1.9c0,0.4-0.1,0.7-0.3,0.9c-0.1,0.1-0.2,0.2-0.3,0.2
			s-0.3,0.1-0.5,0.1c-0.2,0-0.4,0-0.5-0.1s-0.2-0.2-0.3-0.2C87.8,123.9,87.7,123.6,87.7,123.2z M88.3,123.2c0,0.2,0,0.3,0,0.4
			s0.1,0.2,0.1,0.2s0.1,0.1,0.2,0.1s0.1,0,0.1,0c0,0,0.1,0,0.1,0s0.1,0,0.2-0.1s0.1-0.1,0.1-0.2s0.1-0.2,0.1-0.4v-1.9
			c0-0.2,0-0.3-0.1-0.4s-0.1-0.2-0.1-0.2s-0.1-0.1-0.2-0.1s-0.1,0-0.1,0c0,0-0.1,0-0.1,0s-0.1,0-0.2,0.1s-0.1,0.1-0.1,0.2
			s0,0.2,0,0.4V123.2z"/>
		<path fill="#FFFFFF" d="M90.1,124.5v-4.4h0.5l1.1,2.7v-2.7h0.6v4.4h-0.5l-1.1-2.7v2.7H90.1z"/>
		<path fill="#FFFFFF" d="M92.7,120.6v-0.6h2.5v0.6h-1v3.9h-0.6v-3.9H92.7z"/>
		<path fill="#FFFFFF" d="M95.4,124.5v-4.4h0.9c0.4,0,0.7,0.1,0.9,0.3c0.2,0.2,0.3,0.5,0.3,0.9c0,0.4-0.1,0.7-0.3,0.9c0,0,0,0,0,0
			s0,0,0,0c0.1,0.1,0.2,0.2,0.2,0.4c0.1,0.1,0.1,0.3,0.1,0.5v1.3h-0.6v-1.3c0-0.4-0.2-0.6-0.6-0.6h-0.3H96v1.9H95.4z M96,122L96,122
			h0.4c0.2,0,0.3,0,0.3-0.1c0.1,0,0.1-0.1,0.1-0.1c0.1-0.1,0.1-0.3,0.1-0.6c0-0.1,0-0.3,0-0.4s-0.1-0.2-0.1-0.2s-0.1-0.1-0.2-0.1
			s-0.2,0-0.2,0H96V122z"/>
		<path fill="#FFFFFF" d="M97.9,123.2v-1.9c0-0.4,0.1-0.7,0.3-0.9c0,0,0.1-0.1,0.1-0.1c0,0,0.1-0.1,0.2-0.1s0.1-0.1,0.2-0.1
			s0.2,0,0.3,0c0.2,0,0.4,0,0.5,0.1s0.2,0.2,0.3,0.2c0.2,0.2,0.3,0.5,0.3,0.9v1.9c0,0.4-0.1,0.7-0.3,0.9c-0.1,0.1-0.2,0.2-0.3,0.2
			s-0.3,0.1-0.5,0.1c-0.2,0-0.4,0-0.5-0.1s-0.2-0.2-0.3-0.2C98,123.9,97.9,123.6,97.9,123.2z M98.5,123.2c0,0.2,0,0.3,0,0.4
			s0.1,0.2,0.1,0.2s0.1,0.1,0.2,0.1s0.1,0,0.1,0c0,0,0.1,0,0.1,0s0.1,0,0.2-0.1s0.1-0.1,0.1-0.2s0.1-0.2,0.1-0.4v-1.9
			c0-0.2,0-0.3-0.1-0.4s-0.1-0.2-0.1-0.2s-0.1-0.1-0.2-0.1s-0.1,0-0.1,0c0,0-0.1,0-0.1,0s-0.1,0-0.2,0.1s-0.1,0.1-0.1,0.2
			s0,0.2,0,0.4V123.2z"/>
		<path fill="#FFFFFF" d="M100.4,124.5v-4.4h0.6v3.9h1.4v0.6H100.4z"/>
	</g>
	<g>
		<polygon fill="#FFFFFF" points="128.4,111.4 120.5,111.4 120.5,88.6 108.4,88.6 108.4,87.3 121.7,87.3 121.7,110.1 127.9,110.1 
			134.6,103.4 134.6,56.8 142.4,48.9 176.4,48.9 176.4,50.2 142.9,50.2 135.8,57.3 135.8,103.9 		"/>
	</g>
	<path fill="#FFFFFF" d="M143.7,125.8c-1.7,0-3-1.3-3-3c0-1.7,1.3-3,3-3c1.7,0,3,1.3,3,3C146.7,124.5,145.3,125.8,143.7,125.8
		 M143.7,121c-1,0-1.8,0.8-1.8,1.8c0,1,0.8,1.8,1.8,1.8c1,0,1.8-0.8,1.8-1.8C145.5,121.8,144.7,121,143.7,121"/>
	<path fill="#FFFFFF" d="M130,125.8c-1.7,0-3-1.3-3-3c0-1.7,1.3-3,3-3c1.7,0,3,1.3,3,3C133,124.5,131.7,125.8,130,125.8 M130,121
		c-1,0-1.8,0.8-1.8,1.8c0,1,0.8,1.8,1.8,1.8c1,0,1.8-0.8,1.8-1.8C131.8,121.8,131,121,130,121"/>
	<rect x="162.2" y="116.5" fill="#FFFFFF" width="0.8" height="4.9"/>
	<polygon fill="#FFFFFF" points="164.8,116.5 162.6,112.7 160.4,116.5 	"/>
	<rect x="169" y="116.5" fill="#FFFFFF" width="0.8" height="4.9"/>
	<polygon fill="#FFFFFF" points="171.6,116.5 169.4,112.7 167.2,116.5 	"/>
	<rect x="175.8" y="116.5" fill="#FFFFFF" width="0.8" height="4.9"/>
	<polygon fill="#FFFFFF" points="178.4,116.5 176.2,112.7 174.1,116.5 	"/>
	<rect x="182.7" y="116.5" fill="#FFFFFF" width="0.8" height="4.9"/>
	<polygon fill="#FFFFFF" points="185.2,116.5 183.1,112.7 180.9,116.5 	"/>
	<rect x="189.5" y="116.5" fill="#FFFFFF" width="0.8" height="4.9"/>
	<polygon fill="#FFFFFF" points="192.1,116.5 189.9,112.7 187.7,116.5 	"/>
	<rect x="196.3" y="116.5" fill="#FFFFFF" width="0.8" height="4.9"/>
	<polygon fill="#FFFFFF" points="198.9,116.5 196.7,112.7 194.5,116.5 	"/>
	<rect x="203.1" y="116.5" fill="#FFFFFF" width="0.8" height="4.9"/>
	<polygon fill="#FFFFFF" points="205.7,116.5 203.5,112.7 201.4,116.5 	"/>
	<path fill="#FFFFFF" d="M110.3,125.8c-1.7,0-3-1.3-3-3c0-1.7,1.3-3,3-3c1.7,0,3,1.3,3,3C113.3,124.5,111.9,125.8,110.3,125.8
		 M110.3,121c-1,0-1.8,0.8-1.8,1.8c0,1,0.8,1.8,1.8,1.8c1,0,1.8-0.8,1.8-1.8C112,121.8,111.3,121,110.3,121"/>
	<path fill="#FFFFFF" d="M131.7,121.3c-0.2,0-0.3-0.1-0.4-0.2c-0.2-0.2-0.2-0.6,0-0.9l8.6-8.6c0.2-0.2,0.6-0.2,0.9,0
		c0.2,0.2,0.2,0.6,0,0.9l-8.6,8.6C132.1,121.2,131.9,121.3,131.7,121.3"/>
	<path fill="#FFFFFF" d="M124.8,70.7c0,6.4-5.2,11.6-11.6,11.6c-6.4,0-11.6-5.2-11.6-11.6c0-6.4,5.2-11.6,11.6-11.6
		C119.7,59.1,124.8,64.3,124.8,70.7"/>
	<g>
		<g>
			<g>
				<path fill="#A09F9F" d="M109.5,67.3l0.7-1h0.5v4.4h-0.6v-3.4l-0.3,0.3L109.5,67.3z"/>
				<path fill="#A09F9F" d="M111.2,69.8L111.2,69.8l0.6-0.1v0.1c0,0,0,0.1,0,0.1s0,0.1,0.1,0.1s0.1,0.1,0.1,0.1s0.1,0,0.2,0
					s0.1,0,0.2-0.1s0.1-0.1,0.1-0.2s0-0.1,0.1-0.2s0-0.1,0-0.2V69c0-0.2,0-0.3,0-0.4s0-0.1-0.1-0.2c0,0,0-0.1-0.1-0.1s-0.1,0-0.2,0
					s-0.1,0-0.2,0s-0.1,0.1-0.1,0.1c-0.1,0.1-0.1,0.2-0.1,0.4v0.2v0h-0.6v0v-0.2v-2.7h0.6h1.3v0.6h-1.3v1c0.1,0,0.2-0.1,0.4-0.1
					c0.2,0,0.4,0,0.5,0.1s0.2,0.2,0.3,0.2c0.1,0.2,0.2,0.5,0.2,0.9v0.4c0,0.3-0.1,0.6-0.2,0.8c-0.1,0.1-0.2,0.2-0.3,0.3
					s-0.3,0.1-0.4,0.1c-0.1,0-0.3,0-0.4-0.1s-0.2-0.1-0.3-0.2c-0.1-0.1-0.1-0.2-0.2-0.3S111.2,69.9,111.2,69.8z"/>
				<path fill="#A09F9F" d="M113.4,69.6V69v0v-1.2c0-0.4,0.1-0.8,0.2-1c0.1-0.2,0.2-0.3,0.3-0.4s0.3-0.1,0.4-0.1
					c0.2,0,0.3,0,0.4,0.1s0.2,0.1,0.3,0.3c0.1,0.2,0.2,0.5,0.2,0.8v0.2h-0.6v-0.2c0-0.2,0-0.3-0.1-0.4c0,0,0,0-0.1-0.1
					c0,0-0.1,0-0.2,0c-0.1,0-0.1,0-0.2,0.1s-0.1,0.2-0.1,0.3c0,0.1,0,0.2,0,0.3s0,0.2,0,0.3v0c0.1-0.1,0.2-0.1,0.4-0.1
					c0.3,0,0.6,0.1,0.7,0.4c0.1,0.2,0.2,0.5,0.2,0.9v0.4c0,0.2,0,0.4-0.1,0.5c0,0.2-0.1,0.3-0.2,0.4s-0.2,0.2-0.3,0.3
					c-0.1,0.1-0.2,0.1-0.4,0.1c-0.3,0-0.5-0.1-0.7-0.3C113.5,70.2,113.4,69.9,113.4,69.6z M114,69.6c0,0.2,0,0.3,0.1,0.5
					c0,0,0,0,0.1,0.1s0.1,0,0.2,0c0.1,0,0.1,0,0.2-0.1s0.1-0.1,0.1-0.2s0-0.1,0.1-0.2s0-0.2,0-0.2V69c0-0.2,0-0.3,0-0.4
					c0-0.1-0.1-0.2-0.1-0.2s-0.1-0.1-0.1-0.1c0,0-0.1,0-0.1,0c-0.1,0-0.2,0-0.2,0.1s-0.1,0.1-0.1,0.2c0,0.1,0,0.2,0,0.2s0,0.1,0,0.1
					V69.6z"/>
			</g>
			<g>
				<path fill="#A09F9F" d="M116,68.3v-1c0-0.2,0-0.4,0.1-0.5c0,0,0,0,0.1-0.1c0,0,0.1,0,0.1-0.1c0,0,0.1,0,0.1,0s0.1,0,0.1,0
					c0.1,0,0.2,0,0.3,0.1c0.1,0,0.1,0.1,0.1,0.1c0.1,0.1,0.1,0.3,0.1,0.5v1c0,0.2,0,0.4-0.1,0.5c0,0-0.1,0.1-0.1,0.1
					c-0.1,0-0.2,0.1-0.3,0.1c-0.1,0-0.2,0-0.3-0.1c-0.1,0-0.1-0.1-0.1-0.1C116.1,68.6,116,68.5,116,68.3z M116.3,68.3
					c0,0.1,0,0.2,0,0.2c0,0,0,0.1,0.1,0.1s0.1,0,0.1,0c0,0,0.1,0,0.1,0c0,0,0,0,0.1,0c0,0,0.1,0,0.1,0s0-0.1,0.1-0.1
					c0,0,0-0.1,0-0.2v-1c0-0.1,0-0.2,0-0.2c0,0,0-0.1-0.1-0.1s-0.1,0-0.1,0c0,0-0.1,0-0.1,0c0,0,0,0-0.1,0s-0.1,0-0.1,0
					s0,0.1-0.1,0.1s0,0.1,0,0.2V68.3z"/>
			</g>
		</g>
	</g>
	<g>
		<g>
			<path fill="#A09F9F" d="M108.7,73.9v-0.4v0v-0.8c0-0.3,0-0.5,0.1-0.7c0.1-0.1,0.1-0.2,0.2-0.2c0.1-0.1,0.2-0.1,0.3-0.1
				c0.1,0,0.2,0,0.3,0.1s0.2,0.1,0.2,0.2c0.1,0.1,0.2,0.3,0.2,0.5v0.1h-0.4v-0.1c0-0.1,0-0.2-0.1-0.3c0,0,0,0-0.1-0.1
				c0,0-0.1,0-0.1,0c-0.1,0-0.1,0-0.1,0.1c0,0-0.1,0.1-0.1,0.2c0,0.1,0,0.1,0,0.2c0,0.1,0,0.1,0,0.2v0c0.1,0,0.2-0.1,0.3-0.1
				c0.2,0,0.4,0.1,0.5,0.2c0.1,0.1,0.1,0.3,0.1,0.6v0.3c0,0.1,0,0.2,0,0.4c0,0.1-0.1,0.2-0.1,0.3c-0.1,0.1-0.1,0.1-0.2,0.2
				c-0.1,0-0.2,0.1-0.3,0.1c-0.2,0-0.4-0.1-0.5-0.2C108.8,74.3,108.7,74.1,108.7,73.9z M109.1,73.9c0,0.1,0,0.2,0.1,0.3
				c0,0,0,0,0.1,0.1s0.1,0,0.1,0c0,0,0.1,0,0.1,0c0,0,0.1-0.1,0.1-0.1c0,0,0-0.1,0-0.2c0-0.1,0-0.1,0-0.2v-0.3c0-0.1,0-0.2,0-0.3
				c0-0.1,0-0.1-0.1-0.1c0,0-0.1,0-0.1-0.1c0,0-0.1,0-0.1,0c-0.1,0-0.1,0-0.1,0.1s-0.1,0.1-0.1,0.1s0,0.1,0,0.2c0,0,0,0.1,0,0.1
				V73.9z"/>
			<path fill="#A09F9F" d="M110.2,73.8v-1.3c0-0.3,0-0.5,0.1-0.6c0.1-0.2,0.3-0.3,0.5-0.3c0.2,0,0.4,0.1,0.5,0.3
				c0.1,0.1,0.1,0.3,0.1,0.6v1.3c0,0.3,0,0.5-0.1,0.6c-0.1,0.2-0.3,0.3-0.5,0.3c-0.2,0-0.4-0.1-0.5-0.3
				C110.3,74.3,110.2,74.1,110.2,73.8z M110.6,73.8c0,0.1,0,0.2,0,0.3s0,0.1,0.1,0.1c0,0,0.1,0,0.1,0.1c0,0,0.1,0,0.1,0s0,0,0.1,0
				c0,0,0.1,0,0.1-0.1c0,0,0.1-0.1,0.1-0.1s0-0.2,0-0.3v-1.3c0-0.1,0-0.2,0-0.3c0-0.1,0-0.1-0.1-0.1s-0.1,0-0.1-0.1c0,0-0.1,0-0.1,0
				s0,0-0.1,0c0,0-0.1,0-0.1,0.1s-0.1,0.1-0.1,0.1c0,0.1,0,0.2,0,0.3V73.8z"/>
			<path fill="#A09F9F" d="M113,74.7v-3h0.3l0.6,2.1l0.6-2.1h0.3v3h-0.4v-1.4l-0.4,1.4h-0.3l-0.4-1.4v1.4H113z"/>
			<path fill="#A09F9F" d="M115.4,74.7v-3h0.4v3H115.4z"/>
			<path fill="#A09F9F" d="M116.1,74.7v-3h0.3l0.7,1.8v-1.8h0.4v3h-0.3l-0.7-1.8v1.8H116.1z"/>
		</g>
	</g>
	<g>
		<rect x="113.3" y="122.2" fill="#FFFFFF" width="14.3" height="1.2"/>
	</g>
	<g>
		<rect x="146.7" y="122.2" fill="#FFFFFF" width="11.2" height="1.2"/>
	</g>
	<g>
		<g>
			<path fill="#A09F9F" d="M119.9,66.5c-2.3-3.7-7.2-4.8-10.9-2.5l-0.7-1.1c4.3-2.7,9.9-1.4,12.6,2.9L119.9,66.5z"/>
		</g>
		<g>
			<path fill="#A09F9F" d="M113.3,79.9c-0.7,0-1.4-0.1-2-0.2c-2.4-0.5-4.4-2-5.7-4c-1.9-3.1-1.9-7,0.2-10l1,0.7
				c-1.8,2.6-1.8,6-0.1,8.6c1.1,1.8,2.9,3,4.9,3.5c2.1,0.5,4.2,0.1,6-1l0.7,1.1C116.7,79.4,115,79.9,113.3,79.9z"/>
		</g>
		<g>
			<path fill="#A09F9F" d="M120.6,76.2l-1-0.7c1.9-2.6,2.1-6.2,0.3-8.9l1.1-0.7C123,69,122.8,73.2,120.6,76.2z"/>
		</g>
		<polygon fill="#A09F9F" points="111,64.3 107.4,64.4 109,61.2 		"/>
		<polygon fill="#A09F9F" points="115.4,77.3 119.1,77.2 117.4,80.3 		"/>
	</g>
	<path fill="#FFFFFF" d="M208,120.7h-49.8c-1.3,0-2.3,1-2.3,2.3c0,1.3,1,2.3,2.3,2.3H208c1.3,0,2.3-1,2.3-2.3
		C210.3,121.7,209.3,120.7,208,120.7"/>
</g>
<path fill="#FFFFFF" d="M282.6,10.7"/>
<g>
	<rect x="280.4" y="21.6" fill="#FFFFFF" width="1.2" height="3"/>
</g>
<g>
	<rect x="280.4" y="13.9" fill="#FFFFFF" width="1.2" height="3"/>
</g>
</svg>
